<svg width="197" height="202" viewBox="0 0 197 202" fill="none" xmlns="http://www.w3.org/2000/svg"><path d="M15.605 13.305h-1V162.12a.3.3 0 01-.3.301H1.3a.3.3 0 01-.3-.301V1.3a.3.3 0 01.3-.3h175.992a.3.3 0 01.3.3v11.704a.3.3 0 01-.3.3H15.605z" stroke="#fff" stroke-width="2"/><path d="M195.498 186.112H14.305a.15.15 0 01-.15-.151V13.004a.15.15 0 01.15-.15h181.193a.15.15 0 01.15.15v172.957a.15.15 0 01-.15.151z" stroke="#fff" stroke-width="2.3"/><path d="M136.545 193.631H12.571a.3.3 0 010-.601h123.974a.3.3 0 110 .601zM170.79 201H85.395a.3.3 0 110-.601h85.395a.301.301 0 010 .601zM190.296 201h-10.403a.3.3 0 110-.601h10.403a.3.3 0 110 .601zM48.55 200.567H8.235a.3.3 0 010-.601h40.313a.3.3 0 110 .601z" stroke="#fff" stroke-width="2"/><path d="M39.317 154.241v-.001l65.455-109.67h0a.152.152 0 01.129-.072h.001c.053 0 .101.027.128.073h0l64.953 109.553.032.054.037.05a.15.15 0 01-.121.24h0-.001 0-.001 0-.001 0-.001 0-.001 0-.001 0-.001 0-.001 0H39.446a.15.15 0 01-.13-.227z" stroke="#fff" stroke-width="2.3"/><path d="M104.901 145.365c-7.175 0-13.866-2.75-18.854-7.738-4.988-4.988-7.738-11.679-7.738-18.854 0-7.176 2.75-13.867 7.738-18.855 4.988-4.988 11.679-7.738 18.854-7.738 7.176 0 13.866 2.75 18.854 7.738 4.988 4.989 7.739 11.679 7.739 18.855 0 7.175-2.751 13.866-7.739 18.854-4.988 4.988-11.678 7.738-18.854 7.738z" stroke="#fff" stroke-width="2.3"/><path d="M104.901 125.425c-2.745 0-4.485-2.306-4.485-4.485v-17.773c0-2.245 1.82-4.051 4.485-4.051 2.455 0 4.486 2 4.486 4.051v17.773c0 1.089-.522 2.218-1.395 3.091-.873.872-2.002 1.394-3.091 1.394zM104.901 137.996c-2.745 0-4.485-2.306-4.485-4.485 0-2.906 1.987-4.919 4.485-4.919 2.288 0 4.486 2.239 4.486 4.919 0 1.089-.522 2.218-1.395 3.09-.873.873-2.002 1.395-3.091 1.395z" stroke="#fff" stroke-width="2.3"/><path d="M182.626 23.408v-1h-17.905a.3.3 0 110-.601h18.206a.3.3 0 01.3.3v18.64a.3.3 0 11-.601 0v-17.34zM28.176 22.408h-1v18.339a.3.3 0 11-.6 0v-18.64a.3.3 0 01.3-.3h17.772a.3.3 0 110 .6H28.176zM181.626 176.558h1v-17.906a.3.3 0 01.601 0v18.206a.3.3 0 01-.3.301h-18.206a.3.3 0 110-.601h16.905zM27.176 175.558v1h17.472a.3.3 0 110 .601H26.876a.3.3 0 01-.3-.301v-18.206a.3.3 0 11.6 0v16.906z" stroke="#fff" stroke-width="2"/></svg>