<svg width="515" height="190" viewBox="0 0 515 190" fill="none" xmlns="http://www.w3.org/2000/svg"><path d="M310.22 189.12c-.8.1-1.61.1-2.42.12-.8.02-4.49-.13-5.11-.14l-7.22-.1c-.33 0-.67.03-1 .08-1.88.23-3.73-.11-5.6 0h-3.3c-1.33 0-2.67-.08-4.03-.1-1.36 0-2.73 0-4.1.08h-11.03c-2.01 0-4.08-.06-6.11-.08-.84 0-1.67 0-2.5.05h-4.36c-.25 0-7.27-.2-7.68-.18H224.22c-.3-.02-.6-.06-.9-.12-.07.14-.9 0-1.42.06-.49.06-.99.02-1.47-.1a.68.68 0 01-.43-.38 5.04 5.04 0 01-.52-1.58 147.81 147.81 0 01-.06-10.9c0-1.23.13-2.46.19-3.68.08-1.46.14-2.92.2-4.38.08-1.23.18-2.45.22-3.67.05-1.68 0-3.37.1-5 .07-2.13.2-4.25.27-6.37 0-1-.05-2 0-3 0-2.28.12-4.57.17-6.85v-3.08c0-1.32.06-2.64.08-4 0-2.7 0-5.37.07-8.06v-5.58c0-1.86.16-3.5.16-5.25 0-1.5-.14-3-.19-4.46.07-1.67.04-3.34-.09-5-.3-2.23.06-4.43.1-6.77-.35-.1-.7-.13-1.06-.08-.89.34-1.28-.2-1.7-.73.22-.53.4-1.06.56-1.61.04-.4.04-.79 0-1.18 0-2.52.09-5.05.1-7.57 0-2.28-.06-4.55-.05-6.83 0-2 .08-4 .09-6-.02-.29-.1-.57-.24-.82-.28-.65-.13-1 .56-1.2.13-.03.26-.05.4-.05h3.61c1.21 0 2.2-.08 3.3-.1 2.4 0 4.81-.07 7.22-.07 1.87 0 3.74.08 5.62.06 2.6 0 5.2-.14 7.81-.2h2.67c-.07-.28-.06-.44-.14-.51a5.7 5.7 0 01-1.5-4.67c.1-1.85.1-3.72.22-5.57.09-1.8.34-3.57.75-5.32.35-1.17.87-2.28 1.55-3.3a5.28 5.28 0 012.63-1.9 9.44 9.44 0 016.04-.36c.95.22 1.88.46 2.82.7l.2.06c1.12.42 2.26.79 3.37 1.26.98.32 1.92.76 2.78 1.33.65.4 1.35.71 2.08.95 1.3.5 2.51 1.18 3.63 2 1.2.93 2.48 1.75 3.82 2.46.96.6 1.84 1.3 2.62 2.12a.95.95 0 001.22.25c1.01-.6 2.2-.85 3.36-.7l1.24.28.75-2.95c.11-.45.2-.9.32-1.35.47-2.13.67-4.31.59-6.5 0-1.11-.14-2.22-.23-3.34a1 1 0 00-.18-.46 17.2 17.2 0 01-2.25-3.85 9.95 9.95 0 01-1-4.92c.11-1.13-.3-1.68-1.59-2.14-3.11-1.1-6.23-2.17-9.35-3.28a33.78 33.78 0 00-7.9-1.6c-1.52-.22-3.06-.3-4.6-.22-1.63.16-3.28 0-4.91.06a57.88 57.88 0 00-8.44 1.1c-1.9.38-3.81.72-5.65 1.27-2.21.65-4.38 1.4-6.51 2.28-1.88.77-3.7 1.72-5.52 2.63-1.3.66-2.6 1.34-3.87 2.09a40.92 40.92 0 00-5.2 3.88 37.34 37.34 0 00-4.46 4.27c-1.42 1.65-2.87 3.3-4.3 4.94-.66.66-1.28 1.37-1.84 2.1-.94 1.4-2.14 2.6-2.96 4.08-.83 1.48-1.92 3-2.81 4.56-.6 1-1.01 2.13-1.57 3.2-.06.15-.14.3-.22.45a24.63 24.63 0 00-2.76 6.25c-.7 2.07-1.2 4.2-1.83 6.3-.63 2.1-.57 4.52-1.12 6.73.08 3.33-.64 6.6-.61 9.94.04 2.06-.18 4.1-.67 6.1-.3 1.75-.98 3.4-2.01 4.85-.63.77-1 1.7-1.61 2.52-.37.51-.79 1-1.24 1.43a16.3 16.3 0 01-3.95 2.85c-.23.13-.44.27-.65.43.19.16.4.3.62.4 2.26.78 4.28 2.1 5.9 3.85 1.37 1.4 2.9 2.67 3.68 4.54.6 1.4 1.18 2.82 1.71 4.26a26.14 26.14 0 011.5 7.08c.15 1.92.43 3.83.6 5.75.1 1.19.1 2.38.2 3.57.17 2.05.37 4.1.58 6.15.22 3.1.25 6.23.07 9.34-.06 2.49 0 5 0 7.46 0 1-.16 2-.2 3.07-.08 1-.1 2-.07 3 0 .57-.18.79-.78.86l.95 1.88c.4-.4.7-.68 1-1 .43-.52 1.02-.9 1.67-1.06a.83.83 0 011.1.72 1.97 1.97 0 01-.66 2.15c-.2.16-.44.29-.7.36-.44.14-.9.25-1.5.4.53.89 1 1.76 1.55 2.55.48.63 1 1.23 1.55 1.8.16.17.3.36.42.55a1.23 1.23 0 00.75.65c.5.17.87.7 1.29 1.06.42.36 1.1 1 1.7 1.4.76.57.76 1-.1 1.47-.31.16-.66.24-1 .24-1.68 0-3.36-.06-5.04-.18-.5 0-1.01-.21-1.47-.27-.29 0-1.43-.27-1.76-.36-.98-.19-1.95-.43-2.9-.73a19.8 19.8 0 01-3.44-1.76c-1-.73-1.95-1.51-2.85-2.35 0 .6-.06 1.18-.07 1.75.05.5.05.99 0 1.48-.12.44-.44 1.65-1.01 1.6-.75-.04-1.5-.1-2.24-.2a.8.8 0 01-.54-.37c-.13-.97-.18-1.96-.13-2.94l-.2-7.76c0-.42-.06-.84-.1-1.31l-1.1-.2a59.87 59.87 0 01-.3-6.56c.07-2-.16-4.05-.24-6.08-.08-2.03-.12-4.17-.22-6.26 0-1-.2-1.91-.28-2.87-.24-3.31-.5-6.63-.7-9.95-.08-1.15 0-2.31-.06-3.47a6.96 6.96 0 00-1.12-3.47.87.87 0 00-.63-.47.9.9 0 00-.76.2c-.4.26-.74.58-1.01.95a16.3 16.3 0 00-2.27 5.28c-.4 1.37-.68 2.77-.82 4.19-.06 1.62-.21 3.24-.34 4.85-.1 1.19-.27 2.38-.34 3.57-.12 2.22-.2 4.44-.3 6.67-.08 2-.18 4-.22 6v4.37c0 .79-.1 1.58-.1 2.37 0 .6-.35.8-.89.86-.25 0-.5.12-.85.2l.47.95.78-.15-.46 1a2.12 2.12 0 002.22-.12 1 1 0 00.35-1.14c-.17-.35-.5-.43-1-.23l-.87.34a1.4 1.4 0 011.91-.94 1.5 1.5 0 01.53 1.64c-.06.2-.16.37-.3.53-.44.35-.92.64-1.43.88-.24.09-.5.16-.75.2 1.6 2.56 3.1 5.1 5.38 7.06.5.44 1.01.9 1.48 1.34.3.26.3.49 0 .75a1.17 1.17 0 01-1.01.36c-2.1-.1-4.2-.31-6.28-.65-.75-.14-1.53-.2-2.27-.37-.9-.21-1.79-.5-2.68-.75a14.6 14.6 0 01-5.13-3 .57.57 0 00-.17-.1h-.11v4.5a7.9 7.9 0 01-3.11.25c-.76 0-1.1-.5-1.12-1.26 0-1.72-.12-3.44-.12-5.16 0-1.4.13-2.8.18-4.18v-1.52l-.62-.2c-.49-.07-.71-.3-.56-.82.03-.2.03-.4 0-.6-.06-1.48-.17-3-.16-4.47 0-1.65.15-3.3.22-5v-1c.06-2.65.23-5.31.15-8-.05-1.77.26-3.5.36-5.25.1-1.55.28-3.1.39-4.63.06-.73 0-1.47.09-2.2.28-2.43.54-4.88.93-7.31.28-1.8.68-3.59 1.2-5.34.47-1.62 1.18-3.17 1.82-4.74.37-.92.81-1.82 1.2-2.73a8.2 8.2 0 011.78-2.27 18.87 18.87 0 015.22-4c.98-.4 1.99-.74 3.02-1 .24-.08.49-.14.85-.24a4.7 4.7 0 00-.75-.63c-1.93-.9-3.11-2.56-4.44-4.08a22.72 22.72 0 01-3.84-6.62 33.95 33.95 0 01-1.55-6c-.56-2.87-.18-5.71-.08-8.55.1-2.79.4-5.56.9-8.31a50.8 50.8 0 011.5-6.15c.94-3.11 2.02-6.18 3.03-9.26.67-2 1.32-4.1 2.08-6.11.7-1.86 1.47-3.7 2.3-5.51a124.4 124.4 0 012.7-5.42c.57-1.08 1.24-2.1 1.84-3.17.89-1.6 1.7-3.22 2.64-4.78 1.1-1.81 2.01-3.71 3.3-5.43 1.01-1.42 2.02-2.92 3.02-4.31 1.2-1.58 2.58-3 4.12-4.24.93-.74 1.7-1.66 2.55-2.48.85-.82 1.51-1.53 2.34-2.21 2.01-1.65 4.03-3.28 6.1-4.85 1-.8 2.24-1.44 3.36-2.17 1.12-.73 2.47-1.7 3.74-2.48.76-.47 1.6-.83 2.4-1.24.18-.07.36-.16.52-.27a7.44 7.44 0 012.27-1.2c1.11-.46 2.18-1 3.25-1.53.55-.26 1.07-.56 1.63-.76 1.92-.66 3.85-1.3 5.8-1.9 1.94-.6 3.64-1.13 5.49-1.61a28.9 28.9 0 017.1-1.18c.87 0 1.72-.24 2.58-.31 2-.27 4.02-.4 6.04-.38 1.6.09 3.2 0 4.79 0 1.96.07 3.91.24 5.87.32 3.05.19 6.08.63 9.06 1.32 2.22.41 4.38 1.1 6.42 2.05l6.46 3c1.36.63 2.73 1.27 4.03 1.92.38.18.73.44 1.16.7.13-.11.37-.22.47-.4a26.88 26.88 0 013.68-4.7 42.73 42.73 0 015.48-5.38 7.3 7.3 0 015.04-1.8 3.87 3.87 0 013.3 3.25c.07.79.32 1.56-.28 2.3l.21.1c.17-.03.34-.1.49-.18a11.1 11.1 0 014.81-2.54c.85-.2 1.74-.17 2.57.1.28.1.58.17.88.2a3.31 3.31 0 012.56 3.27c-.01.5-.14 1-.37 1.44a9.9 9.9 0 01-2.38 3c-1.45 1.32-2.94 2.6-4.38 3.93-1.24 1.15-2.44 2.35-3.64 3.54-1.21 1.19-2.48 2.48-3.71 3.72-.11.1-.2.25-.38.48l2.07.58a9.6 9.6 0 013.78 2 9 9 0 012.01 2.88c.35.67.82 1.28 1.14 2a9.25 9.25 0 01.77 6c-.1.49-.1 1-.18 1.48-.36 1.52-1 2.96-1.88 4.26-.8 1.37-1.81 2.6-2.74 3.9a.46.46 0 00-.06.18c.68.8 1.35 1.53 1.94 2.33.58.8 1.06 1.64 1.6 2.5.31-.14.6-.25.84-.4a27.7 27.7 0 0110.57-3.58c1.97-.27 3.97-.08 5.84.58a4.03 4.03 0 012.28 2.12c.71 1.28 1.2 2.67 1.4 4.12.13 1.28.32 2.56.33 3.85 0 1.62-.1 3.25-.2 4.88 0 .89-.16 1.78-.27 2.67-.09 1.15-.25 2.3-.48 3.44-.55 2.24-.84 4.59-2.52 6.52.28 0 .45.1.62.1h5.98c2 0 4.02.08 6.04.08 1.6 0 3.21 0 4.81-.08 1.34 0 2.68 0 4.03-.12s2.4-.23 3.6-.32c.36-.04.73-.04 1.1 0a.93.93 0 01.92.89c.27 2.1.37 4.21.28 6.33-.08 1.68-.38 3.36-.48 5-.08 1.4 0 2.84 0 4.26 0 1.82-.09 3.65-.14 5.47 0 .76 0 1.53-.13 2.28-.12 1.07-.16 1.07-1.24 1.25-.45.08-.9.2-1.4.33-.04 1.47-.1 2.95-.16 4.43-.11 2-.28 4-.34 6.05 0 1.5.06 3 .08 4.55 0 .7 0 1.42-.05 2.14v.39c.38 1.94 0 3.89 0 5.83 0 1 .13 1.92.13 2.89 0 .97-.1 2-.12 3.08V133c0 1.09.05 2.17 0 3.27-.1 1.6.1 3.23.16 4.85V143c0 1.33 0 2.66-.07 4 0 .63-.12 1.26-.14 1.89-.02.63.06 1 0 1.48-.05 1.45-.15 2.9-.19 4.35 0 .66.06 1.32.06 2 0 1.7-.09 3.43-.07 5.15 0 2.84.16 5.68.17 8.5 0 2.07-.13 4.13-.2 6.19-.07 2.29-.17 4.59-.19 6.88 0 1.29.1 2.58.16 3.88 0 .93-.24 1.24-1.16 1.35a3.5 3.5 0 00-.8.29.7.7 0 01-.3.07c-2.04-.18-4.1-.18-6.14 0-.83.04-1.66.04-2.5 0-.78 0-3.15-.05-3.6-.05h-5.72c-2.25 0-4.48.09-6.72.13-.47.01-.94 0-1.4-.05-.51-.07-8.23-.2-8.71.1-.77-.07-1.54-.1-2.31-.05zm-17.21-171l-.14-.22c.1-.37.24-.73.42-1.07.24-.32.5-.62.8-.9l2.5-3c1.17-1.37 2.3-2.76 3.5-4.08.98-.97 1.75-2.11 2.28-3.37.6-1.6-.86-3.8-2.66-3.3-.62.11-1.23.3-1.8.55a16.7 16.7 0 00-4.32 3.32c-1 1.09-2.06 2.08-3.11 3.1l-3.18 3.19c-.42.42-.81.87-1.23 1.3a3.35 3.35 0 00-.42-.18 43.31 43.31 0 01-8.36-3.06c-2.17-1-4.35-1.9-6.6-2.7a42.57 42.57 0 00-7.05-1.66c-2.2-.4-4.44-.54-6.65-.81-.6-.07-1.2-.21-1.79-.24-.75 0-1.52.09-2.25 0-1.84-.22-3.67.07-5.5 0a17.5 17.5 0 00-2.61.06c-1.9.19-3.78.4-5.67.66-1.36.14-2.7.36-4.03.67-3.13.8-6.25 1.74-9.37 2.63-.62.14-1.23.32-1.82.54-1.85.76-3.67 1.62-5.53 2.35a58.13 58.13 0 00-6.94 3.55c-.5.27-.95.62-1.42.93-1 .69-2.12 1.37-3.18 2.07-.78.6-1.6 1.16-2.45 1.68-1.64.86-2.86 2.26-4.34 3.32-.82.67-1.6 1.39-2.32 2.16l-2.39 2.26c-.71.69-1.4 1.43-2.16 2.07-.98.84-1.87 1.8-2.64 2.83-.6.79-1.13 1.64-1.7 2.45-.95 1.36-1.95 2.7-2.88 4.08-.71 1.07-1.32 2.2-2.01 3.3-1 1.59-2.01 3.14-2.88 4.77-1.2 2.17-2.3 4.39-3.45 6.59-.55 1.09-1.13 2.17-1.6 3.29-.6 1.37-1.01 2.77-1.6 4.16-.6 1.55-1.23 3.09-1.78 4.66-.8 2.27-1.57 4.57-2.34 6.86-.67 2-1.48 4-2.01 6.12a67.1 67.1 0 00-1.4 8.22c-.31 3.23-.4 6.48-.46 9.73a19.7 19.7 0 001.01 5.85c.37 1.27.84 2.5 1.42 3.69a17.6 17.6 0 002.5 4.18c.82.95 1.65 1.9 2.55 2.79a7.73 7.73 0 004.22 2.52c1.25.2 2.5.36 3.77.46 1.06.15 2.14.03 3.15-.35.56-.3 1.14-.56 1.74-.77a3.6 3.6 0 001.54-.85 17.6 17.6 0 003.77-4.44 19.39 19.39 0 002.48-6.67c.09-.56.1-1.12.15-1.68l.3-4c.12-1.9.17-3.78.34-5.66.17-1.88.4-3.83.65-5.74.15-1.48.38-2.95.7-4.41.44-1.93 1-3.85 1.57-5.74.47-1.41 1-2.8 1.6-4.16a26.2 26.2 0 001.48-3.58c.06-.23.14-.45.24-.66a570.66 570.66 0 013.56-6.4c.87-1.16 1.7-2.34 2.63-3.47 1.4-1.71 2.86-3.4 4.3-5.07 1.01-1.13 1.95-2.26 2.93-3.37.75-.93 1.54-1.82 2.38-2.66a58.5 58.5 0 014.33-3.7 53.7 53.7 0 018.96-5.27c1.94-.9 3.95-1.63 5.87-2.56a32.42 32.42 0 016.26-2c1.56-.4 3.15-.67 4.72-1 1.57-.33 3.1-.6 4.64-.77 1.55-.17 3.02-.15 4.6-.21l1.3-.06a41.17 41.17 0 0110.99.59 40 40 0 015.46 1.54l.58.18c1.13.39 2.3.72 3.4 1.19 1.6.67 3.17 1.4 4.72 2.17.57.32 1.12.69 1.65 1.09a1.7 1.7 0 01.7 1.46c.1 2.23.84 4.39 2.12 6.23.14.18.26.39.35.6.44 1.48 1.68 2.27 2.78 3.16a2.17 2.17 0 003.27-1c.4-1.07.36-2.24-.1-3.28a35.27 35.27 0 01-1.59-4.9c-.2-.93-.27-1.89-.21-2.84.23-2 .88-3.78 2.95-4.71a5.07 5.07 0 015.1.28 3.44 3.44 0 011.57 2.13 7.33 7.33 0 01-.52 4.58c-.7 1.5-1.62 2.88-2.45 4.3-.53.8-.95 1.67-1.25 2.58-.41 1.48 0 1.8 1.37 1.59a5.7 5.7 0 001.84-.37c.78-.5 1.5-1.09 2.16-1.74.74-.83 1.42-1.73 2.01-2.67a20.6 20.6 0 002.51-4.4 10.84 10.84 0 00.4-6.37c-.26-1.4-1.25-2.41-1.8-3.65a3.88 3.88 0 00-.6-1.23 5.63 5.63 0 00-1.72-1.2 15.71 15.71 0 00-5.22-1.65 6.1 6.1 0 01-1.1-.25 1.08 1.08 0 01.36-1.4c.7-.56 1.38-1.17 2.01-1.82l3.27-3.16 4.19-4.08c.62-.6 1.29-1.14 1.9-1.75a21.87 21.87 0 003.43-3.45c.39-.63.6-1.34.64-2.07.04-.24 0-.48-.13-.68a1.1 1.1 0 00-.51-.47c-1-.56-2.16-.76-3.29-.57a8.55 8.55 0 00-2.94 1.43 27.4 27.4 0 00-4.49 3.63 27 27 0 01-1.64 1.6l-3.3 3c-1.12 1-2.27 2-3.41 2.95-.18.13-.38.25-.58.34v-.03zm27.2 83c-.05.15-.08.31-.1.47-.07 1.62-.16 3.24-.17 4.86-.01 1.62 0 3 .08 4.47.23 3.48 0 7 0 10.44 0 1.49-.09 3-.13 4.45v.4c.05 1.79.14 3.58.14 5.36 0 2.09-.11 4.17-.14 6.25v5.57c0 1.16-.1 2.33-.1 3.49 0 1.75.06 3.5 0 5.26-.06 2.49-.18 5-.3 7.47-.06 1.35-.16 2.7-.25 4.06-.08 1.35-.19 2.45-.23 3.67-.04 1.22 0 2.64-.06 4 0 1.52-.12 3-.17 4.57 0 1.13 0 2.26-.09 3.38-.06 1.29-.16 2.58-.22 3.87l-.16 3.49c.01.21.04.42.08.63 3.28 0 6.54 0 9.8-.06 3.26-.06 6.6.1 9.91.16l9.9.13c.08-.24.13-.5.15-.75a33.93 33.93 0 01-.12-5.16c.06-.66 0-1.32 0-2 0-1.8.11-3.58.15-5.37.04-1.8.06-3.4.06-5.08v-4.18c0-1.4.05-3 .06-4.5v-4.55c0-2 .08-4 .13-6 .08-2.52.19-5 .24-7.56v-8.18-6.94-4.08l-.01-4.16c0-2.86.06-5.71.16-8.57.08-2.15.28-4.3.4-6.44.05-.92 0-1.84 0-2.73-.12-.06-.26-.1-.4-.12-2.15 0-4.31 0-6.47-.07-1.76 0-3.52-.14-5.3-.17-1.77-.03-3.74 0-5.62 0-.83-.04-1.67 0-2.5.1-1.81.24-3.65.31-5.49.23-.32 0-.64-.11-1-.1-.69-.05-1.42 0-2.27.05l.03-.06zm-10.69 85.92c.06-.19.1-.38.13-.57v-4.58c0-.62.07-1.25.09-1.88 0-1.62.06-3.25.12-4.87.05-1.32.18-2.63.2-3.95v-6.16c0-1 .08-2.06 0-3.1 0-1.84-.12-3.7-.14-5.54 0-1.52.07-3 .12-4.57l.26-7.33c.13-.75.1-1.53-.12-2.26a2.05 2.05 0 010-.78c0-.3.05-.6 0-.9 0-.75-.12-1.51-.11-2.26 0-1.42.09-2.85.1-4.27 0-.9-.11-1.8-.1-2.68.08-2.23.24-4.44.3-6.67.06-2.95.04-5.91.08-8.86 0-1.1.11-2.2.1-3.28 0-1.1-.14-2.17-.17-3.26-.07-2.65-.12-5.3-.18-8-.28 0-.5-.1-.72-.1l-3.6.16c-1.4.05-2.8.12-4.21.09-1.7 0-3.4-.2-5.1-.24-3.53-.1-7.05-.14-10.6-.17-.67.02-1.34.08-2 .18 0 .57.08 1 .08 1.47v18.93c0 1.39-.09 2.78-.09 4.17 0 1.23.12 2.45.11 3.68 0 2.5-.08 5-.1 7.53 0 3.25-.08 6.49-.13 9.74 0 .82-.07 1.65-.07 2.47 0 2.5.1 5 .1 7.52 0 1.62-.1 3.24-.11 4.86v6.06c0 1.86-.18 3.7-.18 5.57 0 2.8.06 5.62.08 8.43v5.37c.16.1.34.16.53.2 8.17 0 16.33-.22 24.5-.1.27.03.54.03.8 0l.03-.05zm-62.44.1v-3.51c0-1.66.05-3.31.05-5 0-1.92-.07-3.84-.1-5.76-.02-1.92 0-3.85 0-5.77 0-1.52-.05-3-.08-4.56v-.5-4.94-2.38c.08-.6.1-1.19.1-1.78a67 67 0 01-.2-7v-8.46c0-3.18.07-6.36.1-9.55 0-1.53.08-3.06-.07-4.58-.22-2.4.22-4.75.05-7.14-.1-1.55.06-3.11 0-4.66-.07-2.1-.24-4.18-.35-6.27v-.8c0-1.25-.08-2.51-.13-3.81a339.6 339.6 0 00-24.72.13c.06.56.09 1.13.08 1.69a24.7 24.7 0 00.1 5.25c.18 1.47 0 3 .1 4.46.25 2.85 0 5.69.1 8.54 0 2.26-.05 4.5 0 6.77 0 2.43.1 4.85.1 7.27 0 1.92-.17 3.84-.2 5.77 0 2.78-.07 5.57-.1 8.36v2.68c0 1.29-.1 2.58-.1 3.88 0 1 .05 2.05 0 3.08-.13 2.78-.3 5.55-.43 8.34-.12 2.55-.18 5.1-.26 7.67-.07 2-.15 3.92-.17 5.88-.02 1.96 0 3.85.06 5.77 0 .8 0 .84.8.85h23.99l1.27.09zm22.74-75.33c-.2.19-.4.4-.57.6-.76 1.15-1.49 2.3-2.24 3.43-.15.26-.34.5-.56.69a.81.81 0 01-1.25-.09.8.8 0 01-.15-.44c-.05-.55 0-1.11-.05-1.66 0-.92-.1-1.84-.17-2.76-.06-.76-.2-1.51-.19-2.27 0-2.52.08-5 .14-7.56 0-.3-.06-.56-.38-.6a22.1 22.1 0 00-2.16-.16c-.87.11-1.75.11-2.62 0-.93-.28-1.83.15-2.7-.15a2 2 0 00-.62.06 3.1 3.1 0 00-.1.5c0 1.5 0 3 .05 4.49.08 1.88.3 3.76.35 5.64.08 3 .46 6 .37 9.06-.05 1.65.17 3.3.23 5a276.12 276.12 0 01.14 16.3c0 .75-.07 1.5-.07 2.25v2.47c0 .82-.06 1.79 0 2.68 0 1.49.1 3 .12 4.46 0 1.73.06 3.45 0 5.18-.06 1.73 0 3.32-.08 5-.07 2.8-.2 5.6-.23 8.42 0 1.85.1 3.7.12 5.55.02 1.85 0 3.52 0 5.28 0 1.15.23 2.3.33 3.46 0 .42.22.62.62.63h2.4c1.88 0 3.76-.06 5.63-.06 1.24 0 2.47.1 3.7.1 1.88 0 3.76-.07 5.62-.08h6.72c0-.65.05-1.26 0-1.88 0-1.66-.1-3.31-.1-5 0-1.95.09-3.91.12-5.87v-3.26c0-1.82.14-3.64.16-5.46v-7.13c0-1.32.31-2.63 0-3.94a1 1 0 010-.3c0-1.84.1-3.68.11-5.52 0-1.3-.05-2.58-.05-3.87 0-2.12 0-4.25.05-6.37v-9.32c0-3.52.06-7.05.1-10.57v-2.18-6.08a45.8 45.8 0 000-6.11c-.02-.13-.02-.26 0-.4v-2.85h-7.86c0 .24.12.45.06.53-.07.08-.3.29-.07.54.06.06-.25.39-.26.6 0 1.4-.08 2.8 0 4.19.08 2.43.26 4.85.33 7.27 0 .85.19 1.8-.69 2.42-1.09-.35-1.1-.34-1.7-1.15-.82-1.17-1.66-2.35-2.62-3.65l.02-.06zm50.36-12.26c.23.08.47.13.7.15h6.05c1.6 0 3.2-.2 4.8-.2 2.4 0 4.81 0 7.2.1 3.1.09 6.21.25 9.32.33 1.2 0 2.38-.07 3.61-.1.1-1.92.22-3.71.27-5.5 0-1.2-.07-2.38-.06-3.57 0-2 0-4 .13-6 .26-2.33.3-4.67.13-7l-.24-2c-.47.08-.85.15-1.25.2-1.92.23-3.84.55-5.78.67-1.93.12-3.89.07-5.82.07-1.34 0-2.67-.08-4.03-.07-1.36 0-2.54.15-3.8.17-2.48.04-4.95.06-7.41.06-1.47 0-2.95-.1-4.42-.13H318a25.53 25.53 0 012.14 7.83c.06 1.52.17 3 .16 4.56 0 2.19-.1 4.38-.16 6.57v3.08c-.01.28-.01.56.01.84l.02-.06zm-64.2 87.68c.03-.47 0-.93-.07-1.4-.25-.95-.35-1.93-.31-2.92 0-.9-.05-1.8-.06-2.68v-1.87c0-1.05-.16-2.1-.16-3.15v-5.67c0-2.18.1-4.37.16-6.55 0-1.33.1-2.66.08-4 0-2.18-.13-4.36-.11-6.54 0-3.84.17-7.7.2-11.53 0-2.61 0-5.21-.06-7.81 0-1.56-.06-3.13-.12-4.7-.1-2.51-.24-5-.32-7.54-.06-1.8 0-3.58-.1-5.37-.1-1.8-.18-3.7-.29-5.53-.08-1.5-.2-3-.26-4.46-.06-.83-.07-1.66-.06-2.5 0-2.64.06-5.3.09-8v-3.68c0-1.65.12-3.3.13-4.95 0-1-.16-1.92-.11-2.87.09-1.5.28-3 .45-4.46.1-.86.38-1.68.82-2.43.1-.25.19-.5.25-.76-.33 0-.56-.1-.78-.11l-5.12-.08a1.53 1.53 0 00-1.52 1.25c-.1.39-.16.78-.2 1.18-.1 1.2-.26 2.42-.23 3.66 0 1.95-.08 3.9-.1 5.86v4.09c-.12 3.08-.05 6.16.2 9.23.18 1.47 0 3 .1 4.44.06 1.06 0 2.17 0 3.25 0 2.34.2 4.69.23 7v7.95c0 2.22 0 4.44.07 6.67 0 1.68.12 3.38 0 5.06a47.7 47.7 0 00-.13 4.14c.05 2.59.06 5.17.08 7.76 0 3.42.07 6.83.08 10.25 0 2.14-.06 4.29-.07 6.44v4l.14 8.26v9.74c.04.43.1.86.2 1.28l6.9.05zm34.77-116.67c.15.03.31.05.47.06l4.03-.2 2.88-.2a.56.56 0 01.67.46.7.7 0 01-.45.89c-.6.2-1.23.34-1.87.38-.68 0-1.38-.1-2.07-.12-.68-.02-1.35 0-2.02.06a2.01 2.01 0 00-1.25 2.17c.07.15.18.28.34.35a9.5 9.5 0 002.26.68c1.8.12 3.6.08 5.4.08h6.19c2.24 0 4.48.13 6.72.17 1.68 0 3.35 0 5.04.05 1.7.05 3.54.15 5.3.16a3.44 3.44 0 003.31-1.85 16.72 16.72 0 001.43-4.51c.3-1.32.38-2.68.56-4 .1-.33.17-.66.22-1 .06-2.31.12-4.63.1-7a15.86 15.86 0 00-1.13-5.47c-.35-.81-.7-1.75-1.65-2-1.02-.3-2.08-.5-3.14-.54a24 24 0 00-6.24 1 19.3 19.3 0 00-3.42 1.38c-.85.39-1.62.94-2.45 1.37-1.1.56-2.25 1-3.34 1.59-1.7.9-3.39 1.84-5.03 2.82-1.64.98-3.02 1.9-4.55 2.9-1.28.87-2.51 1.82-3.78 2.72-1 .7-2.02 1.39-2.97 2 .34 1.49 1.25 2 2.55 1.56.63-.2 1.28-.35 1.93-.48.85-.18 1.71-.31 2.56-.52 1.23-.31 2.44-.7 3.67-1 .53-.1 1.07-.15 1.6-.13a.86.86 0 01.64.35 1 1 0 01-.11.8c-.19.25-.45.42-.75.48-1.29.29-2.6.55-3.9.8-1.9.36-3.81.69-5.7 1a2.02 2.02 0 00-2.02 2.12c-.03.2-.05.41-.05.62h.02zm25.93 116.67v-2.18c-.07-2.26.01-4.52.23-6.77.1-1.66.22-3.32.29-5 .07-1.68.06-3.27.12-4.91 0-1 .17-2 .21-3 .08-2 .13-4.1.2-6.13.08-3.18.19-6.36.25-9.54.05-2.6 0-5.17.05-7.76.05-2.6.08-5 .1-7.53 0-2.75.06-5.51.09-8.26v-6.36c0-1.45.07-2.9.06-4.36 0-2.3-.1-4.57-.11-6.86 0-1.13.07-2.26.09-3.4l.13-6.06c0-.4.09-.78.08-1.17 0-1.3-.07-2.58 0-3.87.07-1.3.25-2.57.27-3.86.13-1.62.15-3.24.05-4.86-.03-.55-.1-1.1-.21-1.65-.16-.6-.13-1.25-.23-1.86a24.1 24.1 0 00-.99-3.75 1.82 1.82 0 00-2.01-1.3c-1.4 0-2.8-.07-4.2-.13-.43 0-.64.17-.56.59.06.19.14.37.22.55.29 1 .65 2 .83 3.07.18 1.07.17 2.05.24 3.08.1 1.52.28 3 .27 4.56 0 1.92-.22 3.84-.28 5.75 0 1.09.05 2.18.07 3.27 0 1.46 0 2.93.07 4.39.1 1.85.31 3.69.42 5.54.06 1 0 2 0 3v3.48c0 1.16-.05 2.33 0 3.49 0 1.69.09 3.38 0 5.06 0 1.88-.2 3.76-.3 5.64 0 .6-.09 1.19-.09 1.78 0 1 .06 2 .05 3 0 1.52-.12 3-.1 4.57 0 2.38.1 4.76.08 7.15 0 1.72-.13 3.43-.2 5.15v9.11c0 2 .05 3.9.07 5.86 0 .6-.07 1.19-.07 1.79v5.07c0 .82-.2 1.63-.24 2.45-.04.82 0 1.77 0 2.66 0 .89.1 1.79 0 2.68-.11 1.88-.31 3.75-.42 5.63 0 .74.04 1.47.12 2.2 1.84-.23 3.51.2 5.33 0h.02zM246.28 99c.1-.25.16-.51.2-.78v-5.66c0-1.88 0-3.6.07-5.4 0-.65.07-1.32.12-2 .14-2.1.24-4.2.45-6.28.09-.95.37-1.87.58-2.93h-1c-.61 0-1.2.1-1.81.1h-6.13c-2.09 0-3.93.09-5.9.08-1.58 0-3.14-.16-4.71-.15-1.76 0-3.54.17-5.3.24h-1.8c-.29.03-.58.08-.87.14v3.24c-.06 3.37-.1 6.75-.2 10.12-.08 2.76-.25 5.5-.36 8.27-.05.26-.03.53.07.78a1 1 0 00.61.53h3.02c1.4-.05 2.8-.2 4.2-.23 2.1-.05 4.2 0 6.32-.05h7.63l4.8-.02zm38.13-22.52c0 .35-.08.6-.08.87 0 1.52 0 3 .05 4.57v4c0 2.95 0 5.9-.07 8.86 0 1.29-.1 2.59-.12 3.88 0 .77.15.94.93 1 .77.06 1.65 0 2.49 0H295.56c2.11.06 4.21.17 6.33.19 2.12.02 4.21-.05 6.31-.08.69 0 1.38-.05 2.2-.1v-2.36-3.36c0-1.48.16-3 .17-4.45 0-1.26-.09-2.52-.15-3.78-.09-1.58-.08-3.18-.3-4.75a7.95 7.95 0 00-1.34-4.2c-.35 0-.75-.06-1.15-.08l-3.5-.12c-1.1 0-2.2-.1-3.3-.1-.86 0-1.72.1-2.58.1-1.63 0-3.26 0-4.9-.05h-5.5c-1.13-.03-2.22-.02-3.44-.02v-.02zm-4.12-11.24a9.64 9.64 0 00-2.48-1.82c-.62-.32-1.2-.71-1.8-1.08-1.39-.85-2.75-1.74-4.17-2.55a58.94 58.94 0 00-4.17-2.16 55.06 55.06 0 00-4.49-1.94c-1.28-.47-2.64-.71-3.94-1.1a7.94 7.94 0 00-4.72-.16 4.13 4.13 0 00-3.02 2.16c-.4.87-.7 1.78-.91 2.7-.22 1.42-.34 2.84-.36 4.26-.1 1.82-.17 3.64-.18 5.47 0 .85.1 1.7.26 2.54.15.55.51 1.03 1 1.33a7.96 7.96 0 004.45 1.34c1.06.07 2.13 0 3.2 0 1.4 0 2.8.1 4.18.15 1.94.07 3.88.08 5.81.23 2.57.19 5.15.24 7.72.2.27.02.54-.01.8-.1.23-.1.43-.28.56-.5a1.8 1.8 0 00-.83-1.93 4.19 4.19 0 00-3.14-.63c-.3.04-.6.04-.9 0h-3.8c-1.01 0-1.93-.21-2.9-.31a.82.82 0 01-.73-.81.7.7 0 01.1-.53.68.68 0 01.44-.3c.33-.1.67-.16 1.01-.16.87 0 1.73.12 2.6.19 1.76.15 3.52.32 5.3.46a3.5 3.5 0 002.74-.71c.32-.3.75-.53.65-1-.1-.47-.67-.41-1-.45a22.8 22.8 0 01-6.24-2.16c-.62-.26-1-.83-.78-1.12.34-.5.83-.36 1.27-.21 1.72.48 3.4 1.07 5.04 1.78.7.54 1.56.84 2.45.85l.98-1.93zm-7.28 48c.04-.2.07-.42.08-.63-.09-2.35-.2-4.7-.27-7.05-.05-2.06 0-4.11 0-6.17v-9.34c0-2.13.08-4.26 0-6.38-.07-1.67.04-3.35.33-5 .14-.71.33-1.4.49-2.15a2.38 2.38 0 00-.58-.13h-3.41c-1.38 0-2.02.4-2.28 1.73a84.68 84.68 0 00-.98 6.4 106.71 106.71 0 00-.07 7.86c0 1.55.06 3.1.08 4.66-.04.76-.04 1.53 0 2.29.08 1.58.04 3.16-.1 4.74-.1 1.05-.14 2.11-.12 3.17.1 2 .3 4.09.47 6.13.01.1.04.18.1.26.7-1.38 1.77-2.38 2.22-3.75.26-.78 1.01-.85 1.56-.2l.16.25 2.32 3.3zm-16.95-14l3.51.08c.76 0 1.53.1 2.28.08.9 0 1.85.28 2.81-.16 0-1.16.12-2.3.11-3.41 0-1.61-.13-3.23-.17-4.85V87.2a12.2 12.2 0 010-1.6c.38-3.11.53-6.27 1.57-9.4-.37 0-.65-.08-.93-.1l-2.52-.07c-1.47 0-2.94-.1-4.41-.1a.83.83 0 00-.6.25 4.4 4.4 0 00-1.1 2.1c-.14 1.09-.38 2.16-.46 3.26a43.27 43.27 0 00-.07 3.78c0 1.09.16 2.18.16 3.27 0 2.1-.1 4.23-.15 6.35v1.59l-.03 2.7zm18.4.28c.34 0 .47.07.6.07h7.2a.46.46 0 00.48-.28.46.46 0 00.03-.2c0-.82.15-1.64.14-2.46 0-2.75-.16-5.5-.19-8.24 0-1.66.05-3.31.1-5 .06-2 .15-3.92.21-5.88 0-.3-.05-.6-.12-.9-.2-.05-.4-.09-.61-.11l-5.92-.15a1.57 1.57 0 00-1.7 1.12c-.27.74-.46 1.52-.57 2.3-.08 1.28 0 2.58 0 3.87.07 2.52.2 5 .23 7.56v6.49c.01.54.08 1.13.12 1.76v.05zm-74.94 78.58c-.42-1.76-.8-2-2.11-1.63-.32.1-.62.23-.9.4a1 1 0 01-1.4.07c-.08-.06-.28.05-.43.06h-.28l.14-.57c-1.01-.26-3.46.1-4.34.05-.9-.05-1.77-.13-2.61-.2v4.86c0 1.58.07 2.86.1 4.28.02.75.13 1.5.34 2.23l1.5-.08c.05-.35.08-.7.1-1.06 0-.93-.08-1.86-.09-2.8 0-.33.04-.66.12-1a.7.7 0 01.49-.57.71.71 0 01.73.2c.1.09.19.19.26.3a10.1 10.1 0 002.77 2.54c1.08.71 2.23 1.31 3.44 1.79 2.83.92 5.79 1.4 8.77 1.44.5-.03.98-.1 1.46-.2a27.23 27.23 0 01-6.82-7.74 2.37 2.37 0 01-3.25-1.14 1.07 1.07 0 01.07-1.13 1.01 1.01 0 011.08-.34c.25.02.5.14.86.19v.05zm-36.26 9.67c.08-.16.14-.33.16-.5v-2.8c-.03-.5-.03-1 0-1.5.06-.44.34-.56.72-.35.5.26.98.56 1.44.9a17.68 17.68 0 005 2.48c2.28.75 4.65 1.24 7.04 1.45.72.1 1.45.13 2.17.19a1.9 1.9 0 00-.7-1c-1.24-1.01-2.25-2.27-2.95-3.7l-2.01-3.4c-.15.06-.3.14-.43.22-1.01.69-1.38.67-2.24-.2a6.77 6.77 0 01-.8-1.25.7.7 0 01.06-.54.69.69 0 01.2-.21c.3-.3.58-.55 1-.34.43.2.77.29 1.15.43l.13-.17-.54-1.25c-.15-.02-.3-.02-.45 0-.8.27-1.64.3-2.45.1-.4-.07-.8-.1-1.2-.07-.9.13-1.83.18-2.75.15-1.23-.1-2.47-.1-3.7 0-.76 0-.73.08-.77.82.07.93.07 1.87 0 2.8-.08.33-.12.66-.12 1 0 1.65 0 3.3-.06 5-.03 1.97.06 2.03 2.16 1.69l-.06.05zM295.36 50a8.4 8.4 0 00-.7.54c-.1.1-.13.33-.26.4a4.48 4.48 0 01-3.56.5l-1.13-.31c0 1.28.06 2.43 0 3.58a15.7 15.7 0 01-.43 3.44c-.58 2-1.38 3.89-2.14 6l.86 1.09c.9-.52 1.75-1.13 2.53-1.82a22.4 22.4 0 012.83-2.32 2.14 2.14 0 00.94-1.44c.19-1.24.33-2.5.59-3.72.32-1.83.54-3.67.64-5.52 0-.11-.07-.2-.17-.42zM285 75v-.1h.4c1.4.13 1.64-.06 1.57-1.41-.13-2.4-.3-4.8-.5-7.2a1.59 1.59 0 00-1.47-1.62 3.9 3.9 0 00-3.56 1.56c-.54.87-.99 1.8-1.34 2.77a9.2 9.2 0 00-.41 5.08c.08.5.27.73.85.73 1.48.02 2.97.1 4.46.19zm9.06-37c.07.9.2 1.78.39 2.66.54 1.92.58 1.9 2.54 2h.1a.95.95 0 001.05-.57c.47-1 .95-1.9 1.37-2.87.36-1.07.53-2.19.5-3.31a.7.7 0 00-.23-.52c-1.16-1.13-1.64-1.56-3.36-.92-.14.08-.3.14-.45.19a1.46 1.46 0 00-1.23 1.05c-.28.77-.47 1.6-.66 2.29h-.02zm3.13 11.8c-.2.3-.3.66-.27 1v2c-.06 1.97-.5 3.9-1.31 5.7-.09.24-.15.48-.18.73l.18.13 3.18-2.27c1.09-.8 2.42-1.23 3.3-2.3l-.41-.61c-.7-1-1.38-2.1-2.1-3.11a2.12 2.12 0 00-1.74-1 2.67 2.67 0 01-.63-.31l-.02.05zm2.92.16l.64.83 1.18 1.46c.34.6.76 1.15 1.24 1.64.77.59 1.3-.32 1.92-.6.8-.35 1.56-.86 2.41-1.34a14 14 0 00-3.11-4.44 10.18 10.18 0 01-4.26 2.4l-.02.05zM203.85 176.8a5.36 5.36 0 00-2.28 2.1c1.86.2 2.72-.54 2.28-2.1zm-32.47 1.13a1.59 1.59 0 00.78 1.4.88.88 0 001 .19c.44-.23.34-.6.28-1-.65-.21-1.14-.91-2.06-.6zm28.92 1.6c-.78-1-1.4-1.21-2.15-.85.48 1.32 1.3 1.66 2.15.86zM297.06 44l-1.44-.17.55 1.86c.65-.47.65-1.08.9-1.7zm-101.5 132.52l.06.16.48-.2-.08-.16-.47.2z" fill="#1B4ECC"/><path d="M345.63 29.57c.3.59.26 1-.28 1.26a52.5 52.5 0 00-3.02 2c-.67.5-1.3 1.03-1.9 1.6-.25.26-.46.55-.65.85.5.14 1 .32 1.46.55a3.45 3.45 0 011.57 3.58 4.17 4.17 0 01-.8 2.08 3.4 3.4 0 01-3.65 1.21 3.02 3.02 0 01-1.96-3.13c.11-.74.27-1.46.48-2.18-.65 0-1.56.69-3.41 3-1.01 1.27-1.8 2.69-2.72 4.08-.32-.17-.25-.51-.12-.8.31-.77.67-1.52 1.07-2.25a14.5 14.5 0 013.96-4.69c.49-.34 1.01-.58 1.55-.9.38-.2.73-.46 1.01-.78a19.88 19.88 0 016.5-5.33c.3-.1.6-.15.91-.15zm-5.9 7.11a1.01 1.01 0 00-1.13.42 6.07 6.07 0 00-.92 2.81 1.44 1.44 0 00.57 1.21 2.02 2.02 0 003.18-.93c.17-.65.22-1.33.16-2a1.65 1.65 0 00-1.92-1.51h.05zM326.5 41.33c1.8-2.3 3.7-4.51 4.36-7.5l-.6.45a9.39 9.39 0 01-2.58 1.5 2.56 2.56 0 01-3.34-2.25 4.76 4.76 0 011.52-3.42 4.26 4.26 0 012.23-1.26 2.32 2.32 0 012.43.53c.35.31.73.6 1.13.84.36-.72.58-1.5.63-2.3.1-1.3.15-2.6.13-3.88a1.42 1.42 0 01.79-1.35.87.87 0 01.52 1c-.07 1.45-.2 2.9-.27 4.36-.16 1.25-.5 2.48-1 3.64-.21.48-.33 1-.35 1.52.02.8-.18 1.6-.57 2.3a19.52 19.52 0 01-4.12 5.7c-.4.37-.42.36-.91.12zm-1-8c0 1.18.72 1.69 1.81 1.29a7.57 7.57 0 003.14-2.23c.12-.11.2-.26.23-.42 0-.9-1.08-2.12-1.97-2a3.87 3.87 0 00-3.22 3.34v.02zM370.82 182.48h-9.32c-.83 0-1.66.18-2.5.24-.55 0-1.13-.06-1.7 0a51 51 0 00-3.26.33c-.4.06-.75.12-.95-.28-.2-.4.15-.82.66-.93.56-.1 1.12-.16 1.69-.2 2.1-.2 4.18-.46 6.28-.6 2.36-.14 4.73-.2 7.05-.25h5.2c.4 0 .8.06 1.19.16a.69.69 0 01.44.45c0 .17-.17.4-.33.53-.24.18-.51.3-.8.36-1.24.14-2.47.23-3.7.34l.05-.15zM151.7 185.68c-1.74 0-3.47-.06-5.2 0-1.71.06-3.59.3-5.38.45-.53 0-1.08 0-1.61.07-.36 0-.68-.06-.73-.5a.73.73 0 01.13-.58.72.72 0 01.5-.3 26.67 26.67 0 014.89-.44c2.2 0 4.4 0 6.61-.06 1.33 0 2.66-.16 4.03-.25.23-.03.46-.03.7 0a.62.62 0 01.46.29.58.58 0 01-.16.5c-.32.28-.7.48-1.11.59-1 .17-2.02.22-3.08.32l-.05-.1zM240 42.63c.37.11.7.29 1.01.51.9.92 1.73 1.9 2.61 2.85.42.46.92.87 1.29 1.36a38.45 38.45 0 003.02 3.27c.51.55.53.64 0 1.27-.63-.63-1.28-1.24-1.9-1.87-1.57-1.64-3.15-3.28-4.74-4.9-.39-.42-.82-.78-1.2-1.2a.94.94 0 01-.09-1.29zM345.69 48c-.79-.17-1.49-.3-2.16-.47a10.27 10.27 0 00-7.28.8c-.51.23-1.04.43-1.58.6-.15 0-.35-.13-.53-.19.07-.17.1-.4.21-.49a9.7 9.7 0 014.8-1.82c.93-.1 1.86-.14 2.79-.12 1.23.11 2.43.4 3.63.62.2.06.35.18.46.34a.7.7 0 01.06.54c-.06.1-.31.11-.4.2zM244.11 55.81a2.7 2.7 0 01-.66-.37 15.43 15.43 0 00-4.15-2.73c-.35-.17-.65-.33-.72-.75-.07-.42.13-.72.57-.72.2.02.4.07.57.15 1.67.68 3.22 1.61 4.6 2.76.25.25.45.55.58.88.14.4-.22.8-.79.78zM248.51 41.15c.08.06.3.17.38.35.88 2.2 1.74 4.42 2.6 6.64.11.2.16.44.14.67-.04.28-.18.53-.4.7-.29.2-.56 0-.73-.31a1.44 1.44 0 01-.16-.36 23.92 23.92 0 00-2.02-5.38 8.77 8.77 0 01-.53-1.6c-.11-.47.14-.72.72-.71zM321.76 39.56a8.4 8.4 0 01-.1-1 13.7 13.7 0 00-.19-3.75c-.22-.86-.55-1.69-.85-2.53-.13-.37-.2-.7.19-1 1.48 1.72 2.21 6.8.95 8.28z" fill="#1B4ECC"/><path d="M255.99 187.23h-6.85c-.1-.4-.16-.82-.2-1.23v-4.49-5.25c0-2.76-.1-5.51-.14-8.26v-4c0-2.15.07-4.3.07-6.44 0-3.42 0-6.83-.08-10.25 0-2.59 0-5.17-.08-7.76 0-1.38 0-2.76.13-4.14.1-1.68 0-3.38 0-5.06 0-2.23-.06-4.45-.07-6.67v-7.95c0-2.34-.2-4.69-.24-7v-3.25c-.1-1.48.09-3-.09-4.44a76.43 76.43 0 01-.2-9.23c0-1.36-.06-2.73 0-4.09 0-1.95.14-3.91.1-5.86 0-1.24.13-2.45.22-3.66.05-.4.12-.8.2-1.18a1.51 1.51 0 011.53-1.25l5.11.08c.23 0 .46.06.79.11a5.1 5.1 0 01-.25.76 6.33 6.33 0 00-.82 2.43c-.17 1.48-.36 3-.45 4.46 0 .95.12 1.92.11 2.87 0 1.65-.1 3.3-.13 4.95v3.69c0 2.65-.07 5.31-.1 8 0 .83.03 1.66.07 2.49.07 1.49.18 3 .26 4.46.11 1.84.22 3.69.3 5.53.06 1.84 0 3.58.1 5.37.07 2.52.22 5 .3 7.55.07 1.56.1 3.13.13 4.69 0 2.6.1 5.2.07 7.81 0 3.84-.18 7.69-.22 11.53 0 2.18.1 4.36.12 6.54 0 1.33 0 2.66-.08 4-.06 2.18-.13 4.37-.17 6.55v5.67c0 1 .13 2.1.17 3.15v1.87c0 .89.08 1.79.06 2.68-.04.99.06 1.97.3 2.93.05.43.06.86.03 1.29zM290.73 70.56a3.84 3.84 0 010-.48 1.98 1.98 0 011.21-1.96c.26-.1.53-.16.8-.16 1.9-.35 3.8-.68 5.7-1 1.31-.25 2.62-.51 3.91-.8.3-.06.56-.23.75-.47a1 1 0 00.1-.81.87.87 0 00-.63-.35 6.58 6.58 0 00-1.6.13c-1.24.3-2.45.68-3.67 1-.85.21-1.7.34-2.56.52-.66.13-1.3.29-1.94.48-1.3.42-2.2-.07-2.55-1.56.96-.66 2.02-1.35 2.98-2 1.27-.9 2.5-1.85 3.78-2.72a96.43 96.43 0 019.58-5.72c1.1-.57 2.24-1 3.34-1.59.83-.43 1.6-1 2.44-1.37 1.1-.57 2.25-1.03 3.43-1.38 2.02-.6 4.12-.94 6.23-1 1.07.05 2.13.23 3.15.54.95.26 1.3 1.2 1.65 2a15.86 15.86 0 011.13 5.47c0 2.32 0 4.64-.1 7-.05.34-.13.67-.23 1-.18 1.34-.26 2.7-.55 4a16.69 16.69 0 01-1.43 4.51 3.4 3.4 0 01-3.3 1.85c-1.78 0-3.54-.12-5.31-.16-1.77-.04-3.35 0-5.04-.05-2.24 0-4.48-.14-6.73-.17h-6.18c-1.8 0-3.6 0-5.4-.08a9.48 9.48 0 01-2.27-.68.67.67 0 01-.33-.35 1.99 1.99 0 011.25-2.17 16.9 16.9 0 012.02-.06c.69 0 1.38.16 2.07.12a7.1 7.1 0 001.86-.38.7.7 0 00.5-.62c0-.09-.01-.18-.04-.27a.54.54 0 00-.24-.37.56.56 0 00-.43-.08l-2.88.2-4.03.19c-.15-.05-.3-.12-.44-.2zM280.3 65.26l-1.01 1.87c-.9 0-1.75-.3-2.45-.85-1.63-.7-3.32-1.3-5.04-1.78-.44-.15-.93-.29-1.27.21-.19.3.17.86.78 1.12a22.8 22.8 0 006.24 2.17c.33 0 .9-.09 1 .45.11.54-.33.75-.65 1a3.47 3.47 0 01-2.74.71c-1.78-.14-3.54-.3-5.3-.46-.87-.07-1.73-.16-2.6-.19a3.28 3.28 0 00-1.26.27.68.68 0 00-.3.45.7.7 0 000 .27.8.8 0 00.75.81c1 .1 1.92.27 2.89.31 1.26.06 2.53 0 3.8 0 .3.04.6.04.9 0a4.2 4.2 0 013.14.63 1.81 1.81 0 01.83 1.93c-.13.22-.33.4-.57.5a2.1 2.1 0 01-.8.11c-2.56 0-5.14 0-7.7-.2-1.94-.16-3.88-.17-5.82-.24-1.39 0-2.79-.12-4.18-.15-1.07 0-2.14.08-3.2 0a7.96 7.96 0 01-4.44-1.34c-.5-.3-.86-.77-1.01-1.33-.17-.84-.26-1.69-.26-2.54 0-1.83.09-3.65.18-5.47.02-1.42.14-2.84.36-4.25.2-.93.5-1.84.9-2.7a4.1 4.1 0 013.03-2.17 7.94 7.94 0 014.72.16c1.3.4 2.66.63 3.94 1.1a64.69 64.69 0 018.66 4.1c1.36.77 2.78 1.7 4.17 2.55.6.37 1.18.76 1.8 1.08a9.67 9.67 0 012.5 1.87zM273.01 113.22l-2.38-3.38-.16-.25c-.53-.65-1.3-.58-1.56.2-.45 1.37-1.52 2.37-2.22 3.75a.63.63 0 01-.1-.26c-.18-2-.37-4.09-.47-6.13-.02-1.06.02-2.12.11-3.17.15-1.58.19-3.16.11-4.74-.04-.76-.04-1.53 0-2.29 0-1.55-.06-3.1-.08-4.66 0-1.16-.06-2.32-.05-3.48 0-1.46 0-2.92.12-4.38.07-.9.19-1.78.35-2.66.19-1.25.36-2.5.63-3.74.27-1.23.9-1.73 2.28-1.73H273c.2.02.4.06.58.13-.16.75-.35 1.44-.49 2.15-.3 1.65-.4 3.33-.33 5 .06 2.12 0 4.25 0 6.38v15.51c.06 2.35.18 4.7.27 7.05.01.23 0 .47-.02.7zM199.52 178.05c-.36-.09-.61-.17-.86-.21a1.02 1.02 0 00-1.08.34 1.08 1.08 0 00-.07 1.13 2.33 2.33 0 001.38 1.27 2.36 2.36 0 001.87-.13c1.76 3 4.07 5.62 6.82 7.75-.48.1-.97.16-1.46.19a29.28 29.28 0 01-8.77-1.44 18.65 18.65 0 01-3.44-1.79 10.1 10.1 0 01-2.77-2.54c-.07-.1-.16-.2-.26-.3a.72.72 0 00-.73-.2.71.71 0 00-.49.58c-.08.33-.12.66-.12 1 0 .93.07 1.86.08 2.79 0 .35-.04.7-.09 1.06l-1.5.08a8.85 8.85 0 01-.33-2.23c0-1.42-.1-2.85-.11-4.28-.02-1.43 0-3.16 0-4.85.84.06 1.73.15 2.6.19.88.04 3.36-.31 4.35-.05a9.6 9.6 0 002.87 0c1.3-.41 1.69-.12 2.11 1.64zM163.32 187.72c-2.08.34-2.17.25-2.13-1.7 0-1.65 0-3.3.06-5 0-.34.05-.67.12-1 .07-.93.07-1.87 0-2.8 0-.74 0-.8.76-.82 1.24-.1 2.48-.1 3.71 0 .92.03 1.85-.02 2.76-.15 1.2.14 2.43.14 3.64 0 .15-.02.3-.02.45 0l.54 1.25-.13.17c-.38-.14-.77-.26-1.15-.43-.37-.17-.75.05-1 .34a.71.71 0 00-.29.47.68.68 0 00.16.53c.19.35.42.69.67 1 .86.87 1.22.89 2.24.2.13-.08.28-.15.43-.21.67 1.14 1.33 2.27 2.01 3.39.7 1.43 1.7 2.7 2.95 3.7.34.25.58.6.7 1-.72-.06-1.45-.09-2.16-.19-2.4-.21-4.77-.7-7.06-1.45a17.7 17.7 0 01-4.88-2.49 11.4 11.4 0 00-1.44-.9c-.37-.21-.66-.09-.72.36-.03.5-.03 1 0 1.49v2.8c-.06.16-.14.3-.24.44zM295.36 50c.1.22.17.31.16.39-.1 1.85-.32 3.7-.64 5.52-.26 1.23-.4 2.48-.58 3.72a2.12 2.12 0 01-.95 1.44c-1 .7-1.95 1.47-2.83 2.32-.78.7-1.63 1.3-2.53 1.82l-.86-1.09c.76-2.08 1.55-4 2.14-6 .27-1.13.42-2.28.43-3.44.07-1.15 0-2.3 0-3.58.44.13.8.21 1.13.32a4.48 4.48 0 003.56-.51c.13-.07.16-.3.27-.4.22-.18.46-.35.7-.51zm-1.35 2.06l.06.19.53-.17-.07-.22-.52.2zm-.51 1.57l.15-.1-.23-.44h-.1l.18.54zM284.99 75c-1.5-.06-3.02-.15-4.46-.15-.58 0-.77-.22-.85-.73a9.2 9.2 0 01.41-5.08c.35-.97.8-1.9 1.34-2.77a3.87 3.87 0 013.56-1.56 1.6 1.6 0 011.48 1.62c.19 2.4.36 4.8.5 7.2.06 1.35-.19 1.54-1.59 1.41h-.4V75zM300.12 49.91c1.6-.45 3.07-1.3 4.28-2.45a14 14 0 013.11 4.44c-.85.48-1.6 1-2.4 1.35-.62.27-1.16 1.18-1.93.6-.48-.5-.9-1.05-1.24-1.65-.38-.5-.79-1-1.18-1.46l-.64-.83zM297.06 44c-.24.64-.24 1.25-.9 1.69l-.54-1.86 1.44.17z" fill="#FBF9F9"/><path d="M173.44 101.28c-.39 0-.8 0-1.2-.09-.94-.13-1.23-.55-1-1.44a6.85 6.85 0 013.02-3.84c.34-.22.69-.42 1-.61a6.33 6.33 0 014.98-.32c.59.17.77.57.56 1.17a7.2 7.2 0 01-3.6 4.09 7.49 7.49 0 01-3.76 1.04zm5.2-3.46l-.45.2a1.84 1.84 0 01-2.43-.49l-.55-.66a3.95 3.95 0 00-2.53 3 6.44 6.44 0 005.95-2.1c.36-.36.7-.74 1-1.14.28-.41.12-.61-.44-.67l-.55 1.86zM183.86 101.28c-.4 0-.8 0-1.2-.09-1.02-.13-1.29-.55-1.02-1.5a6.42 6.42 0 012.1-3.1 12 12 0 012.1-1.35 6.2 6.2 0 014.79-.27c.62.2.8.6.56 1.25a6.92 6.92 0 01-3.1 3.78 7.45 7.45 0 01-4.23 1.28zm5.26-3.66a1.88 1.88 0 01-1.93.58 9.58 9.58 0 01-1.8-1.3 5.04 5.04 0 00-2.5 3 6.7 6.7 0 005.3-1.3c.33-.3.64-.63.92-1 .32-.3.62-.64.9-1 .22-.35.06-.5-.51-.58l-.38 1.6zM181.28 85a.83.83 0 01-.64-.9c-.05-1.38.06-2.77.33-4.14.33-1.31.5-2.65.85-3.95.3-.98.67-1.94 1.1-2.87a.69.69 0 01.38-.4.7.7 0 01.54 0c.48.17.4.56.28.9-.23.7-.5 1.38-.73 2.07a25.2 25.2 0 00-1.14 4.72c-.2 1.3-.41 2.6-.65 3.9-.07.24-.18.46-.32.67zM177.13 76.9a5.78 5.78 0 011.43 2.76c.4 1.4.56 2.85.83 4.27.07.36.09.67-.38.77a.62.62 0 01-.81-.5l-.32-1.37c-.32-1.6-.85-3.14-1.56-4.6-.49-.95-.35-1.13.81-1.34zM176.27 104.38c.13.31.24.55.33.8a2.76 2.76 0 003.42 1.76c.16-.04.33-.07.5-.09h.48c.23 1.06.14 1.2-.9 1.44a3.76 3.76 0 01-4.38-1.77 1.39 1.39 0 01-.26-1.2 1.38 1.38 0 01.81-.94zM185.97 79.06a1 1 0 010 1.17 12.7 12.7 0 00-1.84 3.74c-.1.28-.22.55-.38.8a.72.72 0 01-.58.28.63.63 0 01-.36-.49c-.04-.46.01-.93.15-1.37.5-1.16 1.01-2.29 1.64-3.4.36-.64.42-.6 1.37-.73z" fill="#1B4ECC"/><path d="M178.63 97.81a6.4 6.4 0 01-5.95 2.1 3.9 3.9 0 012.53-3l.55.66a1.82 1.82 0 002.43.49l.45-.2v-.05z" fill="#FBF9F9"/><path d="M178.64 97.82l.5-1.82c.57.06.73.26.46.67-.32.4-.65.78-1 1.14l.04.01zM189.1 97.6c-.27.36-.58.7-.92 1a6.66 6.66 0 01-5.29 1.3 4.99 4.99 0 012.5-3c.55.5 1.15.93 1.8 1.3a1.9 1.9 0 001.93-.58l-.01-.02z" fill="#FBF9F9"/><path d="M189.12 97.62l.4-1.62c.56.07.72.23.5.58-.28.35-.58.69-.9 1v.04z" fill="#FBF9F9"/></svg>