<svg width="151" height="112" viewBox="0 0 151 112" fill="none" xmlns="http://www.w3.org/2000/svg"><g clip-path="url(#clip0)"><path d="M91.1 13.12l.39 6.68v7.49l-.9 1.28 6.12 8.87v2.74l.32 2.83 5.67 3.95 1.03 2.55-1.96 5.95-10.92 17.22.26 6.95-12.52-.28-2.9-19.28-4.53-20.86-1.58-11.44.38-5.26 2.6-5.23 3.12-2.5 4.25-1.23 6.47-1.5h3.24l1.47 1.07z" fill="#FBF9F9"/><path d="M53.23 110.51l-1.16-.64a21.9 21.9 0 00-5-2 15.7 15.7 0 00-2.27-.28 2.54 2.54 0 00-1.83.58c-.4.33-.83.62-1.28.86-.87.45-1.88.58-2.83.35-1.35-.3-2.65-.75-3.9-1.35a31.9 31.9 0 00-5.13-1.85 9.23 9.23 0 00-3.15-.25 5.09 5.09 0 00-2.81 1.24c-.6.46-1.33.75-2.1.81a8.72 8.72 0 01-4.56-.84c-1.1-.44-2.17-.94-3.24-1.43-1.15-.5-2.36-.87-3.59-1.1-.78-.18-1.55-.4-2.34-.54-1.28-.22-2.51-.41-3.78-.53-.86-.1-1.73-.04-2.6-.06-.13 0-.27.06-.38 0a.56.56 0 01-.28-.28c0-.06.02-.12.05-.17.03-.06.07-.1.12-.13.3-.1.6-.17.92-.21a16.9 16.9 0 015.73.44c1.27.29 2.55.5 3.82.86 1.16.34 2.3.74 3.4 1.23 1.39.71 2.85 1.29 4.36 1.7.68.19 1.37.27 2.07.24.87-.11 1.7-.45 2.37-1a5.66 5.66 0 014-1.13c1.5.15 2.97.47 4.4.96 1.5.47 2.87 1.22 4.34 1.77 1.02.44 2.09.73 3.19.87.7.05 1.38-.18 1.9-.64-.29-.2-.54-.4-.8-.55a22.54 22.54 0 01-4.93-4.16 23 23 0 01-3.73-5.5 28 28 0 01-1.91-4.97 23.07 23.07 0 01-.28-11 24.4 24.4 0 012.74-7 22.56 22.56 0 019.2-8.69 21.64 21.64 0 016.9-2.29 20.9 20.9 0 014.62-.32c2.54.12 5.05.64 7.43 1.54 1.14.41 2.24.91 3.3 1.5.5.3 1 .63 1.5.94l.36.19 8.5-11.62a2.58 2.58 0 00-.42-.1c-.7 0-1.4-.03-2.1 0-.65 0-1.3.02-1.96.09-.77.05-1.54.05-2.31 0l-6.1.09c-1.27 0-2.5.07-3.75.1l-6.47.12-5.97.1c-2.14 0-4.27.07-6.4.09-1.76 0-3.52 0-5.28-.05-.68-.04-1.34-.15-2-.32-.36-.1-.71-.26-1.04-.46-.87-.5-.8-1.69-.17-2.45a.42.42 0 01.38-.08.6.6 0 01.25.4c0 .19-.04.38-.1.56a.67.67 0 00.32.77c.56.31 1.2.47 1.83.47l.42-14.96a2.96 2.96 0 00-.5 0l-4.3.48c-.3.03-.59.03-.88 0a.4.4 0 01-.28-.27.44.44 0 01.18-.35c.15-.08.31-.13.48-.14.92-.14 1.84-.28 2.76-.39.52-.07 1.06-.1 1.58-.16.31-.03.64-.09.99-.15l.34-9.48-.87.17c-1.6.37-3.2.75-4.82 1.11-.18.05-.38.07-.57.05-.14 0-.27-.16-.4-.24.1-.12.16-.32.28-.36.53-.2 1.08-.37 1.63-.51 1.46-.38 2.92-.73 4.38-1.08a.57.57 0 00.45-.63v-1.86l-1.9.14-3.54.27c-.28 0-.59.1-.68-.28-.06-.25.1-.4.55-.45 1-.11 1.98-.2 2.98-.32.84-.1 1.67-.2 2.58-.33.06-.27.1-.55.13-.83.05-.6.1-1.18.12-1.78 0-.49.13-.63.63-.68.49-.02.98-.02 1.46 0l4.95.22c.03 0 .07-.05.15-.11a5.8 5.8 0 01-.67-.23c-.55-.27-1.1-.53-1.63-.85a.59.59 0 01-.32-.63.71.71 0 01.63-.56.95.95 0 01.38-.03c.82.04 1.63.25 2.38.6h.2c-.05-.3-.1-.57-.12-.85a.57.57 0 01.86-.6c.3.17.54.4.74.67.51.66.92 1.39 1.2 2.16.2.54.22.5.77.54 2.22.12 4.45.26 6.66.4.63.05.73.2.72.86 0 2-.03 4.01-.05 6.02v1.58h2.14c.72 0 1.44.04 2.15.09.71.05.77.2.74.88-.06 1.49-.08 2.97-.1 4.46v2.16a.9.9 0 00.32.84c.1.06.14.17.21.24a2.7 2.7 0 011.15 2.1h3c1.98.03 3.97-.17 5.96.04.56.05.7.17.71.73v5.53c0 1.84 0 3.56.04 5.34V55c1.55.16 3.13 0 4.81.18-.55-2.6-1.05-5.12-1.6-7.64-.56-2.51-1.17-5.02-1.77-7.56a2.64 2.64 0 00-.57-.09c-1.1 0-2.2.15-3.26.45a5.27 5.27 0 01-5.1-1.27c-.47-.43-.9-.88-1.31-1.37-.82-1.1-.45-1.97.51-2.73a4.8 4.8 0 012.71-.78c1.85-.11 3.7.03 5.5.43.16.04.33.05.52.08.1-.33.1-.68 0-1-.24-1.87-.5-3.74-.73-5.6-.18-1.31-.18-2.63 0-3.94.03-.22.03-.45.05-.7l-2.83-.22c-.72-.06-1.44-.1-2.14-.23-1-.16-1.93-.64-2.64-1.37a2.6 2.6 0 00-2.42-.81c-.6.03-1.22.03-1.83 0-.2 0-.37-.1-.35-.29.02-.19.16-.27.26-.38.1-.11.12-.05.18-.05 1.04 0 2.08-.03 3.11 0a1.76 1.76 0 011.2.68c.8.84 1.84 1.38 2.98 1.55 1.55.25 3.1.41 4.66.49.5-2.75 2-5.23 4.18-6.97l-.56-1A30.26 30.26 0 0069.53 10a9.6 9.6 0 00-1.87-1.52 29.95 29.95 0 00-2.95-1.74 39.02 39.02 0 00-8.9-3.3c-2.24-.5-4.5-.86-6.77-1.1-1.72-.19-3.45-.44-5.18-.6-1.73-.15-3.62-.3-5.44-.35-2.44-.08-4.88-.07-7.32-.1-.42-.03-.85-.07-1.27-.14a.76.76 0 01-.35-.13.29.29 0 01.1-.53c.16-.04.33-.05.5-.04 1.46.06 2.92.02 4.38-.12.63-.04 1.27-.04 1.9 0 1.76.08 3.53.15 5.28.29 1.75.14 3.66.38 5.49.57 1.22.13 2.45.24 3.66.38 2.06.27 4.1.66 6.12 1.16 2.22.56 4.38 1.32 6.45 2.3 1.75.8 3.43 1.74 5.03 2.82a18.24 18.24 0 014.24 4.42c.7.92 1.23 1.97 1.87 3.02.19-.07.36-.16.53-.26a11.6 11.6 0 013.93-1.71c1.48-.36 2.94-.8 4.45-1.14 1.06-.21 2.12-.37 3.19-.47.71-.08 1.43-.1 2.15-.06.5.02 1 .11 1.49.28a1.57 1.57 0 011.27 1.64c0 .45 0 .89.06 1.34l.36 5.13.31 4.1c.06.92 0 1.83-.16 2.73a2.34 2.34 0 01-.95 1.76l5.81 8.27c.64-2.3 1.28-4.46 1.91-6.75-.26 0-.44 0-.63.05-.97.15-1.91.32-2.9.44-.97.13-1.22-.1-1.43-1.01-.18-.81-.32-1.63-.45-2.44-.3-1.8-.6-3.6-.88-5.4a40.8 40.8 0 01-.42-8.8c.05-.73.37-.96 1.11-.78 1.62.42 3.24.82 4.86 1.28 1.61.46 3.18.86 4.75 1.37 2.34.7 4.6 1.62 6.76 2.76a9.34 9.34 0 012.8 2.15 4.46 4.46 0 011.1 3.71 4.94 4.94 0 01-.64 1.58 5.62 5.62 0 01-2.03 2.13c-.27.16-.56.3-.86.4a.75.75 0 00-.57.66c-.3 1.32-.58 2.65-.91 3.96-.48 1.87-1 3.72-1.5 5.59-.03.12-.05.25-.06.38l2.31 1.7 4.87 3.54c.67.5 1.32 1 1.97 1.51.26.18.57.27.89.23a20.67 20.67 0 016.6.62c1.62.57 2.99 1.47 3.5 3.22a4.32 4.32 0 01-.3 3.27 1.28 1.28 0 00-.15 1.23c.25.57-.13.96-.64 1.27 0 .12.03.24.05.36a1.02 1.02 0 01-.52 1.15c-.13.08-.28.12-.43.12-.46.05-.9.15-1.33.3-.63.22-1.35.17-2 .38-.12.04-.26-.03-.38-.06a1.23 1.23 0 00-1.1.17c-.16.09-.34.15-.53.18-.2.05-.42.04-.48-.18a.85.85 0 01.1-.51c.06-.12.21-.2.34-.33a11.7 11.7 0 00-2.41-1.27c1.1 3.05 2.13 5.97 3.18 8.94l1.1-.17c2.87-.51 5.8-.47 8.65.11 2.7.52 5.29 1.5 7.64 2.92a20.26 20.26 0 015.1 4.14c.63.76 1.33 1.47 1.96 2.24.76.99 1.43 2.04 2 3.14a22.1 22.1 0 011.59 3.6 27.8 27.8 0 011 3.82c.34 1.82.44 3.67.32 5.5a25.82 25.82 0 01-.94 5.44 22.87 22.87 0 01-3.39 7.05 19.78 19.78 0 01-3.86 4.2 23.07 23.07 0 01-4.8 3.06 35.78 35.78 0 01-4.27 1.6 17.4 17.4 0 01-3.25.54 29.1 29.1 0 01-3.48.14c-.9-.05-1.81-.15-2.7-.3-2.65-.4-5.2-1.26-7.54-2.55a23.03 23.03 0 01-5.63-4.1 24.52 24.52 0 01-5.09-7.25 28.17 28.17 0 01-1.6-4.34c-.66-2.47-.9-5.04-.71-7.6.1-1.43.3-2.86.63-4.26.44-1.7 1.06-3.35 1.86-4.92a22.45 22.45 0 019.73-9.85c.9-.45 1.82-.88 2.76-1.33-.47-2.03-1.27-3.95-1.91-6.05-.33.32-.58.54-.8.78-.92 1.08-1.82 2.17-2.75 3.24-1.6 1.87-3.18 3.73-4.8 5.58-1 1.15-2.06 2.26-3.06 3.4-.8.9-1.56 1.84-2.35 2.75-.94 1.07-1.9 2.13-2.81 3.18l-2.3 2.63-2.74 3.08-.64.7c.08.75.14 1.57.25 2.38.26 1.91.53 3.86.82 5.8.1.7.29 1.4.46 2.1.27.85.82 1.6 1.56 2.1.63.53 1.4.95 2.08 1.45.9.64 1.74 1.35 2.03 2.5a3.74 3.74 0 01-1.6 4.32c-1.34.94-2.78.87-4.27.52a14.71 14.71 0 01-3.4-1.39c-1.91-1.02-3.82-2.08-5.73-3.14-1.1-.64-2.18-1.3-3.28-1.95a4.93 4.93 0 01-2.47-3.82c-.07-.54-.09-.55-.63-.63l-3.1-.4c-.09.2-.16.34-.2.5-.39 1.41-.92 2.78-1.58 4.08a28.53 28.53 0 01-2.65 4.17 18.72 18.72 0 01-3.73 3.71 22.6 22.6 0 01-5.25 3.07c-1.69.69-3.45 1.2-5.24 1.5-.34.06-.64.1-1.01.13-.4.05-.78.15-1.15.3-.42.14-.86.2-1.3.17-1.64 0-3.27-.1-4.9-.12h-3.61c-1.2 0-2.42 0-3.63-.04l-6.59-.1h-1.84l-6.91-.14h-4.46c-2.58-.04-5.16-.12-7.74-.17H11.5l-5.52-.11H3.94a3.5 3.5 0 01-.64-.08.43.43 0 01-.34-.59.38.38 0 01.2-.2l.14-.02c.55-.04 1.1-.08 1.64-.09H9c1.1 0 2.2.07 3.3.08 2.72 0 5.42.04 8.13.08 2.1.03 4.19.1 6.29.14 2.1.05 4.07.12 6.1.16.99 0 1.99-.06 2.98-.04l6.67.14 8.13.14a37.4 37.4 0 012.59.04l.04-.19zm65.55-42.17c-.22.05-.43.13-.64.2a18.53 18.53 0 00-6.13 4.43c-.74.8-1.4 1.65-1.99 2.55a21.27 21.27 0 00-2.75 15.96c.14.85.36 1.7.66 2.5.65 1.75 1.5 3.41 2.55 4.95a23.75 23.75 0 003.26 3.7c1.48 1.31 3.13 2.4 4.9 3.26a18.52 18.52 0 0011.22 1.7 18.3 18.3 0 0010.27-5.3c1.41-1.4 2.59-3.03 3.5-4.8a21.14 21.14 0 001.43-3.59c1.1-3.65 1.16-7.55.16-11.23-.72-2.8-2-5.42-3.76-7.71a20.45 20.45 0 00-12.15-7.65 19.17 19.17 0 00-7.63.09c-.08.03-.16.08-.22.14.05.2.08.38.14.56.26.83.56 1.65.81 2.48.5 1.61.97 3.24 1.46 4.86.27.87.59 1.73.81 2.6.82 3.2 1.6 6.41 2.38 9.63.08.45.08.92 0 1.37a.8.8 0 01-.77.73.95.95 0 01-1.01-.5c-.2-.4-.38-.81-.52-1.23-.27-.87-.5-1.75-.76-2.62l-1.33-4.46c-.64-2.06-1.2-4.14-1.83-6.2-.43-1.4-.9-2.78-1.35-4.17l-.71-2.25zm-28.1 10.04l.03-.48c-.07-1.1-.13-2.2-.23-3.3-.17-1.79-.37-3.58-.53-5.36l-.45-4.94-.12-1.52c-.16-1.55-.33-3.1-.46-4.66-.14-1.65-.24-3.3-.36-4.95l-.52-6.58c-.2-2.5-.42-4.98-.64-7.47-.12-1.5-.2-3-.3-4.5 0-.18-.05-.36-.08-.54l-.56.2c-.33-.3-.18-.58-.06-.85.5-1.07 1-2.15 1.53-3.18.4-.83.9-1.6 1.9-1.82.14-.05.28-.11.4-.18a1.47 1.47 0 001.02-1.2c.14-.58.21-1.17.23-1.77-.04-1.52-.14-3.04-.25-4.57-.15-2.3-.35-4.6-.47-6.9a1.18 1.18 0 00-.91-1.2 3.6 3.6 0 00-1.13-.17c-1.86 0-3.72.21-5.54.64-1.62.38-3.25.8-4.86 1.22-.93.25-1.8.65-2.59 1.19-.85.6-1.67 1.23-2.48 1.9-.39.3-.73.66-1.01 1.06A13.68 13.68 0 0070 24.86a28.1 28.1 0 00.4 6.07c.24 1.66.5 3.3.78 4.95.26 1.53.5 3.06.82 4.57.46 2.2.98 4.38 1.47 6.56l.46 1.99c.33 1.5.69 3.01 1 4.52.34 1.7.63 3.41.96 5.1.25 1.46.47 2.92.7 4.38.18 1.09.33 2.18.5 3.27.18 1.09.36 2.13.5 3.18.19 1.27.33 2.55.5 3.78.15 1.13.32 2.26.5 3.4.05.58.2 1.15.44 1.69l11.64.06zm-18.51 15.1c-.33-.08-.53-.13-.73-.15l-2.45-.36c-1.57-.24-3.14-.48-4.71-.7-1.57-.23-3.23-.44-4.84-.67-1.91-.29-3.82-.6-5.78-.87a6.21 6.21 0 01-1.82-.55 2.95 2.95 0 01-1.68-2.84 3.3 3.3 0 012.94-3.24 1.72 1.72 0 001.24-.85c.8-1.15 1.6-2.28 2.45-3.4.76-1.02 1.56-2 2.34-3 1.15-1.47 2.3-2.92 3.44-4.4.45-.57.89-1.17 1.33-1.76a2.27 2.27 0 00-.18-.25c-.11-.1-.23-.19-.35-.27a20.08 20.08 0 00-7-2.9 18.38 18.38 0 00-11.25 1.24c-.88.37-1.73.8-2.54 1.32a20.37 20.37 0 00-6.03 6.26c-.81 1.41-1.47 2.9-1.95 4.46a19.24 19.24 0 00-.9 5.05c-.06 1.44.01 2.88.2 4.3a20.84 20.84 0 0012.3 16.3c2.3 1.06 4.8 1.6 7.33 1.6a17.98 17.98 0 009.6-2.45 19.99 19.99 0 003.97-3.05 19.28 19.28 0 004.59-7.3c.17-.47.3-.96.47-1.53h.01zm27.74-78.7c-.03.93-.14 1.82-.1 2.7.07 1.7.18 3.39.35 5.1.13 1.32.38 2.63.57 3.94.03.19.03.37 0 .56-.13.5-.3 1-.46 1.52l-1.47 4.86c-.25.83-.5 1.66-.72 2.5-.35 1.41-.7 2.83-.98 4.26-.08.46-.06.93.06 1.38.24.87.76 1.63 1.49 2.16.65.5 1.34.96 2.05 1.37.95.55 1.95 1.02 2.91 1.56 1.72.95 3.43 1.9 5.16 2.88 1.46.8 2.95 1.55 4.45 2.32l2.61 1.32c.41.2.86.35 1.27.58 1.28.71 2.5 1.46 3.74 2.18.13.06.27.12.41.16a2.21 2.21 0 00-.44-.5c-.09-.08-.19-.26-.16-.34.1-.22.28-.13.44-.05l.28.14 1.28.63a1 1 0 00.91.07c-.54-.36-1-.64-1.44-.96-.2-.13-.41-.25-.26-.63.2.03.39.08.58.14.5.22.99.47 1.5.68.33.14.67.25 1.02.33a.64.64 0 00.47-.21c.16-.2 0-.41-.16-.56-.08-.05-.17-.1-.27-.14-.4-.24-.8-.47-1.18-.73-.1-.07-.1-.25-.16-.37.14 0 .28-.1.4-.07.37.12.74.29 1.12.43a.8.8 0 00.85 0 3.49 3.49 0 00-.22-.47c-.4-.55-.89-1.02-1.46-1.39-1.94-1.4-3.9-2.79-5.83-4.2-1.35-.98-2.68-2-4.01-3-1.34-1-2.71-2.02-4.06-3.05-1.35-1.02-2.48-1.97-3.76-2.9a.81.81 0 01-.4-1c.04-.1.06-.2.08-.3.46-1.76.94-3.53 1.38-5.29.34-1.36.64-2.73.97-4.08.53-1.88.7-3.84.51-5.79a4.4 4.4 0 00-.98-2.35 1.9 1.9 0 00-2.66-.44 8.27 8.27 0 00-1.98 1.66c-.84 1-1.5 2.12-1.95 3.33-.2.48-.42.96-.67 1.52a8.7 8.7 0 000-1.16c-.32-2.32-.5-4.66-.55-7v-2.55c-.02-.3 0-.66-.54-.74h.01zm-8.9 56.77c.42-.63.77-1.12 1.1-1.63l1.7-2.74c1.05-1.67 2.1-3.32 3.14-5 .86-1.4 1.65-2.85 2.54-4.25a50.4 50.4 0 002.99-5.3c.45-.9.72-1.87.82-2.86.03-.25 0-.5-.1-.74a25.3 25.3 0 00-1.02-1.9c-.1-.15-.23-.26-.38-.34-.36-.2-.83-.63-1.21-.84a37.24 37.24 0 01-3.28-2.43 3.71 3.71 0 01-.98-3.51c.1-.57.2-1.13.33-1.69a.85.85 0 00-.25-.86c-.3-.35-.59-.71-.85-1.1-.7-.98-1.39-1.97-2.07-2.96l-1.96-2.81-1.06-1.48a1.9 1.9 0 00-1.8 1.27c-.13.3-.34.58-.5.88a2.97 2.97 0 00-.51 2.22c.1.56.14 1.12.13 1.7l.05.18c.06.24.22 3.22.24 3.49.1 1.14.23 2.27.3 3.41.05.96.44 5.16.47 5.73l.5 5.69.64 6.64c0 .49.09.97.12 1.46l.28 3.18.26 2.71.11 1.27c.06.82.14 1.66.24 2.61zm2.06 8.36l.17.07 20.36-22.91c-.88 0-1.7.07-2.54.09l-5.27.13-4.7.13a.6.6 0 00-.56.33c-.27.48-.54.95-.83 1.42-1.1 1.88-2.22 3.75-3.36 5.62-.54.88-1.13 1.73-1.69 2.6-1.11 1.72-2.22 3.46-3.35 5.17a1.2 1.2 0 00-.22.82l.17 1.96.18 3.07.18.06.76.07c.43.04.54.16.58.6.07.24.09.5.11.77zM68.73 43.16c-.54 0-1.07-.08-1.6-.08-2.34.05-4.69.12-7.04.16a.72.72 0 00-.67.37c-.55.86-1.1 1.71-1.68 2.55-.27.42-.59.82-.95 1.18-1.1 1.12-2.45 2-3.93 2.54-1.3.52-2.65.89-4.03 1.11-.33.04-.63.12-1.05.19l.12 4.24 20.83-.45V43.16zm-21.84 7.2V47.8c-.53-.24-1.12 0-1.62-.34.42-.7 1.15-.19 1.61-.47.06-1.27.11-2.54.18-3.76 0-.64.23-.85.91-.87 1.28-.04 2.5-.06 3.75-.06 1.1 0 2.2.03 3.3.05h1.16c-.14-.15-.3-.26-.5-.33-.4-.2-.82-.4-1.23-.63a.7.7 0 01-.4-.74c.04-.28.33-.45.74-.49h.38l1 .11c-.35-1.03-.22-1.16 1.15-1.27l.2-6.6H54.9c-1.37 0-2.75.08-4.13.09a1.06 1.06 0 00-.8.3c-.3.28-.63.58-.88.9a14.25 14.25 0 01-3.33 2.92c-1.19.72-2.5 1.27-3.75 1.85-.45.22-.46.2-.46.71 0 1.42.08 2.84.1 4.26v8.3c0 1.06-.03 2.11-.04 3.18 0 .46.06.53.5.53l1.32-.03 3.1-.08.57-.03-.18-4h-1c-.47.04-.69 0-.73-.27-.03-.27.2-.44.64-.53.1 0 .22 0 .32-.03l.74-.13zm5.54-26.57a1.9 1.9 0 00-.33-.07l-6.54-.17c-.39-.05-.77.05-1.09.28-.73.6-1.48 1.19-2.19 1.82-.91.82-1.92 1.53-3 2.12a19.32 19.32 0 01-3.93 1.64.64.64 0 00-.32.64c0 1.02-.05 2.04-.08 3.05l-.17 5.58c0 .18.03.35.05.53 1.96-.23 3.9-.65 5.78-1.23v-1.6l-2.1.2-1.9.18c-.27 0-.6.08-.7-.27-.09-.25.13-.43.63-.52 1.23-.2 2.46-.4 3.7-.57.44-.06.48-.08.52-.53v-.58l.1-1.9a.57.57 0 01.52-.64c.12-.03.25-.05.38-.06l4.45-.1c.45.09.91.05 1.33-.12-.46-.17-.84-.28-1.2-.45-.37-.17-.72-.38-1.03-.63a.64.64 0 01-.17-.56.56.56 0 01.42-.31c.3-.02.6 0 .88.05.2 0 .39.08.64.12 0-.23-.07-.38-.07-.53 0-.52.25-.8.78-.71.21.03.41.1.59.22a4.7 4.7 0 012.21 2.78h1.63c.26-2.55.08-5.08.2-7.66zM72.32 92.5c.83-1.99.72-7.58-.2-9.9a6.09 6.09 0 00-.68 0l-7.07.86c-2.31.27-4.63.52-6.95.8-.29.02-.58.09-.85.19a.71.71 0 00-.4 1.1 3.44 3.44 0 01-.92 4.2c-.12.07-.22.16-.43.34l17.5 2.41zM34.73 40.24l-.55 15.16h6.5c-.04-5.49.22-10.92 0-16.33l-5.95 1.17zm40.65 19.88l-.21-.06c-2.17 3.18-4.65 6.13-6.86 9.24.72.75 1.4 1.42 2.04 2.13a23.68 23.68 0 014.57 7.15c.3.7.55 1.42.81 2.14.09.22.15.48.45.45.57 0 1.14-.1 1.68-.3 0-.26-.05-.47-.08-.64-.07-.37-.15-.75-.2-1.12-.07-.38 0-.45.39-.56l.16-.07c-.93-6.16-1.81-12.25-2.75-18.35v-.01zm-9.4 12.09l-.26.27c-1.67 2.2-3.33 4.46-5.02 6.63-1 1.27-2.03 2.54-3.05 3.81-.11.14-.3.25-.2.47.77-.08 14-1.57 14.42-1.87a21.64 21.64 0 00-5.9-9.28v-.03zm37.84-24.36l-.13.09c.12.3.22.63.36.92.17.39.2.83.1 1.24a14.04 14.04 0 01-1.2 3.4c-.1.2-.18.42-.25.63h11.53a.72.72 0 00-.41-.82c-.92-.47-1.83-.96-2.74-1.45l-3.18-1.71c-.76-.41-1.53-.8-2.28-1.23-.62-.33-1.21-.7-1.81-1.04v-.03zM69.28 35.53a20.18 20.18 0 00-3.71-.4c-.27 0-.55-.05-.82-.06-.95-.09-1.91.1-2.76.55a1.12 1.12 0 00-.38 1.8c.4.46.84.88 1.32 1.27 1.2.82 2.47 1.32 4 .91 1.07-.23 2.16-.4 3.25-.49.58-.08.64-.15.57-.72 0-.13-.15-.77-.15-.88-.05-.53-.15-1.05-.23-1.57 0-.2-.12-.32-.32-.28-.1.27-.43-.02-.78-.1l.01-.03zm-21.52 7.64a30.44 30.44 0 000 3.73c.41 0 .74 0 1.07-.05.64-.08 1.28-.19 1.91-.27a12.5 12.5 0 005.97-2.14c.5-.37 1-.74 1.47-1.14l-.06-.13H47.76zm31.77 50.38c.1-.76-1.37-11.11-1.65-11.7l-1.75.19c.07.32.14.54.18.77.17 1.22.4 2.42.5 3.64.14 1.86.03 3.73-.31 5.57-.06.32-.08.63-.12 1.05l3.15.48zm46.16-41.37a1.58 1.58 0 00.55-1.2 2.99 2.99 0 00-.34-2.45c-.37-.47-.82-.89-1.33-1.22-.93-.6-2-.95-3.1-1.03-1.17-.16-2.35-.19-3.53-.27-.15.01-.3.04-.44.08 2.8 2.06 5.49 4.05 8.2 6.1zm-77.9-1.9c.5-.07 1-.15 1.48-.26 1.48-.36 2.93-.85 4.32-1.47a8.78 8.78 0 003.57-2.86l.63-.95c-1.06.76-2.2 1.4-3.4 1.9-.45.21-.9.37-1.38.47-1.32.19-2.65.3-3.97.45l-1.28.15.02 2.56zm5.41 34.66a2.4 2.4 0 00-2.29 2.09 2.1 2.1 0 001.19 2.48 2.45 2.45 0 003.01-.73 2.24 2.24 0 00.26-2.72c-.17.22-.34.44-.52.64-.22.27-.46.53-.72.78-.28.27-.6.49-1.02.26a1.02 1.02 0 01-.41-1.06c.03-.3.1-.58.2-.86.08-.3.18-.55.3-.91v.03zm-18-59.37c2.55-.24 5.03-.55 7.17-2a41.24 41.24 0 00-3.53-.25c-1.17-.03-2.39 0-3.63 0v2.25zm6.5 7a8.13 8.13 0 000 2.58c1.48.06 5.36-1.56 6.19-2.58h-6.2zm57.02-2.87c0-.25 0-.46-.04-.67-.16-.94-.36-1.86-.48-2.8-.2-1.71-.42-3.41-.54-5.1-.16-2.32-.23-4.65-.35-7a1.2 1.2 0 000-.37.39.39 0 00-.25-.21.34.34 0 00-.27.2c-.05.16-.07.32-.06.5a95.52 95.52 0 00.47 8.5c.15 1.44.38 2.89.59 4.33.1.75.23 1.51.36 2.26.05.4.1.42.57.38v-.02zM94.18 13.1a.79.79 0 00-.05.2c0 1.74 0 3.48.08 5.2.1 2.95.4 5.88.86 8.78.15.87.33 1.74.5 2.6.08.38.28.36.57.18a14.6 14.6 0 00-.15-.82c-.47-2.1-.78-4.24-.94-6.4-.2-2.74-.4-5.48-.33-8.27 0-.38-.06-.76-.08-1.14-.02-.2-.14-.34-.46-.32v-.01zm-52.23 11.8h-.2a9.93 9.93 0 01-3.47 1.1c-.86.11-1.7.25-2.54.39a4 4 0 00-.58.16c-.1.67-.1 1.34 0 2 1.98-.59 5.66-2.39 6.8-3.66zm-.36 12.66c2.08-.44 6.16-3.03 6.73-4.19-1.03.65-2.1 1.24-3.18 1.78-1.14.49-2.36.78-3.56 1.16v1.25zm69.79-11.51c.46-.3.47-.3.45-.64 0-.57-.04-1.14-.04-1.7 0-1 .03-2 .04-3 0-.33.04-.71-.47-.88-.2 2.07-.18 4.15.04 6.22h-.02zm-8.65-4.3a.84.84 0 00.44-.85c-.04-.74-.09-1.48-.1-2.21 0-.64 0-1.23.03-1.84 0-.38.04-.75.07-1.13-.17-.05-.29-.1-.42-.12l-.15.1c-.2 2-.15 4.04.13 6.04zm6.4-.79v-2.79c0-.32-.24-.34-.53-.43 0 .79-.04 1.52-.06 2.25 0 .07.01.13.04.19l.54.78zm-3.62-4.4a8.68 8.68 0 000 2.63c.47-.23.48-.23.5-.54 0-.64.05-1.22.08-1.83 0-.04 0-.07-.05-.13a.93.93 0 00-.21-.1c-.1-.02-.22-.03-.32-.03zM48.03 29.5c.29.53.77.95 1.34 1.17-.33-.5-.8-.91-1.34-1.17zm9.05 12.14l.05-.2-1.2-.36-.06.15 1.21.4zM42.01 21.7l.04-.14-1.27-.41-.05.16 1.28.39z" fill="#1B4ECC"/><path d="M117.54 18.38l2.02 1.28a12.2 12.2 0 01-1.68-2.74c1.28.67 2.6 1.22 3.98 1.66-.7-.74-1.7-1.09-2.45-1.8.1-.04.16-.08.17-.07 1.14.64 2.4 1.1 3.36 2.01.98.92 1.72 1.85 1.77 3.18 0 .89.06 1.77.2 2.64.12.68-.02 1.38-.4 1.96.3.8.6 1.5.8 2.23.1.42.12.85.07 1.27 0 .45-.27.56-.63.33-.37-.24-.6-.46-.92-.68-.43-.31-.84-.64-1.27-.92a.71.71 0 00-.54-.06 4.13 4.13 0 01-3.26-.25c-.66-.35-1.28-.74-1.88-1.17a2.43 2.43 0 01-.96-1.8 4.3 4.3 0 011.83-4.31c.45-.33.97-.53 1.52-.59.17 0 .32-.05.64-.11a8.59 8.59 0 01-2.4-1.95l.03-.1zm.58 5.2c0 .1.03.22.05.32.2.68.18 1.4-.05 2.06-.06.35-.08.7-.06 1.07a.67.67 0 00.39.63c.7.4 1.47.66 2.27.74.5.03.98-.1 1.4-.35a4.5 4.5 0 000-.64.55.55 0 01.43-.63c.32-.1.65-.19.99-.25a.55.55 0 00.47-.35 3.42 3.42 0 00-.52-3.46 1.16 1.16 0 00-.89-.4c-.7.04-1.38.24-2 .58-.76.41-1.61.64-2.48.68zm-.78-.3c.75-.25 1.53-.48 2.28-.76.76-.28 1.52-.64 2.27-.95-1.78-.88-3.84-.53-4.9 1.28-.69 1.17-.57 3.24.34 3.81.03-.29.08-.58.15-.87a2.81 2.81 0 00-.15-2.44v-.08zm6.7-.77l.14-.1a.42.42 0 000-.17 3.4 3.4 0 00-1.87-2.54c-.59-.29-1.2-.54-1.81-.74l-.8-.3a5.4 5.4 0 002.12 2.06c.75.33 1.42.82 1.98 1.42.1.11.18.24.25.37zm-1.08 4.71l1.9 2.04a5.1 5.1 0 00-.82-2.37l-1.08.33zm-.15.55l-.14.05c.04.18 0 .43.13.53.31.23.64.45.98.64l.09-.1-1.06-1.12zM114.61 111c-1.69.06-3.37.15-5.09.19-2.76.07-5.53.11-8.3.16l-4.76.06c-1.62 0-3.25.05-4.87.06-.55 0-1.1 0-1.65-.03-.54-.04-1.1 0-1.65 0-1.08 0-2.16 0-3.23-.07a512.03 512.03 0 01-4.88-.16c-.11-.05-.27-.13-.28-.2a.45.45 0 01.12-.39c.22-.12.46-.2.7-.2h3.63l6.08.06c1.84 0 3.68.06 5.53.05 2.7 0 5.41-.1 8.12-.15 1.27 0 2.5-.05 3.75-.08 1.71-.04 3.42-.1 5.14-.12 1.02 0 2.03.05 3.05.1.27.03.54.08.8.18.11.05.26.24.25.3a.59.59 0 01-.32.34c-.17.03-.34.03-.5 0l-1.65-.1h.02zM32.07 44.83c-.7.68-1.63.69-2.38 1.14a3.95 3.95 0 01-1.9 2.68 1.03 1.03 0 01-1.06.1l1.36-.8c-.08-.08-.11-.13-.13-.12-1.68.22-3.38.18-5.05-.13l-2.32-.35a1 1 0 01-.8-.57c1.2-.65 2.48-1.13 3.82-1.41 1.33-.35 2.67-.64 4.12-.96-1.04-.35-2.06-.05-2.99-.33v-.17c.13-.04.27-.07.4-.08l2.6.16a1.48 1.48 0 011.28.72.83.83 0 001.13.36c.38-.13.76-.25 1.15-.36a.64.64 0 01.77.12zm-9.7 1.63l.03.12c2.08-.28 4.14-.66 6.18-1.15a1.7 1.7 0 00-1.5-.18c-1.18.27-2.35.55-3.52.84l-1.2.37zm2.24.52v.11c.35.08.7.13 1.05.14.74-.02 1.48-.08 2.2-.19a.94.94 0 00.8-.7c-.06-.04-.1-.08-.13-.07l-3.92.71zM18.94 32.8c.98.07 1.85-.43 2.83-.28a.88.88 0 01-.76.57c-.5.1-1 .17-1.49.29-.2.05-.46.13-.53.28a2.84 2.84 0 01-1.66 1.27c-.62.22-1.26.39-1.91.5-.22 0-.43-.02-.64-.08v-.15l.98-.25v-.08l-.53-.04a34.93 34.93 0 01-5.54-1 2.35 2.35 0 01-.42-.15c-.36-.17-.41-.44-.11-.69.17-.12.36-.2.57-.23 1.62-.39 3.24-.77 4.87-1.14.55-.13 1.11-.23 1.68-.3 1.17-.08 2.19.2 2.66 1.48zm-.7 0c-.2-.46-.26-.53-.68-.64a3.82 3.82 0 00-2.01 0l-4.03.88-.35.16c1.51.14 6.55-.16 7.06-.42v.02zm-.65.86l-3.55.15c1.03.35 2.86.3 3.58-.17l-.03.02zM.97 43.9c.33-.44.82-.74 1.37-.83.7-.16 1.39-.34 2.09-.52.82-.2 1.63-.42 2.46-.58a1.83 1.83 0 011.83.42c.14.1.3.15.47.13.64-.05 1.27-.13 1.9-.19.33 0 .64-.17 1 .22-.19.14-.4.25-.63.33-.47.13-.94.22-1.42.29a1.04 1.04 0 00-.95.68 2.46 2.46 0 01-2.13 1.4c.2-.42.63-.42.81-.64-1.13-.06-2.28 0-3.4-.2-1.13-.2-2.25-.09-3.4-.5zm7.09-.2v-.2l-2.55.34c.8 0 1.72.22 2.55-.16v.02zm-.11-.96v-.16c-.81-.05-1.62.11-2.35.45l2.35-.3zM21 78.15l6.64.23c.28.01.55.06.81.14a.45.45 0 01.25.3.27.27 0 01-.27.35 5.1 5.1 0 01-.7.05c-1.75-.05-3.5-.13-5.25-.13-2.3 0-4.6 0-6.9.16-1.15.08-2.32.07-3.48.1a.52.52 0 01-.25 0c-.11-.08-.27-.19-.28-.3 0-.1.14-.25.26-.29.24-.08.49-.13.74-.14 2.44-.27 4.9-.39 7.35-.35h1.07v-.12zM12.22 87.5c.2-.09.42-.15.63-.2 1.23-.1 2.45-.21 3.68-.27 2.36-.12 4.73-.2 7.1-.28 1.16-.03 2.33-.03 3.5-.04h.12c.28 0 .63.04.63.39 0 .35-.36.34-.63.35l-4.18.18-3.04.11c-2.26.08-4.52.17-6.79.24-.34 0-.77.12-1.02-.48zM138.39 111.08c-.12-.26-.52-.35-.38-.7.14-.33.48-.22.73-.23 1.27 0 2.54.04 3.82.06l2.66.05 3.94.12c.15 0 .3.02.44.07.11.07.28.2.27.3a.56.56 0 01-.27.36 1.3 1.3 0 01-.56.07c-1.78-.07-3.55-.15-5.33-.2-1.52-.03-3.05 0-4.58 0-.25.02-.5.05-.74.1zM42.1 6.68l4.13.13c.51 0 1.01.05 1.52.08h.2c.2.07.46.11.4.38 0 .12-.27.24-.43.26-.33.05-.67.06-1 .05-2 0-4-.08-5.98-.12-1.56 0-3.13-.04-4.7-.07-.12 0-.32-.1-.34-.17-.07-.23.14-.28.3-.3.38-.1.76-.15 1.14-.17 1.46-.06 2.92-.09 4.38-.13h.38v.06zM72.3 110.1h3.23c.76 0 1.52.07 2.28.13a2.29 2.29 0 01.64.18.4.4 0 01.16.27v.15c-.06.28-.27.3-.5.3-.4 0-.8-.05-1.2-.05l-7.04-.11c-.53 0-1.05-.06-1.58-.1-.19 0-.4 0-.43-.28a.38.38 0 01.39-.42c.74-.05 1.47-.1 2.2-.12h1.85v.04zM40 9.01a1.27 1.27 0 01.96-.22h5.25c1.75 0 3.55.11 5.32.18.15-.01.3 0 .44.05.13.08.25.18.36.28-.12.1-.24.29-.36.3-.8.04-1.6.05-2.4.05-.64 0-1.31-.05-1.97-.06l-5.51-.1c-.53 0-1.06-.04-1.59-.05-.28 0-.5-.07-.5-.43zM32.3 2.65c.24-.1.5-.16.76-.2 1.6-.08 3.21-.07 4.82.04 1.27.12 2.54.14 3.87.21l2.54.2c.08 0 .2 0 .24.05.12.1.22.21.31.33-.1.09-.21.23-.33.23-.35.02-.71.02-1.07 0l-4.76-.2c-1.16-.05-2.32-.1-3.48-.12h-2.22c-.32 0-.63-.05-.68-.54zM32.7 5.16a.6.6 0 01.64-.48c.63-.05 1.22-.12 1.84-.12h4.31c1.82.09 3.63.26 5.44.4.26 0 .64 0 .64.33s-.4.3-.64.3c-.84 0-1.69-.07-2.54-.1-2.22-.1-4.46-.22-6.67-.3h-2.66c-.12 0-.24 0-.36-.03zM43.32 11c.58-.23 1.2-.34 1.82-.31 1.73 0 3.47 0 5.2.07 1.32 0 2.63.09 3.94.14.19 0 .38.03.55.09a.31.31 0 01.16.23.3.3 0 01-.16.24 3.9 3.9 0 01-.82.09c-1.5 0-3-.07-4.5-.09-1.52-.02-3.1 0-4.65 0-.37 0-.75 0-1.14-.04-.26-.02-.44-.1-.4-.42zM56.5 13.5a3.6 3.6 0 01-.68.13c-1 0-2 .03-2.98 0-2.17-.11-4.35-.26-6.53-.39-.17 0-.43.05-.45-.21-.03-.26.22-.38.46-.42h.64l6.9.37 2.02.11c.22 0 .48-.04.62.4zM22.76 83.12h-3.1c-.26 0-.6.08-.65-.31-.05-.26.14-.4.64-.43 1.6-.07 3.18-.13 4.82-.16.74 0 1.47 0 2.22.05.27.01.54.05.8.12a.38.38 0 01.2.29c0 .1-.12.21-.21.26a.8.8 0 01-.37.07l-3.88.07h-.44l-.03.04zM47.47 14.9c.12-.1.26-.2.42-.27.18-.04.37-.06.56-.05 2.08 0 4.15.04 6.22.08.91 0 1.82.07 2.72.12.2 0 .38.04.56.1.09 0 .2.13.2.2a.3.3 0 01-.16.25c-.18.06-.37.1-.56.1l-7.05-.16c-.8 0-1.6-.07-2.4-.11a2.9 2.9 0 01-.47-.11l-.04-.14zM50.18 16.62c.23-.06.47-.1.7-.13 1.77 0 3.52 0 5.28.06 1.04 0 2.07.07 3.1.14.3 0 .64 0 .86.45-.24.07-.49.12-.74.14-.98 0-1.95 0-2.92-.04l-5.53-.18c-.26-.01-.56.03-.75-.44zM61.11 18.52a.85.85 0 01-.83.3l-6.55-.16h-1.2c-.15 0-.37-.12-.4-.22-.04-.27.22-.27.4-.3.12-.03.24-.05.37-.05 2.5-.09 5-.09 7.5.07.27 0 .54.01.71.36zM21.73 75.64c.1-.48.31-.68.7-.7 1.27-.1 2.55-.2 3.82-.26.67-.03 1.35 0 2.03 0h.31c.2 0 .4.1.38.34 0 .25-.19.3-.4.3-2.07.12-4.13.25-6.2.36-.21 0-.43-.01-.64-.04zM25.4 91.78l-2.46-.12h-.31c-.24-.06-.5-.14-.48-.43.01-.29.26-.3.48-.31.93 0 1.86-.07 2.8-.05.69 0 1.39.07 2.08.13.26 0 .58 0 .64.39 0 .23-.23.37-.7.38H25.41zM111.32 92.77a4.68 4.68 0 01-.73-1.86 17.1 17.1 0 012.14-13.1.63.63 0 01.45-.27c-.03.12-.07.25-.12.37-.46.93-.96 1.84-1.38 2.78a14.24 14.24 0 00-1.16 5.63c-.06 1.44.05 2.88.34 4.3.1.47.28.93.41 1.4l.2.71-.15.04zM141.23 94.09c.06.42-.01.85-.22 1.23a17.57 17.57 0 01-4.03 5.35 13.95 13.95 0 01-4.8 2.92 1.36 1.36 0 01-1.08.05c.7-.3 1.3-.55 1.9-.84.63-.3 1.25-.63 1.84-1 .56-.37 1.1-.78 1.62-1.23.52-.43 1.02-.89 1.48-1.38a22.4 22.4 0 002.42-3.34c.24-.61.53-1.2.87-1.76zM138.88 77.7c-.43-.4-.81-.73-1.15-1.1-1.3-1.45-2.81-2.7-4.5-3.67a11.93 11.93 0 00-4.67-1.53l-1.28-.14a.52.52 0 01-.33-.21c.12-.04.25-.06.38-.08 1.49 0 2.96.3 4.33.87a18.85 18.85 0 016.67 4.94 4.77 4.77 0 01.55.92zM133.94 79.18c1.82 1.13 3.88 5.72 3.5 7.1a.87.87 0 01-.28-.64c-.18-1.05-.5-2.06-.95-3.02a17.96 17.96 0 00-2.08-3.03l-.19-.25c-.06-.1 0-.06 0-.16zM131.38 97.8c1-.79 2.07-1.52 3.02-2.38a9.33 9.33 0 002.19-3.06l.13.07c-.02.15-.07.29-.13.43a11.14 11.14 0 01-2.9 3.66c-.56.44-1.15.85-1.76 1.22a2.3 2.3 0 01-.5.2l-.05-.14zM118.13 94.58c-1.5-1.08-3.1-5.26-2.75-7.29.06.13.11.26.15.4.26 1.15.48 2.32.8 3.46.2.82.58 1.59 1.1 2.26.27.37.5.76.7 1.17zM120.74 103c-1.3 0-5.2-2.76-5.76-4 .35.07.64.38 1.34 1.1.42.4.87.77 1.36 1.08.5.34 1.05.64 1.58.92.52.25 1.02.56 1.48.9zM141.5 83.59c.52.63.98 4.15.63 5.2-.2-1.79-.42-3.48-.63-5.2zM119 78.4c-.85 1.22-1.68 2.4-2.54 3.6.03-.94 1.54-3.09 2.55-3.6zM128.1 98.81c-1.68.4-3.44.23-5.02-.48v-.14c.5.1 1.02.23 1.53.3.52.1 1.13.19 1.7.24.56.05 1.1.05 1.8.08zM38.96 79.63a20.18 20.18 0 00-1.59 6.73c-.12 2.31.46 4.46 1.13 6.68a.47.47 0 01-.48-.42c-.24-.65-.44-1.32-.6-2-.3-1.5-.41-3.02-.35-4.54.08-1.88.48-3.74 1.18-5.48.12-.4.37-.74.71-.97zM54.34 104.3c-2.38.14-4.77-.3-6.94-1.27-1.59-.74-3.35-1.96-3.6-2.5.3-.06.48.17.68.3.63.42 1.27.91 1.95 1.27 1.4.84 2.96 1.38 4.57 1.61.82.1 1.63.23 2.45.33a9 9 0 00.93 0l-.04.26zM42.48 74.59c.53-.66 1.2-1.2 1.96-1.58a15 15 0 015.18-1.97 9.58 9.58 0 013.08-.22c-.51.18-1.05.27-1.6.27-1.1.1-2.2.33-3.27.69-1.63.57-3.2 1.34-4.63 2.31l-.73.49zM48.25 97.3c-1.7-.13-5.44-4.46-5.5-6.87.43.87.82 1.76 1.31 2.6.49.88 1.12 1.69 1.87 2.38.73.64 1.51 1.23 2.32 1.88zM46.9 77.76a13.59 13.59 0 00-4.2 6.65c-.31-1.68 1.8-5.06 4.2-6.65zM66.26 97.72c-.4 1.5-4.69 4.98-6.36 5.26l3.45-2.3c1.16-.77 1.95-1.97 2.91-2.96zM49.64 76.58c.82-.83 4.3-1.23 5.38-.64-.18.04-.36.07-.53.08-.74-.04-1.48-.04-2.21 0-.71.1-1.41.26-2.1.45l-.54.11zM57.08 98.24c-.3.19-.6.35-.93.48a8 8 0 01-2.57.28 1.85 1.85 0 01-.37-.12c.66-.14 1.34-.23 2.01-.27.64-.1 1.28-.24 1.87-.37zM57.09 98.24c.28-.13.56-.26.84-.41l1.9-1.04a.48.48 0 01-.3.52c-.78.39-1.48.99-2.43.93h-.01z" fill="#1B4ECC"/><path d="M42.47 74.58c-.26.45-.63.83-1.07 1.1a1.81 1.81 0 011.08-1.1zM122.3 24.3v-.59l.15-.04c.46.4.76.94.84 1.54a1.32 1.32 0 01-1.5-.86l.52-.05z" fill="#1B4ECC"/></g><defs><clipPath id="clip0"><path fill="#fff" transform="translate(.6)" d="M0 0h149.54v112H0z"/></clipPath></defs></svg>