<svg width="502" height="190" viewBox="0 0 502 190" fill="none" xmlns="http://www.w3.org/2000/svg"><path d="M340.92 68.19c1.68-.3 2.48-1.46 3.31-2.55a17.35 17.35 0 002.44-4.75c.53-1.44.97-2.91 1.34-4.4.49-2.04.91-4.12 1.32-6.18.52-2.63.9-5.29 1.23-7.95.17-1.39.52-2.75 1.04-4.04.4-1.11.91-2.18 1.56-3.16a4.57 4.57 0 012.4-1.61 2.15 2.15 0 012.38.96c.7 1.12 1.1 2.4 1.2 3.71.24 1.78.29 3.58.14 5.37-.11 1.24-.32 2.47-.48 3.72-.07.44-.12.89-.2 1.33-.28 1.53-.68 3.07-.86 4.61-.32 2.71-1.54 5.11-2.47 7.6a15.44 15.44 0 01-1.56 2.9c-.35.5-.75.96-1.22 1.35-1.62 1.42-3.29 2.82-5.45 3.3-1.75.5-3.58.7-5.4.56a5.51 5.51 0 00-.57 0 13.35 13.35 0 000 3.22c0 1.08 0 2.16.07 3.32.76-.1 1.45-.15 2.12-.3a7.64 7.64 0 014.4.6c.96.37 1.88.82 2.81 1.25.76.36 1.61.45 2.43.28.41-.07.83-.11 1.23-.22.3-.1.59-.22.86-.38 1.23-.65 2.43-1.41 3.72-1.97.9-.37 1.88-.49 2.84-.33 2.29.32 4.48 1.14 6.43 2.4 1.43.91 2.74 2 3.92 3.21.72.65 1.38 1.34 2 2.08.64.92 1.22 1.89 1.73 2.89.96 1.78.18 3-1.3 3.86-1.04.58-2.21.9-3.4.9-5.37.07-10.72.17-16.09.2-3.26 0-6.53-.07-9.8-.12-1.12 0-2.24-.1-3.44-.14a60.86 60.86 0 000 7.14c.16.07.32.12.5.14 2.13.06 4.27.18 6.4.13 1.94-.04 3.87-.29 5.8-.42.8-.06 1.6-.09 2.4-.08.8.01 1.1.25 1.1 1.1a8.08 8.08 0 01-.25 1.52c-.3 1.3-.64 2.58-.96 3.85-.77 3.2-1.55 6.4-2.3 9.65-.56 2.33-.97 4.7-1.64 7.02a18.3 18.3 0 00-.78 5.16 6.4 6.4 0 00.6 2.9c.68 1.4 1.2 2.88 1.57 4.4.3 1.08.63 2.14.97 3.2.42 1.3.9 2.6 1.3 3.92.77 2.51 1.49 5.05 2.25 7.57.76 2.52 1.53 4.88 2.27 7.33.84 2.76 1.63 5.53 2.47 8.3.97 3.2 2 6.4 2.98 9.64.42 1.35.81 2.7 1.2 4.05.22.79 0 1.09-.82 1.09h-11.04a8.24 8.24 0 00-2.57 0c-.51.16-.66-.22-.77-.63-.46-1.63-.97-3.26-1.43-4.89 0-.12-.09-.24-.17-.45l-2.22-.22.83 3.22c.2.77.44 1.54.64 2.31.2.78 0 .85-.64.82-1.01-.06-2.04-.16-3.06-.22a.7.7 0 01-.72-.62l-1.19-4.35c-.68-2.48-1.39-4.97-2.04-7.46-.66-2.49-1.33-5.23-2.02-7.83-.59-2.26-1.2-4.5-1.8-6.75l-1.1-4.38a1.03 1.03 0 00-.35-.58c-.29 1.13-.57 2.28-.88 3.4-.48 1.8-.96 3.57-1.46 5.37-.5 1.79-.87 3.48-1.3 5.21v.1c-.97 2.8-1.46 5.79-2.33 8.6-.65 2.13-1.12 4.31-1.69 6.47-.18.72-.4 1.42-.67 2.1a.84.84 0 01-.57.41c-.97.12-1.98.19-2.97.25-1 .07-1.03-.11-.8-.96.41-1.55.85-3.1 1.26-4.64l.09-.57c-.73-.48-1.41.18-2.12-.12-.32 1.14-.6 2.2-.9 3.23-.23.8-.51 1.59-.74 2.39-.14.45-.4.57-.86.56h-4.9l-7.38-.12c-.35 0-.7 0-1.05.07-1.03.09-1.25-.16-.97-1.14l.68-2.3c.5-1.66.97-3.32 1.5-4.97.64-2.07 1.32-4.15 1.93-6.22.4-1.32.74-2.66 1.13-3.97.84-2.77 1.73-5.51 2.56-8.28.9-3.01 1.72-6.04 2.63-9.04.64-2.08 1.38-4.13 2.06-6.2.54-1.69 1.02-3.4 1.56-5.07.28-.85.63-1.67.96-2.5a5 5 0 00.3-2.23c-.08-.67 0-1.35-.07-2.02.02-.29-.01-.58-.08-.85-.66-1.64-1.4-3.24-2-4.9-.9-2.45-1.73-4.95-2.6-7.43-.1-.3-.25-.59-.35-.9l-2.23-6.45c-.44-1.3-.89-2.6-1.34-3.86-.36-.96-.23-1.21.8-1.22l5.14-.07c.21-.02.42-.07.62-.14V96.2c.72 0 .63.63.91 1.02l5.95-.2v-1.48c-.05-.96-.14-1.93-.19-2.9-.13-1.33-.18-2.68-.14-4.03a3.85 3.85 0 00-1.52-3.58c-.44-.34-.8-.77-1.06-1.26.64-.22.97.25 1.3.48l1.15.72-.54-13.25-1.78-.4a7.03 7.03 0 01-1.11-.32 23.3 23.3 0 01-5.33-3.38c-1.28-1.05-2.58-2.1-3.76-3.25a12.74 12.74 0 01-3.74-5.9c-.33-1.11-.21-2.3.33-3.33a2.61 2.61 0 012.49-1.18 5.19 5.19 0 014.95 2.81l1.87 3.6c.49 1.03.96 2.07 1.42 3.13a17.61 17.61 0 003.86 6c.12.11.24.21.38.3h.29v-1.93c.01-2.32-.13-4.64-.45-6.94-.11-1.49-.17-2.98-.27-4.47a9.3 9.3 0 010-2.83c.06-.27-.34-.69-.58-.97a1.85 1.85 0 00-.56-.36 18.33 18.33 0 01-7-6.84 36.8 36.8 0 01-3.22-6.21c-.43-1.13-.72-2.32-1.09-3.48-.16-.54-.38-1.07-.5-1.63-.56-2.55-1.2-5.1-1.59-7.71-.33-2.13-.37-4.31-.51-6.47-.1-1.7-.3-3.38-.24-5.06.06-1.93-.22-3.98.3-5.92.33-1.24.76-2.44 1.3-3.6.65-1.34 2.48-1.65 3.97-.9a4.05 4.05 0 011.93 2.66c.26.69.49 1.4.67 2.11.2 1.06.33 2.14.44 3.23.13 1.36.17 2.74.3 4.11.06.29.2.55.4.76.75.9 1.63 1.73 2.28 2.7a6.64 6.64 0 011.2 3.5c.19 3.1.59 6.19 1.2 9.23.2 1.18.55 2.32 1.05 3.4.17-.72.3-1.44.37-2.17.13-2.28.49-4.54 1.07-6.75.3-1.18.44-2.4.74-3.56.3-1.17.7-2.13 1.05-3.2.17-.48.39-.96.54-1.42.97-3.98 4.59-3.86 5.36-3.92 0-.48.07-.96.08-1.42 0-1.18 0-2.37.05-3.54.05-1.18 0-2.38 0-3.55a12 12 0 01.97-4.76A2.66 2.66 0 01337.2.2a2.3 2.3 0 011.8.8 9.72 9.72 0 013.05 5.4c.25 1.3.57 2.6.96 3.86.3 1.27.53 2.56.69 3.86.1.56.17 1.12.25 1.77.24-.12.46-.26.66-.43a2.24 2.24 0 012.73-.46 4.18 4.18 0 012.65 3.98c.07 1.25-.11 2.5-.17 3.74l-.17 3.44c-.1 2.18-.3 4.35-.62 6.5-.23 1.48-.33 2.99-.55 4.47-.18 1.13-.13 2.28-.36 3.4-.23 1.12-.49 2.26-.64 3.4a17.08 17.08 0 01-1.77 5.5c-.6 1.13-1.4 2.16-2.35 3.01-.52.48-.89 1.21-1.7 1.34-.29.45-.5.94-.6 1.46-.1 2.33-.07 4.67-.1 7.02 0 1.67-.1 3.33-.14 5l.1.93zm5.25-42.15c.08.62.17 1.24.22 1.85.13 2.52-.03 5.05-.47 7.54-.1.65-.11 1.32-.23 1.93-.2 1.15-.46 2.3-.67 3.45-.35 1.93-.63 3.79-1.06 5.66a12.7 12.7 0 01-.96 3.29c-.27.65-.5 1.32-.65 2.01l.22.13c.57-.5 1.09-1.06 1.55-1.67a15.6 15.6 0 001.93-4.34c.37-1.48.63-2.99.96-4.5.16-.74.42-1.46.5-2.21.28-2.34.46-4.69.76-7.03.29-2.64.44-5.29.45-7.94 0-1.38 0-2.76.13-4.12a6.9 6.9 0 00-.1-2 2.89 2.89 0 00-2.02-2.23c-.86-.31-1.37.28-1.93.75a.23.23 0 01-.07.06 1.66 1.66 0 00-.87 1.58c-.16 1.93.09 3.86-.44 5.79-.38 1.45-.56 2.96-.84 4.43-.4 2.12-1.25 4.18-.97 6.4.1.83.18 1.66.26 2.48.1 1.05.24 2.09.3 3.14.07 1.43.07 2.9.1 4.3.13 1.4.06 2.81-.21 4.2-.28 1.05-.6 2.09-.9 3.14v.59c.6-1.53 1.21-2.84 1.6-4.22.38-1.37.62-3 .96-4.5.35-1.5.58-2.9.86-4.3.09-.4.19-.81.24-1.23.16-1.27.24-2.54.44-3.85.44-2.51.65-5.06.61-7.6.07-.34.18-.67.32-.98h-.02zm-23.44 96.08c4.89.06 9.64.25 14.36.14 4.71-.12 9.5 0 14.16-.5l5.78-24.36-7.12.24c-1.37.05-2.74.17-4.12.19-1.38.02-7.54-.06-8.94-.18-1.64-.13-3.31.07-4.96.08h-7.47c-.7 0-1.4.06-2.1.07a7.58 7.58 0 00-.97 0c-.46.1-.92.18-1.4.24-1.33 0-2.68-.08-4.03-.1a3.8 3.8 0 00-2 .17c.27.51.51 1.04.73 1.58.97 2.7 1.93 5.41 2.99 8.08.79 1.99 1.4 4.05 2.1 6.07l2.03 5.78.96 2.51zm7.53-77.6c.17 1.11.37 2.07.47 3.05.18 1.78.28 3.56.44 5.34.18 2.05.4 4.08.56 6.13.15 2.04.27 3.85.36 5.85.06 1.34 0 2.7 0 4.04 0 .97.09 1.93.09 2.97 0 1.34-.07 2.68 0 4.02.07 1.35.12 2.69.15 4.02.07 2.89.1 5.7.17 8.55 0 1.05.13 2.1.08 3.16a2.48 2.48 0 00.73 1.87c.88 1.03 2.01 1.93 2.24 3.44 1.66-.29 3.31.1 4.96-.15V93.4c0-.76-.07-1.52-.08-2.3 0-1.75 0-3.5-.1-5.26-.1-1.76-.24-3.7-.33-5.55-.06-1.14-.07-2.3-.07-3.45 0-1.78.07-3.58.06-5.36 0-2.11-.12-4.23-.13-6.34 0-2.69 0-5.38.06-8.07 0-1.24 0-2.49.08-3.73 0-1.6.13-3.2.15-4.83v-5.78-5.92l-.52.8-.42.75c-1.58 2.12-3.27 4.14-5.79 5.24-.92.43-1.89 1.22-3.16.94zm11.25 43.94c1.62.09 3.2.21 4.83.25h6.15c6 0 12 0 18-.07 1.32.05 2.63-.3 3.74-1.04.65-.45.82-.76.56-1.45a9.34 9.34 0 00-1.06-2.13 20.62 20.62 0 00-3.07-3.55 19.41 19.41 0 00-6.96-4.32 7.32 7.32 0 00-6.39.5c-.59.39-1.2.73-1.83 1.05a6.05 6.05 0 01-4.82.59 28.4 28.4 0 01-2.55-1.13 9.64 9.64 0 00-3.6-.97c-.8 0-1.6.1-2.37.3-.77.15-.96.47-.96 1.28 0 .6.05 1.21 0 1.81 0 1.25-.13 2.5-.07 3.74.07 1.68.24 3.33.4 5.15zm-8.23-48.32l.2.1c.25-.26.48-.55.69-.87.49-.96.96-2 1.38-3.04.53-1.13.94-2.31 1.21-3.54.36-2.27 1.2-4.43 1.36-6.75.16-2.31.5-4.39.6-6.59.07-1.29-.01-2.58-.26-3.85-.14-.8-.23-1.6-.27-2.4-.08-.96-.1-1.92-.18-2.89-.11-1.45-.27-2.9-.35-4.39 0-.51.05-1.03.13-1.54h.23c0 .53 0 1.05.06 1.58-.04.21-.06.43-.06.65.58 2.31.52 4.72 1.05 7.05-.2 1.31.56 2.55.26 3.86 0 .07.06.18.07.27.07 1.07.2 2.13.2 3.2-.02.83-.1 1.66-.24 2.48a72.54 72.54 0 01-1.93 9.77c-.25.94-.57 1.87-.96 2.77a19.53 19.53 0 01-2.43 4.75c-.45.57-.82 1.2-1.36 2 .24-.08.48-.18.7-.3.67-.39 1.32-.82 1.93-1.29.78-.62 1.49-1.3 2.13-2.06a17.8 17.8 0 003.38-7.14c.67-2.8 1.19-5.64 1.78-8.46a61.89 61.89 0 00.06-8.5 51.75 51.75 0 00-.73-4.55c-.29-1.5-.68-2.73-.97-4.11a7.26 7.26 0 00-1.4-3.13c-.51-.65-.97-1.45-1.93-1.73 0 .85.43 1.62.1 2.46l-.61-2.58a1.34 1.34 0 00-1.3.97 11.07 11.07 0 00-.74 3.53c.08 2.58-.1 5.17-.08 7.71 0 1.8.12 3.59.23 5.37.06.97.28 1.93.26 2.9 0 2.26-.16 4.53-.3 6.75-.08 1.27-.32 2.54-.39 3.86-.1 2.07-.42 4.12-.97 6.12-.16.52-.37 1.04-.55 1.57zm-7.82 7.49c.08.4.15.81.19 1.22 0 1.72 0 3.45.09 5.16.08 1.72.2 3.17.28 4.77.12 2.83.49 5.64.56 8.47.08 2.66.48 5.29.5 7.95.04 2.66.26 5.5.44 8.25.08 1.14.28 2.27.43 3.4.02.13.02.26 0 .39-.53 1.6-.15 3.23-.1 4.82 0 .96.08 1.85.17 2.78.07.67-.2 1.4.18 2.06h4.3l-.64-5.03a.86.86 0 01-1.05-.28c-.58-.72-1.23-1.4-1.81-2.1a2.3 2.3 0 01-.27-.66 1.17 1.17 0 011.25.5c.6.63 1.25 1.24 1.93 1.8-.1-2.07-.2-4.09-.26-6.1v-3.75c0-2.34-.12-4.67-.17-7 0-1.67-.1-3.34-.12-5.01-.03-1.67 0-3.45-.1-5.18-.16-2.9-.4-5.79-.61-8.68-.14-1.72-.31-3.44-.44-5.17 0-.43-.14-.79-.59-.87a9.8 9.8 0 01-3.2-1.4c-.3-.07-.6-.17-.96-.33v-.01zm32.72-3.73c.15-1.81.11-3.64-.12-5.45a7.55 7.55 0 00-1.06-3.23c-.44-.61-.76-.79-1.37-.48-1.05.54-2.31.9-2.5 2.37a9.03 9.03 0 00-1.04 3.07c-.33 1.58-.57 3.2-.84 4.82-.34 2.06-.62 4.12-.97 6.17-.27 1.5-.6 3-.96 4.48-.37 1.48-.9 3.06-1.42 4.57-.58 1.9-1.42 3.7-2.5 5.37-.32.45-.67.87-1.13 1.45 1.62-.62 3-1.74 3.94-3.2a15.98 15.98 0 002.74-5.29 62.58 62.58 0 001.57-6.82c.15-.88.15-1.79.24-2.69.1-1.17.2-2.35.35-3.52.18-1.4.42-2.78.65-4.16a8.4 8.4 0 00.3-1.57c.05-1.04.38-2.04.96-2.9a2.65 2.65 0 011.51-1.43c-.11.24-.24.47-.37.7a8.48 8.48 0 00-1.7 4.35c-.2 1.72-.37 3.44-.58 5.15-.22 1.1-.38 2.21-.48 3.33a26.52 26.52 0 01-.68 5.78c-.41 1.7-.96 3.38-1.45 5.07-.13.33-.28.65-.47.96-.16.34-.34.69-.5.97a10.94 10.94 0 01-2.1 3.05c-.96.91-1.64 2.13-2.88 2.75a7.1 7.1 0 001.73-.27 12.8 12.8 0 005.16-3.5c1.45-1.46 2.05-3.38 2.9-5.18.13-.29.04-.7.2-.96.5-1 .89-2.04 1.15-3.12.19-.6 1.22-6.55 1.29-7.06.04-.4.11-.81.23-1.2.14-.78.2-1.57.2-2.37zm-27.7.12a9.76 9.76 0 001.9-3.73c.16-1.07.44-2.12.65-3.2.23-1.22.49-2.44.63-3.68.19-1.69.24-3.38.4-5.06.42-2.82.44-5.69.08-8.52-.02-.2-.02-.38 0-.58 0-.86-.06-1.72-.12-2.6-.05-.69-.33-.96-.96-.77a4.2 4.2 0 00-2.97 2.02c-.77 1.5-1.32 3.1-1.93 4.66v.1c-.35 1.56-.68 3.12-1.04 4.68a52.33 52.33 0 00-1.35 9.57 6.5 6.5 0 00.52 3.86c.36 2.25 1.65 4.08 2.73 6 .27.42.57.81.9 1.18.11-.49.14-1 .08-1.5-.14-1.68-.32-3.36-.42-5.04-.08-1.49.06-3-.13-4.47-.32-2.44.13-4.82.14-7.24.07-1.3.24-2.59.5-3.86.12-.36.22-.72.3-1.09.11-1.66.38-3.3.8-4.92.24-1.2.65-2.36 1.23-3.43.05.23.05.48 0 .71-.33 1.36-.71 2.71-.96 4.08-.22 1.03-.2 2.1-.44 3.13-.4 2.2-.68 4.43-.85 6.66-.27 2.68-.3 5.39-.06 8.07.1 1.37.08 2.76.14 4.13.04.3.12.58.22.85v-.01zm-4.73 2.63l.12-.12a1.2 1.2 0 00-.1-.32c-.48-.72-.97-1.4-1.4-2.17-.57-1.13-1.02-2.33-1.57-3.48a20.89 20.89 0 01-1.79-4.65c-.18-.94-.44-1.87-.78-2.76-.47-1.29-.81-2.62-1.01-3.98-.24-1.15-.39-2.32-.57-3.48l-.6-4.04c0-.06 0-.14.07-.22.25.32.43.7.52 1.1l.27 1.5c.24 1.35.46 2.7.74 4.03.16.75-.13 1.59.47 2.25.07.08 0 .26.08.37.5 1.69.97 3.4 1.52 5.06.56 1.65 1.4 3.5 2.07 5.28a20.61 20.61 0 003.22 5.62c.45.52.92 1.01 1.43 1.47l.15-.14c-.52-.83-1.07-1.64-1.53-2.5-.54-.93-1.02-1.9-1.45-2.89-.37-.88-.58-1.83-.89-2.74-1.2-2.97-2-6.1-2.38-9.27 0-.45-.08-.9-.13-1.33-.2-1.44-.49-2.89-.57-4.33a9.02 9.02 0 00-2.7-6.27 2.11 2.11 0 00-3.02-.08 4.34 4.34 0 00-1.47 3.22 51.8 51.8 0 00.1 5.23c.08 1.39.27 2.77.58 4.13.42 1.61.95 3.2 1.6 4.72.95 2.2 2.19 4.27 3.7 6.14.22.38.48.74.77 1.07 1.22 1.04 2.47 2.02 3.72 3.02l.83.56zm-2.25 4.67l.2-.16a1.96 1.96 0 00-.15-.42 21.52 21.52 0 01-2.52-5.48 4.99 4.99 0 00-1.33-2.57c-.13-.14-.25-.3-.34-.46l-.54-.79c-.32-.42-.66-.83-.96-1.27a19.04 19.04 0 01-1.48-2.68 31.98 31.98 0 01-2.2-6.29c-.17-.71-.3-1.43-.37-2.16-.1-.57-.17-1.14-.22-1.7-.01-.71-.07-1.42-.16-2.12-.31-1.64-.22-3.34.26-4.95.09-.89.48-1.72 1.12-2.35a.96.96 0 00.24-.68c-.08-1.63-.22-3.25-.3-4.88-.01-.68.01-1.35.08-2.02 0-.1.16-.21.36-.44.05.25.1.5.13.76.07 1.4.1 2.82.2 4.23.07.42.17.83.3 1.24-.36.25-.4.65-.08 1.15l1.92-.56c-.1-1.4-.23-2.76-.27-4.13-.15-2-.62-3.95-1.4-5.79-.11-.32-.22-.77-.82-.79 0 .65 0 1.27.08 1.93.09.66.25 1.31-.29 1.93-.3-1.41-.08-2.9-.3-4.35-.4-.11-.8-.17-1.22-.18-.37.02-.71.19-.96.46A8 8 0 00311 9.1a49.5 49.5 0 00-.36 7.71c0 1.44.09 2.9.2 4.3.1 1.41.35 3 .41 4.5.07.72.2 1.42.39 2.12.14.82.25 1.65.44 2.46.5 2.11 1.01 4.21 1.54 6.33.16.74.39 1.47.67 2.18.67 1.45 1.38 2.89 2.17 4.3a24.41 24.41 0 004.48 6.1c.81.7 1.66 1.46 2.51 2.22h.04zm15.25 73.1c-.27-.97-.65-1.32-1.63-1.33h-4.47c-1.48 0-3.12.06-4.69 0-1.56-.07-2.84-.2-4.26-.3-.3.02-.6.06-.89.12.23 1.3-.22 2.5.17 3.73h.62c1.56 0 3.12-.1 4.68-.13 2.9-.05 5.79-.08 8.63-.1.96 0 1.29-.28 1.56-1.22-.36 0-.7-.03-1.05-.1-.18 0-.31-.24-.46-.37.17-.12.32-.3.5-.32.43-.02.86-.01 1.29.02zm-14.8-54.01l.05-.13a6.33 6.33 0 01-.82-.59 18.31 18.31 0 01-3.3-3.55c-.77-1.33-1.68-2.56-2.46-3.86-.52-.88-.91-1.83-1.39-2.73a21.97 21.97 0 00-2.89-4.05c-.6-.7-1.17-.53-1.7 0a2.06 2.06 0 00-.48 1.7c.09.93.35 1.83.78 2.66a15.61 15.61 0 004.41 5.33c.26.19.5.4.72.62a24.7 24.7 0 006.7 4.52c.12.06.25.11.38.14v-.06zm27.19 52.57a1.17 1.17 0 00-.38-.13l-11.34.3c.13 1.15.13 1.16 1.26 1.26a.66.66 0 01.48.2.66.66 0 01.18.5l-.79.08c-.96.06-.96.06-1.3 1.13h11.89v-3.34zM313.34 55v.18a18.4 18.4 0 013.86 5.44c.34.75.72 1.48 1.15 2.18.71 1.14 1.51 2.22 2.25 3.34.45.68 1.14 1.08 1.68 1.76-.86-1.93-1.7-3.73-2.5-5.55-.25-.56-.43-1.17-.7-1.74-.43-.97-.96-1.8-1.38-2.7-.04-.15-.1-.3-.17-.45a8.2 8.2 0 00-2.67-2.4 1.8 1.8 0 00-1.52 0V55zm8.77-10.23l-.22.1a22.02 22.02 0 002.72 5.69 8.9 8.9 0 00.16-3.42.81.81 0 00-.37-.52c-.8-.36-1.15-1.34-2.07-1.57-.08.04-.14-.12-.22-.22v-.06zm18.9-7.86h-.2l.43 11.95c.22-.74.3-1.5.25-2.27-.22-1.93 0-3.94-.13-5.9a43.94 43.94 0 00-.35-3.72v-.06zm-6.33 59.86c-.57-.84-.87-1.74-1.93-2.34.11.8.21 1.41.32 2.03.1.62.35.63.82.5l.79-.2zm6.19-61.08h-.18v.71c.14-.22.22-.29.23-.37 0-.11-.02-.23-.05-.34zM252.45 120.94c.2.14.45.24.27.6-.5.88-.97 1.8-1.43 2.7-.9 1.68-1.83 3.36-2.72 5.06-.8 1.52-1.55 3.08-2.34 4.61a28.24 28.24 0 01-2.27 4.2 4.96 4.96 0 00-.74 3.49 29.3 29.3 0 01-.97 8.18c-.23.85-.37 1.74-.59 2.6a35.68 35.68 0 01-3.19 7.93 43.2 43.2 0 01-3.6 5.78 52.32 52.32 0 01-6.4 6.73c-.92.8-1.94 1.5-2.9 2.23l-1.44 1.12c-.18.12-.37.23-.57.32a9.3 9.3 0 00-2.9 1.85c-.63 0-1.01.52-1.58.7-1.21.38-2.36.97-3.53 1.44l-1.3.5c.4.1-.52.27-1.08.32-.63.1-1.25.26-1.85.49-1.06.38-2.16.59-3.29.62a9.5 9.5 0 00-1.66.37c-1.66.3-3.35.46-5.04.47-.69.47-1.36-.15-2.03 0-.66.11-1.34.07-1.98-.13h-.19c-.74-.15-1.47.19-2.25-.12-.75-.16-1.5-.29-2.26-.38-1.53-.29-3.05-.7-4.52-1.21-1.35-.58-2.76-.97-4.12-1.53-.95-.39-1.88-.83-2.77-1.32-1.64-.97-3.28-1.89-4.82-2.9a37.53 37.53 0 01-3-2.42 37.18 37.18 0 01-6.29-6.95c-.96-1.32-1.73-2.78-2.57-4.17l-.34-.51c-.36.54-.68 1.1-.97 1.69-.53 1.2-.96 2.42-1.46 3.62-.5 1.2-1.07 2.68-1.64 3.99a257.5 257.5 0 01-4.45 9.77c-.4.82-.88 1.6-1.33 2.4a14.8 14.8 0 01-2.34 3.22 7.42 7.42 0 01-4.01 2.28c-.39.15-.78.26-1.18.33-.56 0-2.63.25-3.16.2-.53-.06-2.01-.15-2.28-.19-1.38-.2-2.78-.36-4.17-.57-1.39-.2-2.9-.43-4.35-.67-1.16-.2-2.34-.42-3.49-.69a14.2 14.2 0 01-2.27-.74c-.42-.2-.8-.48-1.12-.84a1.17 1.17 0 01.06-1.42c.12-.15.25-.29.4-.41a2.18 2.18 0 00.96-1.61c.12-.97.97-1.4 1.78-1.7a1.14 1.14 0 00.89-.97 2.41 2.41 0 011.83-1.78c1.6-.43 3.26-.65 4.93-.64l3.65-.22a1.03 1.03 0 00.97-.64c1.15-2.42 2.36-4.82 3.5-7.25.91-1.92 1.77-3.85 2.62-5.78.45-1.02.81-2.1 1.27-3.1.7-1.51 1.47-2.99 2.2-4.47l1.93-3.95c.65-1.3 1.26-2.3 1.87-3.45.8-1.52 1.57-3.07 2.37-4.6.6-1.16 1.24-2.3 1.83-3.46a16.66 16.66 0 001.85-4.66c.31-1.74.77-3.44 1.36-5.1a29.63 29.63 0 012.58-5.79c.6-.97.97-2 1.64-2.9a65.75 65.75 0 013.53-4.77 39.58 39.58 0 015.55-5.3c1.55-1.3 3.23-2.38 4.88-3.53a14.6 14.6 0 012.9-1.54 1.31 1.31 0 00.87-1l.52-2.25c.23-.96.48-1.93.75-2.89l-2.38-.28a1.7 1.7 0 01-.26-1.46c.28-1.48.52-2.97.87-4.42.41-1.69.96-3.34 1.39-5 .25-.97.43-1.89.67-2.81.88-3.35 1.79-6.69 2.65-10.04.5-2 1.1-3.98 1.8-5.93.83-2.21 1.47-4.51 2.32-6.75.67-1.72 1.54-3.38 2.32-5.07l.5-1.1-.16-.1c-.36.34-.74.67-1.07 1.03a47.85 47.85 0 00-4.83 6.02c-1.45 2.13-2.89 4.25-4.38 6.39-.28.46-.53.94-.75 1.44-1.43 2.72-2.38 5.66-3.56 8.5-.4 1.17-.74 2.37-1 3.59-.24.8-.56 1.57-.77 2.37-.39 1.4-.7 2.8-1.1 4.18-.16.59-.4 1.15-.7 1.67a1.33 1.33 0 01-2.02.35c-.2-.11-.25-.47-.34-.72a6.18 6.18 0 01-.16-.82c-.39.64-.69 1.11-.97 1.6a1.2 1.2 0 01-1.17.68c-.5-.05-.74-.48-.8-.97l-.24-1.67-.45.46c-.1.11-.2.25-.32.35a1.48 1.48 0 01-1.38.48 1.4 1.4 0 01-.76-1.43c0-.6.1-1.19.16-2-.28.32-.4.5-.56.64-.3.3-.62.57-.97.8-1.08.6-1.98.07-2.05-1.19a8 8 0 01.62-3c.8-2.2 1.78-4.32 2.93-6.35 1.26-2.35 2.46-4.72 3.72-7.16a2.3 2.3 0 00-.58-.12h-2.9c-1.72.1-3.44.26-5.17.38-.77.06-1.54.09-2.3.16-1.6.12-3.2.25-4.83.4-1.78.17-3.58.37-5.36.52-1.4.12-2.82.16-4.22.25-1.93.13-3.86.3-5.86.4-1.28.08-2.56 0-3.86.09-1.12 0-2.23.15-3.35.13a30.45 30.45 0 01-3.64-.29 5.47 5.47 0 01-3.57-2.1 6.15 6.15 0 01-.96-3.08c-.12-.89-.12-1.78-.2-2.68a7.7 7.7 0 01.64-3.75 9.3 9.3 0 014.82-5.07c.81-.37 1.63-.74 2.47-1.06a7.97 7.97 0 015.02-.1c1.87.57 3.79.95 5.73 1.16a6.18 6.18 0 004.18-1.08c2.61-1.91 5.08-4 7.4-6.25 2-2 4.69-3.15 7.51-3.24 2.15-.16 4.3.05 6.38.6 1.8.52 3.45 1.46 4.82 2.74a9.37 9.37 0 012.61 5.41 3.5 3.5 0 003.07 2.9.73.73 0 00.8-.4c.97-1.37 1.93-2.76 3-4.1 1.2-1.58 2.47-3.1 3.7-4.67a33.53 33.53 0 014.4-4.34c.85-.73 1.62-1.56 2.53-2.2a23.46 23.46 0 013.94-2.37 10 10 0 015.01-1.06c.13.02.26.02.39 0 .19 0 .36-.1.5-.13-1.04-.57-2.1-1.12-3.15-1.72a8.15 8.15 0 01-2.7-2.8 15.7 15.7 0 01-1.67-4.25 1.06 1.06 0 01.1-1 1.06 1.06 0 01.87-.47c.38-.05.76-.08 1.14-.08.7 0 .75-.2.72-.97a80.5 80.5 0 01-.12-4.58c-.03-1.29.02-2.58.15-3.86.16-.97.43-1.93.8-2.84a2.24 2.24 0 012.22-1.34c.24-.77.5-1.5.67-2.24a4.74 4.74 0 012.44-2.96 2.6 2.6 0 013.09.82c.51.88.96 1.81 1.4 2.75a3.67 3.67 0 014.01 3.34c.38 2.18.5 4.4.39 6.6-.05 1.11 0 2.22.05 3.38 1.42.16 2.68-.61 4.11-.47a7.88 7.88 0 01-.74 2.82c-.4.84-.84 1.66-1.33 2.45-.66.94-1.36 1.84-2.1 2.7-.48.57-1.04 1.04-1.5 1.6-.91 1-2 1.82-3.22 2.4l-.42.21c.34.09.7.15 1.05.19 1.95.08 3.87.59 5.61 1.48 1.5.79 2.93 1.72 4.26 2.77a31.92 31.92 0 014.1 3.72c.67.7 1.23 1.49 1.86 2.21 1.37 1.53 2.75 3.03 4.12 4.54.82.9 1.6 1.82 2.45 2.68.85.85 1.5 1.4 2.29 2.06 1.5 1.28 2.98 2.61 4.56 3.8 1.94 1.4 4 2.63 6.14 3.7l.97-1.22a3.74 3.74 0 012.55-1.42c.8-.05 1.59.04 2.35.26 1.1.32 2.2.7 3.28 1.14.39.18.77.39 1.12.63.14 0 .23-.06.25-.1 1.07-1.67 2.74-2.26 4.55-2.57 1.55-.28 3.14-.24 4.67.1 1.35.3 2.74.35 4.09.63 1.5.3 2.97.75 4.46 1.12.46.11.93.2 1.4.24a4.82 4.82 0 014.33 3.36c.6 1.5.84 3.1.71 4.7.01.38.05.76.12 1.13.16 2.3.1 4.61-.18 6.9a8.2 8.2 0 000 .86c.3.03.59.03.88 0a16.4 16.4 0 005.12-1.56c.78-.45 1.5-1 2.14-1.61 1.32-1.25 2.54-2.61 3.85-3.86a10.88 10.88 0 015.18-2.8c.33-.1.64-.27.89-.5.5-.54 1.04-1.04 1.6-1.52.5-.33 1.06-.56 1.66-.67.82-.14 1.65-.22 2.49-.22.77 0 1.03.34.86 1.11-.14.59-.35 1.17-.5 1.76-.35 1.36-.67 2.74-1.04 4.1-.26.96-.6 1.93-.88 2.89-.14.46-.43.53-.81.35a9.77 9.77 0 01-2.9-1.93 5.37 5.37 0 01-1.27-2.76c-.05-.21-.08-.43-.13-.7-.2 0-.39.02-.57.08a15.42 15.42 0 00-3.7 2.9c-.66.86-1.23 1.79-1.71 2.75a33.4 33.4 0 01-2.54 3.49 12.86 12.86 0 01-5.79 3.55l-3.21.96v1.56c0 .54-.1 1.32-.2 1.93a.65.65 0 01-.28.5.65.65 0 01-.56.08l-1.64-.27c-.1.56.4 1.14-.09 1.64-.48.5-.83.79-1.3 1.24-.1.6-.08 1.35-.72 1.82-.36.31-.77.56-1.22.73a1.04 1.04 0 00-.92.96c0 .08-.19.13-.28.19l-.13-.75-4.08.35c-.35.04-.7.04-1.05 0-.18 0-.32-.21-.65-.44.4-.2.8-.36 1.22-.47 1.08-.12 2.17-.16 3.25-.26.76-.06 1.53-.14 2.27-.27.97-.18 1.22-.52 1.4-1.7-1.25.08-2.48.21-3.7.25-1.22.14-2.46.14-3.69 0 .22-.67.61-.72 1.1-.7 1.86.07 3.72.02 5.58-.17a2.79 2.79 0 002.42-1.3 1.53 1.53 0 00-1.14-1.07c-.36-.1-.71-.28-1.09-.37-1.88-.4-3.75-.84-5.65-1.14-2.8-.44-5.62-.84-8.45-1.13a10.82 10.82 0 00-6.1.8 9.12 9.12 0 00-4 3.86 90.65 90.65 0 00-2.77 5.47c-1.34 2.8-2.62 5.62-3.86 8.46-.77 1.72-1.42 3.48-2.18 5.2-.51 1.17-1.18 2.28-1.67 3.44-.62 1.44-1.06 2.95-1.72 4.36a2.01 2.01 0 00.2 2.12c.44.71.82 1.46 1.13 2.23.67 1.77 1.36 3.52 1.92 5.33.56 1.8.8 3.48 1.17 5.22.13.66.2 1.32.34 2.16.9-1.62 1.72-3.02 2.49-4.45.54-.97.96-2.06 1.53-3.07 1.1-2.12 2.25-4.23 3.37-6.34.43-.82.85-1.64 1.29-2.45.13-.25.28-.53.66-.37l-.07-.01zm-68.63-13.68c-2.3.73-3.91 2.14-5.65 3.3-1.67 1.1-3.2 2.4-4.56 3.86-1.15 1.24-2.38 2.4-3.44 3.73a60.1 60.1 0 00-3.05 4.3 27.45 27.45 0 00-2.14 3.62c-.82 1.8-1.44 3.7-2.16 5.53a29.64 29.64 0 00-1.49 6.43 33.74 33.74 0 00-.44 6.9c.09 1.91.29 3.82.59 5.71.32 1.83.83 3.61 1.32 5.4.26.99.6 1.95 1.02 2.89.44.96 1.05 1.75 1.53 2.65 1.05 2.05 2.31 4 3.77 5.79 1.17 1.56 2.5 3 3.97 4.28 1.35 1.08 2.59 2.31 4 3.32a35.4 35.4 0 009.57 4.97c.58.2 1.12.49 1.7.65.97.26 2 .5 3 .66 1.82.31 3.64.72 5.48.84 3.97.37 7.97.13 11.87-.7 3.56-1.02 7.06-2.23 10.48-3.64a32.77 32.77 0 003.94-2.21 50.93 50.93 0 003.71-2.7c1.01-.81 1.87-1.82 2.9-2.63a23.17 23.17 0 003.6-4c2-2.45 3.66-5.17 4.96-8.06l.7-1.6a33.57 33.57 0 002.33-7.3c.32-1.73.43-3.5.61-5.24a31.7 31.7 0 00-.18-7.95c-.27-2.68-.92-5.3-1.93-7.8-.57-1.25-.96-2.58-1.58-3.85a44.48 44.48 0 00-2.74-4.74 37.47 37.47 0 00-10.83-10.6 40.19 40.19 0 00-5.28-2.9c-.38-.16-.76-.36-1.13-.53-.02.26.04.53.17.75.54.97 1.1 1.86 1.63 2.82a1.92 1.92 0 01.35 1.77c-3.92.15-7.83-.33-11.86-.25l.42 1.05c.11.31.21.68-.09.96h-3.68c-1.58 0-3.15.1-4.72.07-2.18 0-4.35-.19-6.53-.24-3.4-.08-6.8-.13-10.2-.19-.65 0-.88-.26-.76-.88.1-.48.23-.97.31-1.41.15-.9.3-1.78.5-2.83h.01zm28.72-7.43c.18.27.23.4.33.46 1.3.85 2.47 1.89 3.49 3.07.34.38.74.7 1.17.97.56.3 1.2.45 1.77.73a65.9 65.9 0 013.5 1.78c1.16.63 2.17 1.36 3.28 1.98 1.16.75 2.25 1.6 3.28 2.52a32.05 32.05 0 014.5 4.43c1.08 1.31 2.04 2.72 3.04 4.09.13.2.25.42.37.63.13-.16.26-.32.37-.5.37-.96.69-1.93 1.1-2.84.42-.92 1.06-2.02 1.52-3.06.65-1.43 1.22-2.9 1.82-4.31 1.1-2.65 2.2-5.3 3.34-7.95.52-1.22 1.15-2.41 1.71-3.63a19.4 19.4 0 011.58-3.04c.57-.84.97-1.82 1.55-2.62.6-.81 1.3-1.56 2.08-2.21a6.16 6.16 0 013.9-1.63c.1-.01.2-.04.29-.1a3.65 3.65 0 011.86-.36l.6-.05a102.27 102.27 0 00-10.31-2.62c-.19-1.1.6-1.87.75-2.9-.34-.1-.67-.23-.97-.33a25.6 25.6 0 01-5.66-2.29 2.47 2.47 0 01-1.35-2.89c0-.09.05-.18.07-.28.13-.72.1-.66-.53-.96-1.66-.85-3.3-1.72-4.91-2.62a5.35 5.35 0 01-1.85-1.46 8.28 8.28 0 01-2.9-1.93 72.65 72.65 0 01-4.96-4.25 54.22 54.22 0 01-3.86-4.09c-1.2-1.37-2.27-2.89-3.4-4.29l-1.92-2.45c.06.9.23 1.78.52 2.63a8 8 0 01.57 2.97c.13 1.47.23 2.89.32 4.4.14 2.15.32 4.29.39 6.43.07 2.14-.05 4.08 0 6.12 0 1.5.13 3.01.13 4.5 0 2.03-.07 4.05-.1 6.06 0 2.47 0 4.93-.05 7.4v1.34c0 .83 0 1.66-.1 2.48-.11.82-.31.88-1.08.62-.2-.07-.43-.1-.65-.1h-3.75a6.9 6.9 0 00-.86.15zm36.14-31a5.92 5.92 0 00-.84-.61c-1.13-.6-2.27-1.2-3.42-1.77a43.4 43.4 0 01-8.47-5.8c-2.41-2-4.64-4.22-6.65-6.64-.58-.7-1.18-1.39-1.79-2.06-.25-.29-.63-.48-.81-.8-.56-.8-1.2-1.56-1.93-2.22a51.96 51.96 0 00-3.06-3.15c-1.07-1-2.12-1.75-3.18-2.63a15.52 15.52 0 00-6.9-3.02c-1.2-.24-2.4-.35-3.63-.32-.94.07-1.89.22-2.81.44l-2.1.29c-.48.02-.96.07-1.43.14a14.7 14.7 0 00-5.79 2.64l-2.11 1.67a47.38 47.38 0 00-6.32 6.26c-1.35 1.57-2.53 3.27-3.78 4.93-.72.97-1.33 2.05-2.14 2.9-.79.94-1.5 1.96-2.11 3.02-.97 1.56-1.87 3.19-2.82 4.83-.51.88-1.08 1.74-1.56 2.64a561.46 561.46 0 00-4.82 9.07c-.97 1.84-1.93 3.67-2.83 5.56a34.7 34.7 0 00-1.42 4.06 1.1 1.1 0 00.5 1.45c.32-.22.61-.48.87-.77a66.7 66.7 0 001.93-3.31c.28-.47.51-.97.82-1.41.12-.16.4-.2.62-.3.07.22.11.45.12.68a2.1 2.1 0 01-.24.5 11.4 11.4 0 00-1.46 4.6 1.4 1.4 0 01-.1.37 1.7 1.7 0 00.4 1.6c.4-.27.77-.6 1.09-.97.33-.65.62-1.31.87-2a37 37 0 011.05-2.25c.18-.38.31-.84.85-.97.32.69 0 1.23-.2 1.8-.34 1.1-.7 2.2-.97 3.33a2.06 2.06 0 00.37 1.88c.25-.3.48-.63.67-.97.5-1.15.96-2.3 1.47-3.45.23-.53.47-1.06.73-1.57.18-.35.44-.54.82-.22-.26 1.18-.55 2.33-.75 3.49-.1.66-.12 1.33-.08 2a.64.64 0 00.35.47.65.65 0 00.55-.26c.22-.36.38-.74.5-1.14.5-1.79.96-3.57 1.48-5.37.22-.8.42-1.6.67-2.4.53-1.6 1.02-3.25 1.67-4.82 1.04-2.5 2.06-5.04 3.33-7.45a53.1 53.1 0 015.57-8.15c.37-.47.85-.86 1.2-1.34.36-.47.47-.9.8-1.28 1.18-1.34 2.27-2.76 3.58-4 1.31-1.23 2.36-2.68 3.74-3.85 1.2-.96 2.33-2.13 3.6-3.04 1.12-.8 2.33-1.46 3.6-2a7.92 7.92 0 017.4 1.34c1.62 1.56 3.05 3.3 4.27 5.18.74.96 1.44 1.93 2.19 2.89.42.56.96 1.06 1.32 1.64a39.83 39.83 0 004.93 5.87c.96.97 2.01 1.87 3.04 2.79 1.02.92 1.82 1.61 2.77 2.35 1.14.88 2.35 1.68 3.5 2.52a35.7 35.7 0 004.65 2.82c1.42.71 2.92 1.26 4.47 1.63a2.65 2.65 0 002.15-.33c-.75-.44-1.37-.86-2.04-1.19-.62-.29-1.27-.55-1.92-.77-.34-.12-.58-.27-.37-.79.32.02.65.07.96.15.63.23 1.23.54 1.85.78a3.29 3.29 0 002.9.1c-.2-.2-.33-.36-.48-.5a14.52 14.52 0 00-2.97-1.7c-.55-.32-1.28-.38-1.7-.97.26-.45.54-.45.97-.33 1.31.43 2.63.82 3.97 1.16.5.05 1.03.05 1.54 0-.23-.32-.32-.53-.48-.64-.6-.42-1.23-.8-1.87-1.16-.66-.34-1.36-.56-2.03-.9-.33-.15-.87-.3-.71-.74.15-.46.66-.18.96-.1.33.12.65.25.97.4.38.15.77.29 1.17.4a1.12 1.12 0 001.28-.21zm-68.88-8.77c-.64-.22-1.25-.5-1.84-.83a5.35 5.35 0 01-2.25-3.97 6.61 6.61 0 00-2.69-4.47 9.86 9.86 0 00-6.1-2.33h-4.22c-1.38 0-2.72.41-3.85 1.2a32.72 32.72 0 00-3.86 3.09 44.85 44.85 0 01-6.27 5.19 6.12 6.12 0 01-3.24 1.06c-2.3-.06-4.58-.46-6.75-1.2a8.86 8.86 0 00-4.55-.12c-1.14.26-2.24.7-3.26 1.3a7.99 7.99 0 00-3.85 4.92c-.5 2.04-.5 4.16 0 6.2a3.85 3.85 0 003.11 3.05c1.06.25 2.16.36 3.25.34 3.86-.1 7.62-.28 11.43-.43 1.06 0 2.11 0 3.16-.09 2.53-.18 5.06-.41 7.58-.6l7.4-.52c1.93-.16 3.86-.37 5.79-.5 1.18-.1 2.36-.1 3.55-.11a1.21 1.21 0 001.16-.69c.58-1.06 1.23-2.1 1.85-3.14l2.18-3.71.87-1.49c.37-.7.86-1.39 1.4-2.15zm-19.78 80.48l-.18-.04a3273.61 3273.61 0 00-6.64 12.57c-.8 1.59-1.93 2.98-2.43 4.72v.09c-.62 1.33-1.24 2.64-1.83 3.99-.59 1.35-1.22 2.95-1.85 4.42-.33.76-.7 1.5-1.07 2.24-.38.75-.89 1.71-1.31 2.57-.82 1.66-1.64 3.33-2.44 5a2.25 2.25 0 01-2.34 1.37h-.1c-2.17.07-4.34.14-6.5.25a3.55 3.55 0 00-2.6 1.03.88.88 0 00-.26 1.07c1.52-.14 2.98-.28 4.45-.39.41 0 .96-.14 1.15.55-.27.16-.56.28-.86.37-.77.1-1.53.15-2.29.23-1.15.12-2.3.2-3.42.36-.97.13-1.24.52-1.38 1.68 1.24-.08 2.47-.18 3.7-.24 1.2-.14 2.43-.14 3.65 0-.2.7-.62.72-1.1.7-1.85-.05-3.7.01-5.56.18a3.03 3.03 0 00-2.42 1.25 1.42 1.42 0 001.05 1.09c1.78.48 3.55.96 5.32 1.48.15.04.32.05.48.05 2.48.13 4.94.55 7.4.84 1.14.13 2.28.28 3.43.36.7.09 1.4.07 2.1-.05 1.06-.21 2.1-.55 3.08-1a8.43 8.43 0 003.6-3.61c.78-1.4 1.48-2.83 2.2-4.27.8-1.59 1.59-3.2 2.35-4.82.33-.7.57-1.43.88-2.13.6-1.37 1.36-2.7 1.83-4.12a54.34 54.34 0 012.98-6.75 3.23 3.23 0 00.07-3.09 15.96 15.96 0 01-1.4-3.76c-.22-1.21-.96-2.3-.83-3.58-.5-1.58-.78-3.23-.82-4.9-.1-1.34-.12-2.68-.07-4.03l-.02-1.68zM279.4 91v-.85c0-1.4-.04-2.8 0-4.2 0-1.17.2-2.35.25-3.52.1-2.23.2-4.46.18-6.69.12-2.15-.11-4.3-.7-6.37-.55-1.54-1.3-2.76-3.11-2.97-.88-.1-1.75-.29-2.6-.55a22.49 22.49 0 00-3.72-.81c-1.51-.24-3.02-.6-4.53-.82-.98-.16-1.97-.24-2.95-.22-.82 0-1.63.33-2.46.43a2.97 2.97 0 00-2.14 1.46 15.27 15.27 0 00-1.76 3.41c-.51 1.47-1.2 2.9-1.8 4.32l-3.4 8.36-1.13 2.83c.53-.01 1.06.02 1.59.1 1.28.4 2.6.73 3.92.97.72.1 1.4.41 2.12.58l7.6 1.71c1.08.26 2.14.61 3.24.84 1.1.24 2.09.3 3.13.47 1.93.32 3.88.67 5.85 1.03.75.16 1.52.3 2.41.5h.01zm-95.42 19.83c7.9.09 15.7.68 23.74.66l-2.32-3.86c-1.26.38-2.6.38-3.86 0 1.12-.67 2.24-.31 3.21-.64-.41-.96-.56-1.07-1.41-.96l-1.93.17a.82.82 0 01-.9-.46c.22-.12.46-.2.7-.26h1.63c.2 0 .4-.06.63-.09a1.3 1.3 0 00-1.5-.87c-.85.05-1.71 0-2.58 0-.12 0-.24-.11-.43-.21.96-.7 1.93-.26 3-.54-.5-.35-.85-.65-1.25-.88a8.1 8.1 0 00-3.97-1.52c-1.72-.05-3.4-.4-5.14-.43-1.4-.1-2.8-.29-4.17-.57a2.46 2.46 0 00-1.57.07c-.57 3.4-1.2 6.87-1.88 10.39zm26.33-95.48v3.64c-.03.65-.13 1.3-.29 1.93-.1.37-.36.78-.8.74a1.66 1.66 0 01-.96-.53 1.8 1.8 0 01-.45-.96 6.4 6.4 0 01.9-5.13c.17-.15.29-.34.35-.56a3.7 3.7 0 00-1.4-2.9 1.3 1.3 0 00-1.6 0 4.67 4.67 0 00-2.03 3.94 1.05 1.05 0 00.41.8c1.43.88 1.62 2.36 1.71 3.77.08.94-.15 1.88-.67 2.67-.43.6-.77.68-1.35.22-.2-.15-.36-.36-.45-.6-.28-1.04-.55-2.1-.74-3.15-.14-.76-.17-1.53-.25-2.27a.7.7 0 00-.84-.02.72.72 0 00-.2.21c-.33.47-.6.99-.8 1.54-.39 1.28-.57 2.62-.53 3.97V28.94c.47.02.94.02 1.41 0 1.4-.15 2.8-.33 4.2-.49l7.24-.74a.66.66 0 00.69-.65v-.67c0-1.02-.09-2.04-.13-3.07-.06-1.63-.08-3.26-.22-4.89a4.34 4.34 0 00-.74-2.34 1.93 1.93 0 00-2.42-.72l-.04-.03zM198.08 30.3c-.09.14-.16.2-.15.25.13.38.23.78.3 1.18.12 1 .5 1.93 1.13 2.7a10.2 10.2 0 005.24 3.86c.44.18.91.3 1.39.37 1.77.1 3.52-.46 4.89-1.6.64-.5 1.33-.96 1.93-1.55a15.63 15.63 0 003.13-3.69c.33-.59.73-1.13 1.06-1.72.49-.7.82-1.5.97-2.34-1.65.28-3.22.59-4.82.8-2.51.35-5.03.63-7.55.96l-3.23.36-4.29.42zm21.03 79.08c-.52-.82-.96-1.45-1.35-2.1-.48-.81-.58-.86-1.53-.76-.5.06-1.02.08-1.53.06-.2 0-.52-.25-.55-.4 0-.34.26-.38.53-.38h2c-.22-.97-.5-1.23-1.26-1.21-.76.02-1.27.06-1.93.1-.3 0-.58 0-.64-.5.72-.5 1.65.05 2.42-.36-.53-.97-.65-1.05-1.64-.97-.67.05-1.34.05-2 0-.17 0-.3-.24-.46-.36.14-.14.3-.26.48-.35.16-.02.32-.02.48 0h1.47c-.68-.8-1.46-1.5-2.32-2.1-.4-.25-.85-.7-1.46-.43-.05.1-.08.19-.1.28-.35 1.25-.53 1.45-1.83 1.56-1.3.12-2.42.1-3.64.13-.4.03-.8.03-1.21 0-.73 0-1.44-.15-2.16-.22-.1 0-.2.09-.27.11.91.83 1.88 1.6 2.89 2.32.5.35.9.8 1.22 1.33l1.72 2.4c.32.44.59.97.97 1.35.15.15.35.24.56.25.97.07 1.93.13 2.9.15 2.32.05 4.65.08 6.96.11.37.08.74.04 1.28.02v-.03zm31-28.26c1.76-4.7 4-9.18 5.44-14.02a5.43 5.43 0 00-.67-.38c-.76-.27-1.52-.54-2.29-.73-.79-.33-1.61-.56-2.46-.7-1.37 0-1.93.3-2.38 1.67.46.29.9.61 1.31.96.73.68.72 1.2.06 1.93a.54.54 0 00-.07.17c.31.27.62.54.97.82a1.03 1.03 0 01.03 1.66c-.17.14-.38.23-.6.24-.3 0-.57 0-.85.06-.22.04-.42.1-.63.17.2.22.37.44.53.67.45.7.19 1.25-.64 1.36l-.76.06c.26 1.57.19 1.72-1.06 2a1.6 1.6 0 01-.57 0l-2-.18c-.85.96-.77 1.28.41 1.75 1.99.83 4.03 1.65 6.22 2.52v-.03zm42.33-4.33l-.08-.12c-.87.87-1.75 1.72-2.6 2.6a9.14 9.14 0 01-3.49 2.48c-1.62.7-3.34 1.12-5.1 1.25-.2.04-.4.1-.6.19a16.68 16.68 0 00-.13 3.26c.8-.24 1.53-.45 2.25-.68a12 12 0 005.13-2.68 35.81 35.81 0 002.98-3.71c.61-.8 1.1-1.7 1.64-2.56v-.03zm9.65 1.47c.88-2.24 1.07-4.62 2.04-6.75.15-.46.25-.92.3-1.4a5.5 5.5 0 00-2.96.58c-2.18 1.12-3 3.28-1.8 5.4.57.95 1.4 1.7 2.38 2.2l.04-.03zm-90.8 2.34c.7.08.86-.13.69-.62-.07-.18 0-.42.1-.61a2.75 2.75 0 000-2.44 2.04 2.04 0 00.45-2.28c.1-.35.2-.7.26-1.06.1-.64.17-1.28.2-1.93-.1-.54-.12-1.1-.06-1.65a1.01 1.01 0 00-.1-.9.81.81 0 01.08-.67 1.07 1.07 0 000-1.22c-.84.4-.78.4-.85 1.2.04.78.04 1.57 0 2.36a48.4 48.4 0 00-.68 5.68c-.02.75 0 1.5.06 2.25-.06.35-.36.56-.33 1.1.06 1.26.03 2.53-.09 3.8a5.6 5.6 0 01-.23 2.03v.27c.62-.14.69-.23.7-.87-.03-.83.03-1.65.18-2.47a1.69 1.69 0 00-.42-1.94l.03-.03zm-1.76 17.18c.47-.27.48-.27.53-.64.1-1.58.3-3.15.6-4.7.29-1.2.22-2.4.4-3.57a.47.47 0 00-.17-.53.47.47 0 00-.19-.08 37.65 37.65 0 00-1.21 9.55l.04-.03zm3.04-38.58c-.37-.1-.5 0-.57.35a5.2 5.2 0 00.07 2.34c.05.21.22.48.14.62-.16.41-.2.87-.12 1.3.14.89.12 1.79-.06 2.66 0 .13.2.36.32.56l.6-.29a33.83 33.83 0 00-.42-7.53h.04zm-7.86-36.9a4.04 4.04 0 00.22-3.65c-.17-.49-.26-1.12-.97-1.34-.3 1.4.09 4.24.7 5l.05-.02zm4.6-6a4.1 4.1 0 00-.06 4.23c.22-1.4.22-2.82.03-4.22h.04zm86.8 57.42a1.61 1.61 0 001.83-.84c-.68.1-1.3.4-1.82.85v-.01zm-84.73 12.72c-.8.43-.97.88-.43 1.35.48-.33.45-.81.43-1.34v-.01zm82.94-11.38c-.8 0-1.15.53-1.35 1.23l1.35-1.23zM266.66 170.55c-.22-1.34-.44-2.57-.62-3.8-.13-.81-.22-1.64-.27-2.47a8.31 8.31 0 00-1.06-3.05c-.45-.92-.96-1.8-1.42-2.71-.36-.7-.31-1.33.07-1.6.39-.25.97-.12 1.5.54.8.99 1.52 2.03 2.16 3.13.61 1.3 1.14 2.63 1.57 4a23.89 23.89 0 011.15 5.98h5.85c.39-1.19 0-2.33-.22-3.48-.33-1.93-.68-3.86-1.03-5.8a26.07 26.07 0 00-1.33-4.9c-.4-1.03-.8-2.08-1.15-3.14a16.37 16.37 0 01-.65-5.8 2.21 2.21 0 00-.58-1.77c-.49-.48-.82-.43-1.06.2a9.55 9.55 0 00-.56 3.97c.25 2.97.82 5.91 1.7 8.77a82.13 82.13 0 011.79 10.48c.05.34.1.67.14 1.09-.72-.23-.72-.85-.8-1.26-.44-2.2-.75-4.43-1.2-6.63-.39-1.93-.96-3.86-1.4-5.79-.47-1.79-.79-3.61-.96-5.45a18 18 0 01.1-4.02c.1-.56.27-1.11.52-1.63a1.2 1.2 0 011.3-.79 1.76 1.76 0 011.47 1.11c.16.58.26 1.18.3 1.79.05.63 0 1.28.05 1.92.17 2.08.7 4.11 1.54 6.01.2.51.43.97.72 1.68.09-1.15.13-2.12.24-3.1.15-1.23.28-2.47.54-3.69.26-1.18.58-2.35.97-3.5a29.9 29.9 0 012.62-5.97c.22-.36.48-.68.8-.96a1.08 1.08 0 011.83.47c.27.95.23 1.96-.1 2.9-.35 1.42-.82 2.82-1.16 4.25-.2.94-.34 1.9-.43 2.85-.12 1.88 0 3.76.37 5.6.32 2.26.36 4.54.13 6.8-.07.6-.1 1.21-.09 1.82.1 1.66-.02 3.34-.37 4.97-.04.3-.06.6-.07.9.22.06.44.1.67.12 1.55 0 3.09 0 4.62-.12 1.28-.06 2.55-.21 3.86-.32l1.06-.06 7-.49 4.83-.33c.8-.05 1.59-.15 2.39-.18a1.17 1.17 0 011.15.38c-.3.13-.6.24-.91.32-.57.11-1.15.16-1.72.24-1.71.22-3.42.47-5.15.63-1.93.19-3.86.28-5.79.43-2.3.15-4.6.36-6.91.47-2.05.1-4.1.13-6.14.12-3.08 0-6.16-.11-9.23-.13-1.57 0-3.14.08-4.7.09h-5.48c-1.53 0-3.07.16-4.6.16-3.18 0-6.34-.09-9.52-.1-1.93 0-3.78.07-5.67.12-.96 0-1.93.06-2.9.1-.15 0-.35.06-.46 0-.1-.07-.45-.33-.45-.51 0-.19.28-.42.47-.46.64-.1 1.29-.19 1.93-.23 3.13-.24 6.28-.32 9.41-.23 1.6 0 3.2.14 4.83.13 1.44 0 2.9-.17 4.32-.2 1.08 0 2.17.08 3.26.1l6.05.11c.3 0 .59-.04.88-.08zm11.75-1.62a.62.62 0 00.5-.2c.05-.07.1-.15.13-.24a.62.62 0 00.03-.27c.04-1.18.12-2.37.16-3.55-.03-.96 0-1.93.07-2.89.26-2.49.14-5-.34-7.46-.28-1.93-.25-3.9.09-5.83.29-1.6.75-3.17 1.13-4.77.16-.68.34-1.36.45-2.06a1.2 1.2 0 00-.44-1.3c-.28.3-.53.63-.75.97-.72 1.47-1.44 2.9-2.08 4.43a25.09 25.09 0 00-1.93 6.75c-.17 1.47-.32 2.9-.44 4.39-.11.86-.13 1.72-.06 2.59.2 1.58.48 3.16.79 4.73.47 1.76.75 3.57.83 5.4.03.32.1.64.21.96h1.78l-.13-1.65zm-14.39-10.76c.13.31.25.63.42.97.43.8.91 1.6 1.3 2.43.6 1.45.93 3 .97 4.57.14 1.6.24 3.22 1.47 4.54l.96-.15c0-3.3-2.43-10.64-5.12-12.36zM193.11 13.4a4.4 4.4 0 01-1.83 3.57 7.34 7.34 0 01-3.68 1.3c-1.74.43-3.52.68-5.32.72-1.2.1-2.4.13-3.6.08-1.4-.1-2.82-.06-4.22.13-1.31.07-2.62.2-3.94.28-2.2.13-4.41.19-6.61.37-1.82.16-3.63.45-5.44.65a23.71 23.71 0 01-8.36-.44c-2.4-.63-3.03-2.25-2.68-4.29a8.68 8.68 0 015.68-6.87c.96-.42 1.97-.74 3-.97 2.12-.47 4.34-.37 6.42.28a6.18 6.18 0 005.99-.9c1.32-.97 2.41-2.2 3.68-3.22 1.78-1.4 3.56-2.76 5.92-3a9.2 9.2 0 014.52.58c1.77.67 3.45 1.55 5 2.63 1.26.93 2.4 2.01 3.39 3.23a9.92 9.92 0 012.08 5.88zm-10.5 4.5c2.3-.1 4.56-.5 6.75-1.18a3.4 3.4 0 002.06-1.47c.47-.74.64-1.63.47-2.49v-.58a6.9 6.9 0 00-1.17-3.4 14.47 14.47 0 00-3.93-3.75c-1.93-1.15-3.78-2.45-6.07-2.8a7.88 7.88 0 00-6.4 1.69c-1.38 1.13-2.68 2.37-4 3.57-2.02 1.81-4.24 2.9-7.02 1.93a13.13 13.13 0 00-5.79-.65c-1.58.2-3.13.65-4.57 1.34-.5.2-.98.48-1.4.81a8.37 8.37 0 00-3.03 5.3 2.31 2.31 0 001.08 2.48c.77.48 1.64.75 2.54.81.54-.01 1.09.01 1.62.08 2.08.15 4.17.08 6.23-.2 2.4-.2 4.83-.46 7.17-.67 1.57-.13 3.14-.22 4.72-.3 3.56-.19 7.15-.34 10.74-.52z" fill="#1B4ECC"/><path d="M273.08 98.17c.26.31 0 .6-.16.76a3.1 3.1 0 01-1.18.78c-1.1.28-2.23.48-3.37.6-1.78.17-3.57.23-5.36.33a1.08 1.08 0 00-1.02.7c-1.14 2.39-2.35 4.74-3.46 7.14-1.1 2.4-2 4.57-3 6.83-.59 1.31-1.2 2.6-1.8 3.9-.2.45-.36.9-.54 1.34a.55.55 0 01-.75.39c-.03-.74.17-1.46.57-2.07.97-2.17 1.85-4.4 2.82-6.59 1.14-2.52 2.32-5.04 3.51-7.54.53-1.1 1.2-2.13 1.69-3.24a2.57 2.57 0 012.76-1.73h.2c1.92-.1 3.85-.2 5.78-.25a4.55 4.55 0 003.36-1.36l-.05.01zM137.52 173.04c-1.46.13-2.9.28-4.37.4-1.72.13-3.44.22-5.17.35-.22.03-.43.09-.64.15-.32.05-.61 0-.69-.37-.08-.36.24-.43.48-.47.97-.15 1.84-.32 2.75-.41a252.7 252.7 0 019.85-.69c.38-.01.77.03 1.14.12.14 0 .37.3.34.38a.76.76 0 01-.43.42c-.57.09-1.15.12-1.72.15l-1.52.13-.02-.16zM366.61 166.93c.35-.12.7-.21 1.07-.26 1.93-.05 3.86-.05 5.79-.08.54 0 1.08-.12 1.62-.11.54 0 .66.1.79.96h-2.08l-4.7.05c-.58 0-1.15.09-1.73.07a3.52 3.52 0 01-.83-.28l.07-.35zM316.3 89.7c.25.16.47.35.67.57.88 1.4 1.74 2.8 2.6 4.2.17.29.14.3-.4.84-.66-.96-1.2-2-1.61-3.1-.1-.22-.24-.42-.4-.6-.33-.5-.67-.97-.96-1.5-.1-.05 0-.13.1-.41zM322.79 83.01l-4.06-3.67c.35 0 .57-.1.72 0 .4.18.79.42 1.14.7.73.64 1.43 1.33 2.14 2 .3.29.29.3.06.97zM323.45 90.09c-.2-.06-.4-.15-.6-.26a24.74 24.74 0 01-2.5-3.63c.44-.25.62.14.84.34 1.3 1.23 2.32 2.75 2.26 3.55zM323.82 91.15c.2.1.47.15.6.3.65.86 1.3 1.73 1.92 2.62.34.53.27.65-.34 1.08l-2.33-3.8.15-.2zM319.45 85c-.2-.06-.43-.06-.53-.18a104.7 104.7 0 01-2.33-2.69c-.06-.07 0-.23-.05-.5 1.28.39 1.86 1.43 2.62 2.23.36.38.36.51.29 1.15zM315.8 88.88c-.82-.12-.97-.78-1.28-1.2-.36-.47-.69-.96-.96-1.48-.08-.14 0-.35 0-.52.2 0 .52-.1.6 0 .6.87 1.19 1.77 1.75 2.68.03.1-.07.29-.12.52zM315.57 80.56c-.06.36-.21.52-.54.43a.75.75 0 01-.24-.14c-.65-.5-1.3-1-1.93-1.55-.16-.13-.2-.4-.3-.6.23 0 .53-.19.68-.1.73.5 1.43 1.05 2.12 1.6.13.08.16.27.21.36zM314.4 76.2c.16-.07.38-.23.47-.17.86.48 1.7.96 2.51 1.55.14.09.11.42.16.66-.23 0-.51.04-.69-.06-.84-.55-1.66-1.15-2.5-1.73l.04-.26zM310.17 80.65c-.5.25-.76.18-1.01-.1-.42-.49-.88-.97-1.28-1.43-.13-.16-.11-.45-.16-.67.24 0 .53-.08.7 0 .3.2.55.45.76.74.33.46.63.94.99 1.46zM311.73 77.86c-.3.27-.59.13-.86-.08-.6-.45-1.2-.9-1.79-1.38a2.31 2.31 0 01-.34-.56 3.42 3.42 0 013 2.02zM312.93 75.56a9.73 9.73 0 01-3.18-1.32v-.25c.25-.06.54-.25.72-.18.73.28 1.44.6 2.13.97.14.11.16.45.33.78zM312.6 83.99c-.07.06-.13.19-.18.2-.15.02-.3 0-.42-.09-.3-.33-.56-.7-.83-1.04a7.31 7.31 0 01-.6-.74 1.44 1.44 0 01-.08-.51c.2 0 .45-.06.6 0 .25.2.47.43.64.7.27.37.52.76.77 1.16.05.1.08.2.1.32zM306.46 72.09c.38.11.76.25 1.13.41.15.08.31.38.27.5a.63.63 0 01-.5.31 5 5 0 01-1.23-.43.5.5 0 01-.17-.48c.14-.15.37-.22.5-.31zM306.91 77.16c-.15.54-.38.7-.8.41-.4-.28-.58-.38-.86-.59-.28-.2-.54-.36-.29-.67a.72.72 0 01.67 0c.44.25.87.54 1.28.85zM305.14 74.5c.33-.1.54-.22.66-.17.42.16.82.35 1.2.59.12.08.15.3.23.47-.2.07-.4.23-.57.2a2.75 2.75 0 01-1.52-1.09z" fill="#1B4ECC"/><path d="M341.51 88.47c-.16-1.82-.35-3.47-.42-5.13-.06-1.24 0-2.49.07-3.74V77.8c0-.81.22-1.13.96-1.29a9.9 9.9 0 012.37-.28c1.25.08 2.47.4 3.6.96.84.4 1.68.81 2.55 1.13a6.05 6.05 0 004.82-.59 20.3 20.3 0 001.83-1.04 7.32 7.32 0 016.39-.51c2.6.93 4.97 2.4 6.96 4.32a20.62 20.62 0 013.07 3.55c.44.66.8 1.38 1.06 2.13.26.7.09.96-.56 1.46a6.33 6.33 0 01-3.74 1.03c-6 .05-12 .05-18 .07-2.05 0-4.1.05-6.15 0-1.6 0-3.21-.17-4.8-.26zM179.8 60.06c-.54.76-1.03 1.44-1.5 2.15-.31.48-.58.96-.87 1.48l-2.14 3.71c-.62 1.05-1.26 2.09-1.85 3.15a1.22 1.22 0 01-1.16.68c-1.19 0-2.37 0-3.55.11-1.93.13-3.86.35-5.79.5l-7.4.52c-2.52.2-5.05.43-7.57.61-1.06.08-2.1.05-3.17.09-3.86.14-7.62.32-11.43.42a12.7 12.7 0 01-3.25-.34 3.86 3.86 0 01-3.05-3.04c-.5-2.04-.5-4.17 0-6.2a7.98 7.98 0 013.85-4.92c1-.6 2.06-1.03 3.18-1.3a8.87 8.87 0 014.54.12c2.18.74 4.45 1.14 6.75 1.2a6.12 6.12 0 003.24-1.07 44.96 44.96 0 006.27-5.19c1.2-1.12 2.5-2.16 3.86-3.1a6.75 6.75 0 013.86-1.19h4.22c2.24.07 4.39.89 6.1 2.34a6.57 6.57 0 012.69 4.46 5.34 5.34 0 002.24 3.98c.62.33 1.26.6 1.92.83zM211.25 80.64a1.69 1.69 0 01.44 2c-.15.82-.2 1.65-.18 2.47 0 .64-.08.74-.7.87 0-.1-.06-.2 0-.27.2-.66.28-1.35.23-2.03.12-1.27.15-2.54.09-3.8 0-.54.27-.75.33-1.1-.06-.75-.09-1.5-.06-2.25.11-1.9.34-3.8.67-5.68.05-.79.05-1.58 0-2.36.08-.8 0-.8.86-1.2a1.07 1.07 0 010 1.22.8.8 0 00-.07.68 1.03 1.03 0 01.1.9c-.07.55-.05 1.1.05 1.65-.03.64-.1 1.29-.2 1.92a9 9 0 01-.26 1.07 2.04 2.04 0 01-.46 2.27 2.76 2.76 0 010 2.44c-.05.2-.16.44-.1.6.12.46-.05.67-.75.6zM209.49 97.82c-.02-3.21.38-6.41 1.18-9.52a.46.46 0 01.35.6c-.18 1.18-.11 2.38-.4 3.57-.3 1.56-.5 3.13-.6 4.71 0 .37 0 .37-.53.64zM212.53 59.22c.18 1.23.29 2.46.34 3.7.1 1.28.1 2.57 0 3.85l-.6.3c-.12-.21-.36-.44-.32-.57.18-.87.2-1.78.07-2.66-.1-.44-.05-.89.11-1.3.08-.14-.09-.4-.13-.62a5.2 5.2 0 01-.08-2.34c.1-.31.24-.47.6-.36zM296.12 73.73a3.6 3.6 0 011.82-.84 1.61 1.61 0 01-1.82.84zM211.38 86.45c0 .53.05 1.02-.44 1.35-.5-.47-.36-.91.44-1.35zM294.36 75.07l-1.35 1.24c.2-.7.55-1.23 1.35-1.24zM182.6 17.9l-10.75.5c-1.58.1-3.15.18-4.72.32-2.38.2-4.82.47-7.17.66-2.06.28-4.15.35-6.23.2-.53-.06-1.08-.09-1.62-.07a5.61 5.61 0 01-2.54-.81 2.3 2.3 0 01-1.07-2.48 8.36 8.36 0 013.01-5.3c.43-.34.9-.61 1.41-.82a14.7 14.7 0 014.57-1.34c1.96-.22 3.94 0 5.8.65 2.77.96 4.99-.12 7-1.93 1.33-1.2 2.63-2.44 4.02-3.57a7.88 7.88 0 016.4-1.69c2.3.35 4.16 1.65 6.07 2.8 1.54 1 2.88 2.27 3.94 3.75.7 1.01 1.1 2.19 1.19 3.4v.59a3.4 3.4 0 01-2.53 3.95c-2.2.68-4.47 1.08-6.77 1.19z" fill="#FBF9F9"/><path d="M340.86 110.5a3.4 3.4 0 01-1.57 3.01c-.06 0-.14.06-.17.1-.62 1.16-1.83.97-2.89 1.24a1.8 1.8 0 01-.96-.21 6 6 0 01-2.36-1.77c-.25-.32-.44-.7-.55-1.1a.97.97 0 01.75-1.05 5.5 5.5 0 011.7-.08c.72.02 1.44-.03 2.15-.16l3.45-.15c.16.03.3.09.45.17zM324.78 108.65a1.8 1.8 0 011.12-2.2 5.78 5.78 0 013.75-.77 3.03 3.03 0 012.28 1.55c.08.15 0 .4 0 .6h-.61a.23.23 0 01-.15-.1c-.53-.97-1.5-.97-2.42-1.05a3.48 3.48 0 00-2.32.74 3.6 3.6 0 00-.68.76c-.24.36-.22.37-.97.47zM341.66 107.92c0-.35-.15-.61-.08-.69.54-.51.8-1.33 1.67-1.5.28-.07.55-.18.8-.3a2.41 2.41 0 012.45.18c.28.2.62.3.9.5a1.66 1.66 0 01.8 1.35c0 .17-.19.33-.26.46-.58-.5-1.1-.9-1.57-1.36a2.07 2.07 0 00-2.4-.3c-.65.27-1.23.68-1.71 1.2-.12.12-.3.22-.6.46zM345.26 111.94c-.26.2-.42.4-.6.43-.18.03-.28-.24-.42-.37.16-.17.33-.31.52-.44.07-.03.28.19.5.38zM342.71 112.23c.13-.28.22-.55.55-.35.08.05.16.24.12.3-.16.3-.38.27-.67.05zM329 112.65c.05-.67.05-.67.6-.39l-.6.39zM328.64 112.94c.15.19.33.34.3.4-.08.16-.19.29-.32.4-.09-.1-.26-.21-.25-.31 0-.1.18-.28.27-.5zM327.68 112.9c-.45-.3-.6-.51-.33-.74.08-.07.27 0 .41 0l-.08.74zM328.3 110.78c.1.14.17.29.21.45 0 .06-.15.14-.24.2-.1-.1-.18-.2-.24-.33 0-.06.14-.19.27-.32zM344.55 113h.49v.33h-.52l.03-.33zM330.57 113.04l-.25-.37c-.08-.13.1-.13.11-.12l.34.32-.2.17zM344.07 110.97c-.15.1-.26.22-.34.2-.07-.02-.17-.14-.25-.22.08-.06.16-.2.24-.2.09 0 .22.16.35.22zM345.82 22.26a79.07 79.07 0 01-.12-5.87c.38 1.93.42 3.92.12 5.87zM346.2 26.04c-.12-.08-.33-.16-.33-.24-.04-.97-.01-1.93.08-2.9.16 1.07.66 2.09.22 3.19l.02-.05zM318.12 20.46l.07.58c-.46-.16-.34-.37-.07-.58zM190.05 144.2c-1.55 0-3.1-.2-4.59-.63a5.68 5.68 0 01-1.76-.73 19.46 19.46 0 01-3.53-2.49c-1.38-1.42-1.4-1.93 0-3.32a13.3 13.3 0 014.82-3.23 9.73 9.73 0 013.57-.43c1.9.07 3.75.5 5.49 1.25.8.31 1.55.76 2.22 1.31.76.68 1.6 1.27 2.39 1.93.24.21.45.46.62.73a.78.78 0 010 .97 11.01 11.01 0 01-5.71 4.2c-1.16.25-2.34.4-3.52.44zm8.22-5.07a4 4 0 00-1.8-1.63c-.06.06-.13.1-.14.15-.07.25-.11.5-.2.74-.48 1.35-1.13 2.57-2.67 2.9-.64.1-1.28.15-1.93.11-.48.05-.96-.01-1.42-.16a3.66 3.66 0 01-2.23-3.8c.11-.75.36-1.48.55-2.22l.18-.76c-3.51 0-6.02 1.85-8.47 4.13.46.57.96 1.1 1.5 1.6a12.12 12.12 0 005.78 2.53c.98.15 1.97.22 2.96.22 3.23.07 5.76-1.38 7.9-3.81zM217.64 144.21a17.75 17.75 0 01-4.58-.66c-.5-.13-.97-.33-1.41-.6-1.68-.96-3.45-1.86-4.56-3.58-.45-.68-.45-.96.1-1.62 1.93-2.1 4.06-3.85 6.99-4.32.65-.1 1.31-.12 1.97-.09 2.42.04 4.79.7 6.87 1.93 1.27.87 2.48 1.84 3.6 2.9.7.61.65.96.1 1.72a10.6 10.6 0 01-5.38 3.86c-1.22.26-2.46.42-3.7.46zm-1.25-9.75c-3.6 0-6.09 1.86-8.5 4.06.2.31.43.61.66.9a9.38 9.38 0 003.72 2.48c1.73.68 3.57 1.04 5.44 1.05 1.96.04 3.89-.46 5.57-1.46 1-.67 1.92-1.48 2.71-2.39a3.95 3.95 0 00-1.93-1.6c-.1.37-.16.69-.27.96a3.73 3.73 0 01-2.81 2.89c-.77.08-1.54.08-2.3 0a3.56 3.56 0 01-3.08-2.95c-.08-.99.06-1.98.42-2.9.1-.3.2-.6.37-1.04zM196.7 119.68c1.57-1.13 3.17-2.28 5.29-1.93 1.93.11 3.75.97 5.06 2.4.26-.23.54-.42.84-.6.68-.34 1.28-.96 2.18-.68h.08c1.15-.89 2.13 0 3.1.38 2.18.91 3.01 2.78 3.35 4.98a6.9 6.9 0 01-.17 3.5c0 .1 0 .3-.07.35-.16.15-.35.25-.56.28-.12 0-.32-.24-.34-.4-.03-.25-.01-.5.06-.75a7.02 7.02 0 00-.52-5.04 5.92 5.92 0 00-3.8-2.9 2.28 2.28 0 00-1.23.15c-.9.3-1.76.66-2.72 1.03.21.76.35 1.4.57 2.02a6.9 6.9 0 010 5.48c-.2.4-.5.75-.86 1.02a1.19 1.19 0 01-1.46.02 4.37 4.37 0 01-1.15-3.46 6.76 6.76 0 011.04-3.7l.42-.52c.45-.53.5-.97-.06-1.3-.84-.5-1.5-1.32-2.52-1.52a4.76 4.76 0 00-3.44.31c-.98.2-1.85.73-2.45 1.53.47.78.88 1.6 1.22 2.45a5.73 5.73 0 01-.47 4.98c-.14.22-.32.4-.54.54-1.32.83-2.06.56-2.48-.7a8.4 8.4 0 01-.23-4.17c.15-.99.53-1.93 1.1-2.74.09-.13.14-.28.18-.43a3.85 3.85 0 00-3.86-.97 5.1 5.1 0 00-3.52 2.6c-.35.71-.65 1.44-.96 2.17-.14.24-.3.48-.45.71-.13-.13-.2-.2-.2-.22a7.06 7.06 0 012.9-4.99 5.12 5.12 0 016.28-.07l.38.19zm-.16 1.23a8.1 8.1 0 00-.78 6.3c.08.32.17.65.58.66a.96.96 0 00.9-.47c.68-.99.94-2.2.73-3.39a4.26 4.26 0 00-1.46-3.1h.03zm10.06.6c-.28.29-.52.61-.74.96a7.11 7.11 0 00-.53 4.92c.1.46.31.96.81.91.5-.05.69-.49.97-.78.05 0 0-.18.06-.27a5 5 0 00.2-2.74 9.49 9.49 0 00-.77-2.99v-.02zM188.48 156.82c-.6-.2-1.18-.47-1.73-.78a5.04 5.04 0 01-2.38-5.43.56.56 0 01.4-.33.63.63 0 01.44.27c.07.17.11.36.12.55.06.57.18 1.14.36 1.69a4.23 4.23 0 003.26 2.78c.4.07.88.07.9.65.02.34-.45.58-1.37.6zM187.14 127.81a3.85 3.85 0 010-2.75 3.43 3.43 0 010 2.75zM274.89 73.48c-.49.3-1 .55-1.53.76a5.5 5.5 0 01-4.47-.25.74.74 0 00-.96.05c-.38.3-.81.53-1.22.79-.4.26-.6.1-.79-.28.27-.67.96-.9 1.48-1.4-.84.16-1.48 1.07-2.5.7.2-.97 1.4-.97 1.86-1.86-.39.1-.63.15-.85.24l-.89.36c-.29.11-.7.27-.8-.16-.06-.2.22-.53.4-.76.2-.23.3-.12.44-.2.63-.25 1.37-.39 1.31-1.52.3.27.52.36.58.52a4.48 4.48 0 002.9 2.83c.67.18 1.38.23 2.07.13.63-.08 1.26-.2 1.88-.39a.96.96 0 011.09.44zM268.33 80.2a3 3 0 01.35.77c.13.77.54 1.46 1.15 1.93.1.12.35.1.52.16.4.12.78.26 1.15.43.17.09.24.33.35.5-.2.12-.43.38-.6.34a7.49 7.49 0 01-1.98-.6 2.69 2.69 0 01-1.47-1.67 1.47 1.47 0 01.53-1.86zM211.17 30.49a3.07 3.07 0 012.4.84.67.67 0 010 .79 2.04 2.04 0 01-1.13 1.07 3.74 3.74 0 01-3.59-.16c-.72-.45-.78-.77-.27-1.46a2.9 2.9 0 012.59-1.08zm-1.93 1.55a1.36 1.36 0 001.47.52l-.44-1.2-1.03.68zM204.42 30.93c.57.16 1.14.34 1.7.56.92.4 1.12 1.09.1 1.93a3.5 3.5 0 01-3.16.67c-.4-.1-.79-.27-1.14-.49-.61-.37-.67-.68-.3-1.26a2.64 2.64 0 011.99-1.2h.77l.04-.21zm-.7 2.33l.13-.18-.48-1.2-1.17.97 1.51.41zM206.15 34.38a2.17 2.17 0 002.33 1.2c-.75.6-1.2.64-1.8.3-.6-.32-.68-.7-.53-1.5z" fill="#1B4ECC"/><path d="M198.27 139.13c-2.13 2.43-4.65 3.85-7.9 3.8-1 0-1.99-.06-2.97-.2a12.11 12.11 0 01-5.78-2.54c-.54-.5-1.04-1.03-1.5-1.6 2.45-2.28 4.96-4.11 8.47-4.13l-.18.76c-.19.74-.44 1.47-.55 2.23a3.66 3.66 0 002.23 3.79c.46.15.94.2 1.42.16.65.04 1.3 0 1.93-.12 1.54-.32 2.19-1.54 2.67-2.89.09-.24.13-.49.2-.74 0-.05.08-.09.14-.16a4 4 0 011.82 1.63zM216.38 134.47c-.16.43-.26.73-.38 1.02-.36.92-.5 1.91-.41 2.9a3.56 3.56 0 003.07 2.95c.76.08 1.53.08 2.3 0a3.73 3.73 0 002.81-2.9c.1-.3.17-.62.27-.96.8.31 1.48.88 1.93 1.6-.8.92-1.7 1.72-2.7 2.4-1.7 1-3.62 1.5-5.58 1.46a15.1 15.1 0 01-5.44-1.05 9.36 9.36 0 01-3.72-2.48c-.23-.3-.46-.59-.66-.9 2.43-2.18 4.93-4.05 8.51-4.04zM209.23 32.04l1.03-.68.44 1.2a1.36 1.36 0 01-1.47-.52zM203.71 33.27l-1.51-.48 1.18-.96.47 1.2-.14.24z" fill="#FBF9F9"/></svg>