<svg width="669" height="190" viewBox="0 0 669 190" fill="none" xmlns="http://www.w3.org/2000/svg"><path d="M210.62 66.53c6.1-5.67 12.5-11 19.19-15.98a11.2 11.2 0 00-1.96-3.55c-1.5-2.24-3.05-4.46-4.6-6.66-.8-1.16-1.68-2.27-2.46-3.46-.77-1.18-.73-1.33.3-2.25 2.5-2.12 5.06-4.18 7.57-6.28 2.07-1.73 4.12-3.5 6.17-5.33 1.51-1.33 1.66-1.33 2.97.17 1.3 1.5 2.5 3.1 3.66 4.73 1.46 2.06 2.85 4.17 4.22 6.28.66 1.04 1.21 2.16 1.86 3.33.27-.08.53-.18.79-.29 2.2-1.33 4.32-2.78 6.66-4 4.96-2.56 9.97-5.03 15-7.45 5.6-2.66 11.5-4.69 17.3-6.86a1.92 1.92 0 001.34-1.46c.85-3.4 1.73-6.8 2.66-10.19.46-1.75.9-3.51 1.33-5.32.16-.5.35-.97.56-1.44 1.74.43 3.33.93 4.98 1.18 1.44.25 2.9.3 4.34.12 2.34-.33 4.73-.03 6.91.87a14 14 0 012.19.99 12.8 12.8 0 006.9 1.6c2.34-.15 4.69-.05 7.01.3 2.01.39 3.93 1.15 5.65 2.26.58.4 1.26.61 1.97.63 3.37.18 6.73.4 10.08.66 2.11.16 4.24.31 6.35.58 4 .5 8.1 1.02 12.11 1.66 5.22.78 10.37 1.95 15.4 3.5 4.76 1.48 9.4 3.26 13.92 5.33 3.55 1.65 7.1 3.35 10.65 5.1a2.1 2.1 0 001.76.14c.92-.32 1.84-.65 2.78-.9.5-.13 1.03-.13 1.53 0-.74 1.33-2.36 1.1-3.52 2l9.24 5.5.2-.13c-.39-.7-.8-1.4-1.18-2.11a13.24 13.24 0 01-1.87-5.77 9.53 9.53 0 017.84-9.94 8.39 8.39 0 018.32 3.68 9.4 9.4 0 011.13 9.58 35.98 35.98 0 01-5.12 8.56 1.98 1.98 0 00.3 3.07c3.25 2.76 6.53 5.48 9.72 8.29 2.67 2.4 5.45 4.8 8 7.39 4.21 4.3 8.3 8.73 12.41 13.12 1.61 1.72 3.14 3.5 4.72 5.25.13.13.28.24.44.35 1.23-.8 2.51-1.54 3.83-2.2a7.7 7.7 0 018.08.64 19.6 19.6 0 012.97 3.53c.84 1.03 1.61 2.11 2.46 3.13a4.87 4.87 0 003.93 1.62c.71.01 1.42-.03 2.12-.12 1.5-.2 3.03-.08 4.49.33 2.5.6 4.9 1.62 7.04 3.05a8.54 8.54 0 013.49 4.08c.21.66.32 1.36.32 2.06a2.37 2.37 0 01-1.88 2.42c-1.78.56-3.65.8-5.51.75-3.64-.07-7.27-.16-10.9-.19-1.2 0-2.39.12-3.7.2.49 1 1.13 1.93 1.9 2.73 2.1 2.87 4.21 5.71 6.36 8.54a3.1 3.1 0 01.08 3.87c-1.2 1.92-2.34 3.86-3.5 5.8-.23.38-.43.76-.67 1.2 1.68 1.06 3.35 2.05 4.94 3.13 1.6 1.08 3.21 2.23 4.72 3.45a25.47 25.47 0 014.55 3.72c-.88 1.1-1.7 2.14-2.54 3.14-2.3 2.66-4.62 5.32-6.94 8.07-1.17 1.33-1.68 1.42-3.1.28-1.43-1.15-2.67-2.3-4.09-3.41a42.27 42.27 0 00-7.14-4.82c-1.02-.52-1-.53-1.82.26-2.46 2.43-4.9 4.88-7.4 7.26-1.33 1.25-2.73 2.38-4.25 3.69a29.11 29.11 0 001.66 3.27 64.82 64.82 0 007.25 9.16c.7.74 1.33 1.52 2.09 2.4-.4.5-.74.96-1.1 1.33l-5.17 5.42a4.68 4.68 0 010 4 8.41 8.41 0 000 4.96c.17.7.34 1.33.45 2.08a8.94 8.94 0 01-2.67 7.9 20.69 20.69 0 01-4.88 3.39c-.37.21-.73.44-1.33.82h10.21c.43 0 1.02 0 .96.58-.07.57-.6.56-1.05.56l-13.32.18c-2.51 0-5.03.1-7.56.12-.46-.06-.9-.18-1.33-.36.34-.91.98-.9 1.58-.91h5c-.1-.26-.23-.5-.4-.71a12.48 12.48 0 01-3.9-10.65c.4-2.87-.07-5.8-1.32-8.4-.5-.94-.92-1.92-1.34-2.88a14.65 14.65 0 01-1.66-8.39c-.61.38-1.06.63-1.48.92-3.8 2.66-7.56 5.45-11.37 8.1a97.08 97.08 0 01-20.63 11.2 281.93 281.93 0 01-18.34 6.37c-.32.1-.64.25-1.17.47l1.2.94c1.56 1.24 3.11 2.48 4.64 3.76.4.38.72.83.95 1.33.6 1.21.19 2.06-1.13 2.4-2.14.72-4.42.96-6.66.69-1.15-.14-2.3-.14-3.45 0-2.21.15-4.44.18-6.66.06a7.78 7.78 0 01-5.43-2.66c-.62-.7-1.25-1.33-1.83-2.1a5.14 5.14 0 01-.47-.8l-.41.28c.2.73.37 1.46.58 2.18.22.72.44 1.25.63 1.9.19.63 0 1-.56 1.06-1.33.2-2.7.02-3.93-.53-.42-.2-.7-.87-.89-1.34-.2-.46-.32-1.33-.53-2.05-.28-.93-.4-1-1.43-.98-2.93 0-5.86.12-8.79.12-4.15 0-8.32-.1-12.48-.18-3.9-.08-7.82 0-11.7-.3a114.5 114.5 0 01-12.27-1.44 433.97 433.97 0 01-20.16-4.2c-3.23-.74-6.36-1.92-9.52-2.95-2.53-.81-5.06-1.62-7.53-2.58-4.5-1.73-8.98-3.56-13.46-5.33-1.14-.46-2.24-1.02-3.37-1.54-.4.8-.48 1.7-.26 2.57a5.06 5.06 0 01-2.05 4.64l-.3.27a7.74 7.74 0 00-2.9 5.2c-.25 1.72-.8 3.41-1.24 5.25.28 0 .69.07 1.12.08 2.78 0 5.57.19 8.37.2 2.34 0 4.7-.1 7.04-.12 1.01 0 2.04.1 3.05.17.27 0 .53.07.77.18a.66.66 0 01.31.5c0 .16-.23.35-.4.46-.17.03-.35.03-.52 0-2.17 0-4.34.1-6.5.1-2.66 0-5.23-.13-7.85-.16-4.82 0-9.65 0-14.49-.06-2.4 0-4.79-.14-7.19-.1-4.91.08-9.82.3-14.74.35-2.92 0-5.84-.16-8.77-.15-6.65 0-13.3.04-19.97.1-3.5 0-7 .16-10.5.25-.37 0-.8 0-.8-.4a.97.97 0 01.57-.73c.87-.21 1.76-.33 2.66-.35 6.3-.1 12.58-.17 18.88-.24h5.32c-.18-.3-.37-.59-.58-.86a36.93 36.93 0 01-3.17-4.25 12.58 12.58 0 00-4.8-4.65 65.29 65.29 0 01-4.85-3.25 9.4 9.4 0 01-3.58-5.73 46.1 46.1 0 00-1.34-4.6 8.4 8.4 0 00-2.66-3.62 76.75 76.75 0 01-3.37-3.2 6.13 6.13 0 01-1.87-4.7 6.25 6.25 0 00-1.62-4.6 8.22 8.22 0 01-1.82-3.8 3.59 3.59 0 014.28-4.28 7.98 7.98 0 016.23 5.9c.25 1.03.45 2.07.6 3.12a4.64 4.64 0 001.98 2.99 10.96 10.96 0 014.11 6.32c.6 2.32 2.41 3.2 4.62 3.78 0-.2-.03-.41-.09-.61-2.71-6.01-5.05-12.18-7.02-18.47-.76-2.35-1.33-4.78-1.95-7.17-.38-1.34-.83-2.6-1.34-4-.51.1-.9.17-1.33.27a8.32 8.32 0 01-5.81-.67 4.25 4.25 0 01-.51-.41c-1.05-.7-1.12-1.16-.36-2.16a10.96 10.96 0 016.4-4c2.06-.42 4.2-.22 6.14.57 1.33.48 1.63 1.33.61 2.4-1.09 1.02-2.23 2-3.43 2.9-.24.2-.5.36-.8.57l.77 2.55c1.2 4 2.24 8 3.61 11.83 1.6 4.51 3.45 8.93 5.22 13.31.44 1.12.9 2.21 1.44 3.3.36.7.86 1.32 1.24 2.01.46.8.88 1.63 1.25 2.48.38.95.66 1.93 1 2.89a4.9 4.9 0 004.07 3.29l-.84-1.05c-1.16-1.63-2.38-3.21-3.42-4.9a11 11 0 01-1.33-7.46c.5-2.99.13-6.05-1.05-8.84-.56-1.25-1.06-2.54-1.68-3.77a16.22 16.22 0 01-.65-12.42c.36-1.19.63-2.4.97-3.6a1.55 1.55 0 00-.52-1.65c-3.69-3.46-7.42-6.87-11-10.42-4.47-4.42-8.81-8.97-13.2-13.49a24.9 24.9 0 01-1.8-2.13c-.54-.72-.44-.9.38-1.33.38-.21.72-.5.97-.85a68.12 68.12 0 017.02-7.26c1.96-1.93 4-3.83 5.89-5.78 1.33-1.33 2.66-2.74 3.99-4.2a4.43 4.43 0 00-.61-.62 85.75 85.75 0 01-8.54-7.6c-.69-.7-1.33-1.42-1.97-2.17-.64-.75-.68-1 .1-1.76l8.93-8.56c1.33-1.25 2.66-2.53 3.89-3.8 1.22-1.28 1.54-1.11 2.55.11a79.9 79.9 0 0010.15 9.76c.3.22.5.32.81.6zm-15.82 58.59c-.29.09-.58.2-.88.27-1.7.38-3.02-.53-2.94-2.07-.03-.2-.09-.4-.17-.57a9.2 9.2 0 00-5.83 3.7c2.16 1.95 6.84 1.93 9.84-1.33a2.8 2.8 0 001.72-1.7l-.84-.28-.9 1.98zM366 32.74a8.23 8.23 0 014.7 2.82c.24.27.52.5.77.74 2.04 1.9 4.2 3.7 6.1 5.73 3.42 3.65 6.65 7.46 10.05 11.16 1.13 1.25 2.41 2.36 3.63 3.52a2.54 2.54 0 003.2.33c.55-.3 1.08-.61 1.6-.96 2.8-1.85 5.63-3.7 8.41-5.58a22.98 22.98 0 005.12-4.23c1.33-1.65 2.4-3.64 4.35-4.8-.68-1.34-1.25-2.67-1.93-3.92-1.2-2.19-2.43-4.33-3.72-6.46-.34-.52-.8-.95-1.33-1.27-1.17-.71-2.4-1.33-3.6-2a2.2 2.2 0 00-2.27-.2c-.28.13-.58.22-.9.23a.63.63 0 01-.52-.25c-.08-.13 0-.41.12-.57.2-.23.41-.43.65-.61l-1.76-.96a161.73 161.73 0 00-16.14-7.18 97.66 97.66 0 00-17.5-4.89c-4.48-.82-9.02-1.4-13.53-2.02a161.26 161.26 0 00-16.42-1.45h-1c1.2.94 2.13 1.76 3.14 2.44a15.63 15.63 0 0010.87 2.66c1.1-.15 2.2-.33 3.3-.41 2.34-.3 4.72-.1 6.98.56 1.84.65 3.56 1.6 5.1 2.82a1.33 1.33 0 001.66.28 6 6 0 013.37-.57 6.34 6.34 0 014.53 1.93c1.86 2.05 3 4.65 3.23 7.41.18 1.33 0 1.48-1.22 1.57a2.3 2.3 0 00-1.87 1 8.11 8.11 0 01-3.53 2.74c-1.2.32-2.43.45-3.67.4a6.9 6.9 0 00-.94-.46 6.86 6.86 0 01-4.7-5.46 6.6 6.6 0 010-2.74 22.8 22.8 0 011.05-2.99c-.12-.09-.23-.22-.34-.24a7.15 7.15 0 00-5.99 1.55 108.14 108.14 0 00-4.9 4.67 36.77 36.77 0 01-7.04 5.63 7.65 7.65 0 01-6.25 1.1 41.82 41.82 0 01-4.5-1.55 25.38 25.38 0 00-4.42-1.78c-2.46-.39-5-.11-7.32.8-1.33.5-2.66 1-4 1.33-2.85.95-5.96.75-8.67-.56a11.82 11.82 0 00-8.3-.81c-1.1.34-2.23.57-3.38.7a3.54 3.54 0 00-2.97 1.88c-1.93 2.97-3.93 5.9-5.9 8.84-1.04 1.53-2.06 3.08-3.11 4.65.28.3.49.58.73.84a13.59 13.59 0 012.77 4.66 3 3 0 01-2.36 4.2c-.61.1-1.23.15-1.85.15h-3.49c-.37 1.18-.78 2.3-1.06 3.45-1.12 4.56-2.25 9.12-3.25 13.71a39.94 39.94 0 00-1.24 7.74c-.08 4.24-.21 8.5-.25 12.74a45.86 45.86 0 002.53 15.8c1 2.85 2.13 5.65 3.14 8.48a63.56 63.56 0 009.23 16.83 98.53 98.53 0 007.72 8.43c.17.11.36.2.56.24.46-1.16.93-2.25 1.33-3.37a5.84 5.84 0 011.94-2.8 4.78 4.78 0 001.95-3.19 10.83 10.83 0 014.95-7.27 6.52 6.52 0 002.78-3.6c.29-.88.5-1.77.65-2.67a9.72 9.72 0 013.1-6.02c.37-.32.69-.7 1.06-1a7.89 7.89 0 002.66-3.78c.3-.97.66-1.93.99-2.9.67-2.5 1.95-4.79 3.74-6.66a12.56 12.56 0 003.74-7.04c.22-1.18.54-2.33.97-3.45.38-1.04.9-2 1.57-2.89 1.34-1.53 2.79-2.85 4-4.4a6.34 6.34 0 001.33-6.66c-1.73-4.6-3.12-9.32-4.54-14.04a27.78 27.78 0 01-.9-4.55 7.33 7.33 0 011.96-6.12 57.02 57.02 0 017.55-6.9 109.5 109.5 0 0113.04-8.72 12.76 12.76 0 015.82-2.15c.44-.03.87-.16 1.25-.38a12.48 12.48 0 017.59-1.28zM261.27 164.86c.83.4 1.45.73 2.1 1 4.68 1.89 9.32 3.83 14.06 5.64a140.73 140.73 0 0015.65 5.17c3.34.86 6.66 1.57 10.09 2.36a141.4 141.4 0 0020.14 3.48c4.82.4 9.64.67 14.5.66h20.99c.53-.03 1.07-.08 1.6-.16-.13-.55-.2-.94-.31-1.33l-6.75-20.04c-.36-1.08-.39-1.1-1.5-.92-4.14.74-8.37.97-12.57.68-2.79-.22-5.6-.18-8.37-.47-2.77-.3-5.41-.88-8.13-1.33a37.88 37.88 0 01-12.52-4.3 106.2 106.2 0 01-8.33-5.2 31.37 31.37 0 01-5.49-4.4c-2.54-2.77-5.32-5.33-7.63-8.32a61.9 61.9 0 01-7.48-11.88 148.47 148.47 0 01-6.12-15.72 42.91 42.91 0 01-2.12-12.28c-.13-3.67-.16-7.36 0-11.04.05-3.23.36-6.45.9-9.64 1.14-6.17 2.6-12.27 4.41-18.28.15-.49.2-1 .3-1.47-1.67-.52-21.42-1.97-24.16-1.79 0 .43.08.85.1 1.33.12 1.68.34 3.36.29 5.04a44.37 44.37 0 01-1.41 9.98 31.86 31.86 0 01-5.33 11.64 33.14 33.14 0 01-10.65 9.05 25.55 25.55 0 01-16.16 2.41 37.7 37.7 0 01-11.07-4 28.62 28.62 0 01-3.25-1.8c-2.66-1.81-5.32-3.7-7.99-5.57-.78-.56-1.54-1.16-2.38-1.8-.6.54-1.17 1.02-1.7 1.54-3.31 3.2-6.62 6.42-9.9 9.65-1.87 1.82-3.71 3.69-5.53 5.56a14 14 0 00-1 1.34c2.06 3.04 22.63 23.32 24.66 24.45.02-.22.02-.44 0-.66a28.72 28.72 0 01-.47-6.75c.03-1.78.38-3.54 1.02-5.2a7.17 7.17 0 012.67-3.42 2.78 2.78 0 013.77.08 6.92 6.92 0 012.06 2.9c.58 1.53.81 3.18.7 4.83 0 2.43-.22 4.87-.33 7.3-.17 2.91.78 5.77 2.66 8a12.44 12.44 0 012.79 6.1 2.43 2.43 0 001.02 1.63c1.27.96 2.5 1.96 3.77 2.94l2.16 1.67.3-.44.34-.87c.7-2.07.74-4.3.13-6.4a55.3 55.3 0 01-1.86-12.6c-.14-2.13.32-4.26 1.33-6.15a6.13 6.13 0 00.93-4c-.16-1.6.19-3.2.99-4.6.97-1.84 2.8-3.2 5.04-2.26.2.02.38.02.57 0 .14-.37.26-.75.35-1.14a13.53 13.53 0 014.25-7.36 7.88 7.88 0 014.68-2.26 3.51 3.51 0 014.16 3.43c.05 1.11-.04 2.22-.27 3.3-.47 1.9-1.12 3.73-1.69 5.6a15.16 15.16 0 00.9 12.25 14.33 14.33 0 011.11 11.98c-.4 1.27-.66 2.58-.8 3.9a8.7 8.7 0 00.8 5.03c1.55-7.52 4.8-14.35 8.56-21.23a6.8 6.8 0 01-.82-.54 9.66 9.66 0 01-2.93-3.99c-.39-.93-.23-1.33.73-1.52 2-.45 4.1-.3 6.02.44 1.33.56 2.47 1.33 3.65 1.97 1.33-1.33 2.55-2.66 3.88-3.93 1-.96 2.34-1.5 3.73-1.49a1.89 1.89 0 012.12 1.61c.14.74.19 1.5.13 2.24a10.66 10.66 0 01-1.89 4.78c-1.06 1.75-2.16 3.46-3.18 5.22a8.24 8.24 0 00-1.1 5.63c.1.7.1 1.42 0 2.12a7.98 7.98 0 01-1.52 3.49 6.17 6.17 0 000 6.26l1.07-1.18a11.7 11.7 0 015.66-3.58 3.25 3.25 0 014.33 3.28c-.02.74-.2 1.48-.5 2.15a17.04 17.04 0 01-4 5.13 12.9 12.9 0 00-4.43 8.65 10.06 10.06 0 01-3.28 6.93c-.45.47-.87.97-1.25 1.49zm221.91-59.08c-3-3.89-5.96-7.7-8.85-11.57-.87-1.17-1.76-1.8-3.23-1.33-.17.02-.35.02-.53 0-5.8.41-11.6.52-17.41.33-2.92-.12-5.84-.4-8.74-.69a8.43 8.43 0 01-4.2-1.54c-1.8-1.27-3.12-2.87-2.81-5.2.2-1.4.57-2.77 1.1-4.08.48-1.11 1.38-2 2.5-2.45a8.14 8.14 0 017.43.33c.66.37 1.35.68 2.07.9a2.89 2.89 0 003.37-.9c1.2-1.64 2.31-3.33 3.51-5.07-9.19-10.41-18.56-20.55-29.3-29.52l-.63.94c1.01 1.16 1.01 1.34.25 2.48-.19.27-.27.6-.24.92a1.8 1.8 0 01-.88 2.17c-1.17.72-2.38 1.33-3.6 1.98-.98.51-1.99.96-2.96 1.43-.02.2-.02.42 0 .62a69.97 69.97 0 011.57 14.52c.09 2.82.03 5.65-.19 8.47a124 124 0 01-1.33 11.98c-.63 3.6-1.46 7.15-2.49 10.65a43.42 43.42 0 01-3.16 8.73c-1.7 3.17-3.47 6.29-5.17 9.44-2.4 4.1-5.1 8-8.08 11.68-2.02 2.59-4.25 5-6.66 7.23-1.6 1.53-3.16 3.1-4.87 4.5a55 55 0 01-8.67 6.15.87.87 0 00-.5 1.08c.22 1.05.38 2.1.6 3.14.43 1.99.2 2.25-1.83 2.21-2.04-.04-3.88 0-5.89 0 0 .24.1.53.16.81 1.45 5.62 2.96 11.24 4.36 16.87a8.05 8.05 0 003.58 5.22c.41.27.82.52 1.21.82a1.33 1.33 0 001.46.25c1.34-.43 2.67-.76 4-1.17 2.45-.78 4.91-1.53 7.32-2.4 3.05-1.08 6.09-2.18 9.08-3.4 2.67-1.1 5.33-2.28 8-3.58 2.1-1.04 4.14-2.2 6.12-3.46 3.18-2 6.3-4.13 9.4-6.23 1.6-1.08 3.1-2.24 4.63-3.35l7.72-5.65c.3-.23.57-.52.87-.78-.32-.67-.6-1.22-.84-1.78a36.57 36.57 0 01-2.37-7.04 32.26 32.26 0 01-.45-8.47 25.58 25.58 0 012.9-10.83c.96-1.7 2.06-3.31 3.29-4.83a17.78 17.78 0 019.76-6.55c3.24-.81 6.62-.87 9.89-.17 2.66.55 5.32 1.33 7.99 2.13 2.18.68 4.31 1.59 6.65 2.45l5.1-8.39zm-64.2-50.31c-.57.2-.99.32-1.33.48a30.91 30.91 0 00-8.52 5.32c-3.73 3.13-7.4 6.34-11.18 9.43a26.22 26.22 0 01-4.28 2.88 4.74 4.74 0 01-5.71-.54c-.54-.45-1.14-.85-1.65-1.33a101.8 101.8 0 01-10.03-10.44c-.55-.68-1.15-1.33-1.57-1.82-.57.27-1.18.45-1.8.53-2.44-.1-4.86-.34-7.3-.48-5.93-.36-11.85-.7-17.78-1.02a28.43 28.43 0 00-3.2 0 2.31 2.31 0 00-2.09 3.29c.14-.24.26-.49.36-.75a1.65 1.65 0 011.72-1.33h2c4.38.21 8.76.37 13.14.66 4.15.27 8.3.64 12.46 1 1.41.14 1.54.38 1.33 1.83a28 28 0 01-.5 2.34c-.69 2.84-1.32 5.7-2.11 8.5-.57 2-1.33 3.94-2.06 5.9a6.66 6.66 0 00-.39 3.88c.75 3.56 1.33 7.14 2.01 10.65a530.4 530.4 0 011.94 10.72c.56 3.05 1.18 6.08 1.74 9.13.68 3.67 1.33 7.34 2 11 1.27 7.06 2.56 14.12 3.87 21.19.06.35.21.7.36 1.22 2.37-1.64 4.66-3.08 6.76-4.75 2.1-1.68 4-3.5 5.94-5.33a81.33 81.33 0 0013.5-16.52c1.52-2.45 2.85-5 4.34-7.47a44.41 44.41 0 004-8.26 88.73 88.73 0 004.39-17.77c.5-3.78.81-7.58 1.09-11.37.19-2.22.23-4.44.12-6.66-.21-3.8-.59-7.6-.95-11.4-.2-.78-.44-1.69-.62-2.71zM221.7 35.9c.23.46.48.9.76 1.33 1.98 2.82 4 5.63 5.98 8.46a33.1 33.1 0 015.4 11.75 12.99 12.99 0 01-4.55 13.48c-2.58 2.27-5.55 3.51-9.07 2.34a32.65 32.65 0 01-8.24-4 74.79 74.79 0 01-10.86-9.53c-.91-.92-1.74-1.88-2.67-2.83l-13.07 12.54c1.33 1.33 2.37 2.57 3.62 3.66a238.5 238.5 0 008.1 6.88 78.02 78.02 0 0013.56 9.32 35.07 35.07 0 0014.12 4.36c3.55.2 7.1-.4 10.38-1.77a29.58 29.58 0 0011.01-8.38 27.84 27.84 0 005.33-10.14 46.03 46.03 0 001.94-11.77 28.1 28.1 0 00-2.3-11.99c-.9-2.17-1.87-4.3-2.67-6.48a52.94 52.94 0 00-5.63-10.65c-1.68-2.45-3.53-4.78-5.32-7.17l-1.18-1.74-14.64 12.33zm270.28 89.4c-.33-.29-.5-.47-.72-.63-2.54-1.84-5.08-3.72-7.65-5.52-1.27-.89-2.6-1.69-3.93-2.49a42.46 42.46 0 00-10.15-4.26 39.5 39.5 0 00-10.17-1.9c-3.38-.2-6.75.6-9.68 2.33a18.33 18.33 0 00-4.46 4 23.85 23.85 0 00-5.33 9.83 33.85 33.85 0 00-.87 10.3c.29 3.85 1.38 7.6 3.2 11.02 1.64 3.07 3.72 5.92 5.62 8.85.25.3.54.59.84.83l.96-9.15a13.65 13.65 0 01-4.87-2.27c-1.03-.8-1.07-1.34-.1-2.24.28-.27.6-.5.95-.7a8.7 8.7 0 015.4-1.07c1.7.12 3.3.83 4.52 2.02 1.12 1.19 1.01 2.05-.43 2.82-.75.39-1.53.7-2.33.96-.51.19-1.09.3-1.77.48l-1.06 10.33c-.1.79.38 1.19 1.04 1.66.25-.83.48-1.54.71-2.23a12 12 0 012.47-4.38 2.87 2.87 0 013.1-1.01 2.93 2.93 0 012.1 2.66c.24 1.54.11 3.12-.38 4.6-.1.3-.15.62-.19.94l.25.13 6.74-6.9c-.66-.6-1.33-1.16-1.89-1.76a68.14 68.14 0 01-6.66-8.4 16.4 16.4 0 01-2.8-6.56 10.25 10.25 0 014.19-10.87 8.12 8.12 0 017.7-1.22 35.84 35.84 0 0111.4 6.66c1.58 1.27 3.12 2.57 4.77 3.92 3.36-3.5 6.11-7.37 9.48-10.79v.02zm-260.5 58.59c.24.1.5.17.75.22 2.34 0 4.69-.1 7.03-.13a1.1 1.1 0 001.03-.7 7.98 7.98 0 001.15-3.9 7.52 7.52 0 012.04-4.93c.35-.35.67-.72.96-1.12.5-.76.95-1.57 1.33-2.4.44-1.35.48-2.81.1-4.19-.58-3.17 0-6.44 1.62-9.23a10.4 10.4 0 00.5-9.32c-.8-2.06-1.82-4-2.67-6.1a12.51 12.51 0 01-.93-6.77c.26-1.52.65-3.03 1.05-4.53.65-1.9.77-3.94.36-5.9a33.3 33.3 0 00-1.44-4c-.93-2.14-2.08-4.25-2.04-6.65.01-1.79.2-3.57.56-5.33.43-2.03 1.15-3.99 1.75-5.99.44-1.4.6-2.87.48-4.34a2.17 2.17 0 00-2.6-2.18c-1.05.1-2.08.42-3 .92a10.53 10.53 0 00-4.82 6.14 46.6 46.6 0 00-1.46 13.96c.13 3.32-.05 6.65-.53 9.94-.47 2.86-.23 5.79.7 8.53.85 2.48 2 4.84 3.41 7.04a6.44 6.44 0 01.6 6.55 13.82 13.82 0 00-1.01 7.03c.33 2.65.4 5.33.19 8a17.1 17.1 0 01-1.58 6.14 29.5 29.5 0 00-3.15 9c-.2 1.38-.28 2.7-.43 4.24h.04zm-3.67.25c1.16-3.22 1.75-6.42.3-9.61a11.23 11.23 0 01-1.07-5.67 4.8 4.8 0 00-1.52-4 9.38 9.38 0 01-2.96-7.41c.06-1.3-.39-2.57-1.23-3.56l-1.26-1.54a8.58 8.58 0 01-2.15-4.21 56.14 56.14 0 01-.66-7.12c0-3.33-.46-6.42-2.66-9.08a11.78 11.78 0 01-2.51-4.94 19.6 19.6 0 01-.34-5.14c.1-2.67.15-5.37.14-8.11a6.54 6.54 0 00-1.76-4.36 2.06 2.06 0 00-2.63-.87c-.3.14-.58.34-.8.6-.32.24-.59.54-.8.89-.54.95-.99 1.96-1.32 3-.84 3.28-.88 6.71-.11 10 .62 1.91.71 3.95.28 5.9l-.81 2.53a15.96 15.96 0 001 12.76 30.18 30.18 0 012.23 5.52c.58 2.11.66 4.33.23 6.48a11.15 11.15 0 002.32 8.98c1.73 2.36 3.6 4.6 5.32 6.93.38.43.67.93.85 1.47a6.4 6.4 0 002.85 3.85 9.65 9.65 0 013.9 5.85c0 .29.18.57.26.84l4.91.02zM481.73 91.2c2.49.08 5.15.26 7.8.23a26.3 26.3 0 005-.53c1.5-.3 1.93-1.19 1.34-2.59a10.15 10.15 0 00-2-2.91c-2.26-2-5.02-3.35-7.99-3.92a16.12 16.12 0 00-5.42-.2 6.81 6.81 0 01-6.53-3.03c-.84-1.2-1.63-2.42-2.53-3.57a7.4 7.4 0 00-2.1-2.16 7.12 7.12 0 00-6.54-.18 13.09 13.09 0 00-5.4 4.76c-.78 1.15-1.51 2.3-2.31 3.43a3.64 3.64 0 01-3.1 1.49 9.08 9.08 0 01-3.93-1.12c-.79-.4-1.62-.71-2.48-.92-2.48-.47-5.06.17-6.1 3.34-.17.55-.28 1.12-.42 1.68a4.38 4.38 0 002.25 4.94c1.65.97 3.54 1.5 5.46 1.52 5.2.22 10.43.42 15.65.37 6.3 0 12.73-.41 19.3-.63h.05zm-130.88-5.14c-.06-1-.34-1.99-.83-2.87-2.18-4.8-4.39-9.59-6.55-14.4a34.17 34.17 0 01-2.29-7.76 1.85 1.85 0 01.62-1.9c.55-.5 1.11-1.01 1.7-1.48 4.63-3.74 9.04-7.74 13.22-11.98.6-.59 1.21-1.16 1.78-1.79a14.18 14.18 0 002.95-4.07 2.85 2.85 0 00-2.08-4.2 6.4 6.4 0 00-4.29.27 25.04 25.04 0 00-3.31 1.7c-3.22 2.03-6.4 4.12-9.59 6.22a62.96 62.96 0 00-10.65 9.15 5.43 5.43 0 00-1.58 3.44 10.5 10.5 0 00.14 3.17c.61 2.49 1.33 4.95 2.1 7.41A90.5 90.5 0 00336.77 80a63.6 63.6 0 007.5 11.9 3.9 3.9 0 002.52 1.51c-.77-1.01-1.45-1.81-2.03-2.66-.57-.85-1.46-1.52-1.46-2.92.3.2.58.41.84.65.38.48.7 1.03 1.12 1.48a84.73 84.73 0 003 3.17c.18.19.53.2.78.3.42-.76-.1-1.07-.44-1.46-1.1-1.2-2.2-2.42-3.28-3.66-.29-.34-.66-.72-.4-1.33.82 0 1.07.76 1.52 1.2 1.07 1.06 2.08 2.18 3.13 3.25.33.32.7.66 1.23.54.24-.72-.34-.88-.64-1.22a312.63 312.63 0 01-3.5-4c-.23-.28-.56-.64-.1-1.17 1.7 1.44 2.66 3.65 4.92 4.52a3.2 3.2 0 00-.49-.8 20.84 20.84 0 01-2.87-5.22c-.17-.43-.48-.88 0-1.47 1.1 1.03 1.05 2.81 2.73 3.46zm66.1-44.2a4.82 4.82 0 00-4.64 2.45 21.62 21.62 0 01-6.2 6.32c-3.3 2.23-6.58 4.5-9.87 6.74-.33.22-.68.41-1.04.6-2.05 1.1-2.98 1.07-4.67-.52-2.03-1.92-4-4-5.89-5.96-3.17-3.41-6.27-6.89-9.43-10.3-.6-.66-1.33-1.25-1.93-1.86a42.81 42.81 0 011.43 11.7V57a1.83 1.83 0 00.52 1.44 59.7 59.7 0 012.98 3.38A89.03 89.03 0 00388.31 72a4.53 4.53 0 005.98.2c2.87-2 5.62-4.18 8.23-6.52 1.73-1.52 3.44-3.08 5.17-4.6a30.62 30.62 0 018.3-5.43c1.52-.63 3.04-1.33 4.53-1.94 1.5-.61 3.3-1.54 4.92-2.36a1.92 1.92 0 001.25-1.71l-.88.52c-1.33.8-2.66 1.62-4 2.4-.42.25-.89.4-1.33-.2a11.6 11.6 0 012.57-1.87c1.06-.67 2.12-1.33 3.14-2.01.44-.3.95-.61 1-1.33-.77-.3-1.2.16-1.71.52a79.05 79.05 0 01-4.19 2.85c-.4.25-1.02.98-1.43.23-.42-.74.49-.78.89-1.07 1.76-1.34 3.53-2.55 5.32-3.84.31-.28.6-.57.87-.89l-.16-.28c-.41.01-.83.09-1.22.21-.94.48-1.84 1.04-2.75 1.57-1.14.67-2.26 1.34-3.42 2.01-.2.12-.52 0-.78 0l-.1-.31c.37-.27.75-.52 1.15-.75a10.4 10.4 0 003.6-2.9 2.53 2.53 0 00.58-2.28c-.95.39-1.33 1.23-1.92 1.88a6.8 6.8 0 01-5.67 2.38c-.79 0-1.57-.16-1.88-.98-.3-.83.27-1.34.79-1.86l1.78-1.78zM246.32 183.92c-.48-2.6-.13-5.29.99-7.69a6.39 6.39 0 012.24-3.93 16.11 16.11 0 004.47-9v-.21c.13-.85.32-1.7.54-2.53a7.84 7.84 0 011.33-3.45c.46-.65 1.02-1.24 1.53-1.85a12.11 12.11 0 001.34-3.65c.29-.84.56-1.68.86-2.5.45-1.25.87-2.52 1.43-3.7.38-.84 1.33-1.53 1.4-2.37a7.2 7.2 0 00-.58-2.67 5.84 5.84 0 01.61-4.87 9.12 9.12 0 001.52-6.31 7.99 7.99 0 011.16-4.97c1.21-2.06 2.46-4.11 3.66-6.17a9.92 9.92 0 001.57-4c.22-2.36-.78-3.11-2.9-2.08a14 14 0 00-5.15 5.02l.54.9c.26.37.52.73.75 1.1.72 1.2.52 1.7-.85 2.13-.45.19-.93.3-1.41.3-1.22-.13-1.65.63-2.03 1.52a6.52 6.52 0 01-1.82 2.59l-2.44 2.05a7.83 7.83 0 00-2.87 5.1 25.38 25.38 0 01-4.1 11.67 1 1 0 00-.18.84c.48 1.2 1.01 2.36 1.57 3.52.24.7.42 1.4.52 2.13a9.96 9.96 0 01-.16 3.66 61.14 61.14 0 01-2.34 5.67 9.11 9.11 0 00-.59 5.73c.62 3.26.34 6.27-2.22 8.73-.3.32-.6.66-.87 1.01-.7.87-1.16 1.9-1.33 3-.13.88-.18 1.76-.29 2.66-.13.97.13 1.96.72 2.74l3.38-.11zM249 40.58c.54-.33 1-.59 1.41-.9 2.73-1.98 5.89-2.32 9.1-2.44a5.06 5.06 0 015.17 3.42c.32.82.72 1.61 1.2 2.36.55.74 1.19 1.4 1.91 1.98a1.98 1.98 0 002.48.07c.48-.32.98-.6 1.49-.88a7.12 7.12 0 015.1-.93c1.78.36 3.47 1.09 4.96 2.13l1.5 1.02c3.48-4.54 6.67-9.28 9.56-14.22-.07 0-.13-.15-.2-.17a19.8 19.8 0 00-5.84-1.21c-1.33 0-1.42-.27-1.12-1.57.6-2.5 1.24-4.98 1.84-7.49.12-.45.16-.92.28-1.65-4.78 1.84-9.41 3.32-13.83 5.33a436 436 0 00-13.05 6.28 99.96 99.96 0 00-12.71 7.28l.75 1.59zm-16.39 66.9c-1.7-1.07-3.06-.83-4.1.67a6.83 6.83 0 00-1.1 4.94 6 6 0 01-1.04 4.15 5.97 5.97 0 00-.8 1.81c-.63 2.73-.7 5.56-.2 8.31.4 2.85 1.08 5.66 1.65 8.47a12 12 0 01-.76 7.99 12.35 12.35 0 00-1.17 6.32c.12 1.15.3 2.29.53 3.41.52 3.01 1.33 6 .58 9.07a1.95 1.95 0 00.7 2.2 4.18 4.18 0 011.33 3.22c.06.48.06.98 0 1.46a8.2 8.2 0 00.96 4.88 9.83 9.83 0 01.47 7.37c-.23.75-.38 1.53-.59 2.41h1.5c0-.7.11-1.33.15-2 .19-3.91 1.2-7.74 2.97-11.22a16.92 16.92 0 001.87-8.07c0-2.48-.23-4.95-.35-7.43-.12-2.43.34-4.86 1.33-7.08 1.08-4.13-4.2-9.12-4.86-14.43a18.35 18.35 0 01-.1-5.91c.24-2.37.57-4.76.66-7.14.15-3.32.08-6.66.16-9.96a24.8 24.8 0 01.19-3.45h.02zm-11.27 76.7c.1-.91-.12-1.83-.6-2.6a10.74 10.74 0 00-3.1-3.42 7.75 7.75 0 01-2.76-3.84 3.54 3.54 0 00-1.72-2.1 22.72 22.72 0 00-2.97-1.47 6.35 6.35 0 01-3.83-4.3l-.84-2.66a5.1 5.1 0 00-2.42-3.05 47.9 47.9 0 00-3.33-1.65 5.04 5.04 0 01-2.76-2.9c-.25-.7-.52-1.41-.72-2.15a6.3 6.3 0 00-2.54-3.62 7.04 7.04 0 01-3.06-4.94c0-.44-.18-.86-.22-1.33a7.17 7.17 0 00-4.28-5.98 3.25 3.25 0 00-3.5.26 2.78 2.78 0 00-.5 3.33c.34.8.78 1.57 1.33 2.26a6.46 6.46 0 011.93 5.18v.8a3.91 3.91 0 001.26 2.97c.98.95 1.95 1.93 3 2.82 1.89 1.42 3.29 3.41 3.99 5.68.24.95.44 1.9.65 2.85a9.95 9.95 0 004.17 6.57c1.33.88 2.66 1.85 4.11 2.66a13.54 13.54 0 015.32 5.43 13.53 13.53 0 003.52 4.3c.66.6 1.52.93 2.41.94 1.68 0 3.36.07 5.03.07.8.04 1.59-.06 2.4-.12h.03zM352.3 154.4c.05.36.12.71.21 1.06.9 2.56 1.75 5.12 2.57 7.67.79 2.3 1.57 4.62 2.39 6.91.34 1 .37.99 1.43.96 2.31-.1 4.6.42 6.66 1.48a48.34 48.34 0 017.99 5.87 13.41 13.41 0 005.8 3.1 4.51 4.51 0 003.77-.82l-1.2-.84a13.53 13.53 0 01-4.22-4 14.4 14.4 0 01-1.25-4.15c-1.25-5.17-2.66-10.3-4-15.46-.31-1.2-.4-1.18-1.66-1.24l-15.03-.54h-3.46zM252.96 47.57a2.26 2.26 0 00-.08 2.3c.34.83.6 1.67.81 2.54a1.68 1.68 0 001.7 1.49c.35 0 .71 0 1.06.08a746.1 746.1 0 0116.7 1.13c2.06.16 4.14.37 6.2.56 1.5.13 3 .34 4.5.33 2.66 0 3.57-1.01 2.3-3.6a14.64 14.64 0 00-8.22-7.52 6.46 6.46 0 00-6.1.72c-.44.3-.9.57-1.33.83a2.95 2.95 0 01-3.04-.07A7.6 7.6 0 01264.4 43a136 136 0 01-1.48-2.66 3.17 3.17 0 00-2.67-1.68 13.2 13.2 0 00-9.42 2.41c-.4.34-.77.71-1.1 1.1.42.43.82.87 1.2 1.34.27.37.66.85.62 1.22-.22 1.3.54 2.03 1.42 2.85zM247.33 184c.57.07 1 .13 1.42.15h2.27a1.6 1.6 0 001.82-.96 12.98 12.98 0 001.33-4.7 8.08 8.08 0 012.95-5.47c.2-.18.37-.39.58-.55a4.07 4.07 0 001.59-4.22 4.96 4.96 0 011.03-4c.55-.75 1.14-1.47 1.78-2.16a9.12 9.12 0 002.74-6 11.44 11.44 0 012.75-6.93c1.66-1.9 3.3-3.84 4.86-5.8.54-.66.95-1.4 1.22-2.2a2.36 2.36 0 00-2.76-3.08 8.1 8.1 0 00-3.68 1.78 18.51 18.51 0 00-6.83 10.79c-.13.6-.24 1.21-.4 1.81a6.66 6.66 0 01-1.54 3.2 10.65 10.65 0 00-2.97 6.1c-.43 2.3-.96 4.59-1.53 6.86a6.31 6.31 0 01-2.29 3.35c-.63.5-1.2 1.04-1.74 1.63a12.47 12.47 0 00-2.59 6.66c-.08 1.25-.08 2.5-.01 3.74zm69.15-27.39c7.54 3.36 29.3 4.86 36.03 2.59-.49-1.55-.96-3.1-1.5-4.64-.08-.22-.53-.42-.84-.45-.92-.1-1.85-.14-2.78-.19l-12.36-.54c-.44 0-.92 0-1.1-.61a5.03 5.03 0 001.6-5.01 6.56 6.56 0 011.4-5.33 3.09 3.09 0 000-3.2c-.38.56-.8 1.07-1.13 1.65-1.95 3.42-3.91 6.85-5.83 10.29-1.12 1.98-1.09 1.98-3.37 1.54-1.86-.37-3.74-.73-5.62-1.06-.45-.08-.94-.24-1.33.3-1.02 1.52-2.09 3.04-3.17 4.66zM211.6 67.4c.76.57 1.56 1.1 2.37 1.6a50 50 0 004.4 2.2c1.09.46 2.23.82 3.4 1.06 1.48.32 3.04.06 4.33-.75a16.73 16.73 0 003.72-2.98 10.21 10.21 0 003.17-7.62 23.14 23.14 0 00-.5-4c-.44-1.79-1.1-3.52-1.94-5.17a216.74 216.74 0 00-18.95 15.64v.02zm238.44 115.83c.14-.04.29-.1.42-.17a29 29 0 005.33-5.67 6.27 6.27 0 00.95-5.93c-.26-.76-.4-1.54-.6-2.31-.47-1.8-.43-3.71.14-5.49.48-1.44.99-2.85 1.45-4.29.51-1.38.55-2.9.11-4.3a1.4 1.4 0 00-.91-1.08 1.4 1.4 0 00-1.4.27 5.47 5.47 0 00-2.03 2.66 34.15 34.15 0 00-2.04 8.37c-.21 2.7-.73 5.39-1.56 7.98a15.77 15.77 0 00-.66 5.52c.02 1.52.3 3.02.8 4.46v-.02zm-27.7-148.99h.28a33.98 33.98 0 004.44-8.21 7.85 7.85 0 00-2.85-9.32c-3.5-2.56-6.97-2.21-9.77.53a8.22 8.22 0 00-1.84 10.13c1.17 2.37 2.66 4.61 4 6.89.24.36.5.71.8 1.05-.05-.87-.18-1.73-.4-2.57a42.14 42.14 0 01-1.55-8.61c-.06-.66.02-1.33.22-1.96.17-.56.55-1.04 1.05-1.33a2.1 2.1 0 001.22-1.24c.4-.97 1.47-1.59 2.11-1.1a13 13 0 013.01 2.79c.13.23.2.5.2.76.09.57.12 1.15.1 1.73-.22 2.29-.48 4.58-.71 6.87-.12 1.26-.2 2.44-.3 3.6zM368.3 48l-.97-.3a4.93 4.93 0 01-3.72-4.48c-.11-2.5.52-4.98 1.83-7.11.36-.64.73-1.33 1.12-1.92-1.96-.8-5.33-.44-6.54.63l.48.25a3.63 3.63 0 011.93 4.89 9.83 9.83 0 01-1.88 3.18c-2.66 2.86-5.55 5.6-8.35 8.4l-1.33 1.33c1.59 1.64 1.59 1.64 2.46 4.65 2.4.37 4.83.52 7.26.45.16-1 .02-2.02-.41-2.93-.56.23-1.04.45-1.55.63a3.2 3.2 0 01-3.99-.99c-.4-.46-.75-.99-1-1.56a1.48 1.48 0 010-1.11 3.06 3.06 0 014-1.48c.55.28 1.06.63 1.51 1.04.51.41.96.89 1.55 1.43l.7-.89c-.75-.9-1.47-1.69-2.1-2.54a3.66 3.66 0 01-.45-3 1.7 1.7 0 012.3-1.34 4.5 4.5 0 012.57 4.86l-.36 1.5c2.94 1.32 5.02-.17 4.94-3.6zm1.4-.2c-.1.68-.2 1.33-.27 2a3.24 3.24 0 01-1.84 2.58 4.96 4.96 0 01-3.99.44 1.77 1.77 0 00-2.2 1.73c.16 1.17.39 2.34.59 3.58 1.72.32 3.46.43 5.2.33 0-.26.07-.4.1-.53a5.76 5.76 0 012.8-4.82c.32-.22.56-.54.69-.9a4.09 4.09 0 012.09-2.3 1.12 1.12 0 00.76-1.34c-.3-2.1-.51-4.23-.87-6.32a12.06 12.06 0 00-2.36-5.33 6.81 6.81 0 00-2.87-2.4c-.52.99-1.07 1.9-1.48 2.87a11.97 11.97 0 00-1.25 5.32 4.18 4.18 0 001.49 3.4 2 2 0 002.08.44c-.28-1.12-.6-2.19-.76-3.26-.11-.65-.05-1.3.17-1.92a1.76 1.76 0 012.96-.5 4.75 4.75 0 011.33 4.25 3 3 0 01-2.37 2.68zm79.26 136.13c-.27-1.08-.55-1.88-.67-2.67-.5-2.65-.4-5.38.3-7.99a1.93 1.93 0 00-.32-1.85l-.64-.85a11.61 11.61 0 01-2.36-5.42 37.1 37.1 0 00-1.52-8.08 11.8 11.8 0 00-1.77-3.82 1.34 1.34 0 00-1.35-.55 1.33 1.33 0 00-1.04 1.03 5.6 5.6 0 00-.15 1.82 19.11 19.11 0 002.66 7.75 15.4 15.4 0 011.92 9.75c-.34 2.83.3 5.7 1.78 8.13a6.8 6.8 0 003.16 2.75zm-75.8-162.56a15.43 15.43 0 01-5.69 2.76 1.74 1.74 0 01-2.03-.36 1.33 1.33 0 00-1.57-.4 1.9 1.9 0 00-1.18 1.66 1.57 1.57 0 001.04 1.68c.52.21 1.03.48 1.53.72-.1 1.24-1.07 1.88-1.58 2.87a6.26 6.26 0 006.67.66c.91-.48 1.68-1.2 2.21-2.08a2.53 2.53 0 012.42-1.33s.14-.1.24-.22c-.12-2.14-.83-4.2-2.06-5.96zm-72.9 125.85a52.84 52.84 0 0014.93 9.05 16.48 16.48 0 003.17-5.18c-6-1.33-11.87-3.34-18.1-3.87zm-81.93-7.06v3.56c-.12 2.36.46 4.7 1.66 6.73.67.93 1.4 1.82 2.16 2.67a5.77 5.77 0 011.5 4.26c-.02.89.03 1.78.16 2.66a3.04 3.04 0 001.21 2.14c.22-1.03.3-2.08.24-3.13-.17-1.8-.47-3.6-.78-5.39a21.6 21.6 0 01-.48-6.34c.1-.86.3-1.73.45-2.55l-6.12-4.6zm248.82-12.91c-2.07-.75-3.82-1.34-5.7-.58-4.77 1.85-6.6 6-5.86 10.65.07.19.18.35.3.5 4-3.27 7.77-6.8 11.28-10.57h-.02zM421.7 21.62c0 .54.12 1.05.1 1.57.01.8-.05 1.6-.18 2.37a1.2 1.2 0 01-.79.74c-.17 0-.53-.38-.72-.64a6.74 6.74 0 01.04-4.17c.34-.95.22-1.16-.76-1.76-1 .85-1.1 1.25-.6 2.37.64 1.28.89 2.71.71 4.13-.06.37-.1.92-.61.87a1.22 1.22 0 01-.84-.68c-.29-.98-.51-1.97-.67-2.97a7.9 7.9 0 01-.08-1.33h-.27c-.19.2-.32.44-.4.7-.05.57-.05 1.15 0 1.72.16 2.48.58 4.93 1.23 7.32.34 1.41.67 2.84.99 4.26.8.22 1.63.15 2.38-.18.25-2.67.5-5.08.75-7.54.16-1.58.37-3.17.49-4.75a1.9 1.9 0 00-.77-2.03zM247.29 142.78l.25.14.23-.34a17.13 17.13 0 002.95-7.99 11.03 11.03 0 014.72-8.66 9.92 9.92 0 001.94-2 5.32 5.32 0 001.33-2.66l-1.54-.45-1.47-.52a70.3 70.3 0 00-8.44 22.47l.03.01zm89.66-5.32l.41-.08v-.85-2.67c.19-2.04.82-4 1.85-5.78.67-1.21.86-2.64.52-3.99-.16-.6-.3-1.21-.52-1.78a7.04 7.04 0 01.28-5.69 29.2 29.2 0 012.04-3.49 6.1 6.1 0 00.98-4.94c-.18-.9-.49-1.8-.69-2.66-.43-1.72-.54-3.5-.34-5.26.29-1.75.9-3.44 1.8-4.98.1-.25.2-.5.27-.77-.96.48-1.18 1.41-1.63 2.17a9.47 9.47 0 00-1.34 5.07c.03 2 .35 3.98.95 5.89a6.03 6.03 0 01-.88 5.43 25 25 0 01-.67.98 9.11 9.11 0 00-1.49 8.8 6.96 6.96 0 01-.58 6.12 12.7 12.7 0 00-1.33 7.1c.07.46.18.93.34 1.38h.03zm122.93 24.6a5.7 5.7 0 00-1.21.62 4 4 0 00-1.21 2.6c-.19 1.44-.09 2.92.29 4.33.19.73.4 1.45.55 2.19a7.41 7.41 0 01-.95 5.73c-.7 1.08-1.54 2.04-2.32 3.07-.15.2-.29.43-.4.66l.22.18c.97-.82 2-1.58 2.91-2.45a7.07 7.07 0 002.36-6.34c-.08-.9-.22-1.79-.43-2.66-.51-1.8-.45-3.71.16-5.48.32-.78.32-1.66 0-2.45h.03zm-207.42-47.68a8.22 8.22 0 007.33 5.85c1.08.24 2.2.08 3.18-.44l-.73-.97c-1.33 1.16-2.53 1.33-3.63.48-.4-.29-.7-.68-.88-1.12a3.24 3.24 0 01.62-2.82 10.13 10.13 0 00-5.9-.98zm164.5-73.66c-.09-1-.09-2 0-3a1.93 1.93 0 00-1-2.12c-1.15-.8-2.32-1.6-3.52-2.37-.57-.35-1.17-.66-1.78-.94l-.1.16 4.65 8.47 1.75-.2zm-46.8 13.31a4.69 4.69 0 00-1.47 4.65l4.71.41c.1-2.9.35-5.63.2-8.38a1.85 1.85 0 00-.4 0 2.34 2.34 0 00-1.45 1.75c-.24.73.3 1.04.6 1.49.24.32.44.66.6 1.03a1.33 1.33 0 01-.63 1.8c-.71.22-1.05-.31-1.33-.82-.28-.5-.52-1.17-.82-1.89v-.04zm74.22 100.02l-.25.1.79 2.22a44.03 44.03 0 011.58 8.18 8.9 8.9 0 001.68 4.5c0-2.34-.15-4.42 0-6.45a5.89 5.89 0 00-1.33-4.9 35.38 35.38 0 01-2.47-3.61v-.04zm-84.56-100.4c-.37-.46-.68-.88-1.04-1.32a3.82 3.82 0 00-2.13-1.34 1.97 1.97 0 00-1.95.87c-.5.63 0 1.17.29 1.68 1.19 1.89 3.26 1.93 4.83.16v-.04zm-7.99 3.72c-.24-1.5-.25-3.03-2.03-3.6a28.03 28.03 0 00-4 3.62c1.88.17 3.68.17 5.49.17.18-.03.36-.07.53-.15l.01-.04zm93.66 87.52c3 2.5 6.84 2.66 9.32.41a4.9 4.9 0 00-3.12-1.7c-.26 1.85-.65 2.47-1.7 2.54-.47.05-.93-.05-1.33-.3a15.12 15.12 0 01-1.7-1.8l-1.47.85zm-75.9-98.26a1.16 1.16 0 001.34-.88 4.59 4.59 0 00-.14-3.58c-.48-.88-1.02-1.33-1.71-1.07-.7.27-.92.81-.68 1.79.37 1.3.8 2.55 1.2 3.78v-.04zm-7.42 4.36c.15-.43.28-.88.38-1.33a3.34 3.34 0 00-1.13-3.2 1.33 1.33 0 00-1.05-.33c-.25.08-.48.58-.55.91a3.9 3.9 0 002.35 4v-.05zm5.41 29.18l.44-.1c-.15-.82-.3-1.66-.49-2.47-.18-.82-.45-1.8-.7-2.67-.23-.86-.36-1.73-.64-2.57-.28-.83-.18-1.74-.83-2.43a72.3 72.3 0 002.22 10.28v-.04zm48.87-36.4c.2.55.37 1.09.56 1.6a3.65 3.65 0 003.25-1.2l-2.76-1.32-1.05.93zm33.03 124.7h.27c.28-1.96.57-4 .81-5.89.07-.52-.3-.85-.87-1.02a32.7 32.7 0 00-.2 6.95v-.04zm-28.1-127.82h-3.13a2.08 2.08 0 00.56 1.74l2.17-.37.4-1.37zm-.14-3.72l-3.17.18v.9h2.6c.84 0 .81-.41.57-1.09v.01zm.1 2.32l-.11-.23h-3.32c.14.28.2.54.27.54h2.66c.14.01.3-.2.5-.32v.01zm5.16 4.3l-1.5-1.18c0 .66-.07 1.06-.1 1.6l1.6-.42zm15.57 107.08l-.92.68 1.45.31-.53-1zM422.3 41.09l.24.25.49-.46a2.26 2.26 0 00-.28-.24c-.16.13-.31.28-.45.44zM493.47 184.38c-.25.85-.81.87-1.33.89-1.2 0-2.38.08-3.58 0-2.67 0-5.4-.12-8.1-.16h-1.86l-12.61.25c-.47 0-1.12.12-1.13-.57-.01-.7.62-.68 1.12-.68h6.75c1.63 0 3.27-.19 4.91-.19 4.42 0 8.86.07 13.31.1.4-.03.8-.03 1.19 0 .45.09.9.2 1.33.35z" fill="#1B4ECC"/><path d="M416.73 184.87c.35-.64.9-.5 1.33-.5 2.38 0 4.78-.09 7.16-.09h6.66c.6 0 1.33 0 1.64.64-.2.64-.7.59-1.17.6h-13.8a1.9 1.9 0 01-1.82-.65zM289.6 185.22a6 6 0 01-1.33.33c-2.97.07-5.92.1-8.9.1-.37 0-1.05.15-1.08-.46-.05-.61.66-.61 1.1-.63 3-.07 6.02-.1 9.04-.12.4.04.8.13 1.17.27v.5zM400.91 12.05c.36-.12.74-.2 1.12-.2.39.08.76.22 1.1.43 1.83 1.08 3.65 2.18 5.46 3.27.12.07.23.15.32.24.35.27.6.6.34 1.01-.27.42-.63.18-.94 0-2.1-1.22-4.22-2.45-6.3-3.7-.4-.3-.77-.66-1.1-1.05zM407.6 20.9c-.4 0-.78-.03-1.16-.08a199.6 199.6 0 01-6.1-1.33c-.13 0-.3 0-.37-.1-.08-.08-.44-.4-.4-.55.04-.15.32-.36.53-.45a.98.98 0 01.52 0c1.97.34 4 .65 5.87 1.05.99.26 1.02.38 1.1 1.46zM180.57 185.24c-.28.16-.59.28-.9.35-1.99.1-4 .18-5.97.25-.45 0-1.13.15-1.16-.53-.02-.68.67-.59 1.12-.6 1.81-.1 3.62-.17 5.43-.21.5.04.98.14 1.45.28l.03.46zM439.2 22.7c-.34.2-.7.37-1.09.48-3.73.67-5.92.72-6.9.17.11-.71.78-.63 1.23-.7 1.33-.19 2.73-.3 4.09-.44.44-.07.88-.11 1.33-.12.42.03.84.09 1.25.17l.1.44zM179.41 129.84c-.22.26-.46.51-.72.75-1.02.9-2.05 1.78-3.1 2.66-.35.34-.74.62-1.17.84-.21.1-.54-.07-.81-.12 0-.24 0-.54.2-.68 1.4-1.25 2.85-2.49 4.31-3.69.41-.34.97-.57 1.3.24zM438.64 16.16c-2.18 1.1-4.44 1.97-6.65 2.87-.24.07-.55 0-1.16-.12.47-.43.67-.72.94-.84 1.9-.8 3.82-1.58 5.74-2.35.34-.16.83-.32 1.13.44zM431.21 28.4a1.05 1.05 0 011.34-.52c1.6.47 3.2.97 4.78 1.52.24.08.37.48.56.73-.3.15-.61.23-.94.24-.89-.2-1.78-.48-2.66-.74-.88-.27-1.44-.43-2.14-.68a8.81 8.81 0 01-.94-.55zM179.39 124.29c-1.7-.32-3.3-.6-4.89-.92-.45-.08-1.12-.1-.99-.79.14-.67.75-.5 1.23-.42 1.33.24 2.66.5 4 .78.87.2.93.35.65 1.35zM179.1 126.45c.17.62-.15.8-.58.91l-3.42.95c-.17.05-.35.05-.52 0-.19 0-.43-.21-.47-.37a.64.64 0 01.22-.56 8.46 8.46 0 014.76-.93zM439.47 184.68c-.5.38-.72.68-.96.68-1.14 0-2.29 0-3.42-.09-.17 0-.4-.3-.45-.52-.06-.21.21-.43.37-.45a7.65 7.65 0 014.46.38zM296.26 184.88c-.28.2-.55.59-.83.6h-3.28c-.1 0-.2-.14-.43-.34.28-.23.5-.55.77-.61a6.65 6.65 0 013.6 0l.17.35z" fill="#1B4ECC"/><path d="M227.77 184.15h-4.94c-.08-.27-.2-.55-.27-.84a9.66 9.66 0 00-3.88-5.85 6.4 6.4 0 01-2.85-3.84 4.38 4.38 0 00-.86-1.48c-1.78-2.32-3.64-4.57-5.32-6.93a11.16 11.16 0 01-2.32-8.98c.43-2.15.35-4.36-.22-6.47a30.25 30.25 0 00-2.24-5.53 15.96 15.96 0 01-1-12.75l.81-2.53c.44-1.96.34-4-.28-5.9-.77-3.3-.73-6.73.11-10a15.6 15.6 0 011.33-3.01c.2-.35.48-.64.8-.88a2.06 2.06 0 011.78-.77 2.08 2.08 0 011.64 1.04 6.55 6.55 0 011.76 4.35c0 2.66-.04 5.37-.13 8.1-.12 1.73 0 3.46.33 5.15.43 1.82 1.3 3.51 2.52 4.94 2.25 2.66 2.66 5.75 2.66 9.08.06 2.38.28 4.76.65 7.12a8.58 8.58 0 002.16 4.2l1.25 1.55a5.14 5.14 0 011.24 3.56 9.38 9.38 0 002.95 7.41 4.79 4.79 0 011.52 4 11.2 11.2 0 001.07 5.67c1.47 3.17.89 6.37-.27 9.59zM481.69 91.2c-6.58.22-13 .56-19.43.63-5.21 0-10.45-.15-15.65-.37-1.92-.02-3.8-.55-5.46-1.52A4.38 4.38 0 01438.9 85c.14-.56.25-1.13.42-1.68 1.04-3.17 3.63-3.8 6.1-3.34.86.2 1.7.52 2.48.92a9.08 9.08 0 003.93 1.12 3.65 3.65 0 003.1-1.5c.8-1.11 1.53-2.27 2.3-3.42a13.09 13.09 0 015.4-4.76 7.13 7.13 0 016.55.18c.84.57 1.55 1.3 2.1 2.16.9 1.15 1.69 2.37 2.53 3.57a6.81 6.81 0 006.54 3.03c1.8-.24 3.63-.17 5.41.2 2.97.57 5.73 1.92 8 3.92.82.85 1.5 1.83 1.99 2.91.64 1.34.21 2.3-1.33 2.59a26.3 26.3 0 01-5 .53c-2.58.03-5.24-.15-7.73-.23zM249.66 42.15c.34-.4.71-.76 1.1-1.1a13.2 13.2 0 019.43-2.41 3.17 3.17 0 012.67 1.68c.47.88.97 1.77 1.47 2.66a7.6 7.6 0 003.08 3.37 2.96 2.96 0 003.03.06c.46-.25.92-.53 1.33-.82a6.46 6.46 0 016.1-.72 14.65 14.65 0 018.23 7.5c1.33 2.67.37 3.58-2.3 3.62-1.5 0-3-.2-4.5-.34-2.07-.18-4.14-.4-6.2-.56a681 681 0 00-16.7-1.13c-.35 0-.7 0-1.05-.08a1.67 1.67 0 01-1.7-1.49 77.92 77.92 0 00-3.98-10.24zM247.33 184a30.02 30.02 0 010-3.66c.2-2.42 1.1-4.74 2.58-6.66.54-.59 1.12-1.14 1.75-1.63 1.1-.83 1.91-2 2.29-3.34.57-2.28 1.1-4.57 1.53-6.88.3-2.3 1.34-4.44 2.97-6.1a6.65 6.65 0 001.53-3.19c.17-.6.28-1.21.41-1.8.93-4.3 3.35-8.12 6.83-10.8a8.12 8.12 0 013.68-1.78 2.36 2.36 0 012.75 3.08c-.26.8-.68 1.54-1.2 2.2-1.58 1.97-3.22 3.9-4.87 5.8a11.44 11.44 0 00-2.75 6.92 9.12 9.12 0 01-2.75 6c-.63.7-1.22 1.42-1.77 2.18a4.98 4.98 0 00-1.04 4 4.08 4.08 0 01-1.58 4.21c-.21.16-.39.38-.59.55a8.09 8.09 0 00-2.94 5.47c-.14 1.64-.6 3.23-1.33 4.7a1.62 1.62 0 01-1.83.96c-.74-.1-1.5 0-2.26 0-.41-.1-.84-.17-1.41-.24zM450.03 183.24a14.17 14.17 0 01-.75-4.43c-.1-1.86.12-3.73.67-5.51.82-2.6 1.34-5.28 1.56-8 .32-2.85 1-5.66 2.03-8.35a5.46 5.46 0 012.04-2.67 1.4 1.4 0 012.3.82c.44 1.4.4 2.91-.1 4.3-.47 1.43-.98 2.85-1.46 4.28a9.74 9.74 0 00-.13 5.49c.19.77.33 1.56.59 2.32a6.27 6.27 0 01-.95 5.92 29 29 0 01-5.32 5.67 3.1 3.1 0 01-.48.16zM336.92 137.46c-.17-.48-.3-.98-.37-1.48a12.7 12.7 0 011.33-7.1 6.97 6.97 0 00.59-6.1 9.1 9.1 0 011.49-8.8c.22-.33.45-.66.66-1a6.04 6.04 0 00.88-5.43c-.6-1.9-.92-3.88-.94-5.88a9.47 9.47 0 011.33-5.07c.45-.76.68-1.7 1.64-2.17-.07.26-.17.52-.28.77-.9 1.53-1.5 3.22-1.8 4.98-.2 1.76-.08 3.54.35 5.26.2.9.5 1.8.69 2.66a6.1 6.1 0 01-.96 5.03 29.36 29.36 0 00-2.02 3.57 7.05 7.05 0 00-.28 5.69c.2.57.35 1.18.51 1.78a5.53 5.53 0 01-.51 4 13.9 13.9 0 00-1.86 5.77v3.52h-.45zM194.82 125.11c-3 3.3-7.69 3.32-9.84 1.33a9.2 9.2 0 015.83-3.74c.08.19.14.38.17.58-.08 1.54 1.24 2.44 2.95 2.07.29-.06.58-.18.87-.28l.02.04zM252.46 114.38c1.99-.28 4.02.04 5.83.92a3.24 3.24 0 00-.63 2.82c.19.45.5.83.88 1.12 1.1.84 2.29.68 3.63-.48l.74.97c-.95.53-2.06.7-3.12.5a8.21 8.21 0 01-7.34-5.85zM445.47 144.93l1.48-.84c.51.64 1.08 1.24 1.7 1.8.4.24.86.34 1.32.29 1.06 0 1.44-.7 1.7-2.53a4.9 4.9 0 013.12 1.69c-2.47 2.21-6.3 2.09-9.32-.41zM367.58 80.2a72.27 72.27 0 01-2.22-10.26c.65.7.55 1.63.83 2.44.28.81.44 1.7.65 2.57.21.86.5 1.78.7 2.66.2.88.32 1.65.48 2.48l-.44.12z" fill="#FBF9F9"/><path d="M194.8 125.11l.9-1.95.84.26a2.8 2.8 0 01-1.72 1.7h-.02z" fill="#FBF9F9"/><path d="M332.02 54.34c0 .17.19.34.16.48-.21.98-.44 1.97-.7 2.95 0 .15-.31.28-.48.32-.18.04-.28-.21-.32-.36a3.5 3.5 0 011.34-3.4zM393.1 71.6c-.84 1.16-1.52 1.45-2.27 1.15a1.81 1.81 0 01-1.17-1.87 3.13 3.13 0 003.44.72zM368.97 28.08l1.33 1.8a.94.94 0 01-1.33-.26 1.08 1.08 0 01-.24-1.19c.06-.13.14-.25.24-.35zM364.5 23.93l-.47 2.06c-.63 0-.73-.41-.75-.85 0-.64.39-.99 1.22-1.21zM371.86 23.47c.3.5.61.8.57 1.01a.96.96 0 01-.66.62c-.23 0-.68-.4-.67-.58.01-.17.39-.6.76-1.05z" fill="#1B4ECC"/></svg>