<svg fill="none" height="404" viewBox="0 0 441 404" width="441" xmlns="http://www.w3.org/2000/svg"><linearGradient id="a" gradientUnits="userSpaceOnUse" x1="534.38" x2="78.693" y1="-129.566" y2="348.41"><stop offset=".005" stop-color="#4adec5"/><stop offset=".389" stop-color="#4adec5"/><stop offset=".528" stop-color="#53dfc8"/><stop offset=".626" stop-color="#5be1cb"/><stop offset=".706" stop-color="#68e3cf"/><stop offset=".774" stop-color="#7ee7d6"/><stop offset=".835" stop-color="#93ebdd"/><stop offset=".889" stop-color="#adf0e5"/><stop offset=".94" stop-color="#d0f6f0"/><stop offset=".984" stop-color="#f2fdfb"/><stop offset="1" stop-color="#fff"/></linearGradient><path d="M419.691 202.171c0 111.329-90.237 201.566-201.566 201.566S16.559 313.5 16.559 202.171 106.796.57 218.125.57 419.691 69.924 419.691 202.17z" fill="url(#a)"/><path d="M238.494 335.356l-19.599-7.505-7.505 19.6 19.599 7.505z" fill="#0b0a09"/><path d="M276.991 291.163l-33.21 24.694 21.936 29.501 33.21-24.693z" fill="#fff"/><g fill="#0b0a09"><path d="M439.313 294.58c-.139 0-.278-.035-.417-.069l-11.119-4.17a1.206 1.206 0 01-.694-1.564 1.205 1.205 0 011.563-.694l11.119 4.169c.626.243.938.938.695 1.564-.208.486-.66.764-1.147.764zM52.099 59.938c-.14 0-.278-.034-.417-.07L.777 40.342a1.206 1.206 0 01-.694-1.564 1.206 1.206 0 011.563-.694L52.55 57.61c.626.243.939.938.695 1.564-.208.486-.66.764-1.146.764zM231.207 37.593c-.521 0-.973-.313-1.147-.834a1.21 1.21 0 01.8-1.529l13.203-4.17a1.21 1.21 0 011.529.8 1.21 1.21 0 01-.799 1.528l-13.204 4.17c-.139 0-.278.035-.382.035zM301.236 275.869c-.243 0-.452-.07-.66-.209a1.224 1.224 0 01-.348-1.667l5.56-8.374a1.225 1.225 0 011.668-.348c.556.382.695 1.112.347 1.668l-5.559 8.374c-.209.382-.591.556-1.008.556zM332.817 316.731c-.139 0-.243-.035-.382-.069l-19.493-6.498a1.219 1.219 0 01-.764-1.529 1.219 1.219 0 011.529-.764l19.493 6.497c.625.209.973.904.764 1.529a1.188 1.188 0 01-1.147.834zM189.767 326.043c-.173 0-.347-.035-.486-.104-.626-.278-.869-.973-.626-1.598l3.718-8.374c.278-.626.973-.869 1.599-.626.625.278.868.973.625 1.599l-3.718 8.374a1.211 1.211 0 01-1.112.729z"/></g></svg>