<svg width="465" height="312" viewBox="0 0 465 312" fill="none" xmlns="http://www.w3.org/2000/svg"><path d="M439.45 176.7h-31.37l-14.28.56-9.39-3.22-2.08-6.89 3.2-6 6.26-2.27 11.31 2.4 14.19-5.42 11.18-7.06s10.5-2 10.98-1.91c.5.09 13.25 6 13.25 6l5.77 8.67 3.62 9.05-2.16 3.61-6.82 2.32-13.66.16zM276.41 128.64l42.7-2.17 8.1-1.52 2.49-3.62-1.2-4.85-3.36-5.42-6.43-3.62-4.97-1.81h-16.85l-3.61-2.4s-1.81-3.21-1.92-3.45c-.58-.93-1.1-1.9-1.54-2.9-.4-.93-.85-1.84-1.36-2.72l-4.18-1.04-3.2.57-2.44 1.73-2.73 1.21.5 32.01zM148.73 49.73l-72.94 1.1-15.74-.56-10.3-2.8-6.78-10.59 4.5-12.2 8.51-4.26 8.1 1.05 13.23 4.17 9.88-1.68 7.62-6.19 11.07-9.62 7.22-2.4 7.7 1.06 6.98 11.2 8.5 7.07 12.45 1.2 8.25 1.6 10.51 7.06 2.97 8.74-2.4 4.11-9.15 1.94h-10.18zM69.86 167.87l-54.88 1.05-7.45-3.13-4.9-8.43 2.5-9 6.32-4.5 6.26-1.34 9.3 5.85 9.23 4.83 7.94-2.73 12.45-5.87 11.89 1.52 6.55 5.14 4.25 5.14 1.29 5.7-.64 3.7-10.11 2.07z" fill="#1B4ECC"/><path d="M275.49 201.91c0-.58.09-1.14 0-1.81-.1-5.23-.16-10.48-.3-15.7-.15-5.23-.35-10.6-.46-15.9-.1-5.31 0-10.87-.2-16.3-.2-8.42-.49-16.86-.7-25.32v-10.86c-.11-5.12-.35-10.24-.46-15.36-.12-5.43-.14-10.86-.23-16.28 0-1.33-.11-2.65-.2-3.97a54.47 54.47 0 012.26-17.66c.6-2.26 1.18-4.54 1.95-6.75 1-2.76 2.14-5.42 3.3-8.2a75.48 75.48 0 0111.2-17.63c2.26-2.79 5-5.2 7.54-7.76a62.53 62.53 0 0111.1-8.64c3.5-2.2 7.12-4.2 10.85-5.98a56.6 56.6 0 017.24-2.8c6.37-2.21 13-3.62 19.72-4.19a79.1 79.1 0 0116.03 0c5.1.55 10.11 1.65 14.96 3.3 2.64.99 5.43 1.8 7.93 2.96a91.26 91.26 0 018.92 4.7 64.67 64.67 0 0110.8 8.15 96.3 96.3 0 017.98 8.09 80.19 80.19 0 017.34 10.26 62.97 62.97 0 014.94 9.82 87.38 87.38 0 013.62 10.95 81.8 81.8 0 012.25 15.36c.18 3.1 0 6.24.09 9.37v27.21c0 5.1.1 10.2.1 15.33 0 4.8 0 9.6-.12 14.47v5.32c1.46-.09 2.66 0 3.83-.23a17.23 17.23 0 0112.89 3.61c2.4 1.81 5.08 3.28 6.78 5.88 1.96 3.03 4.1 5.98 5.74 9.16a9.44 9.44 0 01-.18 9.84 5.71 5.71 0 01-2.95 2.27 18.8 18.8 0 01-6.91 1.19l-17 .13c-.64 0-1.3.1-2.18.2-.4 14.47.1 28.66-.35 43.02 1.94.1 3.62.22 5.43.22H446.67c3.3.13 3.91.72 3.9 3.98 0 4.29 0 8.56-.17 12.84 0 1.81-.33 2.03-2.14 2.18-1.26.1-2.53 0-3.8.12-6.73.27-13.48.58-20.2.78-3.63.1-7.1 0-10.63 0-2.76 0-5.53 0-8.3-.14a1.13 1.13 0 00-1.25.77c-1.81 4.35-3.85 8.58-5.3 13.01-1.45 4.44-3 8.36-4.78 12.43-1.92 4.42-4 8.76-6.2 13.05a67.55 67.55 0 01-3.91 6.06c-.26.4-.53.78-.8 1.16.6.72 1.32.45 1.92.43 5.97-.16 11.92-.41 17.9-.6 3.12-.08 6.25-.1 9.38-.12 6.99 0 13.97-.15 20.96 0 4.4 0 8.77.38 13.17.56 2.04 0 4.09 0 6.13.1 1.25 0 1.81.39 2.08 1.56.34 1.4.5 2.84.45 4.27-.21 3.24-.68 6.48-1 9.7a21.75 21.75 0 00-.15 3.26 3.05 3.05 0 01-3.4 3.3h-59.91c-5.18 0-10.35-.17-15.53-.19-4.14 0-8.28.13-12.43.13-2.04 0-4.09-.16-6.13-.16h-14.27c-3.37 0-6.74-.22-10.1-.26-3.37-.04-6.86.1-10.28.11h-21.27c-2.85 0-5.67-.1-8.5-.13-5.71 0-11.44 0-17.16-.09-3.96 0-7.93-.18-11.9-.2-4.4 0-8.8.1-13.18 0-8.49 0-16.97-.1-25.44-.16l-20.6-.09h-12.67c-6.79 0-13.57-.27-20.36-.34h-25.09c-2.48 0-4.94-.18-7.4-.2H99.13c-4.8 0-9.6-.15-14.47-.18h-5.77c-4.58 0-9.05-.17-13.72-.22h-9.39c-9.04 0-18.1-.1-27.14-.16H18.36c-4.37 0-8.77 0-13.17-.17a4.02 4.02 0 01-3.9-3.89c0-4.02.05-8.06.16-12.1.14-1.13.43-2.23.87-3.27.29-.87 1-1.07 1.8-1.1 4.15 0 8.3-.12 12.44-.17H37c.1-.76.15-1.53.15-2.3-.21-4.76-.52-9.52-.67-14.27-.1-3.62 0-7.12 0-10.66 0-2.82.2-5.65.33-8.47A35.04 35.04 0 0141.07 236a22.67 22.67 0 017.04-7.62c.29-.2.56-.43.85-.65.07-.11.13-.23.18-.34-.58-.35-1.2-.71-1.8-1.09a17.07 17.07 0 01-6.14-5.72c-.5-.88-.9-1.82-1.2-2.78a5.25 5.25 0 00-2.31-3.12l-3.62-2.35a12.66 12.66 0 01-4.72-4.63 3.88 3.88 0 01-.4-3.78 2.12 2.12 0 011.65-1.25 5.42 5.42 0 013.81.72c3.13 2 5.97 4.45 8.42 7.24a24.47 24.47 0 007.4 5.83c-.31-.66-.6-1.34-.96-2-2.32-4.28-4.67-8.55-6.99-12.84-.86-1.6-1.68-3.2-2.51-4.8a2.27 2.27 0 00-1.81-1.4 3.8 3.8 0 01-2.95-3.8 3.62 3.62 0 013.62-3.14 2.8 2.8 0 012.98 2.12c.07.3.07.6 0 .9-.7 2.2.64 3.82 1.56 5.43 1.81 3.33 3.62 6.6 5.43 9.94 2.28 4.18 4.5 8.37 6.71 12.66.73 1.38 1.34 2.8 2.03 4.27l4.09-1.16c-.55-.94-1-1.94-1.36-2.98-.4-1.45-.62-2.95-.65-4.45 0-5.39-1.18-10.7-3.46-15.58a33.34 33.34 0 01-3.05-9.97c-.13-1.21-.04-2.44.25-3.62a2.1 2.1 0 013.07-1.52 5.3 5.3 0 013.06 2.9c.62 1.37 1.05 2.82 1.54 4.23.31 1.13 1 2.12 1.94 2.82v-1.66c-.17-2.2-.37-4.43-.53-6.66-.36-5.1-.69-10.2-1.07-15.3 0-1.18-.43-1.44-1.62-1.38-6.07.3-12.15.7-18.2.94-3.97.14-7.93.09-11.9 0-3.61 0-7.1 0-10.63-.25-3.2-.01-6.35-.6-9.34-1.72A12.48 12.48 0 011.7 155.3a15.56 15.56 0 016.77-11.6 14.82 14.82 0 017.24-2.76 8.33 8.33 0 015.42 1c3.08 1.82 6.05 3.93 9.05 5.87 1.56 1 3.17 1.95 4.78 2.88a6.46 6.46 0 006.08-.38c2.1-.92 4.13-1.96 6.11-3.12A29.67 29.67 0 0159 143.07a22.27 22.27 0 0114.59 4.38 17.44 17.44 0 016.98 7.83c.78 1.96 1.28 4 1.5 6.1a5.9 5.9 0 01-5.05 6.46c-2.9.49-5.84.72-8.75 1.05-1.32.16-2.63.29-4.02.43-.1.35-.15.71-.16 1.07.5 7.24 1 14.48 1.52 21.71.1 1.49.36 2.99.61 4.47.15.9.61 1.7 1.3 2.28a6.17 6.17 0 012.36 5.23c-.1 1.5-.06 3 .1 4.49.24.93.56 1.83.98 2.7.6-1.16 1.02-1.92 1.41-2.72a20.08 20.08 0 014.6-6.62c.61-.58 1.3-1.08 2.03-1.5a3.62 3.62 0 001.8-2.48c1.5-4.83 3.04-9.66 4.6-14.48.92-2.87 1.81-5.72 2.84-8.56.2-.57.33-1.15.5-1.8l-.82-.91a3.72 3.72 0 01-1.04-2.62 3.11 3.11 0 012.88-3.35 3.62 3.62 0 014.07 2.3 3.17 3.17 0 01-1.37 4.2 3.9 3.9 0 00-1.81 2.37l-5.43 16.84c-.5 1.57-1.07 3.15-1.45 4.76a14.48 14.48 0 002.66-4.81 24.2 24.2 0 013.82-6.93 8.78 8.78 0 013.33-2.37 3.33 3.33 0 014.67 2.56 9.26 9.26 0 01-1.52 7.24 54.6 54.6 0 01-3.62 4.49 13.95 13.95 0 00-3.4 8c-.27 1.8-.67 3.62-1.1 5.28a3.48 3.48 0 01-2.88 2.7 3.87 3.87 0 00-3.19 3.22 29.3 29.3 0 01-3.89 9.04c1.02.7 1.81 1.32 2.77 1.81 2.35 1.6 4.38 3.6 6 5.92a29.13 29.13 0 014.6 8.34c1.1 3.13 1.7 6.4 1.81 9.72 0 4.09-.16 8.17-.2 12.28 0 1.92.18 3.84.15 5.77 0 2.34-.16 4.69-.26 7.04l-.34 10.08c.01.32.05.63.1.94h17.02a3 3 0 00-.53-.54 21.56 21.56 0 01-6.53-6.88 34.59 34.59 0 01-5.07-14.35 203.6 203.6 0 01-1.68-12.32c-.41-3.62-.78-7.43-.92-11.16-.1-2.44.22-4.9.29-7.37.13-3.96 0-7.94.3-11.9.26-4.69.57-9.37 1.13-14.04.38-3.15 1.37-6.22 1.8-9.37.64-3.56 1.5-7.07 2.58-10.52a33.55 33.55 0 014.3-10.49 63.64 63.64 0 019.25-11.53 45.6 45.6 0 0118.69-10.85c5.01-1.48 10.13-2.59 15.22-3.85 1.64-.4 3.27-.84 4.94-1.1 3.25-.57 6.53-1.02 9.8-1.55 2.91-.47 5.81-1.1 8.74-1.43 3.4-.38 6.84-.5 10.26-.7 2.48-.15 4.94-.3 7.4-.36 5.71-.23 11.43-.15 17.13.23 4.02.36 8.07.56 12.04 1.25a74.75 74.75 0 0117.31 4.22 84.37 84.37 0 0112.02 6.13 40.31 40.31 0 0110.42 9.63 70.86 70.86 0 019.6 17.89c1.13 2.86 2.41 5.65 3.51 8.5.75 1.96 1.3 3.98 1.96 6 .16.42.35.84.56 1.24l.67.11zm.83-106.75c.94-.56 1.6-.98 2.26-1.36 1.74-1.09 3.69-1.8 5.72-2.06a5.2 5.2 0 014.29 1.4 11.3 11.3 0 012.99 4.88 8.23 8.23 0 007.12 6.08c2.46.23 4.93.23 7.39 0 6.17-.57 12.35 1 17.51 4.43.88.5 1.7 1.11 2.44 1.8a17.98 17.98 0 014.94 9.06 5.3 5.3 0 01-2.39 5.9c-1.8 1.1-3.83 1.8-5.93 2.02-4.22.52-8.49.83-12.67 1.14-2.64.2-5.28.18-7.92.36-4.81.33-9.6.74-14.48 1.07-3 .18-6.02.24-9.04.38-1.29 0-1.47.22-1.47 1.5 0 2.12 0 4.22.1 6.32 0 1.8 0 3.61.08 5.42.11 3.37.3 6.72.35 10.08 0 4.04 0 8.07.1 12.09.13 5.43.4 10.95.55 16.4.18 7.77.3 15.53.45 23.3a43 43 0 010 6.45c-.2 2.03.02 4.07.67 6 .62 2.18 1.07 4.44 1.57 6.67.3 1.27.56 2.53.84 3.82h.4c.44-1.08.81-2.18 1.12-3.3.95-4.48 2.58-8.8 4.83-12.8 1.16-2.1 2.02-4.35 3.1-6.5a12.67 12.67 0 014.84-5.9 19.9 19.9 0 018.07-2.42c2.57-.26 5.18-.31 7.7-.78 4-.54 8.03-.8 12.06-.78 4.86-.2 9.75-.18 14.62-.2h17.87c5.34 0 10.7.15 16.03.3 4.04 0 8.07.26 12.1.4h1.44c3 .19 6.02.26 9.04.57 3.03.3 5.85.83 8.76 1.23 2.65.24 5.23.96 7.62 2.13a9.04 9.04 0 014.27 4.7 11 11 0 01.13 7.12c-.6 2.2-1.42 4.34-2.14 6.51l-.78 2.5h5.34v-5.74-20.39-14.26c0-.76-.14-1.52-.22-2.26-5.68 0-11.16-.16-16.6 0a55.5 55.5 0 01-12.02-.74 11.28 11.28 0 01-7.02-4.07 7.57 7.57 0 01-1.41-6.5c.58-2.85 2.1-5.44 4.3-7.34a10.02 10.02 0 019.32-2.59c2.57.6 5.18 1.12 7.76 1.61 2.59.43 5.24-.03 7.53-1.28 2.2-1.09 4.34-2.36 6.53-3.48a3.18 3.18 0 001.81-3.3c-.1-5.78 0-11.57-.09-17.34s.36-11.18.16-16.8c-.14-4.55.13-9.04.15-13.69v-19.9c.19-4.63.01-9.27-.53-13.88-.56-3.44-.94-6.93-1.8-10.3A61.82 61.82 0 00412 47.1c-1.43-2.86-2.8-5.73-4.45-8.47a64.46 64.46 0 00-4.72-6.58 91.55 91.55 0 00-5.66-6.55c-3.01-3.06-6.35-5.78-9.97-8.09a75.03 75.03 0 00-7.38-4.74 72.38 72.38 0 00-15.18-6.17 62.48 62.48 0 00-12.67-2.37c-6.14-.2-12.28.57-18.18 2.3a78.32 78.32 0 00-18.97 8.05 77.31 77.31 0 00-11.8 8.29 83.52 83.52 0 00-14.09 15.88 78.38 78.38 0 00-12.37 31.1c-.15.96-.24 1.81-.36 2.86-.34 4.74-.39 9.5-.15 14.24-.04 2.72.16 5.43.27 8.34v-.03zm-14.69 188.4c.92-2.98 1.81-5.88 2.71-8.7a212.1 212.1 0 013.62-9.42c2.12-5.1 4.38-10.16 6.46-15.3 1.45-3.61 2.72-7.23 3.98-10.85a14 14 0 001.13-4.34 48.17 48.17 0 00-.9-6.97 91.04 91.04 0 00-2.69-11.58c-1.46-4.96-2.55-10.04-4.16-14.94a172.43 172.43 0 00-7.62-19.49 63.09 63.09 0 00-6.75-11.87 39.28 39.28 0 00-8.43-8.09c-2.44-1.65-5-3.12-7.65-4.41a40.14 40.14 0 00-7.55-3.38 141.23 141.23 0 00-14.85-3.32 115.2 115.2 0 00-19.9-1.37c-8.8-.05-17.58.37-26.33 1.27-6.7.81-13.35 1.8-19.9 3.27-2.48.54-4.94 1.12-7.4 1.65a63.2 63.2 0 00-19.22 6.58 40.84 40.84 0 00-10.94 8.76 72.86 72.86 0 00-5.67 7.47 36.2 36.2 0 00-3.61 7.24 75.04 75.04 0 00-3.62 13.03c-.62 3.62-1.42 7.23-1.81 11.03-.4 3.8-.7 7.66-.96 11.5-.22 3.05-.3 6.13-.4 9.2-.1 2.65-.24 5.29-.29 7.93a57.82 57.82 0 000 6.86c.43 4.72 1 9.44 1.63 14.16.47 3.33 1 6.68 1.72 9.95a29.56 29.56 0 005.63 11.22c.45.72.98 1.38 1.59 1.97a18.41 18.41 0 007.4 3.99c3.44.89 6.99 1.34 10.55 1.33 3.02 0 6.02-.2 9.04-.36 2.53-.14 5.07-.25 7.56-.58 4.37-.54 8.7-1.2 13.05-1.92 2.71-.43 5.43-.88 8.13-1.55 4.73-1.18 9.4-2.57 14.13-3.78 3.83-1 7.72-1.81 11.57-2.79.6-.18 1.17-.4 1.72-.67.02-.19.02-.37 0-.56a4.33 4.33 0 00-.27-.67c-1.8-3.7-2.9-7.69-3.27-11.78-.77-5.8-.9-11.65-.4-17.48a2.28 2.28 0 00-.23-.74c-.58 0-1.13.1-1.65.16-2.51.26-5.03.53-7.55.82-4.86.52-9.71.94-14.47 1.6-5.92.79-11.78 1.8-17.66 2.7-2.14.35-4.23.87-6.35 1.29-.53.12-1.07.17-1.61.15-.3 0-.82-.38-.78-.53.07-.38.27-.71.56-.96.3-.2.65-.33 1.01-.4l2.41-.81c.1-.36.15-.73.16-1.1-.1-2.54-.23-5.05-.41-7.59-.3-4.01-.74-8.03-.93-12.06-.21-4.82-.2-9.63-.28-14.48a3.16 3.16 0 010-1.25c.16-.38.56-.87.9-.92a1.41 1.41 0 011.16.61c.27.54.42 1.13.43 1.72 0 2.16 0 4.31.15 6.46a2522.26 2522.26 0 001.21 25.02c0 .95 0 1.82.16 2.92 3.8-.58 7.42-1.16 11.06-1.68 4.94-.74 9.86-1.54 14.83-2.14 7.46-.88 14.95-1.72 22.44-2.4 4.92-.46 9.88-.51 14.78-1 5.34-.45 10.7-.62 16.05-.5 2.59 0 5.16.43 7.74.63 2.83.15 5.6.79 8.2 1.9.58.27 1.2.43 2 .74-.12-.9-.19-1.54-.3-2.2-.16-1-.36-2-.52-3.01-.62-3.75-1.18-7.5-1.81-11.24-.8-4.8-1.67-9.57-2.5-14.35-.12-.7-.2-1.43-.24-2.15 0-.63 0-1.28.73-1.48.72-.2 1.23.4 1.47 1.03.24.74.44 1.5.57 2.26 0 .42.11.83.19 1.25l4.08 24.59c.35 2.08.67 4.16.84 6.26.03.71.31 1.39.8 1.92 1.2 1.25 2.3 2.6 3.27 4.05 1.8 2.93 3.34 5.99 4.9 9.05 1.05 2.02 1.81 4.18 2.91 6.2a38.63 38.63 0 013.9 11.4 8.17 8.17 0 01-.53 4.6c-.16.41-.25.86-.44 1.43h2.32zm190.23 6.99c-1.8-.1-3.5-.24-5.19-.27-4.14-.11-8.3-.18-12.45-.26-4.14-.07-7.83-.18-11.74-.18-3.42 0-6.86.18-10.28.24-4.94.09-9.88 0-14.81.23-5.12.2-10.24.12-15.35-.21a4.8 4.8 0 00-2.4.48c-1.96.98-4.1 1.5-6.28 1.53-3.24 0-6.5.09-9.74.18-4.14.12-8.3.16-12.44.5-6.74.55-13.49.27-20.22.26-3.02 0-6.02-.24-9.04-.22-6.68 0-13.36.16-20.05.25-3.73 0-7.47.15-11.2.18-4.16 0-8.32.33-12.45 0-5.77-.45-11.56-.34-17.33-.49-4.5-.1-9.05 0-13.53-.12-5.25 0-10.48-.2-15.71-.31-2.66 0-5.3 0-7.94-.13-3.86-.1-7.7-.3-11.55-.4h-7.23c-1.26.03-2.52-.16-3.71-.56a13.1 13.1 0 00-4.76-.86c-7.24-.17-14.31-.24-21.48-.5-6.55-.23-13.1-.64-19.65-.97a35.16 35.16 0 00-4.14-.1c-2.03.14-4.06.52-6.1.7-4.67.41-9.34.94-14.02 1.08-3.63.04-7.25-.1-10.86-.45a64.99 64.99 0 00-8.61-.69c-4.76.26-9.5.42-14.26.51-6.62.14-13.24.27-19.9.27-5.83 0-11.67-.14-17.5-.25-3.3 0-6.62-.18-9.93-.24h-8.65c-5.77 0-11.56-.21-17.33-.21-5.05 0-10.1.2-15.15.32-1.17 0-2.37 0-3.61.13l-.82 14.47h2.79c4.14 0 8.28.18 12.43.2h7.92c4.45 0 8.9.13 13.36.15h30.14l17.51.1 27.63.22h29.06c4.02 0 8.03.24 12.07.3 2.59 0 5.15-.12 7.74-.1 5.61 0 11.2.1 16.8.15l16.78.1c4.63 0 9.27.13 13.92.15h16.97c5 0 10 .2 15 .23 7.53 0 15.03 0 22.56.1 6.13 0 12.29 0 18.42.12h16.8c4.33 0 8.67.11 13 .13 4.03 0 8.07-.1 12.09-.1 2.87 0 5.75.17 8.63.19h21.31c5.85 0 11.69.18 17.53.22 5.85.03 12.14 0 18.22 0 2.28 0 4.58.25 6.86.25 5.12 0 10.24-.13 15.34-.1 7.59 0 15.17.28 22.75.39h10.64c.76 0 1.52-.15 2.28-.22 0-.41.12-.63.14-.87l.74-8.26c.4-2.4.4-4.86-.02-7.26zm-216.9-8.13a6.33 6.33 0 007.62-4.86c.4-2.4.58-4.82.52-7.24a32.02 32.02 0 00-1.26-8.36 1.28 1.28 0 01.3-1.38 1.26 1.26 0 012 .33c.18.24.34.5.5.74 1.41 2.45 2.95 4.84 4.24 7.35 1.71 3.42 3.25 6.97 4.86 10.46a3.93 3.93 0 002.73 2.64 3.82 3.82 0 001.07-3.02c-.1-1.37-.3-2.72-.61-4.06a59.38 59.38 0 00-4.5-11.2c-1.7-3.47-3.63-6.83-5.33-10.27a16.5 16.5 0 00-4.49-5.6 21.16 21.16 0 00-11.49-4.28c-1.62-.13-3.23-.29-4.86-.38-2.28-.13-4.58-.34-6.86-.25-5.28.21-10.58.56-15.87.88-3.62.24-7.24.56-10.98.78-.98 0-1.43.44-1.47 1.41 0 1.25-.1 2.52-.09 3.76-.18 6.15.43 12.3 1.81 18.3.56 2.56 1.55 5 2.93 7.23.36 0 .72-.05 1.07-.12 4.44-1.14 8.85-2.34 13.26-3.48 2.75-.7 5.43-1.24 8.22-2.08 1.4-.41 2.06-.6 2.62 1.4.26 1.23.34 2.5.24 3.76 0 2.66-1.02 3.62-3.62 3.94h-.9c-1.9.13-2.47.73-2.54 2.8 2.77.81 5.72.72 8.43-.26a4 4 0 003.06-3.8c.1-1.68.1-3.37 0-5.05 0-1.2-.27-2.39-.32-3.62a.96.96 0 01.52-.8 1.23 1.23 0 01.94.33c.25.26.4.59.45.94.27 1.81.6 3.62.7 5.43a10.06 10.06 0 01-2.24 7.78 24 24 0 013.62 0c2.26.36 3.26-1.05 4.15-2.7.19-.37.34-.77.45-1.17.7-2.81.83-5.74.36-8.6-.16-1.5-.5-2.96-.67-4.47a1.56 1.56 0 01.44-1.2.93.93 0 01.79-.06.95.95 0 01.54.58c.28.53.49 1.09.64 1.66.14.58.18 1.2.27 1.81 1 4.24.75 8.67-.7 12.77-.15.31-.3.7-.55 1.24zm205.6-107.33h2.17a84.1 84.1 0 0013.68-.74 4.35 4.35 0 004.07-4.63c0-1.9-.5-3.78-1.47-5.43-.88-1.57-1.97-3.02-2.93-4.54-2-3.16-4.65-5.86-7.76-7.94-2.7-1.95-5.9-3.1-9.23-3.31-3.81-.12-7.6.7-11.02 2.37-2.77 1.25-5.32 3-7.98 4.5-2.98 1.69-5.93 3.42-9.04 4.94a17.23 17.23 0 01-11.46 1.1c-1.8-.37-3.62-.83-5.43-1.22-5.42-1.18-9.68 2.77-10.45 7.96a6.01 6.01 0 004.8 6.7 39 39 0 0010.85 1.04c3.07 0 6.13-.23 9.2-.27h15.15c5.66-.1 11.25-.38 16.85-.53zm-376.78-8.48c4.41-.4 8.58-.63 12.66-1.2 1.81-.23 3-1.08 2.88-3.72-.1-3.28-1.43-6.4-3.74-8.74a31.82 31.82 0 00-7.7-5.34 15.14 15.14 0 00-8.17-1.68 22.9 22.9 0 00-9.41 2.95c-2.77 1.43-5.43 2.93-8.34 4.25a10.25 10.25 0 01-10.35-.76c-3.26-2.05-6.39-4.3-9.6-6.42-2.78-1.81-5.6-2.86-9.06-1.36-4.01 1.8-7.12 4.29-8.05 8.78a24.41 24.41 0 00-.32 5c.1 1.83.84 3.56 2.1 4.9a9.97 9.97 0 006.24 3.32c2.72.47 5.47.76 8.23.89 6.91.34 13.82.54 20.74.23 4.99-.21 9.98-.34 14.98-.58 1.23 0 2.48-.3 3.92-.5 0-1.2 0-2.26-.16-3.33-.11-.7-.2-1.42-.23-2.14a2.31 2.31 0 00-1.23-2.38 3.26 3.26 0 01-1.56-3.08 3.62 3.62 0 012.88-3.5 4.54 4.54 0 014.45 2.14 3.71 3.71 0 01-1.16 4.36c-.49.42-.9.8-.81 1.5.36 2.01.54 4.02.8 6.4zM277 127.6l4-.18c4.2-.2 8.41-.34 12.66-.62 5.43-.34 10.86-.8 16.38-1.19 3.62-.29 7.44-.47 11.14-.83a22.7 22.7 0 004.9-1.1 3.14 3.14 0 002.16-4.58 19.52 19.52 0 00-1.72-3.77 10.85 10.85 0 00-4.85-4.9c-1.59-.7-3.15-1.48-4.74-2.2a19.56 19.56 0 00-8.45-1.51c-3.24 0-6.5.38-9.71.18a9.6 9.6 0 01-8.27-5.28c-.69-1.27-1.14-2.64-1.81-3.95-1.4-2.82-2.75-3.78-5.88-3.02a13.13 13.13 0 00-5.6 3.5 2.3 2.3 0 00-.77 1.9c.13 6.85.22 13.7.36 20.55.02 2.22.13 4.43.2 7zm170.96 96.56c-3.27 0-6.33-.23-9.39-.23-3.05 0-6.5.23-9.73.23-5.18 0-10.35 0-15.53-.23a2.32 2.32 0 00-2.44 1.66c-.96 2.32-2 4.62-2.95 6.95-.83 2.05-1.55 4.13-2.42 6.43l42.46-.71v-14.1zM218.2 271.68c-18.1 5.63-36.19 9.97-54.43 14.8 1.58.52 31.12 1.55 32.57 1.17-.4-.81-.83-1.59-1.16-2.4-.74-1.94 0-2.84 2.03-2.79l10.46.18h3.62c0-.52 0-.81-.1-1.1a3.98 3.98 0 012.43-4.24c.81-.38 1.65-.74 2.48-1.05.83-.3 1.36-.4 2.12-.63l-.02-3.94zM63.33 260.17a10.4 10.4 0 009.26-5.27 9.04 9.04 0 00-3.02-12.63 8.38 8.38 0 00-4.34-1.06 9.87 9.87 0 00-10.17 8.01c-1.7 6.23 3.58 11.33 8.27 10.95zm9.04-37.3c.98.32 1.81.55 2.66.91a1.36 1.36 0 001.94-.68 23.8 23.8 0 002.53-5.78c.41-1.37.93-2.72 1.56-4.01a4.38 4.38 0 013.44-2.64 2.14 2.14 0 001.95-1.81c.44-1.75.8-3.52 1.05-5.3.28-2.9 1.5-5.63 3.47-7.77a41.98 41.98 0 003.91-5.15 6.31 6.31 0 001.18-4.62c-.18-1.2-.85-1.6-1.81-1.05-.64.34-1.2.82-1.63 1.4-2 2.64-3.6 5.58-4.7 8.7a10.53 10.53 0 01-5.18 6.17 14.86 14.86 0 00-6.2 5.1 82.08 82.08 0 00-3.88 7.13 4.18 4.18 0 00-.2 2.28c.41 1.95.41 3.97 0 5.92-.07.4-.1.8-.09 1.2zm-17.53 63.9c2.44.14 20.63 1.01 21.71.32v-12.26a23.52 23.52 0 01-10.85 2.3 33.75 33.75 0 01-10.97-2.03l.11 11.67zm294.36-42.29h-.14c.02-.35.02-.7 0-1.06a4.09 4.09 0 00-4.9-3.83c-.77.16-1.48.57-2.01 1.15-.78.75-1.46 1.6-2.03 2.51a22.1 22.1 0 00-2.03 3.62 39.87 39.87 0 00-2.11 5.92 3.2 3.2 0 002.96 4.23 6.65 6.65 0 006.43-2.9 21.71 21.71 0 003.38-7.23c.24-.81.33-1.65.45-2.4zM64.63 222.2c.07-.45.11-.9.13-1.35-.1-1.63-.24-3.24-.33-4.87-.25-4.92-.54-9.84-.74-14.77a5.43 5.43 0 00-2.2-4.66 9.32 9.32 0 01-2.98-4.44 89.48 89.48 0 00-1.8-4.28c-.19-.37-.62-.6-1.24-1.16a13.11 13.11 0 000 3.2c.78 2.77 1.7 5.43 2.63 8.23.7 2.06 1.57 4.06 2.2 6.12.93 2.8 1.4 5.74 1.38 8.7a25 25 0 00.29 4.65 5.6 5.6 0 002.66 4.63zm-9.73 2.34a13.8 13.8 0 00-5.27-5.92 35.43 35.43 0 01-7.67-5.97 135.27 135.27 0 00-6.26-6.22c-.95-.76-2-1.37-3.11-1.81a5.17 5.17 0 00-1.54-.15c.11.47.27.93.47 1.38.83 1.4 2 2.58 3.42 3.4 1.6.94 3.13 2 4.68 3.02a6.55 6.55 0 012.7 3.73 8.45 8.45 0 002.19 4.08c2 2 4.38 3.6 6.98 4.71a3.5 3.5 0 003.4-.25zm190.9 45.07l-.44.16v2.88c0 3.5 0 7.02-2.7 9.79v.41c3.4.36 6.8.52 10.2.5l-7.06-13.74zM69.79 222.55c.86-3 .62-6.2-.7-9.04a15.76 15.76 0 01-1.51-8.9 2.04 2.04 0 00-.83-2.38c0 1.44.1 2.83.16 4.22.2 4.74.39 9.48.54 14.22.06 1.7.15 1.88 2.34 1.7v.18z" fill="#FBF9F9"/><path d="M186.18 91.57c-2.5.97-4.29.81-5.43-.42a3.11 3.11 0 01-.38-3.53 3.38 3.38 0 014.36-1.23 2 2 0 00-.52-2.17 27 27 0 00-2.35-2.2c-.51-.46-1.14-.82-.85-1.63.18-.51 1.44-.82 2.11-.42 2.68 1.56 4.74 3.62 4.67 6.97a5.86 5.86 0 00.83 3.23 12.37 12.37 0 011.3 5.43c0 .58.12 1.16.19 1.81.25.08.51.14.78.16 1.97 0 3.96-.14 5.93-.14.85 0 1.38-.2 1.54-1.12.25-1.36.65-2.7.87-4.05.05-.57.02-1.13-.1-1.69a22 22 0 01-3.25-1.55 3.22 3.22 0 01-1.34-3.17 2.34 2.34 0 011.81-2.19 9.75 9.75 0 012.59 0 9.5 9.5 0 00-1.36-3.94c-.16-.31-.4-.6-.6-.9a1.25 1.25 0 01.26-1.82c.6-.47 1.15 0 1.59.36a11.89 11.89 0 012.93 5.92 5.78 5.78 0 01-.1 4.42c-.11.28-.11.6 0 .88.44 2.8.18 5.68-.75 8.36 0 .27-.13.56-.22.98l6.9 2.06A17.76 17.76 0 00211.2 93c-.38-.21-.76-.44-1.12-.7a3.62 3.62 0 01-1.59-3.05 2.2 2.2 0 011.32-2.19 1.97 1.97 0 012.3.56c.25.26.47.53.81.93a5.94 5.94 0 00.76-4.55c-.2-.88-.54-1.8-.8-2.58-.16-.53-.32-1.16.31-1.43a1.32 1.32 0 011.81.56 9.5 9.5 0 011.18 7.8 6.4 6.4 0 01-1.2 2.4 6.08 6.08 0 00-1.31 3.08 18.4 18.4 0 01-3 5.93c-.24.4-.53.78-.9 1.32 1.63 1.13 3.19 2.25 4.78 3.28a57.08 57.08 0 0110.37 8.38c1.37 1.4 2.62 2.95 3.9 4.47.68.76.35 1.48-.28 2.06a55.7 55.7 0 01-5.43 4.7 52.34 52.34 0 01-7.8 4.67c-4.29 2-8.47 4.42-13.17 5.43-3.42.7-6.88 1.15-10.37 1.34-2.4.05-4.8-.22-7.13-.82-4.19-.84-8.26-2.2-12.12-4.05-3.96-2-7.86-4.13-11.72-6.39a50.57 50.57 0 01-5.88-4.14c-1.49-1.2-1.47-1.68-.26-3.13.8-.97 1.7-1.86 2.68-2.66 2.68-2.14 5.32-4.3 8.14-6.24 3.1-2.17 6.3-4.17 9.61-6a39.93 39.93 0 0110.86-3.84c1.39-.31 1.46-.42 1.52-1.81a8.4 8.4 0 00-1.29-4.76zm-29.55 26.49c.73.7 1.52 1.33 2.36 1.9 4.66 2.6 9.04 5.62 14.02 7.81a71.4 71.4 0 0013.62 4.6c3.6.6 7.28.55 10.86-.16 2.1-.25 4.16-.7 6.17-1.34a125.5 125.5 0 0010-4.06 40.99 40.99 0 009.05-5.23c1.25-1 2.39-2.1 3.62-3.14-3.44-4.33-9.05-9.25-10.86-9.56v2.17c.01 2.3-.53 4.57-1.57 6.63-3.98 7.23-9.84 11.7-18.38 12.14a12.88 12.88 0 01-11.6-4.92 16.98 16.98 0 01-3.84-7.06 24.3 24.3 0 01.7-12.67c.34-.94.59-1.8.91-2.9-5.66.34-20.84 11.2-25.06 15.79zm27.49-28.72c-.36-.6-.76-.74-1.23-.36a.5.5 0 000 .47c.32.43.74.34 1.23-.1zm13.7-1.8l.23-.12c0-.18-.06-.36-.14-.52-.16-.16-.35-.3-.55-.4l-.2.22.66.81zM148.85 51.66c-2.64.15-5.28.35-7.92.42-1.38 0-2.77-.3-4.14-.27-3.84 0-7.7.25-11.53.32-3.84.07-7.82.11-11.74.16-5.83 0-11.67.22-17.5.28H82.65c-5.23 0-10.48 0-15.69-.46a39.98 39.98 0 01-15.54-3.62 15.45 15.45 0 01-8.54-17.85 12.88 12.88 0 015.43-8.5 17.04 17.04 0 0110-3.14c3.8.2 7.51 1.11 10.97 2.68a27.88 27.88 0 0010.62 2.53c2.8-.07 5.48-1.08 7.64-2.86 2.26-1.68 4.32-3.61 6.5-5.42 2.85-2.4 5.64-4.89 8.62-7.11a25.59 25.59 0 018.63-4.44 13.23 13.23 0 0113.21 3.75 21.33 21.33 0 013.62 7.02 13.67 13.67 0 0012.27 9.17c4.43.45 8.86.82 13.26 1.49 2.94.41 5.75 1.45 8.25 3.05a25.94 25.94 0 018.88 9.52 9.05 9.05 0 01.62 7.5 5.43 5.43 0 01-2.03 2.65 16.52 16.52 0 01-9.04 2.7c-3.79.23-7.57.36-11.35.54l-.13-.1zm7.57-2.95v-.34h3.96c2.18 0 4.33-.5 6.28-1.49a4 4 0 002.03-5.62 19.38 19.38 0 00-13.63-12.16c-4.1-1-8.29-1.6-12.5-1.81-3.12-.12-6.18-.81-9.05-2.03a10.3 10.3 0 01-5.43-4.36c-1.44-2.7-2.91-5.43-4.25-8.14a9.37 9.37 0 00-10.28-5.92c-2.38.4-4.65 1.3-6.67 2.63a65.13 65.13 0 00-10.13 7.81c-2.56 2.21-5.03 4.53-7.71 6.55a16.12 16.12 0 01-15.58 2.32c-3.13-1.03-6.24-2.17-9.4-3.2a19.14 19.14 0 00-9.62-.7 10.22 10.22 0 00-6.58 4.1 13.62 13.62 0 00-2 11.18 9.2 9.2 0 003 5.43c3.17 2.7 7.03 4.5 11.16 5.17 3.36.65 6.77 1.02 10.2 1.09 3.62 0 7.08.3 10.62.36h27.27c2.51 0 5.05-.16 7.56-.23 3.37 0 6.73-.2 10.1-.28 4.09-.09 8.2-.2 12.28-.23 1.92 0 3.86.16 5.77.13 1.92-.04 3.46-.3 5.2-.35 2.48.06 4.94.1 7.4.1zM109.12 106.36c.38.3.7.65.94 1.07.6 1.17 1.05 2.42 1.58 3.62a5.78 5.78 0 003.61 3.61l.33.17a1.5 1.5 0 011.14 1.45 1.57 1.57 0 01-1.17 1.44c-1 .44-2.03.73-3.05 1.1a5.1 5.1 0 00-3.61 5.05c0 .82-.19 1.41-1.14 1.52-.96.11-1.45-.12-1.65-1.2a11.6 11.6 0 00-1.81-3.9 6.98 6.98 0 00-2.98-2.5c-.87-.43-2.01-.7-1.98-1.8.04-1.1 1.2-1.38 2.08-1.7a6.83 6.83 0 004.6-5.54 3.32 3.32 0 013.11-2.4zm-2.08 13.06l4.4-3.44-3.37-4.72a8.54 8.54 0 01-3.85 4.74l2.82 3.42zM264.27 137.7c-.33.4-.7.78-1.12 1.1-.59.33-1.19.62-1.8.88a4.6 4.6 0 00-2.33 2.86c-.02.3-.12.58-.28.83-.4.42-.88.74-1.42.94-.63.13-1.1-.32-1.35-.96-.3-.71-.64-1.41-1.02-2.1a3.87 3.87 0 00-2.8-2.04c-.41-.06-.81-.2-1.18-.4-1.2-.72-1.12-1.93.15-2.58l2.88-1.47a3.62 3.62 0 001.8-2.51c.15-.67.31-1.36 1.13-1.45.81-.1 1.3.47 1.64 1.16.35.68.62 1.03.87 1.57a4.3 4.3 0 003.24 2.57c.92.13 1.38.58 1.6 1.6zm-5.17 0l-1.94-2.14-2.13 1.7 2.46 2 1.6-1.57zM126.02 95.9c.58.54 1.12.8 1.29 1.24a7.4 7.4 0 004 4.16c1.12.51 1.06 1.6 0 2.18-.42.23-.9.34-1.33.54a4.42 4.42 0 00-2.6 2.57c-.16.49-.76 1.21-1.1 1.17a2 2 0 01-1.44-1 4.4 4.4 0 00-3.43-3.07 1.43 1.43 0 01-1.18-1.4c0-.75.56-1.02 1.12-1.28l.96-.5a4.53 4.53 0 002.53-2.99c.13-.54.7-.97 1.18-1.63zm-1.9 6.13l2 1.66 1.55-1.39-1.81-1.97-1.74 1.7z" fill="#FBF9F9"/><path d="M349.2 244.48c-.14.76-.23 1.53-.45 2.28a21.71 21.71 0 01-3.38 7.23 6.65 6.65 0 01-6.43 2.9 3.22 3.22 0 01-2.96-4.23c.54-2.03 1.25-4 2.11-5.92a22.1 22.1 0 012.03-3.62 13.6 13.6 0 012.03-2.52 3.86 3.86 0 014.32-.94 4.09 4.09 0 012.59 3.62c.02.36.02.71 0 1.07l.14.13zM156.63 118.06c4.22-4.58 19.4-15.45 24.94-15.8-.33 1.02-.58 1.98-.9 2.92a24.3 24.3 0 00-.71 12.66c.7 2.63 2 5.05 3.83 7.06a12.87 12.87 0 0011.6 4.92c8.54-.43 14.48-4.9 18.38-12.14a14.57 14.57 0 001.58-6.62v-2.17c1.8.3 7.42 5.23 10.85 9.55-1.2 1.05-2.33 2.16-3.61 3.15a40.99 40.99 0 01-9.05 5.23 125.63 125.63 0 01-10 4.05c-2.01.65-4.08 1.1-6.18 1.34-3.58.72-7.26.77-10.85.16a71.48 71.48 0 01-13.63-4.6c-4.94-2.18-9.35-5.2-14.02-7.8-.8-.58-1.54-1.22-2.23-1.9zM184.12 89.35c-.49.45-.9.55-1.3.11a.48.48 0 010-.47c.54-.32.94-.23 1.3.36zM197.81 87.45l-.65-.81.2-.22c.2.1.38.24.54.4.1.16.14.34.15.52l-.24.11z" fill="#1B4ECC"/><path d="M352.68 120.72l-7.75.55c-.38.1-.78.08-1.16-.04a2.55 2.55 0 01-1-1.32c0-.25.6-.89 1.02-.98 1.58-.34 3.19-.6 4.8-.74 3.42-.23 6.84-.36 10.24-.5.72 0 1.45.05 2.17.14a1.23 1.23 0 010 2.46c-1.9.18-3.82.36-5.74.49-.92 0-1.75-.06-2.58-.06zM343.05 107.84c-1.01.09-2.03.23-3.04.25-.29 0-.58-.27-.89-.43.2-.33.31-.87.58-.96 1.31-.43 2.66-.75 4.02-.96 4.67-.58 9.32-1.1 13.99-1.6 1.3-.14 1.93.24 1.97 1.02.03.78-.6 1.41-1.81 1.52-3.4.29-6.84.5-10.24.8-1.5.12-2.99.36-4.49.52l-.09-.16zM349.47 111.28c.17 0 .47-.1.64 0 .4.2.74.48 1 .85a.9.9 0 01-.66 1.28c-.45.13-.92.2-1.4.22l-4.48.34c-.25 0-.54.11-.72 0-.5-.25-1.23-.52-1.36-.95-.22-.76.63-.96 1.18-1.04 1.91-.27 3.81-.47 5.8-.7z" fill="#FBF9F9"/></svg>