<svg width="135" height="112" viewBox="0 0 135 112" fill="none" xmlns="http://www.w3.org/2000/svg"><g clip-path="url(#clip0)"><path d="M20.85 90.5c-.55-.15-1.08-.25-1.58-.43-.84-.29-1.65-.64-2.48-.93a11.67 11.67 0 01-3.54-1.95c-.8-.67-1.72-1.2-2.53-1.87a13.28 13.28 0 01-2.77-3.15c-.75-1.28-1.64-2.5-2.4-3.8-.5-.86-.87-1.81-1.31-2.72-.16-.32-.36-.63-.53-.96-.19-.37-.36-.74-.5-1.13-.58-1.57-1.13-3.13-1.67-4.7-.14-.46-.23-.92-.3-1.38-.58-2.6-.74-5.3-.47-7.96.18-1.68.49-3.35.93-4.98.68-2.14 1.5-4.23 2.44-6.26a37.61 37.61 0 012.23-3.7 14 14 0 012.3-2.86c.55-.53 1.05-1.1 1.58-1.65 1.05-1 2.16-1.91 3.33-2.76A20.74 20.74 0 0118.02 35c.69-.32 1.35-.65 2.03-.98v-1.29-4.05c0-.74.12-1.48.15-2.28l.16-4.57c.04-.91.15-1.82.2-2.72.02-.34-.02-.69-.09-1.02a.54.54 0 01.38-.7c.25-.1.51-.15.78-.17a223.18 223.18 0 018.97-.28c1.32 0 2.65-.1 3.96 0 2.22.13 4.4-.1 6.6-.05a1.26 1.26 0 001.34-.98 15.9 15.9 0 011.86-3.5c.74-1 1.34-2.08 2.09-3.04.63-.8 1.34-1.55 2.1-2.22.7-.55 1.43-1.06 2.18-1.53l1.13-.82a14.72 14.72 0 014.76-2.3c1.58-.47 3.15-.95 4.75-1.34.96-.2 1.94-.34 2.92-.4C65.41.64 66.54.59 67.66.6c1.72 0 3.43.14 5.15.26 1.07.08 2.13.36 3.19.52 1.78.28 3.53.72 5.23 1.32.28.1.57.18.86.22.64.07 1.26.27 1.81.6a36.7 36.7 0 013.19 1.85c.91.7 1.78 1.46 2.61 2.27.24.2.46.43.7.63.78.73 1.46 1.54 2.04 2.43.74 1.04 1.57 2.08 2.27 3.17.57.84.95 1.8 1.1 2.8 0 .24.1.48.15.74 1.15 0 2.27-.04 3.4 0 1.11.05 2.33.07 3.5 0 .75 0 1.53-.06 2.3-.09l7.52-.2a1.28 1.28 0 011.53 1.22c.06.5.08.99.07 1.48v9.59c0 .68-.1 1.37-.12 2.06 0 .53.06.6.54.8.48.2.93.45 1.4.66.96.46 1.97.88 2.91 1.4.7.4 1.38.86 2.02 1.36 1.34.97 2.58 2.08 3.7 3.3a19.02 19.02 0 013.37 4.36c.28.54.66 1.03.99 1.56 1.25 2 1.9 4.26 2.78 6.42.55 1.56.93 3.17 1.11 4.8.18 1.02.26 2.04.24 3.07-.04.83.1 1.68 0 2.5-.17 1.65-.43 3.3-.79 4.92A30.06 30.06 0 01131.2 70c-.12.34-.2.7-.3 1.05a5.06 5.06 0 01-.76 1.8 2.3 2.3 0 00-.3.58c-.84 2-1.88 3.9-3.11 5.68a13.55 13.55 0 01-2.3 3.05c-.65.56-1.26 1.18-1.94 1.7a18.38 18.38 0 01-4.22 2.8c-1.37.52-2.67 1.27-4.15 1.47-.45.08-.46.38-.47.7 0 .59-.03 1.18-.05 1.77-.12 2.61-.28 5.19-.34 7.84-.1 3.47-.1 6.95-.15 10.43 0 .32 0 .64.06.96.06.78-.15 1.06-.92 1.05-.77-.02-1.57-.11-2.37-.12h-4.06c-.96-.04-1.92 0-2.87.12-1.34.24-2.65-.08-3.97 0-1.54.11-3.1 0-4.65 0-1.55 0-3.1.14-4.65.17H77.62c-1.7 0-3.4-.1-5.1-.13-2.41-.06-4.83-.1-7.24-.14l-7.4-.12c-1.9-.04-3.79-.14-5.68-.14-2.78 0-5.57.07-8.36.14-1.62.06-3.24.22-4.86.27-2.07.07-4.14.08-6.2.11-1.12 0-2.23.06-3.33.05-2.14 0-4.27-.05-6.42-.07h-.8c-.5 0-.74-.23-.74-.74v-2.5c-.05-1.83-.09-3.65-.17-5.48-.07-1.55-.24-3.1-.3-4.64-.08-2.17-.08-4.34-.11-6.5-.02-.2-.05-.4-.06-.67zm90.92-52.26c-.23-.32-.53-.08-.79-.11-.07-.06-.13-.15-.2-.16-.66-.07-1.33-.1-1.98-.19a2.65 2.65 0 01-.9-.25 1.12 1.12 0 01-.57-1.05c0-.45.37-.62.7-.74a3.7 3.7 0 012.1-.17c1.12.17 2.21.48 3.25.93.15.03.3.06.45.07a2.4 2.4 0 00-.83-.45c-1.48-.46-2.89-.97-4.44-.74-.3.01-.6-.03-.87-.14a1.03 1.03 0 01-.65-1.3c.12-.54.53-.67.96-.79a4.13 4.13 0 011.97 0l1.94.43c.34.21.73.33 1.12.33a1.74 1.74 0 00-1.12-.32 5.9 5.9 0 00-.87-.37c-.74-.18-1.54-.32-2.31-.47a.98.98 0 01-.81-.74c-.08-.4.21-.6.48-.74.26-.14.54-.22.84-.22.74.04 1.41.15 2.12.25.7.1 1.29.23 2.02.36.08-1.1.2-2.13.2-3.15v-5.64c0-1.41.08-2.83.1-4.24-.01-.18-.04-.37-.08-.55h-8.7c-2.87 0-5.74-.13-8.67-.19.16.5.25 1.01.3 1.53 0 .45.44.92-.08 1.48-.2-.19-.36-.4-.5-.63-.35-.81-.66-1.64-.92-2.49-.28-1.12-.73-2.2-1.34-3.18a55.51 55.51 0 00-3.88-5.18c-.32-.37-.67-.71-1.04-1.03a15.17 15.17 0 00-2.58-2.3c-1.03-.62-2.08-1.22-3.12-1.82a185.42 185.42 0 00-3.23-1c-.96-.3-2.11-.66-3.19-.93a28.2 28.2 0 00-2.96-.54c-1.24-.16-2.5-.23-3.7-.33a23.4 23.4 0 00-2.4-.12c-1.12 0-2.22.13-3.37.22-.65.04-1.3.12-1.95.25-1.34.32-2.68.67-4 1.05A19.81 19.81 0 0053 5.1c-1.08.7-2.16 1.37-3.17 2.16-.87.64-1.67 1.38-2.36 2.22a51.7 51.7 0 00-3.11 4.57 14.9 14.9 0 00-1.76 3.98c-.23.9-.45 1.8-.63 2.71a1.88 1.88 0 00.4 1.48 1.9 1.9 0 00.82-1.3c.22-.74.47-1.43.68-2.17.12-.41.36-.46.74-.36 0 .22.07.45 0 .6-.35.94-.64 1.9-.87 2.88-.09.25-.16.46.08.74a1.76 1.76 0 001.06-1.31c.25-.7.41-1.42.61-2.13.06-.2.15-.43.38-.34a.52.52 0 01.24.45c-.06.46-.21.91-.3 1.36-.13.6-.23 1.2-.35 1.8-.05.3.08.46.37.55.4-.47.68-1.04.8-1.64.14-.68.3-1.35.46-2.03.02-.14.1-.28.2-.38a.78.78 0 01.51-.17c.12 0 .22.24.27.4.02.11 0 .23-.04.35l-.49 1.92c-.06.29-.14.57.15.8.41-.15.54-.52.7-.84.27-.5.42-1.06.75-1.54.69-1.16 1.41-2.3 2.14-3.43a3 3 0 01.52-.63c1.4-1.34 3-2.47 4.73-3.37.74-.35 1.41-.7 2.13-1.02a17.3 17.3 0 014.08-1.48c1.7-.35 3.44-.58 5.18-.68.94 0 1.89.05 2.81-.05a9.78 9.78 0 013.15.18l3.9.83c1.65.4 3.2 1.16 4.54 2.22.37.28.74.54 1.15.8.7.4 1.34.95 1.86 1.59.22.33.47.64.74.94.77.99 1.43 2.05 1.96 3.19.51.94.42 2.01.62 3.02a.43.43 0 01-.27.54c-.28.08-.42-.1-.53-.3-.22-.45-.4-.93-.5-1.43-.24-.69-.52-1.36-.84-2.02-.14-.34-.34-.6-.78-.52-.17.02-.34.02-.52 0-1.74 0-3.49.08-5.24.08-1.74-.01-3.34-.06-5-.11-.45 0-.89-.08-1.32-.09h-3.6c-.75 0-1.49.08-2.12.12l-.4 14.15c.55-.4 1-.68 1.42-1 .64-.52 1.42-.82 2.23-.88a4.8 4.8 0 013.47 1.18 5.93 5.93 0 012.04 4.04c.05 1-.01 1.99-.18 2.97-.07.7-.23 1.4-.47 2.07-.5 1.48-2.22 2.17-3.46 2.17a7.5 7.5 0 01-2.3-.38 13.8 13.8 0 01-2.16-.7c-.07-.04-.18 0-.37 0 .38 4.3 0 8.58-.1 12.87.19.05.38.07.57.08.37 0 .74-.08 1.1-.07 1.3.05 2.6.13 3.91.16 2.63.05 5.27.04 7.9.1 1.5 0 2.91.12 4.36.23 1.22.09 1.25.2.8 1.35-.44 1.15-.79 2.13-1.16 3.2a4.16 4.16 0 00-.1 2.22 1.95 1.95 0 001.48 1.6 8.3 8.3 0 003.51.3c1.07-.18 2.14-.4 3.2-.64a2 2 0 001.36-1.06 3.91 3.91 0 00.2-3.29c-.35-.92-.83-1.79-1.25-2.68-.2-.41-.1-.66.33-.74.16-.03.34-.05.5-.05.92 0 1.83-.08 2.74-.1 1.85 0 3.7-.03 5.55 0 1.83.05 3.7.16 5.54.22 1.55.06 3.1.08 4.65.1.15 0 .3-.03.44-.07v-1.65c0-1.52.04-3.05.06-4.56.05-1.37.03-2.74-.06-4.1-.05-.52 0-2.29 0-2.4 0-.12.1-.62-.07-.82-.74-.92-2.96-1.69-3.29-1.8a2.39 2.39 0 01-1.48-1.24c-.31-.62-.08-1.03.6-1.01.7.01 1.32.12 1.98.18l.78.11c.49.3 1.01.52 1.56.67l.08-.2-1.67-.53zM22.23 40.3c-.58.04-1.14.29-1.55.7l1.54-.74.78-.11c.64-.06 1.27-.15 1.9-.18.63-.03.74.2.74.68a1.56 1.56 0 01-.95 1.32c-.3.1-.6.23-.87.4-.14.09-1.94.74-2.22 1.27l-.04 2.81c-.04 1.49-.22 2.92-.12 4.38.08 1.13.05 2.23.08 3.39 0 .24.04.48.06.74h.74c1.65-.04 3.3-.12 4.95-.12 1.65 0 3.2.1 4.81.14h2.88c.34 0 .69.04 1.03 0 .34-.05.77.16 1.16-.1-.03-.1-.08-.2-.13-.29a7.1 7.1 0 01-1.3-3.88 5.48 5.48 0 013.94-5.75 12.6 12.6 0 016-.26c1.8.25 3.5.94 4.96 2 1.74 1.34 2.14 3.12 1.86 5.13-.2.81-.44 1.61-.75 2.39-.06.18-.08.36-.14.62 1.72.08 3.37-.1 5-.13 1.64-.03 3.36-.05 5.03-.12 1.68-.07 3.28.12 4.97 0v-2.07c.08-1.57.26-3.14.3-4.72.07-1.98.04-3.99.05-5.98a1.8 1.8 0 00-.24-1.2.48.48 0 010-.46.6.6 0 01.5-.16c.3.1.59.24.84.44.44.34.94.6 1.48.74.53.12 1.05.26 1.59.37.47.1.94.17 1.43.19a2.58 2.58 0 002.73-2.28c.08-.65.28-1.3.33-1.95a6.5 6.5 0 00-.3-3.31 4.54 4.54 0 00-4-2.92c-.37-.05-.74 0-1.08.14-1.06.55-2.23.99-2.97 1.96-.14.12-.3.23-.48.3a1.8 1.8 0 01-.28-1.48c0-.68.15-1.36.16-2.04 0-1.85 0-3.7.04-5.54 0-1.13.18-2.22.21-3.39a9.63 9.63 0 000-3.06c-.24 0-.48-.05-.74-.06l-4.35-.05c-1 0-2.01-.12-3.01-.06-1.47.1-2.93.1-4.4 0-1.07-.05-2.15 0-3.2 0-.84.95-1.5 2.05-1.93 3.25-.18.5-.47.95-.86 1.3-.68.63-.74.63-1.49.11h-.14c-.56 1.15-1.2 1.26-2.18.34a1.34 1.34 0 01-1.83-.24c-.74.2-1.1.13-1.32-.32a3.62 3.62 0 01-.35-2.57l.6-2.33h-.5l-1.32.1c-.98.06-1.95-.08-2.97 0-1.57.13-3.15.08-4.73.1-1.41 0-2.83 0-4.26.06-.74 0-1.48.07-2.22.1-1.31-.04-2.63.01-3.94.16-.2 0-.42.06-.7.1v3c0 2.16 0 4.32-.09 6.48-.09 1.88 0 3.77.06 5.65 0 .05 0 .09.11.22l.88-.12c.9-.13 1.8-.28 2.7-.37.3 0 .59.07.84.22.27.15.55.35.48.74a.96.96 0 01-.8.74c-.3.03-.6.07-.88.13-.8.1-1.58.35-2.3.7-.92.02-1.8.38-2.46 1l2.45-1c.86-.18 1.73-.36 2.6-.52.56-.1 1.13-.04 1.66.17a1.04 1.04 0 01-.11 2c-.34.07-.68.1-1.02.1h-1.02a12.1 12.1 0 00-4.07 1.1c.17.07.37.07.54 0 1.02-.41 2.1-.71 3.19-.88.7-.17 1.43-.12 2.1.11.34.15.74.32.7.75a1.14 1.14 0 01-.56 1.05c-.26.13-.54.22-.83.25-.41.04-.84 0-1.25.04-.34.08-.67.17-1 .3-.23.2-.53-.01-.75.28zm63.08 15.85c-.66 0-1.24-.1-1.83-.1-3.84 0-7.69-.1-11.54-.1-1.6-.1-3.2-.08-4.78.08h-.3c-.31-.04-.62-.1-.94-.1h-7.18c-1.18 0-2.16.08-3.24.14-.6 0-1.19.08-1.77.1h-2.8c-.46 0-.74-.19-.66-.65.06-.38.17-.76.3-1.13.27-.84.6-1.67.82-2.53a4.02 4.02 0 00-1.87-4.51 9.2 9.2 0 00-2.8-1.15c-1.62-.42-3.3-.6-4.97-.53a6.4 6.4 0 00-3.33 1.28 3.45 3.45 0 00-1.55 2.18 6.5 6.5 0 00.8 4.84c.23.34.45.7.65 1.07.16.33 0 .58-.33.67h-.52c-.96.05-1.92.12-2.88.13h-6.67c-1.92 0-3.84.08-5.76.14-.57 0-.62.1-.64.67-.05 1.55-.1 3.1-.13 4.65 0 .61.07 1.23.08 1.84 0 1.66 0 3.3.03 4.96.05 1.82.15 3.65.19 5.47.04 2 0 3.99.07 5.99.06 2.12.17 4.24.26 6.36.05 1.55.16 3.1.1 4.64-.08 2.64 0 5.28.11 7.91.08 2 .22 3.99.31 5.98.05 1.08.06 2.17.1 3.25 0 .74.04 1.48.07 2.34h1.48c1.44 0 2.87.05 4.3.05 1.65 0 3.3-.11 4.95-.07 2.54.06 5.07-.14 7.6-.25 2.16-.1 4.34-.22 6.5-.27 2-.04 4 0 6 0 .93 0 1.86 0 2.8.05 1.98.05 3.94.14 5.93.18h9.1l8.8.17H85c2.16 0 4.33.12 6.5 0 2.49-.1 4.97-.11 7.46-.07h4.07c1.06 0 2.11-.04 3.17-.04h5.83v-2.66-4.66c.07-2.91.15-5.82.28-8.72.15-3.67.45-7.33.44-11 0-1.87.2-3.7.25-5.62.07-2.38.11-4.77.12-7.17 0-1.87-.08-3.74-.1-5.62 0-.9.11-1.82.14-2.73l.12-4.13v-1.22c-3.17-.05-6.25-.05-9.32-.14-3.08-.08-6.18-.08-9.36.1.07.2.16.37.26.55A6.1 6.1 0 0195.99 60a3.85 3.85 0 01-3.12 4.3c-.86.2-1.74.33-2.62.45-1.37.2-2.77.1-4.1-.3a2.96 2.96 0 01-2.23-2.49c-.16-.87-.1-1.77.19-2.62.38-.93.77-2 1.2-3.19zm-64.63-12.3c-.63.07-1.22.33-1.7.75-.62.5-1.14 1.15-1.79 1.63a14.08 14.08 0 00-2.96 3.61 44.63 44.63 0 00-2.23 3.9c-.3.55-.53 1.12-.7 1.71a47.64 47.64 0 00-1 5.88c-.08.83-.06 1.49-.1 2.23a7.8 7.8 0 00.39 3.2c.2.55.34 1.12.43 1.7.27 1.48.8 2.9 1.58 4.2.37.68.79 1.35 1.23 2 .52.9 1.13 1.74 1.81 2.52 1.32 1.35 3.06 2.08 4.84 2.88-.12-12.13-.4-24.13.2-36.2zm93.5 33.79c.92-.5 1.86-.94 2.73-1.48.6-.35 1.13-.8 1.57-1.32a33.13 33.13 0 003.71-6.03c.14-.3.26-.63.33-.96.28-1.08.47-2.18.83-3.22.32-.93.46-1.92.4-2.9a37.1 37.1 0 00-.34-4.33c-.2-1.86-.66-3.68-1.34-5.43-.15-.35-.35-.7-.52-1.04-.3-.59-.58-1.2-.92-1.76-.49-.82-1-1.63-1.55-2.4a13.8 13.8 0 00-1.48-1.82c-.8-.83-1.7-1.57-2.51-2.38a.93.93 0 00-.87-.36c0 .25-.08.47-.09.7v9.49c0 1.2.05 2.4.17 3.6.08 1.24.06 2.48-.06 3.71-.05 1.75-.17 3.5-.2 5.25 0 1.97.06 3.94.09 5.93 0 .5.05.98.05 1.48v5.27zm-28.6-60.17l.11-.18c-.47-.62-.9-1.28-1.43-1.85-.46-.44-.96-.84-1.48-1.2-.76-.61-1.55-1.2-2.37-1.73-.74-.44-1.52-.8-2.33-1.07-1.14-.37-2.32-.64-3.5-.9-.81-.21-1.64-.34-2.47-.4-1.25-.06-2.5 0-3.7.04a22.07 22.07 0 00-4.61.54c-1.05.23-2.1.5-3.13.83-.74.23-1.37.64-2.08.92a21.29 21.29 0 00-5.68 3.36c-.51.35-.91.84-1.15 1.42h.56c.66-.06 1.32-.07 1.99-.05 1.94.17 3.87-.1 5.81 0 1.17.05 2.35 0 3.53 0 1.6 0 3.18.17 4.78.1 3.56-.2 7.13-.2 10.7 0 1.82.11 3.64.12 5.46.16.34.02.68 0 1 0zm27.86 16.55l-.05.15.74.41a.6.6 0 00.2 0l.04-.1-.93-.46zM117.11 106.33l6.2.12c1.34 0 2.7 0 4.03.06.74 0 1.41.2 2.12.25 1.08.07 2.15.1 3.23.15.4 0 .81 0 1.22.05.4.04.51.33.24.61a.94.94 0 01-.57.28c-1.38.08-2.77.08-4.15 0-1.88-.17-3.78-.23-5.66-.39-1.67-.14-3.33.05-4.98 0-1.08-.05-2.16-.15-3.24-.11a.79.79 0 01-.47-.15.34.34 0 01-.12-.44.34.34 0 01.12-.12c.17-.14.37-.23.59-.27h1.48l-.04-.04zM.92 108.1c0-.56.16-.79.62-.83 1.13-.1 2.23-.25 3.38-.33 1.48-.1 2.97-.14 4.5-.18 1.67-.05 3.34-.05 5-.05.54 0 1.07.05 1.61.06h1.65l.57.7c-.1.1-.18.22-.28.25-.74.27-1.55.29-2.3.05-.2-.09-.42-.14-.63-.14-2.46.08-4.92.19-7.41.28-.74 0-1.53 0-2.3.05-1.15.05-2.3.14-3.45.2a10 10 0 01-.96-.06zM116.21 18.36c.66-.43 1.26-.86 1.9-1.23 1.54-.9 3.09-1.8 4.7-2.6a20.6 20.6 0 013.2-1.15.57.57 0 01.56.44.7.7 0 01-.46.74c-1 .42-2.02.79-3.01 1.23a64.24 64.24 0 00-3.47 1.62c-.8.4-1.56.91-2.34 1.35-.4.25-.7.15-1.08-.4zM109.65 12.93c.17-.63.31-1.28.52-1.9.39-1.17.84-2.3 1.21-3.47.29-1.07.67-2.11 1.14-3.11.25-.48.48-.66.74-.57.26.1.44.46.27.95-.57 1.57-1.17 3.13-1.75 4.7-.47.94-.85 1.93-1.12 2.96-.09.38-.24.74-.44 1.07a.37.37 0 01-.3.16c-.05 0-.17-.1-.19-.18a3.7 3.7 0 01-.03-.59l-.05-.02zM112.9 14.12c.49-.7.91-1.36 1.4-1.97.87-1.1 1.77-2.16 2.67-3.23a4.2 4.2 0 01.76-.69.57.57 0 01.62.12c.19.25.09.45-.1.66-.56.65-1.1 1.3-1.64 1.95L114.9 13c-.06.07-.13.14-.21.2-.3.28-.64.53-.92.83-.28.3-.46.35-.88.1zM121.6 22.9a.74.74 0 01-.8.55 12.68 12.68 0 01-3.04-.88.6.6 0 01-.27-.74c.14-.28.36-.25.63-.18.9.26 1.8.48 2.7.74.22.08.44.2.65.32.07.02.1.14.13.18zM107.22 12.36c-.1-.27-.17-.54-.22-.83-.1-1.22-.17-2.46-.24-3.7 0-.3-.08-.68.35-.79.24-.05.44.25.44.74 0 1.03 0 2.05-.05 3.07 0 .48-.04.97-.07 1.45l-.21.06z" fill="#1B4ECC"/><path d="M90 75.81c.56-.68.98-1.44 1.27-2.27l.26-.6c.14-.35.38-.43.8-.22-.08 1.35-.97 2.32-1.73 3.42l1.23.98c1.2-.9 1.6-2.35 2.42-3.47.4.12.52.35.4.64-.19.55-.44 1.08-.74 1.57-.45.57-.93 1.12-1.43 1.64l.63.47a9.63 9.63 0 002.28-2.89c.07-.18.18-.35.32-.48a.57.57 0 01.45-.12.53.53 0 01.22.41 2.36 2.36 0 01-.64 1.53c-.63.74-1.32 1.4-2.02 2.13 0 .15.13.48 0 .66-.22.41-.53.77-.91 1.05a20.27 20.27 0 01-4.92 2.47c-.83.23-1.67.41-2.52.53-1.28.27-2.6.3-3.9.07-1.08-.26-2.13-.69-3.2-1.05a14.41 14.41 0 01-4.03-2.42c-.58-.45-.66-.86-.14-1.42a9.85 9.85 0 011.86-1.65c1.3-.9 2.68-1.66 4.12-2.3a12.5 12.5 0 013.41-.85c.52-.03 1.04 0 1.55.07.39.06.74.21 1.14.28.88.15 1.72.5 2.44 1.02.45.3.91.56 1.39.8zm-10.64-.05a22.68 22.68 0 00-4.79 3.28c.87.6 1.6 1.2 2.43 1.67.96.52 1.95.97 2.97 1.37.77.32 1.58.53 2.41.62a16.7 16.7 0 006.55-1.1c.81-.35 1.58-.8 2.37-1.2a5.6 5.6 0 001.76-1.37 37.05 37.05 0 00-4.29-2.92c.04.46.04.92 0 1.38a5.25 5.25 0 01-2.96 3.87c-1 .5-2.1.73-3.2.66a3.32 3.32 0 01-3.13-2.73c-.12-.57-.13-1.17-.24-1.75-.1-.46-.05-.93.13-1.37.01-.13 0-.27-.01-.41zM62.96 78.56l-.74.6c-.5.39-1 .74-1.52 1.14a14.82 14.82 0 01-3.65 1.75c-2.13.8-4.45.97-6.67.49a13.64 13.64 0 01-3.28-1.29c-1.1-.5-2.15-1.08-3.15-1.76l-.25-.16c-.53-.42-.57-.6-.35-1.27a7.08 7.08 0 01-2.28-2.45 5.7 5.7 0 01-.36-.87c-.13-.34 0-.52.43-.65.3.65.65 1.29 1.02 1.9.46.63.96 1.23 1.48 1.8l.96-.98c-.04-.1-.1-.18-.16-.26a5.83 5.83 0 01-1.9-2.66.74.74 0 01.16-.87c.34 0 .42.3.52.54.17.47.37.92.6 1.36.3.5.68.94 1.08 1.48l1.03-.67a7.53 7.53 0 01-1.53-3.05c-.05-.27-.2-.59.16-.7.34-.13.48.2.58.44.16.4.27.84.42 1.26.14.36.3.72.49 1.06.25.48.47.55.88.26 1.09-.67 2.26-1.2 3.48-1.6a7.78 7.78 0 014.14-.36c1.05.08 2.08.33 3.06.74 1.93.93 3.66 2.23 5.1 3.82.3.36.3.35.25.96zm-19.07-.17c.2.16.4.31.62.45 1.28.7 2.53 1.44 3.85 2.05a9.25 9.25 0 004.5 1.12h.3c.56.02 1.13 0 1.68-.1 1.15-.26 2.27-.63 3.35-1.09a18.3 18.3 0 002.97-1.68c.34-.27.66-.56.97-.87-.99-1.32-3.66-3.26-4.67-3.4.05.67.06 1.33.15 1.98.08.5 0 1-.25 1.44-.38.65-.81 1.27-1.29 1.86-.17.21-.4.37-.65.48a5.5 5.5 0 01-6.37-1.11 4.5 4.5 0 01-.9-2.7c0-.47 0-.95-.06-1.43-1 .15-3.33 1.82-4.2 2.96v.04zM50.39 85.9c.93-.1 1.87.08 2.7.51a4.54 4.54 0 011.84 4.34 3.3 3.3 0 01-1.77 2.58c-.5.27-1 .52-1.53.74-.33.1-.67.14-1.01.12-.47 0-.94-.08-1.4-.1a2.6 2.6 0 01-1.61-.68c-.8-.59-1.4-1.4-1.72-2.35a3.65 3.65 0 01.98-3.8 3.83 3.83 0 013.22-1.33l.3-.03zM86.56 85.97c.51.07 1.02.17 1.52.32 2.11.84 2.54 3.7 1.88 5.44a3.48 3.48 0 01-2 2.22c-.94.37-1.96.45-2.96.25-.65-.09-1.29-.3-1.86-.64a3.3 3.3 0 01-1.42-2.33c-.14-.9-.03-1.82.3-2.67a3.57 3.57 0 012.89-2.34c.52-.12 1.06-.17 1.65-.25zM68.63 92.04a5.67 5.67 0 01-3.7-1.68c-.2-.22-.35-.47-.45-.74-.11-.23-.19-.5.06-.67.26-.16.44.07.62.25.35.38.72.74 1.11 1.07a3.4 3.4 0 004.18.19c.48-.34.93-.72 1.35-1.14.24-.21.41-.6.84-.43.26.1.15.43-.12.97-.65 1.25-1.86 1.61-3.06 2-.28.1-.62.14-.83.18zM100.27 32.18a6.32 6.32 0 014.15 1.33c.94.79.97 1.22.09 2.08a5.93 5.93 0 01-3.56 1.98 8.15 8.15 0 01-5.5-1.26c-1.1-.74-1.14-1.06-.17-1.98a6.67 6.67 0 015-2.15zm-4.87 3.04a7.29 7.29 0 005.93 1.43 5.52 5.52 0 003.1-2.1 6.57 6.57 0 00-3.96-1.6c.05.42.07.85.04 1.29-.07.38-.2.75-.4 1.1a1.43 1.43 0 01-1.07.59c-1.04.24-1.56-.13-2.34-1.66l-.44.25c-.2.2-.5.41-.86.7zM87.95 37.65c-1.61-.14-3.18-.18-4.53-1.1a12.05 12.05 0 01-1.24-1.06.5.5 0 01.16-.65c.48-.49 1-.95 1.53-1.37a6.73 6.73 0 015.93-1.06c1.08.2 2.04.8 2.7 1.67.37.53.38.6-.03 1.09a6.59 6.59 0 01-3.95 2.42l-.57.06zm.09-4.71c.14 1.94-.17 2.64-1.27 2.96-1.1.32-1.7-.06-2.5-1.61-.48.21-.9.53-1.24.94 2.52 2.06 6.9 2.36 8.9-.74a6.48 6.48 0 00-3.9-1.55zM95.85 45.35c-.28-.05-.58-.09-.86-.16-.1 0-.23-.17-.22-.25a.52.52 0 01.21-.35c.16-.07.32-.1.5-.1a5.61 5.61 0 002.88-1.22 1.68 1.68 0 00.7-1.34c.04-.38.14-.76.3-1.12a.52.52 0 01.42-.22.47.47 0 01.28.37c.05.45.01.92-.1 1.36a4.57 4.57 0 01-4.1 3.03zM49.08 39.28a1.2 1.2 0 01-.28 1.2 6.6 6.6 0 01-1.72 1.68 1.77 1.77 0 01-1.48.25 6.93 6.93 0 01-1.4-.32 2.96 2.96 0 01-1.9-2.28c.4-.51.96-.47 1.48-.55a144.62 144.62 0 004.82-.04c.16 0 .32.02.48.06zM36.22 33.18c.52-.44.58-.45.97 0l1.27 1.44a2.71 2.71 0 001.99.93 4.58 4.58 0 003.39-1.52c.24-.33.6-.56.99-.67a.74.74 0 01-.08.93 5.45 5.45 0 01-2.88 1.98 4.12 4.12 0 01-3.77-.66c-.33-.27-.67-.5-1-.74a2.45 2.45 0 01-.88-1.7zM46.99 34l.37-.58c.18.17.34.28.47.42a5.98 5.98 0 002.27 1.34c.33.08.68.08 1.01 0 1-.18 1.95-.54 2.83-1.04.11-.08.22-.18.31-.3.16-.18.32-.36.5-.53.17-.15.37-.42.63-.18a.6.6 0 01.05.82 4.14 4.14 0 01-1.65 1.33c-.87.45-1.8.77-2.75.96a3.27 3.27 0 01-2.9-.93c-.4-.38-.74-.83-1.14-1.3z" fill="#1B4ECC"/><path d="M79.36 75.76v.41c-.18.44-.23.91-.14 1.37.12.58.12 1.17.24 1.75a3.32 3.32 0 003.14 2.73 6.2 6.2 0 005.15-2.23c.52-.68.86-1.47 1-2.3.04-.46.04-.92 0-1.38 1.5.88 2.94 1.85 4.3 2.92a5.6 5.6 0 01-1.77 1.36c-.78.41-1.55.86-2.36 1.2-.7.32-1.42.55-2.17.69a16.7 16.7 0 01-4.38.41 8.58 8.58 0 01-2.42-.61c-1.01-.4-2-.85-2.96-1.37-.83-.47-1.57-1.07-2.43-1.67 1.45-1.3 3.06-2.4 4.8-3.28zM43.89 78.35c.87-1.14 3.2-2.81 4.18-2.97 0 .49.07.97.05 1.44 0 .97.32 1.92.9 2.7a5.5 5.5 0 006.37 1.11c.26-.1.48-.27.66-.48.48-.6.9-1.22 1.29-1.87.24-.43.33-.94.25-1.43-.1-.65-.1-1.32-.15-1.99 1.01.15 3.7 2.09 4.66 3.4-.3.31-.63.6-.97.87a18.3 18.3 0 01-2.96 1.69c-1.08.46-2.2.83-3.35 1.09a7.9 7.9 0 01-1.68.1h-.3a9.25 9.25 0 01-4.5-1.12c-1.32-.62-2.58-1.36-3.85-2.05a5.64 5.64 0 01-.6-.5zM95.4 35.22l.9-.7c.14-.09.29-.17.44-.24.78 1.52 1.3 1.9 2.34 1.65a1.43 1.43 0 001.07-.6c.19-.33.32-.7.4-1.09.02-.43.01-.87-.04-1.3 1.46.08 2.86.64 3.96 1.6a5.52 5.52 0 01-3.1 2.1 7.29 7.29 0 01-5.97-1.42zM88.04 32.94c1.44.07 2.82.62 3.92 1.57-2.03 3.08-6.41 2.78-8.9.74.34-.4.77-.73 1.25-.94.78 1.55 1.38 1.93 2.49 1.61 1.11-.32 1.38-1.04 1.24-2.98z" fill="#FBF9F9"/></g><defs><clipPath id="clip0"><path fill="#fff" transform="translate(.45)" d="M0 0h134.14v111.16H0z"/></clipPath></defs></svg>