<svg fill="none" height="249" viewBox="0 0 343 249" width="343" xmlns="http://www.w3.org/2000/svg" xmlns:xlink="http://www.w3.org/1999/xlink"><linearGradient id="a"><stop offset="0" stop-color="#22d6b8"/><stop offset=".169" stop-color="#25d7b9"/><stop offset=".307" stop-color="#2fd8bc"/><stop offset=".434" stop-color="#40dcc2"/><stop offset=".555" stop-color="#59e0c9"/><stop offset=".671" stop-color="#78e6d4"/><stop offset=".784" stop-color="#9eede0"/><stop offset=".892" stop-color="#caf5ee"/><stop offset=".997" stop-color="#fdfffe"/><stop offset="1" stop-color="#fff"/></linearGradient><linearGradient id="c" gradientUnits="userSpaceOnUse" x1="272.316" x2="272.316" xlink:href="#a" y1="30.855" y2="121.504"/><linearGradient id="d" gradientUnits="userSpaceOnUse" x1="326.436" x2="267.142" xlink:href="#a" y1="158.101" y2="244.538"/><linearGradient id="e" gradientUnits="userSpaceOnUse" x1="157.962" x2="27.458" xlink:href="#a" y1="76.587" y2="108.182"/><clipPath id="b"><path d="M0 0h343v248.659H0z"/></clipPath><g clip-path="url(#b)"><path d="M333.593 120.228H220.929a.534.534 0 01-.529-.529v-19.6c0-.288.241-.528.529-.528h112.664c.289 0 .529.24.529.528v19.6c0 .289-.24.529-.529.529zm-112.135-1.057h111.606v-18.543H221.458zM289.509 135.806H155.627v23.286h133.882z" fill="#0b0a09"/><path d="M234.824 185.407H122.16v19.6h112.664z" fill="#fff"/><path d="M234.81 205.536H122.146a.534.534 0 01-.529-.529v-19.6c0-.289.241-.529.529-.529H234.81c.288 0 .529.24.529.529v19.6a.524.524 0 01-.529.529zm-112.119-1.058h111.606v-18.542H122.691zM308.802 109.395h-42.437a.534.534 0 01-.529-.529c0-.289.24-.529.529-.529h42.437c.289 0 .529.24.529.529 0 .288-.24.529-.529.529zM256.079 112.103a3.237 3.237 0 100-6.473 3.237 3.237 0 000 6.473z" fill="#0b0a09"/><path d="M170.367 192.026h-38.03a.534.534 0 01-.528-.529c0-.289.24-.529.528-.529h38.03c.289 0 .529.24.529.529 0 .288-.24.529-.529.529zM170.367 197.009h-38.03a.533.533 0 01-.528-.528c0-.289.24-.529.528-.529h38.03c.289 0 .529.24.529.529 0 .288-.24.528-.529.528zM280.692 181.127a.533.533 0 01-.529-.528v-12.821h-44.617v8.189c0 .289-.24.529-.529.529a.534.534 0 01-.529-.529v-8.718c0-.289.241-.529.529-.529h45.675c.288 0 .529.24.529.529v13.35a.523.523 0 01-.529.528zM228.51 47.485c-1.346 0-2.709-.16-4.039-.464-9.68-2.228-15.753-11.908-13.542-21.588 2.228-9.68 11.908-15.753 21.587-13.542 8.959 2.068 14.937 10.481 13.879 19.6a.521.521 0 01-.881.32l-1.154-1.057-14.055 12.853h6.875c.288 0 .529.24.529.529v.48a.519.519 0 01-.273.466 17.802 17.802 0 01-8.926 2.403zm-.016-34.985c-7.725 0-14.728 5.321-16.523 13.174-2.084 9.119 3.638 18.238 12.741 20.321 3.814.881 7.772.417 11.266-1.314h-7.035a.52.52 0 01-.497-.337.516.516 0 01.128-.577l15.417-14.103c.208-.176.513-.192.705 0l.721.657a16.932 16.932 0 00-13.141-17.404 16.78 16.78 0 00-3.782-.417z" fill="#0b0a09"/><path d="M237.035 31.94c-.032 0-.08 0-.112-.016l-8.526-1.955a.514.514 0 01-.337-.24.496.496 0 01-.064-.402l2.58-11.266a.526.526 0 011.026.224l-2.468 10.754 8.013 1.843a.526.526 0 01.401.625c-.065.272-.273.433-.513.433z" fill="#0b0a09"/><path d="M220.93 100.099l-15.545-29.344 47.694 17.565 1.25-24.68 37.645 30.962 5.433-7.532 19.247 8.782 22.597-28.446-5.657 32.693z" fill="url(#c)"/><path d="M251.552 87.711h-14.36a.534.534 0 01-.529-.529V44.681h-7.708a.52.52 0 01-.497-.337.516.516 0 01.128-.577l15.417-14.103c.209-.176.513-.192.705 0l15.418 14.103c.16.145.208.385.128.577a.522.522 0 01-.497.337h-7.709v42.501a.497.497 0 01-.496.53zm-13.847-1.058h13.302v-42.5c0-.29.24-.53.529-.53h6.875L244.356 30.77l-14.055 12.853h6.875c.289 0 .529.24.529.53zM288.075 87.711h-14.359a.533.533 0 01-.529-.529V44.681h-7.709a.523.523 0 01-.497-.337.514.514 0 01.129-.577l15.417-14.087a.536.536 0 01.705 0l15.417 14.087c.16.145.208.385.128.577a.52.52 0 01-.497.337h-7.708v42.501c.032.289-.208.53-.497.53zm-13.83-1.058h13.317V44.152c0-.288.241-.529.529-.529h6.875L280.911 30.77l-14.055 12.853h6.876c.288 0 .529.24.529.529v42.501zM324.62 87.711h-14.359a.533.533 0 01-.529-.529V44.681h-7.709a.522.522 0 01-.497-.337.514.514 0 01.129-.577l15.417-14.087a.536.536 0 01.705 0l15.417 14.087c.16.145.208.385.128.577a.52.52 0 01-.497.337h-7.708v42.501c.032.289-.209.53-.497.53zm-13.847-1.058h13.318V44.152c0-.288.241-.529.529-.529h6.875L317.44 30.77l-14.055 12.853h6.876c.288 0 .528.24.528.529v42.501z" fill="#0b0a09"/><path d="M332.935 222.94l-50.627 25.529-24.247-48.078 50.642-25.53z" fill="url(#d)"/><path d="M285.148 215.423a6.675 6.675 0 01-2.083-.336 6.61 6.61 0 01-3.846-3.318 6.634 6.634 0 012.932-8.91 6.627 6.627 0 015.065-.385 6.613 6.613 0 013.846 3.318 6.633 6.633 0 01-2.933 8.91 6.486 6.486 0 01-2.981.721zm0-12.212c-.865 0-1.714.209-2.5.593a5.565 5.565 0 00-2.788 3.238 5.554 5.554 0 00.32 4.263 5.567 5.567 0 003.237 2.788 5.585 5.585 0 003.494-10.609 5.698 5.698 0 00-1.763-.273zM308.898 223.244c-2.42 0-4.775-1.33-5.929-3.654a6.634 6.634 0 0111.843-5.977 6.628 6.628 0 01.385 5.064 6.61 6.61 0 01-3.318 3.846 6.477 6.477 0 01-2.981.721zm-.032-12.212c-.849 0-1.699.193-2.5.593a5.587 5.587 0 00.769 10.289 5.554 5.554 0 004.263-.32 5.564 5.564 0 002.789-3.238 5.554 5.554 0 00-.321-4.263c-.977-1.939-2.948-3.061-5-3.061zM295.116 228.837h-.064a.538.538 0 01-.465-.593l3.798-31.235a.538.538 0 01.593-.464.537.537 0 01.465.593l-3.798 31.235a.534.534 0 01-.529.464z" fill="#0b0a09"/><path d="M101.961 100.099c-.289-10.641-1.491-21.25-2.068-31.876-.64.064-1.282.177-1.923.32-2.003-1.153-4.23-1.842-6.33-1.842-7.597 0-11.747 5.85-12.66 12.66-5.674 42.406-16.267 100.484-62.295 113.674 1.78 8.269 3.558 16.539 5.337 24.808 24.76-6.362 45.162-25.305 57.79-47.101 11.363-19.6 16.796-41.475 20.482-63.639.24-.065.481-.097.721-.161v-.256c.353-.064.721-.096 1.074-.144a288.46 288.46 0 00-.128-6.443z" fill="#fff"/><path d="M22.024 218.372a.541.541 0 01-.273-.08.514.514 0 01-.24-.337l-1.57-7.292c-1.25-5.833-2.5-11.683-3.767-17.516a.525.525 0 01.369-.625c48.623-13.927 57.598-80.996 61.909-113.225.85-6.346 4.76-13.125 13.19-13.125 2.05 0 4.326.64 6.426 1.81a15.84 15.84 0 011.779-.288.554.554 0 01.593.497c.24 4.36.577 8.782.913 13.061.481 6.17.978 12.533 1.154 18.831.064 2.148.096 4.295.144 6.459a.522.522 0 01-.448.528l-.449.065c-.08.016-.144.016-.225.032a.511.511 0 01-.368.304l-.337.08h-.032c-3.093 18.478-8.221 42.293-20.481 63.464-14.023 24.199-35.21 41.459-58.127 47.341-.064.016-.112.016-.16.016zm-4.712-24.969c1.234 5.674 2.452 11.363 3.67 17.036l1.442 6.747c22.437-5.946 43.159-22.933 56.941-46.716 12.26-21.171 17.357-45.034 20.418-63.464a.552.552 0 01.4-.432c.112-.032.225-.048.353-.08a.53.53 0 01.417-.337l.625-.096c-.032-1.987-.081-3.975-.129-5.978-.176-6.266-.673-12.628-1.154-18.766-.32-4.103-.657-8.334-.881-12.533-.449.064-.881.144-1.298.24a.468.468 0 01-.385-.064c-1.987-1.138-4.135-1.779-6.074-1.779-7.74 0-11.346 6.299-12.147 12.212-2.901 21.732-7.084 46.813-16.059 67.919-10.577 25.001-25.674 40.065-46.139 46.091z" fill="#0b0a09"/><path d="M29.027 216.208a.533.533 0 01-.529-.528v-27.646c0-.288.24-.528.529-.528s.529.24.529.528v27.646c0 .304-.24.528-.53.528zM43.722 209.109a.534.534 0 01-.529-.529v-31.54c0-.288.24-.528.53-.528s.528.24.528.528v31.54c0 .288-.24.529-.529.529zM58.421 198.019a.534.534 0 01-.528-.529v-40.771c0-.288.24-.528.528-.528.289 0 .53.24.53.528v40.771c0 .288-.241.529-.53.529zM73.132 181.544a.533.533 0 01-.529-.529v-66.941c0-.289.24-.529.53-.529.288 0 .528.24.528.529v66.941c-.016.289-.24.529-.529.529zM87.83 154.909a.534.534 0 01-.53-.529V67.262c0-.289.241-.53.53-.53.288 0 .529.241.529.53v87.118c0 .288-.24.529-.53.529z" fill="#0b0a09"/><path d="M28.212 215.92a.53.53 0 01-.513-.401l-6.074-23.734a.512.512 0 01.385-.641.512.512 0 01.64.384l6.074 23.735a.513.513 0 01-.384.641c-.032.016-.08.016-.128.016zM16.477 193.099C7.76 195.359.852 196.865.852 196.865l6.106 32.709s8.942.289 8.14-9.471l6.604-2.035z" fill="#0b0a09"/><path d="M7.04 230.119h-.113a.545.545 0 01-.497-.432l-6.106-32.71a.535.535 0 01.401-.609c.064-.016 7.003-1.522 15.61-3.766a.513.513 0 01.64.385.513.513 0 01-.384.641 467.727 467.727 0 01-15.145 3.654l5.93 31.763c1.01-.064 3.574-.4 5.353-2.259 1.442-1.523 2.067-3.75 1.827-6.619-.016-.24.128-.481.368-.545l6.603-2.035a.512.512 0 01.657.352.523.523 0 01-.353.657l-6.202 1.908c.16 2.98-.56 5.336-2.147 7.019-2.34 2.468-5.77 2.596-6.443 2.596z" fill="#0b0a09"/><path d="M15.084 220.648a.517.517 0 01-.465-.289l-2.356-4.711a.52.52 0 01.24-.706.519.519 0 01.706.241l2.34 4.695a.52.52 0 01-.24.706.522.522 0 01-.225.064z" fill="#fff"/><path d="M201.28 49.152c-.064-1.683-.898-2.82-2.356-3.285-.016.368-.048.721-.096 1.09.881.368 1.346 1.105 1.394 2.243.08 2.116-1.282 4.215-1.715 4.311-.529.112-1.106-.112-1.442-.545-.369-.496-.417-1.186-.16-2.019l-.097.096a1.196 1.196 0 01-1.073.273c-.177 1.138.176 1.89.48 2.291a2.529 2.529 0 002.004.994c.16 0 .32-.016.481-.048 1.282-.288 2.676-3.19 2.58-5.4z" fill="#0b0a09"/><path d="M199.276 46.091c-.064-1.827-1.042-3.013-2.725-3.381-.016.352-.064.705-.112 1.057 1.138.289 1.747 1.074 1.795 2.372.08 2.116-1.282 4.215-1.715 4.311a1.501 1.501 0 01-1.442-.545c-.497-.657-.417-1.714.24-2.964a.506.506 0 00.049-.369c-.225.32-.481.609-.786.85a1.4 1.4 0 01-.721.32c-.385 1.426.032 2.34.369 2.788a2.48 2.48 0 002.484.946c1.266-.256 2.644-3.173 2.564-5.385z" fill="#0b0a09"/><path d="M193.553 48.543a2.528 2.528 0 01-2.003-.994c-.433-.577-.993-1.89.144-4.086a.527.527 0 01.706-.225.527.527 0 01.224.705c-.657 1.25-.737 2.292-.24 2.965.32.433.897.657 1.442.545.449-.096 1.795-2.195 1.715-4.31-.064-1.46-.818-2.277-2.276-2.453a.538.538 0 01-.465-.593.538.538 0 01.593-.465c1.987.24 3.125 1.475 3.189 3.462.081 2.212-1.298 5.128-2.564 5.385-.144.064-.304.064-.465.064zM193.474 61.54c-1.682-1.794-3.397-3.59-5.096-5.384-2.853-2.997-5.785-6.09-8.622-9.183a.524.524 0 00-.721-.048c-10.065 8.317-19.937 12.548-29.328 12.58h-.064c-10.433 0-18.751-5.513-21.187-14.07-1.859-6.507-7.997-8.446-13.093-6.988-4.84 1.378-9.167 5.914-7.26 12.596 4.648 16.3 19.52 27.838 37.902 29.409 1.346.112 2.676.176 4.023.176 14.006 0 28.59-6.154 43.382-18.318a.558.558 0 00.193-.369.525.525 0 00-.129-.4z" fill="#0b0a09"/><path d="M189.067 50.594a.491.491 0 01-.208-.048.523.523 0 01-.273-.689c.353-.801.032-2.291-.224-3.477-.16-.77-.321-1.427-.321-1.94 0-.881 1.09-1.474 2.484-2.211.946-.513 2.26-1.202 2.42-1.747a.31.31 0 00-.032-.256c-.112-.209-.448-.353-.913-.385-2.148-.208-7.356 1.779-12.212 7.853a.515.515 0 01-.737.08.529.529 0 01-.08-.737c5.16-6.443 10.689-8.462 13.141-8.238 1.074.096 1.538.561 1.747.93a1.4 1.4 0 01.128 1.074c-.288.977-1.635 1.682-2.933 2.387-.689.369-1.859.994-1.923 1.299 0 .4.144 1.041.289 1.714.304 1.41.657 3.013.16 4.135a.67.67 0 01-.513.257zM193.086 62.438a.538.538 0 01-.416-.192.53.53 0 01.08-.738c2.628-2.115 4.68-7.484 4.712-7.548a.528.528 0 01.673-.304c.272.096.416.4.304.689-.08.224-2.179 5.705-5.032 7.997a.683.683 0 01-.321.096zM181.891 181.929c.625 8.99.833 16.058.833 16.058h33.286s1.923-8.734-7.82-9.728l-.786-6.875z" fill="#0b0a09"/><path d="M215.991 198.5h-33.286a.53.53 0 01-.529-.513c0-.064-.208-7.164-.833-16.026a.523.523 0 01.496-.561.523.523 0 01.561.497c.529 7.532.754 13.782.818 15.561h32.324c.129-.993.273-3.59-1.25-5.673-1.234-1.699-3.317-2.725-6.17-3.013-.24-.032-.448-.224-.464-.465l-.786-6.875a.524.524 0 111.042-.112l.737 6.458c2.965.385 5.145 1.523 6.507 3.398 2.179 3.013 1.378 6.763 1.346 6.923a.503.503 0 01-.513.401z" fill="#0b0a09"/><path d="M207.466 181.528c-3.301-28.302-3.381-60.611-23.014-83.288-20.785-24.007-55.001-22.709-83.464-18.334-6.763 1.042-10.513 9.536-8.846 15.578 1.987 7.227 8.798 9.888 15.577 8.846 19.793-3.045 46.3-5.064 59.906 13.126 5.914 7.916 8.35 18.077 10 27.629 2.084 12.051 2.773 24.327 4.183 36.459z" fill="#fff"/><path d="M207.996 181.464c-.497-4.231-.93-8.654-1.347-12.917-2.452-25.193-5-51.236-21.811-70.66-10.209-11.795-23.51-17.516-37.678-19.808-.336-.048-.689-.112-1.041-.16-9.327-1.394-18.991-1.346-28.367-.577l-1.057.096c-5.417.465-10.722 1.17-15.802 1.955-2.885.45-5.481 2.228-7.292 5.033-2.195 3.381-2.949 7.66-1.971 11.202 1.875 6.827 8.221 10.449 16.17 9.231 2.901-.449 5.882-.849 8.911-1.186.352-.032.705-.08 1.057-.112 18.431-1.875 38.351-.593 49.425 14.215 5.93 7.917 8.334 18.302 9.904 27.405 1.362 7.885 2.132 15.994 2.885 23.847.401 4.134.801 8.397 1.298 12.58.016.08.032.16.08.225.096.144.257.24.449.24H207.467a.511.511 0 00.384-.176.373.373 0 00.097-.177c.048-.08.048-.176.048-.256zm-25.706-.465a303.855 303.855 0 01-.593-5.577 1040.747 1040.747 0 01-.096-1.058c-.177-1.843-.353-3.67-.529-5.464-.753-7.869-1.539-16.011-2.901-23.928-.513-2.932-1.106-5.993-1.875-9.07a94.199 94.199 0 00-.769-2.853c-1.635-5.641-3.927-11.202-7.468-15.93a34.038 34.038 0 00-7.228-7.132c-4.071-2.948-8.702-4.952-13.655-6.218-.352-.096-.705-.176-1.057-.256-5.145-1.218-10.61-1.683-16.139-1.683-4.07 0-8.173.257-12.195.673-.353.032-.706.08-1.058.112-3.093.337-6.122.754-9.071 1.202-5.593.866-12.885-.833-14.984-8.462-.882-3.205-.16-7.26 1.843-10.352 1.65-2.549 3.99-4.167 6.57-4.568 5.032-.77 10.289-1.458 15.642-1.923l1.058-.096c9.375-.77 19.039-.817 28.35.593.352.048.705.112 1.057.176 4.776.785 9.44 1.955 13.911 3.638.257.096.513.192.753.289 4.936 1.923 9.616 4.455 13.943 7.74.257.192.529.4.785.61a54.122 54.122 0 017.485 7.163 65.094 65.094 0 016.218 8.494c.336.545.673 1.106.993 1.666 7.901 13.655 10.946 29.585 12.853 45.739l.385 3.398.529 5.048c.192 1.907.384 3.814.561 5.721.192 1.891.368 3.814.561 5.738l.048.528.048.529c.192 1.875.384 3.734.609 5.561H182.29z" fill="#0b0a09"/><path d="M117.767 77.342v26.203c-.353.032-.705.08-1.058.112V77.422c.353-.016.705-.048 1.058-.08zM131.933 100.788a.534.534 0 01-.529-.528V83.144c0-.289.241-.53.529-.53.289 0 .529.241.529.53v17.116c0 .288-.24.528-.529.528zM146.646 104.699a.534.534 0 01-.529-.529V78.063c0-.288.241-.529.529-.529.289 0 .529.24.529.53v26.106c-.016.288-.24.529-.529.529zM161.341 111.574a.534.534 0 01-.529-.529v-27.79c0-.288.241-.528.529-.528.289 0 .529.24.529.529v27.789c0 .305-.24.529-.529.529zM176.039 135.982a.534.534 0 01-.529-.529V91.285c0-.289.24-.529.529-.529.288 0 .528.24.528.529v44.168c0 .288-.24.529-.528.529zM190.738 181.48a.533.533 0 01-.529-.529v-73.624c0-.288.24-.529.529-.529.288 0 .529.241.529.529v73.624a.524.524 0 01-.529.529z" fill="#0b0a09"/><path d="M203.121 190.214a.53.53 0 01-.144-1.041l5.048-1.443a.527.527 0 01.657.369.533.533 0 01-.368.657l-5.048 1.442c-.049.016-.097.016-.145.016z" fill="#fff"/><path d="M204.498 181.817a.534.534 0 01-.529-.529v-26.443c0-.289.24-.529.529-.529.288 0 .528.24.528.529v26.443a.523.523 0 01-.528.529z" fill="#0b0a09"/><path d="M206.504 175.438h-25.065a.534.534 0 01-.529-.529c0-.288.241-.529.529-.529h25.065c.288 0 .529.241.529.529a.534.534 0 01-.529.529z" fill="#0b0a09"/><path d="M119.148 15.064s-1.347-2.788-5.513-5.625c-4.151-2.836-12.533-.128-11.219 6.843.609 3.157 1.795 5.177 3.414 6.315l-2.757 12.997c-.336.032-.657.064-.977.112l.721 1.122.929 1.442 6.539 10.209 3.398-13.19a22.671 22.671 0 00-1.843-.08l2.596-12.132c4.487-1.714 3.317-6.634 3.317-6.634z" fill="#fff"/><path d="M110.284 49.008a.554.554 0 01-.449-.24l-8.174-12.773a.528.528 0 01-.032-.513.557.557 0 01.417-.305c.192-.032.401-.048.609-.064l2.596-12.276c-1.666-1.314-2.772-3.43-3.349-6.442-.561-2.965.513-5.577 2.949-7.18 2.74-1.795 6.635-1.875 9.07-.208 4.231 2.868 5.626 5.705 5.69 5.833a.535.535 0 01-.096.609l-1.202 1.186c.176 1.138.48 5.16-3.43 6.827l-2.404 11.234c.417.016.833.049 1.218.065.16.016.305.096.385.224a.474.474 0 01.08.433l-3.398 13.19a.513.513 0 01-.432.384c.016 0-.016.016-.048.016zm-7.276-12.87l7.067 11.027 2.933-11.395a603.62 603.62 0 00-1.17-.048.537.537 0 01-.401-.192.534.534 0 01-.096-.433l2.597-12.132a.523.523 0 01.32-.384c4.007-1.523 3.029-5.834 2.981-6.01a.523.523 0 01.144-.497l1.106-1.106c-.481-.801-1.987-2.949-5.144-5.096-2.1-1.442-5.513-1.346-7.901.224-1.218.786-3.157 2.645-2.5 6.09.56 2.9 1.618 4.856 3.205 5.994a.521.521 0 01.208.545l-2.756 12.997a.528.528 0 01-.465.417c-.048-.016-.08 0-.128 0z" fill="#0b0a09"/><path d="M118.922 16.731c-.657-.64-1.426-.769-2.115-.609-2.116-.657-3.959-1.939-5.193-3.734 1.491-1.683 2.612-3.686 2.084-5.224-1.17-2.629-13.046 1.474-11.267 9.135.753 3.253 1.875 5.32 3.606 6.442.305-.112.609-.24.882-.417.496-.32 1.746-2.596 1.778-3.397.321.545.641 1.09.978 1.619 1.106 1.73 2.628 3.285 4.712 3.734 4.327.897 8.029-4.215 4.535-7.549zm-10.593 1.94c-2.404 1.105-3.782-1.427-1.282-2.805.481.93.977 1.843 1.49 2.756-.064 0-.128 0-.208.048zM126.342 39.953c-2.5-3.077-6.635-4.776-12.629-5.192-1.65-.129-3.461-.145-5.4-.049a84.733 84.733 0 00-6.283.481C83.424 37.39 82.286 45.9 80.01 62.838c-.625 4.664-1.33 9.953-2.516 15.962-.032.16.016.32.112.45.097.111.24.191.401.191h.016l47.534-1.025c.256 0 .48-.209.513-.465.016-.08 1.041-8.862 2.564-20.29.865-6.49 1.41-13.189-2.292-17.708z" fill="#0b0a09"/><path d="M126.2 73.945h-.032a.534.534 0 01-.497-.561l1.218-19.152c.016-.288.272-.528.561-.496a.534.534 0 01.496.56l-1.218 19.152a.527.527 0 01-.528.497zM101.02 31.54l-.321 4.022 9.584 12.917 5.016-12.997.08-3.061z" fill="#fff"/><path d="M101.243 35.418l8.895 11.971 4.631-12.02.065-2.467-13.35-.818zm9.039 13.59c-.16 0-.32-.08-.417-.208l-9.583-12.902a.46.46 0 01-.096-.352l.304-4.023a.52.52 0 01.561-.48l14.376.88a.53.53 0 01.496.546l-.08 3.06c0 .065-.016.113-.032.177l-5.032 12.95a.532.532 0 01-.417.336c-.032 0-.048.016-.08.016z" fill="#0b0a09"/><path d="M127.509 116.125l20.914-36.844-34.808-24.119 2.131 9.327-85.05 19.408 9.631 42.277 85.067-19.392z" fill="url(#e)"/><path d="M90.317 94.682c9.279.193 14.359 1.218 14.071 3.11-.289 1.89-5.24-.433-4.792 1.602.433 2.035 10.177 3.045 9.744 5.817-.433 2.773-8.574-.721-9.007 0-.432.722 9.007 1.603 7.997 3.927-1.009 2.324-7.853.288-8.574.865-.721.577 7.709 1.17 6.683 2.613-1.01 1.458-6.923 2.66-16.106 2.131-9.2-.529-.016-20.065-.016-20.065z" fill="#fff"/><g fill="#0b0a09"><path d="M94.516 115.404c-1.347 0-2.757-.048-4.231-.128-1.699-.096-2.95-.801-3.718-2.084-3.061-5.144 2.997-18.173 3.269-18.718a.55.55 0 01.497-.305c8.317.177 12.965.994 14.215 2.468.304.37.433.802.369 1.234-.225 1.41-1.94 1.283-3.19 1.186-.512-.032-1.458-.112-1.634.048 0 0-.016.049.016.16.128.61 2.404 1.395 4.054 1.972 2.949 1.01 5.994 2.067 5.69 4.039-.08.464-.321.849-.706 1.105-.544.353-1.346.449-2.243.401.929.385 1.586.833 1.875 1.394.176.369.192.77.016 1.154-.561 1.282-2.244 1.523-4.087 1.459 1.266.336 2.036.705 2.26 1.25a.892.892 0 01-.112.865c-1.074 1.571-5.914 2.5-12.34 2.5zm-3.863-20.177c-.897 2.003-5.705 13.174-3.173 17.421.577.977 1.523 1.49 2.869 1.57 9.279.529 14.632-.721 15.593-1.827-.497-.417-2.836-.881-3.99-1.122-2.084-.416-2.645-.545-2.773-1.057-.048-.193.064-.497.225-.625.4-.321 1.153-.257 2.804-.065 1.907.209 5.096.577 5.609-.609a.283.283 0 000-.256c-.416-.849-3.397-1.587-5.176-2.035-1.987-.497-2.628-.673-2.82-1.138-.065-.16-.049-.417.047-.561.353-.577 1.186-.385 3.206.096 1.827.433 4.583 1.09 5.497.481a.51.51 0 00.24-.401c.176-1.09-2.805-2.115-4.984-2.868-2.516-.866-4.487-1.555-4.744-2.757-.112-.545.048-.881.224-1.074.497-.56 1.475-.497 2.501-.416 1.089.08 2.003.112 2.067-.305.016-.096.016-.224-.128-.4-.577-.642-3.045-1.812-13.094-2.052z"/><path d="M106.725 49.921c-2.083-4.824-4.712-9.44-6.459-14.391-.032-.08-.048-.16-.064-.24-20.32.528-49.617 12.484-52.421 37.853-1.154 10.417 3.205 21.635 11.378 29.296 7.629 7.163 17.821 11.362 31.123 12.821h.064a.556.556 0 00.353-.129.51.51 0 00.176-.384V94.682a.547.547 0 00-.465-.529c-6.282-.85-15.128-3.942-19.407-9.872-2.132-2.949-2.853-6.266-2.18-9.856 2.516-13.35 22.693-17.933 32.084-18.061 2.981-.048 5.497-1.106 7.324-3.045a93.104 93.104 0 01-1.506-3.398zM318.016 11.715a.544.544 0 01-.481-.304l-3.366-7.212c-.064-.128-.064-.273-.016-.4s.145-.241.273-.305l7.212-3.366a.525.525 0 01.705.257l3.365 7.211c.064.128.064.273.016.4s-.144.241-.272.305l-7.212 3.366a.51.51 0 01-.224.048zm-2.661-7.484l2.917 6.266 6.266-2.917-2.916-6.266zM154.341 177.554a.484.484 0 01-.368-.161.53.53 0 010-.753l4.118-4.119a.534.534 0 01.754.754l-4.119 4.118a.545.545 0 01-.385.161zM119.676 226.898a.652.652 0 01-.288-.08l-6.459-4.119a.522.522 0 11.561-.881l6.459 4.119c.24.16.32.48.16.721a.49.49 0 01-.433.24zM126.729 174.621a.51.51 0 01-.385-.177l-7.051-7.644a.512.512 0 01.032-.737.533.533 0 01.753.032l7.052 7.644a.515.515 0 01-.032.738.568.568 0 01-.369.144zM328.127 19.023a.563.563 0 01-.224-.048.52.52 0 01-.256-.705l3.525-7.645a.535.535 0 01.706-.256.52.52 0 01.256.705l-3.526 7.644a.544.544 0 01-.481.305zM338.513 200.984a.486.486 0 01-.368-.16.532.532 0 010-.754l3.525-3.525a.532.532 0 11.754.753l-3.526 3.526a.577.577 0 01-.385.16z"/><path d="M326.349 8.75a.575.575 0 01-.176-.032l-12.805-4.647a.53.53 0 01-.321-.673.53.53 0 01.673-.32l12.805 4.647a.53.53 0 01-.176 1.026zM213.573 4.199a.488.488 0 01-.417-.208l-2.228-2.87a.518.518 0 01.096-.736.519.519 0 01.738.096l2.227 2.869a.517.517 0 01-.096.737.595.595 0 01-.32.112zM210.061 10.898c-.032 0-.064 0-.096-.016l-3.189-.641a.541.541 0 01-.417-.625.53.53 0 01.625-.417l3.19.641a.54.54 0 01.416.625.56.56 0 01-.529.433zM229.361 85.532a.516.516 0 01-.336-.129l-4.183-3.59a.531.531 0 01-.064-.737.53.53 0 01.737-.064l4.183 3.59c.224.192.24.529.064.737a.486.486 0 01-.401.193z"/></g></g></svg>