<svg fill="none" height="306" viewBox="0 0 343 306" width="343" xmlns="http://www.w3.org/2000/svg" xmlns:xlink="http://www.w3.org/1999/xlink"><linearGradient id="a"><stop offset="0" stop-color="#0ccaab"/><stop offset="1" stop-color="#fff"/></linearGradient><linearGradient id="c" gradientUnits="userSpaceOnUse" x1=".646" x2="94.71" xlink:href="#a" y1="48.55" y2="48.55"/><linearGradient id="d" gradientUnits="userSpaceOnUse" x1="364.346" x2="314.109" xlink:href="#a" y1="101.349" y2="136.025"/><linearGradient id="e" gradientUnits="userSpaceOnUse" x1="352.098" x2="297.685" xlink:href="#a" y1="71.302" y2="108.861"/><linearGradient id="f" gradientUnits="userSpaceOnUse" x1="271.84" x2="36.257" xlink:href="#a" y1="81.255" y2="340.146"/><linearGradient id="g" gradientUnits="userSpaceOnUse" x1="295.521" x2="59.938" xlink:href="#a" y1="102.803" y2="361.695"/><clipPath id="b"><path d="M0 0h343v305.775H0z"/></clipPath><g clip-path="url(#b)"><path d="M55.77 25.883L27.279 14.715l.716 27.042-27.35 8.986L36.299 64.47l.068 19.728L74.51 60.872l20.205 3.24-28.492-30.658.358-20.547z" fill="url(#c)"/><path d="M333.037 29.77a.543.543 0 00-.528-.084L248.481 55.62a.603.603 0 00-.426.58V305.13c0 .187.085.375.238.477a.647.647 0 00.358.119c.052 0 .12-.017.171-.034l84.028-25.934a.605.605 0 00.426-.58V30.265a.629.629 0 00-.239-.494z" fill="#0b0a09"/><path d="M342.843 128.309l-18.296 14.936v-26.548l18.296-14.937z" fill="url(#d)"/><path d="M335.886 89.467l-10.521 8.593V82.783l10.521-8.594z" fill="url(#e)"/><path d="M248.652 305.725H44.772a.604.604 0 01-.596-.597V56.2c0-.324.273-.597.597-.597h203.879c.324 0 .597.273.597.597v248.928a.604.604 0 01-.597.597zm-203.283-1.211h202.686V56.796H45.369z" fill="#0b0a09"/><path d="M314.64 1.09L248.652 56.2v248.929l76.321-63.737V11.424L314.64 1.09z" fill="#fff"/><g fill="#0b0a09"><path d="M248.651 305.725a.682.682 0 01-.255-.051.607.607 0 01-.341-.546V56.2c0-.17.085-.341.221-.46L314.264.63a.582.582 0 01.801.035l10.333 10.333c.12.119.171.255.171.426v229.968c0 .17-.085.341-.222.46l-76.32 63.737a.6.6 0 01-.376.136zm.597-249.252V303.85l75.127-62.748V11.662l-9.77-9.77z"/><path d="M257.759 69.96a.573.573 0 01-.461-.222.61.61 0 01.069-.835l37.87-31.63c.256-.204.631-.187.836.068a.61.61 0 01-.069.836l-37.87 31.647a.595.595 0 01-.375.136zM257.759 82.612a.573.573 0 01-.461-.222.61.61 0 01.069-.835l26.122-21.809a.608.608 0 01.835.069.608.608 0 01-.068.835l-26.122 21.826a.596.596 0 01-.375.136zM290.378 199.975a.572.572 0 01-.46-.222.609.609 0 01.068-.836l26.122-21.808c.256-.204.631-.187.835.068a.609.609 0 01-.068.836l-26.122 21.808a.465.465 0 01-.375.154zM291.913 235.219a.57.57 0 01-.46-.222.607.607 0 01.068-.835l13.061-10.913c.256-.205.631-.188.836.068a.61.61 0 01-.069.836l-13.061 10.912a.465.465 0 01-.375.154zM278.853 246.132a.572.572 0 01-.461-.222.61.61 0 01.068-.835l5.116-4.263c.255-.205.631-.188.835.068a.609.609 0 01-.068.836l-5.115 4.262a.528.528 0 01-.375.154zM153.645 101.828H92.807c-4.91 0-8.9-3.99-8.9-8.9s3.99-8.901 8.9-8.901h60.855c4.911 0 8.901 3.99 8.901 8.9-.017 4.911-4.007 8.901-8.918 8.901zm-60.838-16.59c-4.246 0-7.69 3.461-7.69 7.707s3.461 7.707 7.69 7.707h60.855c4.246 0 7.707-3.462 7.707-7.707s-3.461-7.707-7.707-7.707zM149.435 118.112H99.833c-.324 0-.597-.273-.597-.597s.273-.596.597-.596h49.602c.324 0 .596.272.596.596s-.255.597-.596.597zM148.156 269.697h-18.313c-.324 0-.597-.273-.597-.597s.273-.597.597-.597h18.313c.324 0 .597.273.597.597s-.273.597-.597.597zM170.612 285.724h-40.769c-.324 0-.597-.273-.597-.597s.273-.596.597-.596h40.769c.324 0 .597.272.597.596s-.273.597-.597.597zM229.946 285.724h-19.097c-.324 0-.597-.273-.597-.597s.273-.596.597-.596h19.097c.324 0 .597.272.597.596s-.256.597-.597.597z"/></g><path d="M60.188 218.594l4.228 3.325z" fill="#fff"/><path d="M93.742 120.039a3.158 3.158 0 01-3.154-3.154c0-1.74 1.415-3.155 3.154-3.155s3.155 1.415 3.155 3.155a3.158 3.158 0 01-3.155 3.154zm0-5.115c-1.074 0-1.96.886-1.96 1.961 0 1.074.886 1.961 1.96 1.961 1.075 0 1.961-.887 1.961-1.961a1.972 1.972 0 00-1.96-1.961z" fill="#0b0a09"/><path d="M35.89 173.954a.603.603 0 01-.597-.596V48.817c0-.324.273-.597.597-.597h141.592c.324 0 .597.273.597.597s-.273.596-.597.596H36.487v123.945a.592.592 0 01-.597.596zM44.963 281.325l24.963 23.94-25.15-.137zM224.134 281.785a.59.59 0 01-.426-.17l-8.304-8.304a.597.597 0 010-.853.598.598 0 01.852 0l8.304 8.304a.597.597 0 01-.426 1.023z" fill="#0b0a09"/><path d="M215.83 281.785a.597.597 0 01-.426-1.023l8.304-8.304a.598.598 0 01.852 0 .597.597 0 010 .853l-8.304 8.304a.592.592 0 01-.426.17zM252.712 114.634h-7.656c-.324 0-.597-.273-.597-.597s.273-.597.597-.597h7.656c.324 0 .596.273.596.597s-.255.597-.596.597zM252.712 120.261h-7.656c-.324 0-.597-.273-.597-.597s.273-.597.597-.597h7.656c.324 0 .596.273.596.597s-.255.597-.596.597zM252.712 231.11h-7.656c-.324 0-.597-.273-.597-.597s.273-.597.597-.597h7.656c.324 0 .596.273.596.597s-.255.597-.596.597zM252.712 236.72h-7.656c-.324 0-.597-.273-.597-.597s.273-.597.597-.597h7.656c.324 0 .596.273.596.597s-.255.597-.596.597z" fill="#0b0a09"/><path d="M309.783 224.238a3.495 3.495 0 100-6.99 3.495 3.495 0 000 6.99z" fill="#fff"/><path d="M309.782 224.818c-2.251 0-4.093-1.841-4.093-4.092s1.842-4.092 4.093-4.092c2.25 0 4.092 1.841 4.092 4.092s-1.824 4.092-4.092 4.092zm0-6.974c-1.586 0-2.899 1.296-2.899 2.899s1.296 2.899 2.899 2.899 2.898-1.296 2.898-2.899-1.295-2.899-2.898-2.899zM324.975 12.072h-10.333a.604.604 0 01-.597-.597V1.091c0-.324.273-.597.597-.597s.596.273.596.597v9.787h9.737c.324 0 .596.273.596.597a.592.592 0 01-.596.597z" fill="#0b0a09"/><path d="M280.778 105.819l-87.677 124.439-69.671-38.553-58.11 58.11-13.146-13.146-29.822 29.822 11.407 11.407 18.415-18.415 13.146 13.146 60.924-60.923 71.717 39.695 96.509-136.988c-4.553-2.865-9.157-5.661-13.692-8.594z" fill="url(#f)"/><path d="M301.069 91.12l-1.927 33.54-28.816-20.001z" fill="url(#g)"/><path d="M55.363 68.46v67.164c0 3.649 1.603 6.94 4.127 9.19a12.195 12.195 0 008.15 3.087c3.956 0 7.486-1.876 9.736-4.792a12.204 12.204 0 002.54-7.485V68.46z" fill="#0b0a09"/><path d="M81.147 75.144V40.99c0-7.451-6.036-20-13.488-20s-13.487 12.549-13.487 20v34.154z" fill="#0b0a09"/><path d="M81.146 75.996H53.864a.604.604 0 01-.596-.597c0-.324.272-.597.596-.597h27.282c.324 0 .597.273.597.597a.604.604 0 01-.597.597z" fill="#fff"/><path d="M85.51 48.424a.604.604 0 01-.597-.597v-8.815H72.21a.604.604 0 01-.597-.597c0-.324.273-.596.597-.596h13.3c.324 0 .597.272.597.596v9.395a.608.608 0 01-.597.614z" fill="#0b0a09"/><path d="M79.936 136.238H55.382c-.324 0-.597-.273-.597-.597s.273-.597.597-.597h24.554c.323 0 .596.273.596.597s-.272.597-.596.597zM58.175 61.844a.604.604 0 01-.597-.597V46.634c0-.324.273-.597.597-.597s.597.273.597.597v14.613a.604.604 0 01-.597.597z" fill="#fff"/><path d="M179.632 120.005h-.051a.61.61 0 01-.563-.648l.358-5.116c.018-.324.341-.579.648-.562a.61.61 0 01.563.648l-.358 5.115a.587.587 0 01-.597.563zM174.536 128.394c-.069 0-.12-.017-.188-.034l-3.291-1.091c-.307-.103-.477-.444-.375-.751s.443-.477.75-.375l3.291 1.091a.599.599 0 01.375.751.599.599 0 01-.562.409zM323.9 296.944c0-.068.017-.119.034-.188l1.978-4.91a.59.59 0 01.785-.324c.307.119.46.477.324.784l-1.978 4.911a.59.59 0 01-.785.324.652.652 0 01-.358-.597z" fill="#0b0a09"/><path d="M101.501 179.394s-4.518 9.651-8.747 20.512l7.536 2.115 17.188-21.417z" fill="#fff"/><path d="M100.292 202.6c-.052 0-.103 0-.154-.017l-7.536-2.114a.614.614 0 01-.375-.307.583.583 0 01-.018-.477c4.178-10.76 8.714-20.445 8.765-20.547a.599.599 0 01.579-.341l15.994 1.211c.222.017.41.153.512.358a.615.615 0 01-.085.614l-17.188 21.416a.683.683 0 01-.494.204zm-6.736-3.103l6.531 1.824 16.233-20.222-14.443-1.091c-.852 1.841-4.689 10.213-8.32 19.489z" fill="#0b0a09"/><path d="M68.318 208.346l-8.15 10.248s-4.826-5.422-11.766 1.211l24.724 20.205 14.477-17.494z" fill="#fff"/><path d="M73.145 240.607a.597.597 0 01-.375-.136l-24.724-20.206c-.137-.102-.205-.273-.222-.443a.66.66 0 01.188-.461c2.506-2.387 5.03-3.563 7.553-3.461 2.217.085 3.803 1.16 4.57 1.807l7.741-9.753a.577.577 0 01.819-.102l19.302 14.169a.572.572 0 01.238.41.641.641 0 01-.136.46l-14.477 17.494a.628.628 0 01-.477.222zm-23.82-20.836l23.735 19.387 13.692-16.54-18.33-13.453-7.792 9.804a.564.564 0 01-.444.222c-.153.017-.34-.068-.46-.205-.017-.017-1.637-1.79-4.246-1.892-2.012-.069-4.058.835-6.155 2.677z" fill="#0b0a09"/><path d="M225.118 191.449c5.303-3.7 8.253-10.998 4.434-16.932-3.615-5.61-10.964-7.963-16.932-4.433a353.698 353.698 0 00-19.711 12.566 14.685 14.685 0 00-4.468 4.911c-3.222-1.176-6.394-2.37-9.531-3.461-14.323-5.013-28.629-8.475-43.873-7.861-27.06 1.092-52.244 13.522-70.062 33.71 6.803 5.61 13.64 11.169 20.273 16.966 13.812-16.164 35.944-25.389 56.712-24.332 13.095.665 25.048 5.474 37.291 9.77l.716.256c11.492 3.99 24.247 1.074 32.96-7.417 4.126-4.024 8.218-8.082 12.566-11.987-1.023-.477-1.739-.528-2.438-.409.358-.188.716-.409 1.057-.648s.682-.46 1.006-.699z" fill="#0b0a09"/><path d="M202.989 169.998c-2.626 0-4.808.683-6.564 1.808-14.494-17.171-32.892-31.817-56.695-29.993-22.627 1.739-34.188 20.444-41.28 39.627 8.184 2.25 16.351 4.535 24.502 6.923 3.683-10.316 8.951-21.348 21.092-21.451 14.8-.119 32.022 19.063 40.564 29.533 5.303 6.496 11.442 3.734 14.767-2.2 1.091.307 2.301.495 3.614.495 15.926 0 15.96-24.742 0-24.742z" fill="#0b0a09"/><path d="M103.82 183.247a.595.595 0 01-.545-.341c-.154-.29-.017-.648.272-.801.12-.069 12.823-6.173 24.094-6.173.324 0 .596.273.596.597s-.272.597-.596.597c-10.998 0-23.446 6.002-23.582 6.053-.051.051-.153.068-.239.068zM89.157 222.158a.608.608 0 01-.426-.188l-16.983-17.801a.613.613 0 01.017-.853.614.614 0 01.853.017L89.6 221.118a.612.612 0 01-.017.852.608.608 0 01-.427.188z" fill="#fff"/><path d="M112.325 178.644c.461-.086.921-.171 1.364-.256a.56.56 0 00-.375-.358l-11.595-3.871a.599.599 0 00-.75.375.6.6 0 00.375.751l10.521 3.512c.153-.068.307-.119.46-.153z" fill="#fff"/><path d="M64.397 222.516a.537.537 0 01-.375-.137l-4.229-3.325a.596.596 0 01.733-.937l4.229 3.325a.596.596 0 01.102.835.543.543 0 01-.46.239zM222.718 118.044c-.154-.579-.307-1.313-.495-2.08-1.722-1.228-3.563-2.319-5.405-3.359a9.962 9.962 0 00-3.683.887c-1.518-.938-3.359-1.518-5.047-.665-1.739.869-2.251 2.813-1.501 4.535.393.887 1.688 1.092 2.456.648.392-.221.631-.545.75-.903 2.251 1.722 6.155 2.694 7.878 2.66 1.824-.035 1.926 2.404.648 3.171-1.143.699 2.165 2.66 2.949 2.745.341.034.682.017 1.023-.017 1.109-1.824 1.33-4.297.427-7.622z" fill="#0b0a09"/><path d="M223.759 149.572c-.052 0-.103 0-.154-.017a.624.624 0 01-.392-.324l-8.935-18.807c-4.314.153-5.831-3.632-6.206-4.809l-1.637-.545a.605.605 0 01-.41-.563c0-.136.017-3.427 2.626-8.031 1.518-2.677 5.218-4.382 8.594-3.956 3.018.375 5.218 2.319 6.036 5.354.836 3.052.767 5.61-.205 7.605l8.287 18.091a.608.608 0 01-.187.733l-7.076 5.167a.58.58 0 01-.341.102zm-9.106-20.359c.222 0 .444.137.546.341l8.798 18.518 6.087-4.451-8.218-17.903a.617.617 0 01.017-.546c.955-1.739 1.04-4.092.256-6.974-.955-3.478-3.564-4.297-5.03-4.484-2.933-.358-6.105 1.074-7.401 3.359-1.926 3.393-2.353 6.019-2.455 7.008l1.484.494a.61.61 0 01.392.444c.034.187 1.125 4.603 5.456 4.194zM184.883 161.286a.527.527 0 01-.409-.171.612.612 0 01-.017-.852c.102-.102 10.367-10.572 20.547-16.403a.593.593 0 01.818.221.593.593 0 01-.222.819c-10.043 5.746-20.188 16.079-20.29 16.198-.103.137-.273.188-.427.188z" fill="#0b0a09"/><path d="M226.707 140.91c-26.685-1.433-25.696 8.951-33.045 21.552-4.024 6.889-6.889 11.254-6.889 11.254l35.671 21.621s12.431-15.466 17.955-29.993c6.974-18.398 3.308-23.514-13.692-24.434z" fill="#fff"/><path d="M222.445 195.933a.643.643 0 01-.307-.085l-35.67-21.621a.602.602 0 01-.273-.375.63.63 0 01.085-.46c.034-.051 2.916-4.416 6.872-11.22 1.312-2.233 2.336-4.382 3.325-6.462 4.62-9.617 7.979-16.574 30.265-15.38 9.037.477 13.863 2.165 16.113 5.627 2.456 3.751 1.876 9.617-1.909 19.608-5.491 14.46-17.921 30.01-18.04 30.164a.679.679 0 01-.461.204zm-34.835-22.422l34.682 21.024c1.995-2.54 12.601-16.454 17.528-29.43 3.598-9.463 4.212-15.175 2.029-18.517-2.029-3.104-6.564-4.621-15.175-5.099-21.518-1.159-24.69 5.491-29.106 14.698-1.006 2.098-2.046 4.263-3.376 6.548-3.206 5.507-5.695 9.429-6.582 10.776z" fill="#0b0a09"/><path d="M218.662 138.42l-2.523 2.2 1.006 9.429 3.546-3.546z" fill="#fff"/><path d="M217.144 150.646a.853.853 0 01-.204-.034.588.588 0 01-.392-.495l-1.006-9.429a.587.587 0 01.204-.512l2.524-2.182c.153-.137.375-.171.58-.12a.608.608 0 01.409.427l2.029 8.082a.608.608 0 01-.154.563l-3.546 3.546c-.137.085-.29.154-.444.154zm-.375-9.788l.836 7.878 2.421-2.421-1.705-6.821z" fill="#0b0a09"/><path d="M228.431 138.079l-7.742 8.424 4.042 4.893 6.564-9.94z" fill="#fff"/><path d="M224.732 151.993a.623.623 0 01-.46-.222l-4.042-4.893a.599.599 0 01.017-.785l7.759-8.423c.119-.119.238-.205.46-.187.171 0 .341.085.443.204l2.865 3.376c.17.205.188.495.051.716l-6.565 9.941a.62.62 0 01-.46.273h-.068zm-3.257-5.456l3.189 3.853 5.882-8.883-2.131-2.507zM184.404 157.159l-24.076 26.054v-31.34l24.076-26.054z" fill="#0b0a09"/><path d="M160.327 183.811a.997.997 0 01-.221-.035.598.598 0 01-.376-.562v-31.34a.61.61 0 01.154-.409l24.076-26.054a.605.605 0 01.665-.154.598.598 0 01.375.563v31.34c0 .153-.051.29-.153.409l-24.076 26.054a.654.654 0 01-.444.188zm.597-31.698v29.566l22.883-24.758v-29.584z" fill="#fff"/><path d="M180.243 156.239l-15.755 17.034v-20.479l15.755-17.051z" fill="#fff"/><path d="M184.404 157.159l-24.076 26.054 27.708.989 24.076-26.054z" fill="#0b0a09"/><path d="M188.035 184.799h-.017l-27.708-.989a.57.57 0 01-.529-.375.576.576 0 01.12-.631l24.076-26.054c.119-.119.307-.205.46-.188l27.708.989c.239 0 .443.154.529.376a.574.574 0 01-.12.63l-24.076 26.054a.617.617 0 01-.443.188zm-26.395-2.131l26.139.937 23.019-24.894-26.139-.938z" fill="#fff"/><path d="M171.376 178.439a.6.6 0 01-.358-.119.6.6 0 01-.137-.836l2.046-2.813a.6.6 0 01.836-.137.598.598 0 01.136.836l-2.046 2.813a.568.568 0 01-.477.256zM182.393 168.652a.612.612 0 01-.341-.103.6.6 0 01-.153-.835l2.745-4.041a.603.603 0 01.836-.154.602.602 0 01.153.836l-2.745 4.041a.602.602 0 01-.495.256zM182.717 174.534a.704.704 0 01-.324-.085.602.602 0 01-.188-.818l5.644-8.867a.602.602 0 01.819-.187c.272.17.358.545.187.818l-5.644 8.867a.572.572 0 01-.494.272zM212.2 173.819c-9.668-7.809-12.328-11.203-14.443-10.452-2.387.852 1.825 3.666 1.791 4.757-.051 1.654-7.707-3.189-10.367-.699-2.166 2.012 4.74 3.018 6.206 3.58 0 0-7.877-2.097-8.951.648-1.075 2.746 4.808 1.228 6.837 3.496 0 0-6.94-2.473-7.417.153-.478 2.626 5.354 2.387 7.622 4.996 2.267 2.626 1.244 5.44 7.587 11.953z" fill="#fff"/><path d="M201.066 192.865a.612.612 0 01-.426-.188c-4.126-4.229-5.235-7.008-6.036-9.054-.461-1.142-.819-2.063-1.569-2.933-.904-1.057-2.575-1.637-4.041-2.148-1.995-.699-4.075-1.415-3.717-3.359.102-.546.409-.989.921-1.279.153-.085.324-.171.528-.222-.341-.17-.631-.392-.801-.699-.256-.426-.256-.955-.017-1.552.46-1.176 1.807-1.636 3.359-1.756-.546-.324-.904-.716-1.023-1.176-.086-.358-.068-.921.562-1.518 1.825-1.705 5.32-.563 7.878.256.733.239 1.671.546 2.183.614-.188-.29-.58-.733-.853-1.04-.87-1.006-1.773-2.029-1.518-3.001.12-.478.495-.819 1.092-1.04 1.807-.648 3.615.92 8.014 4.689a278.222 278.222 0 007.008 5.865.595.595 0 01-.751.921c-2.932-2.37-5.2-4.314-7.042-5.9-3.904-3.342-5.661-4.876-6.837-4.467-.205.068-.324.153-.324.204-.085.359.784 1.365 1.262 1.91.716.819 1.279 1.467 1.261 2.115a.936.936 0 01-.392.733c-.596.426-1.551.136-3.478-.495-2.285-.733-5.388-1.739-6.701-.528-.171.153-.239.29-.222.341.188.716 3.393 1.5 4.604 1.807.716.171 1.279.307 1.62.443.29.12.46.444.358.751s-.409.477-.716.392c-2.404-.648-7.571-1.415-8.236.273-.068.17-.136.392-.051.511.205.358 1.381.529 2.319.665 1.603.239 3.41.512 4.467 1.688a.59.59 0 01.051.733.622.622 0 01-.699.239c-1.824-.648-5.149-1.432-6.292-.767a.717.717 0 00-.341.46c-.153.853.819 1.279 2.933 2.012 1.62.563 3.445 1.194 4.57 2.49.887 1.023 1.296 2.063 1.79 3.274.819 2.046 1.825 4.586 5.781 8.661.238.239.221.614-.017.853-.154.153-.307.222-.461.222z" fill="#0b0a09"/><path d="M230.923 164.338c2.984 3.342 5.797 6.923 7.519 11.032 1.671 3.99 3.001 11.084-1.483 13.931-3.871 2.455-9.105-1.824-11.953-4.297-4.314-3.751-8.27-7.775-12.805-11.185-3.41 6.326-7.23 12.396-11.135 18.432 6.889 5.286 12.362 12.362 20.513 16.062 10.793 4.894 23.155 4.058 31.647-4.859 7.758-8.134 9.685-19.729 7.025-30.403-2.797-11.202-10.794-21.637-19.609-28.748z" fill="#fff"/><path d="M234.708 211.877c-4.348 0-8.901-.989-13.351-3.018-5.422-2.456-9.736-6.429-13.88-10.265-2.165-1.995-4.399-4.058-6.752-5.866a.608.608 0 01-.136-.801c3.7-5.729 7.622-11.919 11.117-18.398a.644.644 0 01.392-.307.634.634 0 01.495.102c2.984 2.251 5.78 4.792 8.457 7.264 1.415 1.296 2.882 2.643 4.365 3.939 3.53 3.069 7.98 6.309 11.237 4.245 4.246-2.694 2.677-9.821 1.262-13.197-1.791-4.263-4.758-7.878-7.418-10.862a.598.598 0 01.052-.852.598.598 0 01.852.051c2.728 3.052 5.763 6.769 7.622 11.186 1.671 3.972 3.206 11.543-1.722 14.68-4.416 2.814-10.197-2.216-12.652-4.348-1.501-1.295-2.967-2.66-4.399-3.955-2.507-2.302-5.081-4.672-7.827-6.77-3.342 6.122-7.008 11.97-10.52 17.392 2.233 1.757 4.348 3.701 6.394 5.593 4.092 3.768 8.321 7.673 13.573 10.06 11.39 5.167 23.257 3.359 30.964-4.723 7.111-7.451 9.685-18.603 6.889-29.839-2.489-10.009-9.873-20.632-19.523-28.424a.594.594 0 11.75-.921c9.992 8.065 17.341 18.654 19.932 29.055 2.899 11.629.222 23.206-7.178 30.965-5.064 5.285-11.782 8.014-18.995 8.014z" fill="#0b0a09"/></g></svg>