<svg width="112" height="112" viewBox="0 0 112 112" fill="none" xmlns="http://www.w3.org/2000/svg"><g clip-path="url(#clip0)"><path d="M33 54.4h-.6a39.2 39.2 0 01-8.3-1c-1.5-.4-3-1-4.4-1.8a8 8 0 01-3.8-4.8c-.4-1.6-.2-3.3.6-4.8l.1-.3v-.1l-1.3-1c-.9-1-1.6-2-2.2-3l-.9-1.7-.5-1.6a1 1 0 00-.7-.7 6.6 6.6 0 01-4.5-4.2 8 8 0 01-.1-4.4c.3-1.4 1-2.8 2.2-3.7.6-.7 1.3-1.2 2.1-1.6.3-.2.3-.2.2-.5l-.6-1.1a5.8 5.8 0 011.5-6.3c1.6-1.6 3.8-2.6 6-3 1.5-.2 3-.4 4.5-.4l1.8-.1a.4.4 0 00.5-.4l.2-1 .5-3.2c0-.8.3-1.5.7-2.2a1.3 1.3 0 011.3-.6l2 .2 3.5.4 2.9.1H40c1 0 2.2 0 3.3-.3 1.9-.2 3.7-.6 5.6-1 1.1-.2 2.3-.1 3.4.1 1.3.3 2.5.9 3.4 1.8a.9.9 0 00.8.3h14l2.8.1h3c2.1.2 4.2 0 6.2.2.7 0 1.4.2 1.8 1l.4 1.2.4 3.3.2 1h.9a19.2 19.2 0 016.6 1 7.8 7.8 0 014.7 3.7c.7 1.3 1 2.7.7 4.2v.3a.5.5 0 00.2.6 8 8 0 013.3 5c.3 1.9 0 3.8-.8 5.5a7.9 7.9 0 01-3.2 3.7.7.7 0 00-.4.8c0 1.7-.5 3.4-1.4 4.9l-1.5 2c-.7.9-1.6 1.5-2.6 2-.5.2-.5.2-.4.7a8 8 0 01-.5 4.6c-.5 1.4-1.3 2.7-2.2 4-1 1.2-2 2.2-3.3 3a29 29 0 01-5.1 2.2l-1.6.5-.4.1.1 1.3c.2 1.5.2 3 .1 4.6v4.3l-.4 4.6L78 77l-.3 5.1v.3l.3-.3 1.7-3 1.1-2.3 2.5-5.7c.6-1.2 1.3-2.4 2.1-3.4.6-.7 1.4-1.3 2.2-1.8 1.3-.7 2.5 0 2.9 1.3.3 1 .2 2.2-.2 3.2l-3 6.8c-.4.8-.6 1.7-.9 2.5a14.6 14.6 0 00-.7 4.3l.4 3c.3-.2.4-.5.6-.8a114.7 114.7 0 016.8-11.9c.2-.3.3-.6.3-1v-3.6V66v-.7a.6.6 0 00-.3-.7c-.6-.6-1-1.3-1.2-2.2 0-.3.2-.5.5-.6a4 4 0 013.2.3c.6.4 1 1 1.3 1.6l.2.5c.1.5 0 .6-.4.8-.7.4-1.5.5-2.3.3h-.5v8l.2-.3 2.2-2.8 2.7-3.3 1-1 .3-.4a5.3 5.3 0 01-1.2-3 .5.5 0 01.5-.5c.9-.1 1.7 0 2.6.1a3.6 3.6 0 012.3 2l.5 1.7a.4.4 0 01-.2.4c-.7.4-1.5.5-2.3.4-.6 0-1.3-.3-1.8-.7a72.7 72.7 0 00-8.7 11.4c3.6-2 7.3-3.7 11-5.5l-.1-.2c-.4-.7-.6-1.4-.7-2.1a.8.8 0 01.3-.7.8.8 0 01.7-.3l1.5.2a3.5 3.5 0 012.5 1.5l.5 1c.6-.2 1-.7 1.8-.7a.5.5 0 01-.4.5l-.9.5c-.2.1-.4.2-.4.6l1.5-.2c.4-.1.9-.4 1.4-.1l-.3.3-.7.2-1.8.3-.2 1c-.3 0-.4-.1-.4-.4l-.1-1.4c-.2-.9-.9-2-2-2.2a1.7 1.7 0 01-.3 1.3 1.3 1.3 0 01-1.4.5c0 .4.3.6.5.8.7.5 1.6.9 2.5 1 .2 0 .4-.1.6.1 0 .3-.2.3-.3.3h-.9c-.8 0-1.5-.4-2.2-1l-.4-.3-2.1 1-3.8 2-2.6 1.2-2.4 1.4-.4.2c-.5.2-1 .6-1.2 1.1l-3 5.3-.2.5.8-.9c1-1.1 2.1-2 3.4-2.7l1.2-.4a1.6 1.6 0 011.7 2l-.7 2.9c-.3 1.3-.3 2.6.2 3.9l.1.4.2.4 1-.9 1.2-1 .4-.4c.7-.6 1.5-1 2.5-1.2h1a1 1 0 01.8.6 2.6 2.6 0 01-.3 2.2 13 13 0 01-2.4 3.4 8.7 8.7 0 00-2.1 4.3v4.8c0 1.2-.3 2.3-1 3.3l-.9 1.6a5 5 0 00-.2 1l-.3 1.3H96.9l6.2-.1 3.3-.1h3.2c.2 0 .4-.2.4.1 0 .2-.1.4-.4.4l-3.4.2h-5.8l-5.7.3-2.6.1-2.7.2-4.1.1-2.9.2-3.8.1-5 .1h-5l-1.3.2H53.5l-3.9-.1H37.2l-6 .2H23l-5.4.2H5l-2 .1h-.6a.3.3 0 01-.3 0v-.1-.1c0-.3 0-.3.2-.3 1-.2 1.9-.3 2.8-.2h8.3l.6-.1-.9-1.5c-.6-1.3-1.3-2.5-1.8-3.8l-1-3.5-.7-3.3c0-.6 0-1.2-.2-1.9-.3-1.5-1-2.9-2-4l-1-1.4c-.8-1-.6-1.9.4-2.6l.1-.1v-1-.4a1.5 1.5 0 011.7-1.6 2.7 2.7 0 012.3 1.3l1.5 2.5 1.7 2 .3.4a5 5 0 002 1.3 36.1 36.1 0 012.1 1l-.2-1a103.8 103.8 0 00-1.4-4.1l-3.6-3.5-2.3-2.2-2-1.5-1.3-1-1.1-1-1.3.7-1 .2-1 .1c-.3 0-.5 0-.5-.4A4 4 0 016 76.4l.6-.2c.4 0 .6 0 .6.4a7 7 0 01-.1 2.5.8.8 0 00.4 1 25 25 0 015.2 4.2l1.3 1.4.8.8 1.7 1.7.2.2c0-.4-.1-1-.3-1.4l-.7-1.8-2.5-6-1.2-2.6a47.7 47.7 0 00-3.3-6l-1-1.4-1 .5c-.8.4-1.6.6-2.5.6l-.5.1c-.5 0-.7 0-.7-.6v-.4H.6a.3.3 0 01-.1-.3.3.3 0 01.2-.2l.6-.1h1.5c.2 0 .4 0 .4-.2s-.1-.3-.3-.4L1 67.4c0-.3.2-.3.4-.3l.8.2 1.2.5 1-1.6c.9-1 2-1.5 3.2-1.7l1.2-.1.5.1.4-.3c.2 1 0 1.8-.3 2.6-.3.9-.8 1.6-1.5 2.2l.6.6.3.4 1.9 3a75.6 75.6 0 017.9 19.2l1 3.8.1.6c.5 1 1.2 1.8 2.2 2.4l.5.3v-.7l.2-.8c0-.6 0-1.2-.4-1.8-.5-.8-.8-1.7-.8-2.7a7 7 0 00-.5-2.6l-1.1-2.2c-.6-1-1.3-2.1-1.8-3.2l-.4-1.4-.5-2.2a16.1 16.1 0 00-3.4-5.7l-1.3-1.6a4 4 0 01-.9-3.1 1.7 1.7 0 011.9-1.5c.9 0 1.8.4 2.6.8 1.1.7 2.2 1.5 3.2 2.4l.7.5.1-.4a15 15 0 01.1-3.4 4 4 0 00-.4-2l-1-2c-.2-.5-.3-1.2-.2-1.8a1.2 1.2 0 011.5-.8l1.2.6 1.2 1.3 2.3 2.6 1 1.3.7-.4a1.5 1.5 0 011.4.3L29 70l.6.5v-.8c.3-1.5.4-3.1.6-4.7 0-.9.2-1.7.3-2.6a27.3 27.3 0 011.8-6.8l.6-1.2zM71 23v.5a2.3 2.3 0 01-.7 2.1 2 2 0 01-2 .6l-1-.1-.1 1a2.3 2.3 0 01-2 1.8 7 7 0 01-1.4 0l-.7-.2-.2.9a2.5 2.5 0 01-2.4 2c-1 0-1.8-.3-2.6-.7a.5.5 0 00-.6 0c-.7.5-1.5.9-2.3 1-.6.2-1.2.1-1.7-.2a1.4 1.4 0 01-.9-1.4v-.5l-1.2.5c-.6.2-1.2.3-1.8.1a1.8 1.8 0 01-1.4-2v-.2h-.1l-.4.2a3.2 3.2 0 01-3.3.4c-.2 0-.3-.1-.4-.3a1.6 1.6 0 01-.6-1.6l.2-1-.6.2c-.6.3-1.2.5-1.9.4a1 1 0 01-.4-.1c-.7-.6-1.2-1.3-1.1-2.3v-.4l-3.3-1.1-3.5-1.1-4.1-1.3-3-1a2.9 2.9 0 01-1.8-2.7c0-1.8.1-3.6.4-5.4V10h-.4c-.9-.2-1.8.2-2.7 0h-.2c-.7.1-1.3.4-2 .2h-.3l-.6.2-1.1.4-.8.1a.5.5 0 00-.5.2l-.1.2c-.4-.2-.5.1-.8.2a1.4 1.4 0 00-1 1 .7.7 0 00-.8.3l-.5.8c-.5.1-.4.2-.7.6-.4.6-.4 1.4-.4 2 0 .4 0 .8.2 1.1.2.7.5 1.3 1 1.8l1-.1.8-.2a7 7 0 013.7.2 1.8 1.8 0 011.3 1v1.3c-.2.3-.4.7-1 .7a1.3 1.3 0 01-1.3.2c-1.1 0-2.3-.4-3.4-.8l-1.3-.5a.5.5 0 00-.7.2s-.1.2-.3 0l-.2.2-.2.1c-.3 0-.5.2-.7.3a8 8 0 00-2.3 2.7 7 7 0 000 4.7c0 .3.1.6.5.7l.2.3v.4c.4 0 .5.2.7.4 0 .2.2.3.3.4l.7.4 1.2.5.4-1.5a3.9 3.9 0 012-2.3l1.4-.5a6.5 6.5 0 015 .7l.2.2.4.8a2.5 2.5 0 01-1 2.9l-1.7 1c-.5 0-1 .3-1.5.5-1 .2-2 .2-3 .2-.4 0-.6.2-.5.7.1.3.3.6.7.7a.5.5 0 000 .7l.6 1c.6 1 1.4 2 2.3 2.7.8.6.8.6 1.7 0a8.3 8.3 0 015.5-1.5 2.6 2.6 0 011.8 1.1l.1.3c.1 1 0 1.6-1 2.2a5 5 0 01-2.1.8c-1.1.2-2.2.1-3.3-.2l-1.6-.4-.5 1c-.4 1-.5 2-.2 3a5 5 0 001.7 3c.4.7 1.3.8 1.9 1.4l.2.1 2.5 1 2.6.6 2 .3h.8c.5.1 1 .3 1.6.3h3a.6.6 0 00.6-.4l1-1.3c1-1 2-2 3.4-2.7l2.9-1.5c1.2-.6 2.6-1 4-1a1.1 1.1 0 011.1 1.2v.4h2.1c.7-.1.8.1.8.7l-.1 1-.1.8 3.5.3v.7l-3.5-.2-.2 3 3.3.2v.8l-3.3-.2-.1 1-.1 1.2c0 .5-.2.6-.7.6a39 39 0 01-2.1-.3l-1.5-.3-.2.6c-.2.9-.7 1.8-1.2 2.5l-1.6 2-.8 1.4a28 28 0 00-1 7.4l-.1 5.7-.2 3.3-.2 3.5c0 .5 0 1 .2 1.5.6 1.2 1 2.6 1.4 4l.3.8.5-1 .9-2.3.4-1.5.4-1.4.2-1 1.1-4a14 14 0 012-4.2l1-1a.8.8 0 01.9 0 1.8 1.8 0 011 1.3c.3.9.2 1.8-.2 2.7l-1 3.3v1.7l.5 2.8c.2.6.3 1.2.2 1.7a32 32 0 01-.7 2.3 7 7 0 00-.1 4.4l.5 1.7.6 1.3.1-.4.2-1.3.2-2.2.2-1.5.8-4.3L52 82l.8-2.7-.3-.3c-1-.3-1.6-1.1-2.4-1.8-.3-.3-.2-.4 0-.7l.3-.1a73.4 73.4 0 013.3-1.2c1 0 2.1.4 3 1l.1-.1a1.1 1.1 0 011.1-.5c.6 0 1.2.3 1.6.8.7.5 1.2 1 1.6 1.8l.5.7.8-.6 1.1-1.1 1.6-2a2.4 2.4 0 012.5-1l1.3.4.2-1.5.2-2.5.2-2.3.3-3.4a1 1 0 00-.2-1c-.5-.4-.9-1-1.2-1.5l-1.1-2.7c-.2-.3-.3-.7-.6-1a.6.6 0 00-.6-.4c-1 .2-2 0-3-.5a77.4 77.4 0 01-5.1.1v-.2l-.1-.4.1-3.5.3-3.6v-1.9c.1-.5.3-.7.8-.7a17.6 17.6 0 014 .9 1.8 1.8 0 011.2-.8c1.2-.2 2.5-.2 3.7.1a29.8 29.8 0 016.4 2.6c.7.4 1.3.9 1.8 1.4l.7 1.3 1 2 .5 1.6.6-.1.8-.3c.6-.1 1.1-.3 1.7-.6l.3-.2a36.4 36.4 0 003.6-1.7c.7-.3 1.4-.8 2-1.5l1.1-1.6 1-1.4.8-2 .4-1.8c0-.6 0-1.1-.3-1.7h-.5l-2.8.5c-1 .2-1.9 0-2.7-.5a3.6 3.6 0 01-1.7-2 2.1 2.1 0 01.9-2.3c.6-.4 1.3-.5 2-.4a8 8 0 015.1 2.7.5.5 0 00.7 0s.2 0 .3-.2c.4-.2.6-.5 1-.5l.3-.2c.8-.6 1.4-1.4 1.9-2.2A9 9 0 0096 36l.3-1.7-.6.1c-1.4.6-3 .6-4.4.2-.8-.2-1.6-.5-2.2-1a2.7 2.7 0 01-1.2-2v-1a3.4 3.4 0 012.4-1.6l2.1-.3a4 4 0 012.2.5c1 .6 1.8 1.6 2.3 2.7.2.4.5.3.7.1l.4-.3 1-1.1c.6-.7 1-1.5 1.2-2.4.5-1.1.7-2.4.4-3.6l-.4-1.4-.3-.6a6.4 6.4 0 00-2-2.2l-.3.5a5.2 5.2 0 01-2.9 2.7c-1.5.5-3 .6-4.4-.5a2.4 2.4 0 01-1-2c0-.3 0-.7.2-1a5 5 0 013.1-2.3c1.3-.3 2.6-.3 3.9.2l.7.2c.1-.4.2-.8 0-1.2A4 4 0 0097 15c-.3-.7-.7-1.3-1.3-1.8-.5-.4-.9-1-1.6-1l-.2-.2-.9-.5-1.1-.3-2.7-.5c-1-.2-2-.2-3-.2h-.6v.5l.1 2.3c.1 1 .2 2.1.1 3.2 0 .7-.2 1.4-.8 2l-1.5.5a146 146 0 01-8 1.4v.2c-.5.7-1 1.4-1.7 1.8a2.8 2.8 0 01-2.1.5H71zM46.2 15l-.6-.8a2.8 2.8 0 01-.2-2.2c.4-1.1.9-2.3 1.5-3.3a20 20 0 012.7-4c.5-.6 1.2-1 2-1.4.7-.3 1.4-.5 2.1-.5l1.6-.2a5 5 0 00-1.7-1 7.6 7.6 0 00-4.4-.5l-4.3.8a29.5 29.5 0 01-6.9.4h-5.4l-5.2-.6c-.6 0-.8 0-1 .7L26 3.7 25.2 8l-.5 4.6-.2 1.7V17a1.6 1.6 0 00.9 1.5l2 .8 5.2 1.5 2.4.8 2.8.9 1.7.5a.4.4 0 00.6-.1l1-1.4.2-.1.8-.5a7 7 0 012.2-1c1-.1 2 0 2.5.9.3.3.4.7.6 1.1h2.4l1 .5c.4.3.7.7.8 1.2 0 .4 0 .9-.2 1.2l.5-.2c.6-.3 1.4-.5 2-.4l.8.1.5.5a1.7 1.7 0 01.8 1.5v.5l.7-.1.7-.2a1.7 1.7 0 011.8 1.7c0 .5-.2 1-.6 1.4l-.5.7 2.4.6h.6a2.5 2.5 0 001.4-2.5l-1.1-.5-3.4-1.5c-.3 0-.5-.2-.8-.4l-.1-.3a.4.4 0 01.3-.1h.5l3.5 1.6a48.8 48.8 0 003.7 1.1 2 2 0 001-.4c1.2-1.8 0-2.2-.1-2.5l-.6-.2-4.3-2.1-1-.6c-.1-.1-.3-.2-.1-.4.1-.2.3-.1.4 0h.2l1.9 1.1c1 .6 2.2 1 3.3 1.6l1.8.7c.5.2 1 .2 1.4.2 1.2-.2 1.6-1 1.5-2.2a.8.8 0 00-.5-.7 32.7 32.7 0 01-3-1.5l-3.1-2a.6.6 0 01-.3-.2v-.4c0-.2.2-.1.4 0l2.8 1.8c1.2.7 2.5 1.4 3.8 1.9a2.8 2.8 0 003-.5 4 4 0 001-1.2 52.7 52.7 0 01-3.7-2.3l-2-1.8-2.4-1.9-3-2.5-2-1.6c-.4-.3-1-.5-1.5-.5l-1.4-.1c-1.1 0-2.2 0-3.2.4-.3 0-.5.2-.7.3l-.8 1.1c-.5.8-1.1 1.6-1.8 2.3a5 5 0 01-4.7 1.4c-.4 0-.8-.3-1.2-.5zm18.4 95.7h6.5l4.7-.2h2.4l3.4-.2c1 0 .8.2 1.2-.9l.6-2.5a11.3 11.3 0 000-3.8v-2.5c0-1.2.2-2.4.6-3.6l1-2.4c.5-1.2.8-2.5.8-3.8V89c0-.8-.2-1.6-.3-2.3a14 14 0 01-.2-4.4c.2-1.6.7-3.2 1.3-4.6l.5-1.2 1.9-4.3c.5-1 .8-2 1-3 .1-.8 0-1.5-.3-2.2a1.3 1.3 0 00-1.6-.6l-1.5 1a9 9 0 00-2 2.9c-.7 1-1.2 2.3-1.7 3.4L81 78.2l-1.1 2A125.8 125.8 0 0177 85c-.5.5-1 1-1.3 1.6-.7 1-1.2 1.9-1.6 2.9-.5 1-.8 2.2-1.1 3.4l-.4 2.1a56 56 0 00-.6 10.6l.2 3.8v.2l-.1.2-.3-.1v-.3c-.2-1.2-.4-2.4-.4-3.6a32.8 32.8 0 01-.1-5.6l-.5-1.1-2-3.6-2.3-3.3-1-1.5c-.6-1.2-1.2-2.6-1.6-4-.3-1-.5-2-.9-2.9-.3-.5-.4-1.1-.6-1.7L61.3 80c-.6-1.2-1.4-2.3-2.4-3.2-.3-.3-.7-.5-1.2-.5-.3 0-.5.1-.6.5-.2 1-.1 2 .3 2.9l1 2a25 25 0 012.1 5.7c.1 1.6 0 3.1-.4 4.7-.2 1.4-.2 2.8 0 4.2 0 1.2.5 2.3 1.1 3.4l.9 1.6c.4 1 .7 2.1.8 3.2a14.4 14.4 0 001.5 5c.2.3.2.8.2 1.2zM84.6 10V8.7a324.2 324.2 0 00-.4-3.9c-.3-1-.6-1.5-1.7-1.4h-4.9l-6.2-.2h-7.7l-2-.2H59c-2 0-3.9 0-5.8.3a5 5 0 00-1.7.6c-1 .7-2 1.6-2.7 2.7a19.5 19.5 0 00-2.8 5.7v1.3a1.8 1.8 0 001.5 1.2 4.4 4.4 0 004-1L53 12l.8-1.3c.4-.5 1-1 1.6-1a19 19 0 012.2-.4h2c1 0 1.9.3 2.6 1l5 4 4.4 3.7 2.3 1.7c.4.3.9.4 1.4.3l4.5-.8a25 25 0 003.8-.7A1.5 1.5 0 0085 17c.1-1.5 0-3-.2-4.6l-.1-2.3zM40.9 110.5c4.3 0 8.5.2 12.7 0l.4-.5 1-1.4c.6-1 1-2 1.4-3 0-.4.2-.8.4-1.2l.9-2 1.1-2.4 1-2v-.6a10 10 0 01-.3-3.3l.5-4.5.1-1.8c0-1-.3-1.8-.6-2.7l-.7-1.6-.5-1-1 1.3c-.5.5-.8 1.1-1 1.8l-1 2.7c-.4 1-1 2-1.7 3l-2 2.4c-1.1 1.6-2 3.4-2.6 5.3l-1 3-.8 2-.9 3.3-.5 2-.1.5c0 .2-.1.3-.3.2-.2 0-.2-.2-.2-.3v-.4l.5-1.7.3-1.5.2-.8.8-2.5.8-2c.3-.8.4-1.6.8-2.3.5-1 .1-2-.2-2.9l-1-2.8v-2.4l.8-2.7c.2-.7.3-1.4.2-2.1l-.5-2.4c-.3-1.5-.2-3.1.3-4.6l.7-2c.3-.7.3-1.5 0-2.1-.2-.8-1-1.1-1.5-.4a14.4 14.4 0 00-2.1 4.1l-.8 2.8-.5 1.7-.8 3.2-1.3 3.6-1 2.3a30.4 30.4 0 00-1.3 7.8c0 1.6.2 3.1.3 4.7l.4 3.2c0 1 .3 2 .6 3zm-7.2.2l-.2-1-.2-2-.3-3.3a21.8 21.8 0 00-.7-6c-.4-1-.7-2.1-.7-3.2 0-.6-.1-1.3-.4-1.8l-.6-1.8c-.3-1-.7-2-1.2-2.9L28 86.2l-.8-1.4-.9-1.8-2-3.3-3.5-4.3v-.2l-.7-.7-2.6-2.1c-.9-.8-2-1.4-3-1.8-.5-.2-1-.3-1.4-.2a1 1 0 00-.9.8c-.2.4-.2 1 0 1.4.2.8.7 1.6 1.3 2.2l1.4 1.7 1.9 3c.6 1 1 2 1.2 3.2 0 .4 0 .8.2 1.2.2 1 .6 2 1 2.8l1.9 3 .1.4c.5 1.1.7 2.3.8 3.6 0 .7.2 1.4.6 2 .5.8.7 1.6.5 2.5-.1 1-.2 2 0 2.9 0 1.6.4 3.1.9 4.6l1.4 4.9.2.3 8-.2zM71.4 99v-.3L72 95l.9-3.6c.4-1.6 1.1-3.1 2-4.5l1.7-2.4c.3-.3.4-.7.4-1.1l.1-1.2.2-2.4.1-2 .1-2.4c0-1 0-2.2.2-3.2l.3-3v-2.7l.2-3.9-.2-3.7a12.4 12.4 0 00-1.4-5c-.3-.7-.7-1.3-1.1-1.8-.7-.9-1.7-1.3-2.7-1.8-1-.5-2-1-3-1.2l-2.9-.8c-.8-.2-1.7-.2-2.6 0-.3.1-.5.2-.6.5a.7.7 0 00.4.7l1 .6 2.7 1c1.1.4 2.1 1 3 1.7a2.1 2.1 0 01.8 1.6.8.8 0 01-1.1.8l-.9-.4-2.1-1a12.6 12.6 0 00-3.7-.4 1 1 0 00-.8 1.3 2.4 2.4 0 001.2 1.5l1.7.9a4 4 0 011.8 2 40.7 40.7 0 002 4.2l.7.8c.2.2.4.4.2.6-.2.1-.2.5-.2.7l-.1 1.3-.3 3c-.1 1.7-.1 3.4-.4 5v1.4c.1.8 0 1.6-.3 2.3l-.2.7-.2 1.5v.3l.3-.2c.6-.8 1.3-1.5 2.2-2l1-.5a1.2 1.2 0 011.2.1 1.7 1.7 0 01.7 1.4c-.1 1-.5 2.1-1.1 3a14 14 0 00-1.3 2 8.7 8.7 0 00-.6 4.2c.1 1.3 0 2.6-.6 3.7l-.9 3 .1.6 1.3 2.3.3.5zm-31 11.6l-.1-.5c-.5-1-.7-2-.8-3l-.5-4.9c-.1-1.2-.2-2.5-.1-3.8 0-1 .2-2 .5-3.1.2-1.5.5-3 1-4.4v-.7l-.5-1.7c-.5-1.5-1-3-1.7-4.4a63.2 63.2 0 01-2.5-6.2c-.6-1.1-1.3-2-2.3-2.7L32 73.9l-3.3-3.4c-.4-.5-.9-.9-1.4-1.2a.9.9 0 00-1.3.2c-.1.3-.3.5-.3.8-.2.6-.3 1.2-.2 1.8 0 1 .3 1.8.8 2.6l1.4 2 .9 1.3a11 11 0 012.2 6.4c0 .7.1 1.4.4 2l1.2 2.9c.2.4.3 1 .3 1.4 0 .7-.1 1.3-.3 2-.5 1.4-.5 3 0 4.4a26.6 26.6 0 011.2 5.3v3.7l.5 4.2v.2h6.3zM40 63l-.4.3-.7.3a.4.4 0 01-.3-.1v-.3l.3-.2 1-.7 1-.8 1.3-1.4a6 6 0 001.2-2.3l.7-2.3c0-.5.3-1 .7-1.4l1.5-1.5c.2-.3.5-.6.6-1a.5.5 0 00-.3-.8c-.3 0-.6-.1-.8 0-.8 0-1.6.3-2.2.9l-3 2.4a1.2 1.2 0 01-1.6 0 .5.5 0 00-.5-.2l-1.3.2a132.1 132.1 0 01-3.3.3l-.2.3c-.5 1-.9 1.9-1.2 3l-.9 3.3-.7 6-.4 3.7a.8.8 0 00.1.8l2.3 2.3c.7.7 1.5 1.2 2.2 2 .8.8 1.4 1.9 1.8 3l1.4 3.8.3.4v-.6l.1-2 .2-2.8.1-5v-1.7l.2-2 .3-3 .5-3zm43.3 47.2h.6l5.5-.3a.5.5 0 00.6-.4l.4-1.2c.2-.7.3-1.5.3-2.3l-.2-3.6c0-2.5.8-4.8 2.5-6.5l1-1.2c.5-1 .7-2 .5-3 0-.7-.3-1.4-.5-2-.4-1-.5-2.2-.3-3.2l.6-2.3.3-1.5a.7.7 0 00-.9-1c-.3 0-.6 0-.9.2a8.2 8.2 0 00-3 2.2 28.7 28.7 0 00-3.4 4.8v1.7A12.6 12.6 0 0185 96l-.8 2.6a13 13 0 00-.3 3.2l.1 3.2c0 1 0 2-.3 2.8l-.5 2.4zm-58.3.6l-.6-2.4-1-3a18 18 0 01-.8-4.6 1.6 1.6 0 00-1-1.4c-1.2-.8-2.2-2-2.6-3.4-.2-.6-.6-1-1-1.4l-1.5-.6c-.6-.2-1.1-.5-1.6-.9-.6-.5-1.2-1-1.6-1.6-1-1.3-1.8-2.6-2.6-3.9a2.5 2.5 0 00-2.3-1.2.9.9 0 00-1 .8l.2 1.5c.4 1.5 1.3 2.7 2.2 3.9 1.2 1.5 2.2 3.1 3 4.9.6 1.1 1 2.3 1.2 3.6.1 1 .4 2.1.7 3.2a15 15 0 004.5 6.2 1.6 1.6 0 001.2.5h3.2c.4 0 .9 0 1.4-.2zm33-28.6l-1.5-3.5c-.7.4-1.5.6-2.3.7h-.7c-.2.2-.2.5-.3.8l-.8 3a125.7 125.7 0 00-1.6 7.3l-.4 2.9-.2 1c.1 0 .2 0 .3-.2l1-1.2a26.4 26.4 0 003.2-4.6l1-2.7c0-.4.2-.7.4-1 .5-1 1.1-1.8 2-2.5zm7 5.3c.2-.3.4-.7.4-1.1l.5-3.1c0-.8.4-1.5.8-2.1.3-.6.8-1 1.2-1.6.4-.7.8-1.3 1-2 .2-.7.2-1.4 0-2l-.3-.3a2.3 2.3 0 00-3.3.4l-1.3 1.8c-.5.6-1.1 1.2-1.8 1.7-.3.2-.3.2-.1.6l.6 1.2c.7 1.7 1.3 3.5 1.8 5.3l.4 1.2zm-19.3-59h.4c.7-.2 1.3-.5 1.8-1a78 78 0 003-3 .9.9 0 000-1.2 2 2 0 00-2.3-.7 10 10 0 00-4.3 3 2.2 2.2 0 00-.4 1.9 1 1 0 00.8.9l1 .1zM34.6 53h.7l3.4-.4a1 1 0 00.8-.4l1-1.4a7 7 0 012.4-1.8l2-1c.3 0 .5-.2.6-.4.3-.4.1-.8-.4-.8a3 3 0 00-.8 0c-2 .6-4 1.4-5.7 2.4a14 14 0 00-3.2 2.5c-.4.4-.6.8-.8 1.3zm6.8-27c.2 0 .4 0 .6-.2a10.4 10.4 0 004.6-3.6v-.4a1.8 1.8 0 00-1-1 2.6 2.6 0 00-2 .1c-.9.4-1.7 1-2.5 1.7a6 6 0 00-1 1.3c-.4.8.3 2.2 1.3 2.1zm12.1-1h-.4l-.5.1a9 9 0 00-3.4 2.4c-.3.3-.5.6-.6 1a1.1 1.1 0 001 1.4c.9.1 1.8 0 2.6-.6l2.9-2.3a.8.8 0 00.1-1 1.6 1.6 0 00-1.7-1.1zm-40.7 7.6h.6c1.5.2 3 0 4.3-.5.6-.2 1.2-.5 1.7-1a.8.8 0 000-1.2 2 2 0 00-.8-.4l-1.8-.3h-1.1l-.2.1a.8.8 0 01-.7.3h-.3a3 3 0 00-1.7 3zm80 1c1 0 1.8-.2 2.6-.5.4-.2.5-.3.3-.7a3.3 3.3 0 00-3.3-2.2c-.7 0-1.3.1-2 .3-.4.1-.8.4-1.2.7-.3.2-.3.5 0 .9.2.4.6.7 1.1.9.8.3 1.7.5 2.5.5zm-38.4-2v-.1h.5a5.3 5.3 0 003.5-2.6 1 1 0 00-.6-1.6h-.7c-.7 0-1.3.3-1.9.7-.6.3-1.2.8-1.7 1.4a3 3 0 00-.5 1 .7.7 0 00.4.9l1 .2zM96.5 20c-.3-.5-.4-.5-1.1-.7-.8-.2-1.7-.2-2.5 0a4 4 0 00-2.2 1.2.9.9 0 00.1 1.4c.4.4 1 .6 1.5.6a3.2 3.2 0 002.4-.6l.2-.1c.6 0 .8-.4 1-.8l.6-1zM3.7 69.9l.7-.2c1-.1 2-.5 3-1.2A3 3 0 008.6 67l-.9.2c-.7 0-1.3-.1-1.4-1.3v-.3a4.4 4.4 0 00-2.6 4.3zm85.6-27.7v-.1c-1.1-1-2.4-1.5-3.7-1.7l-1.4.1a.7.7 0 00-.3 1.2c.3.5.8.9 1.4 1 .5.2 1.2.2 1.8.1.4 0 .9 0 1.4-.2.3 0 .6 0 .8-.4zM50.5 77l1.2 1c1.1 1 2.4 1 3.8.6l.6-.3a.4.4 0 00.3-.4v-1l-.8-.6-.5 1.1a.7.7 0 01-.9.5l-.6-.1a1.2 1.2 0 01-1-1.2v-.7c-.7.5-1.6.4-2.1 1.1zm52-14.2c0 1.1-.4 1.9-1.7 1.9.6 1.3 2.5 1.9 4.1 1.2 0-1.2-1.3-3-2.4-3zM4.6 77.7c-.8.4-1.3 1.6-1.2 2.8.8 0 1.7-.2 2.4-.6a1.9 1.9 0 00.8-1.5c-1.1.6-1.6.4-2-.7zm20-37.3a1 1 0 00-.8-.4 6.2 6.2 0 00-3.7.7h-.3c-.2 0-.2 0-.3.2.8.9 4.2.6 5-.5zm69 23.6c.7 1 2.3 1.2 3.5.5-.5-1.3-1.3-2.2-2.2-2.1.2 1-.3 1.7-1.3 1.6zM68.1 80.2a7.3 7.3 0 00-2 5l.3-.4 1-1.5c.6-.8.6-1.7.7-2.6v-.5zm-1.4-28.8a1.3 1.3 0 00.7.9l1 .4 1.1.5c0-.4 0-.5-.3-.7a53 53 0 00-2.5-1zM17.6 20.5c-.7-.3-1.5-.4-2.3-.3.7.4 1.5.5 2.3.3zm53.2 34a1 1 0 00-.7-1.2v.5c0 .6 0 .6.7.7zm-5.5 3.1c-.7-.6-1-.6-1.5-.2.5.2 1 .3 1.5.2zM9 65.7h.1l.2-.8h-.6l.3.8zm94.8 3.5c-.6 0-.6 0-.4.5l.4-.5zM93 62.6l.2-.3-.2.1v.2zM6.6 77.1l.1-.1-.2-.2v.3zm94.7-13.3l.3-.2-.3.2zM67.6 53v.1h.2-.2z" fill="#1B4ECC"/><path d="M8.3 99.6h-.5l-1.5-.7a34.3 34.3 0 00-4.3-2l-.2-.3c.2 0 .3-.1.4 0l2.3.7 2.8 1.4c.4.2.7.4 1 .8v.1zM101.8 93.3a.4.4 0 01-.1-.2.4.4 0 010-.3l1.2-1 2.3-1.7.7-.5c.3-.2.3-.2.6.2l-1.3 1-1.3 1c-.7.3-1.3.8-1.9 1.4l-.2.1zM105.1 93.7l-.2.2-2 1-1.2.6h-.5c0-.3 0-.4.2-.5a126.8 126.8 0 013.4-1.6c.2-.1.3 0 .3.3zM7.8 97a.4.4 0 01-.6 0 22.9 22.9 0 01-2-1.8l-.4-.5v-.3h.4l1 1A99.5 99.5 0 017.9 97z" fill="#1B4ECC"/><path d="M33.6 110.6l-8 .3-.2-.3-1.4-4.9c-.5-1.5-.8-3-1-4.6l.1-3c.2-.8 0-1.7-.5-2.4-.4-.6-.6-1.3-.6-2 0-1.3-.3-2.5-.8-3.6l-.1-.3-1.8-3.1c-.5-1-.9-1.8-1.1-2.8l-.2-1.2a9 9 0 00-1.2-3.2l-1.9-3a17 17 0 00-1.4-1.7c-.6-.6-1-1.4-1.3-2.2-.2-.5-.1-1 0-1.5a1 1 0 011-.7c.4 0 .8 0 1.3.2 1 .4 2.1 1 3 1.7l2.6 2.2.7.7v.2l3.5 4.3 2 3.3 1 1.8.7 1.4 1.3 2.5c.5 1 1 1.9 1.3 2.9l.5 1.7c.3.6.4 1.2.4 1.9 0 1 .3 2.1.7 3.1l.5 1.7.3 4.4c0 1 0 2.1.2 3.2l.2 2.1.2 1zM83.2 110.2l.5-2.4c.3-.9.4-1.9.3-2.8v-3.2a13 13 0 011-5.8c.5-1 .8-2 1.1-3l.3-2.4v-1.7l.1-.7a33.5 33.5 0 013.2-4.1c.9-1 1.9-1.7 3-2.2l1-.2a.7.7 0 01.8 1l-.3 1.5-.6 2.2c-.1 1.1 0 2.2.3 3.3.3.6.4 1.2.6 2 .1 1 0 2-.6 3l-1 1.2a9.1 9.1 0 00-2.5 6.4l.2 3.7c0 .8 0 1.5-.2 2.3l-.4 1.2a.5.5 0 01-.6.4l-5.6.3h-.6zM3.7 69.9a4.4 4.4 0 012.6-4.3v.3c0 1.2.7 1.3 1.4 1.3l.9-.2a3 3 0 01-1.2 1.5c-1 .7-2 1-3 1.2l-.7.2zM50.5 77c.5-.7 1.4-.6 2-1.1v.7a1.2 1.2 0 001.1 1.2l.6.1a.7.7 0 00.9-.5l.5-1.1.8.5V78a.4.4 0 01-.3.4l-.6.3c-1.4.4-2.7.4-3.9-.6l-1.1-1zM102.5 62.8c1.1.1 2.4 2 2.4 3.1-1.6.7-3.5 0-4-1.2 1.2 0 1.6-.8 1.6-1.9zM4.6 77.7c.4 1.1.8 1.3 2 .8a1.9 1.9 0 01-.8 1.4c-.7.4-1.6.6-2.4.6-.1-1.2.4-2.4 1.2-2.8zM93.6 64c1 0 1.4-.6 1.3-1.6.9 0 1.7.8 2.2 2.1-1.2.7-2.8.4-3.5-.5zM9 65.7l-.3-.8h.6l-.2.8H9zM103.8 69.2l-.4.5c-.2-.5-.2-.5.4-.5zM93 62.6v-.1l.2-.1-.1.3H93zM6.6 77l-.1-.2.2.2h-.1zM101.3 63.8l.2-.3.1.1-.2.3v-.1z" fill="#FBF9F9"/></g><defs><clipPath id="clip0"><path fill="#fff" d="M0 0h111.5v112H0z"/></clipPath></defs></svg>