<svg width="318" height="376" viewBox="0 0 318 376" fill="none" xmlns="http://www.w3.org/2000/svg"><g clip-path="url(#clip0)"><path d="M314.7 160.2v17l-.9 25-39 .9 3.6-8.8 4.6-12.7 31.7-21.4z" fill="#FBF9F9"/><path d="M313.2 159.2l-27 .4v5.1l-2.8 15.5 1 1.4 28.8-22.4zM270.6 160.2l-4.7 31.2-29.5-8.4.3-21.4 3.9-1.4h30zM256.8 203h-20l-.4-7.1 20.4 7.2zM283.2 54.7c-.4-.8-1.7-1.5-2.2-2.3l-1.4-1.8c-1.3-1.5-2.7-1.1-4.3-2.4l-.3-.2-2.1-3c-.2.4-8.7-2.6-8.7-2.6-.9-.4-1.8-.6-2.8-.7l-1.2-.1a31.8 31.8 0 00-8 .6l-6.6 1.4-2 1.3-2.3 1.7c-1.6 1-4 .2-5.8 1.1l-3.3 2.1-1.6 1.3c-.7.5.6 1.6.2 2-1 .8-2 1.7-2.9 2.7l.1.3.8 1.2c.4.6 1 1 1.5 1.5 1.2.9 2.6 1.6 4 2.2.9.3.8 1.7 1.8 2.1 1.6.6 2.7 2.2 4.3 2.8 1.6.6 2.9.2 4.2 1 .8.5 2.4 0 2 .7l-.3.3a31.7 31.7 0 007 1.2l7 .7c2.2-.7 4.4-1 6.4-1.8l3-1.7a19 19 0 013.4-1.7h.3l1-1c1.8-1.5 3.9-2.5 5.7-3.9.7-.4 1.2-1 1.7-1.6l.4-.6a1.5 1.5 0 011-.7l.1-.2c-.5-.2.1-1.5 0-1.9z" fill="#FBF9F9"/><path d="M188.2 260.2h8l7.4-.1H221.7c.4 0 .9 0 1.3.2a2.2 2.2 0 012 2.3c.2 3.5.4 7 .4 10.6v23.1c0 2 0 2.1 1.9 2.2h2.2c.2 0 .5 0 .7-.2v-.2a4.9 4.9 0 011.9-6.2c1.3-1 2.6-1.9 4-2.7l2.5-1.5a6 6 0 002.7-6.2 46 46 0 00-3.4-10.5l-1.6-3.7-1.9.3c-1.4.1-1.9 0-2.3-1.5l-3.5-10.4-2.4-6.6c-1.4-4-2.9-8-4-12.1a9.3 9.3 0 012.2-8.9c2.7-3.3 5.9-6.1 9.5-8.5 3.8-2.4 7.4-5.2 11-8 1.1-1 2.1-2.1 3-3.4a3.8 3.8 0 00.3-3.8h-3l-7 .1c-2.1 0-2.3-.1-2.5-2.1a76.7 76.7 0 01-.4-6.6 2 2 0 00-.7-.8 3.3 3.3 0 01-1.7-3c0-.4-.1-.7-.4-1-1.3-1.2-1.2-3-2-4.5v-1.2l.4-1.8a1.7 1.7 0 012-2l1.2.2 1.4.2v-2l-.3-16.9v-.3c0-2.3.3-2.6 2.7-3l3.5-.2 16.5.1 10.8-.2a1.7 1.7 0 001.7-1.3c.5-1.4 1.2-2.9 2-4.2a7.3 7.3 0 018.6-3 7.6 7.6 0 015.2 5.5l.6 2.1 3-.2 14.4-.3c3 0 6 .2 8.9.3 2.2.1 2.6.6 2.6 2.9l-.1 12.6-.1 17.7-.2 8.7v.5c-.5 2.6-.4 2.5-2.6 2.5l-17 .6-6.2.3c-.4 0-.8 0-1.2.2v1.4l2.4 18.4c.9 6.6 2 13.2 2.7 19.8l1.8 19.7 1.4 14.6c.4 3.5.5 7 1 10.5.6 4 1.4 8 2.2 12l.3.8c1.7 4.4 2.7 9.2 2.7 14a2.3 2.3 0 01-1.7 2.5c-1.4.5-2.2 0-2.5-1.5-.1-1.1-.4-2.2-.9-3.3l-.7 2a6.3 6.3 0 01-3.7 4.2c-3 1.3-6.3 2.2-9.6 2.6l-2.7.5a13.7 13.7 0 01-6.4 0 2.1 2.1 0 01-1-3c.6-1.1 1.3-2.3 2.2-3.2 1.3-1.5 2.8-2.7 4.2-4a13.9 13.9 0 004-12.2c-.3-2.9-1-5.8-1.7-8.7a2 2 0 00-.3-.5l-2.3-.1a1.4 1.4 0 01-1.4-1.3 1371.5 1371.5 0 00-7.2-31.2c-1-3.8-2.4-7.6-3.5-11.4l-3.5-12-.6-1.5-1.6.8-14.1 7.7c-1.3.7-1.3.7-.9 1.9l7.5 22.3c1.4 4.2 3.1 8.3 4.7 12.5.4 1 .7 2.2.9 3.4.2 2.3.2 4.7.2 7l-.7 9.1.4.3c2.2.5 2.5.9 2.6 3.2l.4 9.5.2 12.1c0 3.2-.2 6.5 0 9.7.3 3.2-.3 3 3 3a657.5 657.5 0 0027.4 0h4.8c1.2 0 1.5.4 1.6 1.6l.1 11.4v15.7c0 2.2 0 4.3-.2 6.4-.2 1.9-1.2 2.6-3 2.7l-11 .4-12.7.5-15.2.5h-29.5l-15 .2-16.5.2h-29.2c-5.5 0-11 0-16.5-.2l-11.7-.1-21-.1h-13.8l-9.9.2-11.1-.2-11.3.2-21.4-.1h-8l-14.1-.3-16-.1-3-.3-3.8-.1a96 96 0 01-4.1-.5 1.4 1.4 0 01-1.3-1.3l-.2-1.9-.2-22.5.3-6.6.2-8.2.6-11.1.1-9.7.2-8.8.2-10 .2-8.7V281a244 244 0 01-.3-17.5c0-6.9-.2-13.9-.4-20.9l-.3-17.3v-9.7c0-3.2-.4-6.8-.5-10.2l-.1-8-.3-17.9-.1-21.3.2-17.7.2-11.6-.2-3c0-5.1-.3-10.2 0-15.3.3-8.5 1-17 1.6-25.4.3-6.1 1.4-12.2 3.3-18l4-10.5c.7-1.7 1.4-3.7 2.3-5.4a61.5 61.5 0 0111.3-16.4c4.3-4.4 9-8.5 13.9-12.2 2.2-1.6 4.3-3.4 6.7-4.9l9.1-5.2 8-4.1A47 47 0 0170 5.2l7.7-2a33.7 33.7 0 019-1.6c2.9-1.4 6-1 9-.8 4.4.3 8.8.9 13.2 1.4 1.6.3 3.2.7 4.7 1.2L123 6c2.7.8 5.4 1.9 7.8 3.2 4.1 2.2 8.4 4.2 12.5 6.5l6.3 4.2c4.8 3.4 9.4 7.1 13.7 11.1a68 68 0 0116.9 23.9c2.8 6.3 5 12.9 6.6 19.6.5 2.3.6 4.6.9 7l1.2 12.3.6 14 .4 13.2c0 2-.3 3.9-.3 5.8v23.7c0 2.6.3 5.1.3 7.6 0 3.9 0 7.8-.2 11.6l-.1 12.1c0 6.7-.2 13.3-.3 20 0 2.7 0 5.5-.2 8.2l-.2 9.4v13l-.6 13.8-.2 12.3v1.7zM3.2 113.6c1.7-.2 3-.2 4.5-.5 5.4-.7 10.9-.4 16.1 1.1 3.8 1 7.4 2.8 10.6 5.1 4.4 3 8.5 6.5 12.2 10.4 1.2 1.4 2.3 2.9 3.3 4.4 2.4 3.1 4.2 6.7 5.3 10.4a82.3 82.3 0 014 20.7 30 30 0 01-1.6 10.9c-2.1 6.6-5 12.8-10.3 17.5l-9.4 8c-.8.8-1.7 1.4-2.7 2a49.7 49.7 0 01-14 4.4c-5 .8-10.1 1.2-15.3 1.2-.7 0-1.5.1-2.2.3l1 51.3 2-.1 5-.5 14.8-.4c3.3 0 6.5-.3 9.8-.3l11.1.1 21.6-.2h49.8l1.3-.2v-.5l-.3-.7a69.5 69.5 0 01-6.3-14.5 58.5 58.5 0 01-3-29.2 56.9 56.9 0 016.8-17 62.2 62.2 0 018.2-9.6c2-1.8 4-3.7 6-5.3 2.2-1.7 4.8-3 7-4.7 2.3-1.7 4.9-3.1 7.6-4.1a67 67 0 0115.2-4.4l5.2-.7v-42h-.8a52.8 52.8 0 01-22 1.7 57.7 57.7 0 01-15.5-2.8c-3.9-1.4-7.9-2.3-11.2-4.8l-2.7-2-10.8 6.5c-4.7 3-9.9 5.2-15.3 6.6l-3.9 1c-3.8.8-7.5 1.6-11.4.4a6.5 6.5 0 01-5-5c-.6-2.3-.5-4.9.4-7.2 1.5-3.9 3-7.8 5-11.4a136 136 0 0111-16.5c.7-1 1.6-2 2.5-3l-1.5-3-2.7-6c-.3-.6-.3-1.4-.6-2a80.3 80.3 0 01-3.8-20 55 55 0 013.1-21.4c1.3-3.8 2.8-7.5 4.5-11a36 36 0 015.2-7.8c2.5-2.8 4.8-5.8 7.2-8.6l1.7-1.8-1-.5c-3-.8-6.2-1.8-9.3-2.5-2.9-.9-6-1-9-.5l-12 3.2c-2.6.7-5.1 1.8-7.5 3L54 14.8c-2 .8-3.7 1.8-5.5 2.9a177.5 177.5 0 00-15.8 11.6c-2 1.6-3.6 3.5-5.4 5.2a64.5 64.5 0 00-13.4 18c-2.2 5-4 9.9-6 14.8-1.3 3.4-2.3 7-2.7 10.7-.6 5.1-1 10.2-1.3 15.4l-.8 16.8v3.5zM223 298.4l.2-.9-.1-15v-10.8-7c0-2-.2-2.2-2.2-2.2h-1l-25.1.3-17.4.2c-4.5 0-9-.4-13.6-.6h-7.6c-4.4 0-8.7-.3-13.1-.3H41.2l-.3 34h12c3.2 0 6.7.3 10.2.5l19 .4 17.5.2 13.8.1 13.5.1h35.9l9.7.2 13.5.3c4.2 0 8.4.3 12.6.4H223zM78.7 333.9l8 .4h17l19.2.2c4.3 0 8.5 0 12.8.2l11.2.4h10c5.7 0 11.6.3 17.4.4l17.6-.1 21.5.1 7.6.1 7.4-.1h23.2l7.5.1 2-.2-.4-34.6-3 .1h-35.9l-21-.1h-10.1l-16-.6h-47.3l-19.9-.2-11.2-.2-13.1-.2h-4.5v34.3zm37.2 3.2v11.7c0 3.8.2 7.8.1 11.7 0 4-.2 7.7-.4 11.7h18.2l15.3.2c6 0 12 0 18.1.2h11.6l5.2-.1h15.9l13.2-.2H225c5.6 0 11.2-.3 16.9-.4h14.8l21.6-.6 17-.5 2.4-.2.4-32.1a8 8 0 00-1.1 0l-12.3.2c-3 0-5.9.2-8.8 0l-9-.2H223.2l-11-.2H168l-19-.6-14-.2-17.4-.5h-1.7zm-7.2-224.8l8.3-4.5c4.9-2.9 9.6-6 14-9.4 4.1-2.8 7.9-5.9 11.7-9 2.8-2.1 5.4-4.5 8-6.9l5.5-5 5.2-4.4a1.8 1.8 0 00.6-2.4l-2.1-6c-.4-1.3-.8-2.4-1.4-3.5-2.2-3.7-3.7-7.7-6.2-11.2-1.3-1.7-2.3-3.9-3.5-5.7a78 78 0 00-13.4-15.6 120.9 120.9 0 00-11-8.6l-7.4-4c-4.3-2.8-9-4.3-13.6-6.6a1.1 1.1 0 00-1.4.2l-1.5 1.4-6.5 7.8c-2.6 3-4.8 6.3-6.4 9.8a82.1 82.1 0 00-3.7 8.8 52.9 52.9 0 00-3.4 21 82.2 82.2 0 007.3 28.1 73 73 0 0016.9 22.1l4 3.6zM3.5 206.6c3.6-.1 6.8-.1 10-.3 3.6-.3 7.2-.9 10.7-1.8 5-.9 9.6-3 13.5-6l2.3-1.8c3.2-2.3 6-5 8.4-8.2 4-5 6.6-10.9 7.6-17.2.6-3.1.7-6.3.4-9.4a83.8 83.8 0 00-4.4-18.7 39.4 39.4 0 00-7.8-12.1l-1.7-1.7a45.4 45.4 0 00-3.8-3.5c-2.6-2-5.3-3.8-8-5.7-2.5-1.7-5.3-3-8.2-3.7l-9-1.3h-1.8l-6.2.6-2.8.6v3c0 3.4.3 6.9.3 10.5v18L2.8 160v11l.2 10.6v7l.3 12.8c.2 1.6.2 3.2.2 5zm163-35.3H165c-1.8.4-3.7.8-5.6 1a50.5 50.5 0 00-21 8.6 64.2 64.2 0 00-17 15.6c-1.8 2.5-3.2 5.2-4.7 7.8-.9 1.4-1.6 2.8-2.2 4.3a51.6 51.6 0 00.5 31c.7 2.8 1.7 5.5 2.8 8.2l5.1 10.8a1.4 1.4 0 001.3.9h21.3l9 .1 7.3.2h4.4l.3-88.5zm84 33.4a7.4 7.4 0 01-1.6 5.5 22 22 0 01-3.5 3.5c-3.7 2.8-7.5 5.4-11.3 8.1-3.3 2.2-6.2 5-8.6 8a7.3 7.3 0 00-1.3 6.8l4 11.5 4.3 13 .8 3.2c5.1-2.9 10.7-5 16.4-6.3l-.4-1.5-3.7-11.8a1.7 1.7 0 00-1.2-1.4c-1-.3-1-1.2-.2-1.8.6-.5 1.2-.9 1.9-1.2 4-2.2 7.9-4.3 11.8-6.6 3.2-1.8 6.5-3.7 9.7-5.7 2.8-1.6 5.4-3.5 7.8-5.7a19 19 0 005.5-18h-5c-.7 0-1.2.3-1.6.7a6.2 6.2 0 01-4.7 1.8c-2.6.1-5.1-.4-7.5-1.4a22.7 22.7 0 00-11.6-.7zM164.3 79.5l-.4-.1-2 1.8-8.3 7-9.6 7.5-9.5 7.7-7.4 6c-2.4 2-4.5 3.4-6.9 5.2-1.4.8-2.7 1.8-3.9 2.9 4.2 2.7 8.8 4.8 13.7 6a81.7 81.7 0 0028.4 2.2c2.4-.4 4.7-1.1 7-1.8a1.3 1.3 0 001.2-1v-.4l.1-3.5c.3-3.5.3-7 0-10.4-.7-7.3-1.2-14.6-1.7-21.9l-.7-7.2zm118.7 125a22.6 22.6 0 01-8.7 21.7c-1.5 1.4-3.4 2.4-5.1 3.5a52 52 0 01-3.3 2.3 1 1 0 000 .8l.7 3.3c1.3 4.4 2.8 8.8 4 13.3 1.5 5 2.8 10 4.1 15l3.6 14.6 1.9 7.9 7.3-2c2.5-.6 5-1 7.6-1.5l-.4-3.6-.8-7.4-1-13-1.3-11.3-1.8-14.4-1-7.1c-.3-3-1-5.7-1.2-8.6-.5-4-.8-8-1.1-11.9 0-.7-.3-1.3-.4-2-1-.2-2.1 0-3 .5zm-48.5-12l.9.8c3.6 2.2 7.5 3.8 11.5 5l5.6 2 11.3 3.7c1.8.5 3.7.8 5.6 1a3.5 3.5 0 003.9-2.1l1.5-3 3.1-7.8 1.7-3.8a138 138 0 005.2-22.2c.3-3.6-.3-7.2-1.8-10.4-1.7-3.2-5-4-7.3-1.7-2 1.9-3.3 4.3-3.9 7-1 4.6-1.7 9.3-2.6 13.8l-2.4 15c-.2.8-.5 1.6.4 2.2.5.3.2 1-.4 1a3 3 0 01-1 0l-6-1.4-6.4-2-10.2-3.2-9-2.7a1.5 1.5 0 00-1.4 0c.7.9 2.1.7 2.5 2-1 .8-2.2-.7-3.3.4l1.4 1.3 1 .5c.3.2 1 .7.7 1.3-.4.5-.8.3-1.2.4l-.1.3 2.1 1.6-1.4 1zm78.5 9c1-13.4.3-26.5.8-39.8l-1.3.8-8 5.5-19.8 14.5a5 5 0 00-1.9 2.6 126.6 126.6 0 01-6.4 17.2l36.6-.7zM163 74.4l-1.6 1.7-9.3 8.3c-5 4.2-10 8.4-15 12.4-3.4 2.7-7 5.2-10.5 7.7a149.7 149.7 0 01-20.2 11.5c-1.9 1-3.8 1.6-5.8 2.2-1.7.5-3.5.6-5.2 1a17 17 0 01-7 0 4.6 4.6 0 01-3.4-2.5 10 10 0 01-.8-5.9c.4-3.2 1.3-6.4 2.8-9.3 1-2 2.2-3.7 3.3-5.6L88.2 92l-.6.5c-2.5 3.3-5.2 6.5-7.5 10a81 81 0 00-9 17.3 15 15 0 00-.9 7.5 4 4 0 002.6 3.5c1.9.6 3.8.8 5.8.6a100.2 100.2 0 0014.3-3.2 176 176 0 0032.8-20.4c2.4-2.2 5-4.2 7.6-6.3l7.2-5.7 12.1-9.8a813 813 0 0010-8.4c1.3-1.1 1.3-1.5.4-3.4zM266.5 180l-29.1-16.5c-.1 6.5 0 12.9.4 19.4l27 8 1.7-10.9zm-26-18.3l-.2.4 26.3 15.3a89.5 89.5 0 002.7-16l-28.8.3zm47-1.2l-.3 3.8-2.5 13.6-.3 1.6c9-6.7 18-13 27.1-19.2-8-.3-16 0-24.2.2h.1zM243 279l12.2-4.3-5-15c-4.3 1.8-8.8 2.6-13 4.9l5.8 14.4zM91.5 98c-.5 1-1.1 1.7-1.6 2.5a39 39 0 00-3.2 8.7c-.4 1.8-.4 3.6 0 5.3A2.6 2.6 0 0089 117c1 .2 2 .2 2.9.2 4.5-.2 9-1.3 13.1-3.2l1-.7c-2.6-2.5-5.3-4.8-7.6-7.3-2.3-2.4-4.6-5-7-7.8zm165.7 181c-1 .4-1.8 1.2-2.4 2.2l-2.3 3.5c-2 2.8-4.6 5.1-7.8 6.6a10.4 10.4 0 01-8.2.6c-.3-.1-.6-.1-.8 0a7 7 0 00-4.2 4.9l2 .6h8.1c3-.3 5.9-1.6 8-3.8a333.1 333.1 0 015.4-5.2c1.1-.8 1.9-.6 2.2.8l.3 2.8v2c.7-5 1.7-10-.3-15zm29.5 21.6l10.4-2.5-2-12.3-11.3 2.3 2.9 12.5zm-11 19.9h1c2-.3 4-.4 6-.8 3.1-.6 6.1-1.3 9.1-2.1a4.6 4.6 0 003.5-3.1c.3-1.1.8-2.2 1.4-3.2.4-.8 1-1.9 2-1.7 1 .1 1.1 1.3 1.3 2.1l.7 3.8a45.8 45.8 0 00-2-12.6 16.4 16.4 0 00-4.3 6 15.5 15.5 0 01-14.7 8c-.5 0-1.1 0-1.4.2-1.3.7-2.2 2-2.5 3.3zm21.9-20.7l-2.6.7-7 1.9c-1.5.4-1.6.2-1.8 2-.4 3.5-2 6.8-4.6 9.4l-.7.8 2.6-.5c3.8-1 7.1-2.7 9-6.4l1.2-2c.8-1.6 2.1-3 3.8-4 .7-.6.6-1 0-2zm-58.5-10a10.8 10.8 0 008.7-3.4c2-2.2 3.7-4.5 5.6-6.8l2.8-2.7-.5-.4-12.5 4.8a8.8 8.8 0 01-4 8.5zm-1.7-87.5h14v-.2l-14-5.2v5.4zm17.8 96c.2-2.7.2-5.4 0-8l-8.2 8h8.2z" fill="#1B4ECC"/><path d="M307.8 96.8H295c-2.7 0-5.4 0-8 .2l-10.6.5-11.4.3-14.8.4h-12.6l-19.6.6h-8.8c-1.7 0-1.7-.3-1.8-2l-.6-5.9c-.2-2.6-.5-5.2-.6-8-.2-3.2-.5-6.5-.5-9.8l.3-12.8c.3-5.4 1-10.9 2-16.3.8-6 3-11.7 6.2-16.8A53.7 53.7 0 01243.6 4c6-2 12.1-3.1 18.4-3.3a52 52 0 0127.6 7.3c4 2.6 7.7 5.7 10.8 9.2 3 3.5 5.8 7 8.4 10.5 1.8 2.7 3.2 5.6 4.2 8.7a74.7 74.7 0 013.5 20.8l.5 9.7v12.8l-.6 13.8c0 2.1-.7 2.7-2.8 2.9l-5.7.3zm-55.2-26.5a2 2 0 00-.5-.2 54 54 0 01-13-3.8 82 82 0 01-13.3-9.5 1.1 1.1 0 01-.2-1.2l.2-.3a21 21 0 012.3-2.5c2.4-2.1 4.7-4.3 7.3-6.2 4.4-3.3 9.5-5.7 15-6.8 1.9-.4 3.9-.6 6-.5 3 .3 6.1.7 9.1 1.3 3 .6 5.8 1.9 8.2 3.6 2 1.4 4 2.7 5.8 4.1a19 19 0 014.6 5.1 3.8 3.8 0 01-.8 4.8 48.6 48.6 0 01-4.8 3.6l-7.8 4.5c-3.7 2-7.7 3.3-11.9 3.8l-1.3.3.4.4c2.8.8 5.3 2.4 7.2 4.6a11.6 11.6 0 013.5 10.5c-.6 2.9-2 5.6-4.2 7.6l-1.7 1.7 13-.3c4.1-.2 8.3-.3 12.4-.6 4.2-.2 8.4 0 12.6-.4V93v-9.8c.2-5 .7-10 .8-15V53.8l-.7-7.6a46.5 46.5 0 00-12.1-24.7 53.5 53.5 0 00-12-9.7c-5-3-10.2-5.3-15.7-6.7-2-.6-4.2-.9-6.3-.8A50.8 50.8 0 00227.8 16a51.7 51.7 0 00-14.6 19.2c-1.1 2.8-2 5.8-2.4 8.8l-.5 3.3-1.4 9.5-.4 7.8-.2 5.8.6 15.4.4 8.6.4 2 38-1.1-1.7-1.5a12.8 12.8 0 01-5.3-10.9 9.9 9.9 0 013.2-7.7c1.3-1 2.7-2 4.1-2.8 1.5-.8 3-1.4 4.6-2.1zm10-27.6l1.3 6.5c.5 2 .4 4.1-.2 6.1-.5 2.4-1.9 4.4-4 5.7a18 18 0 01-9.2 3 10.5 10.5 0 01-9-3.8c-.7-1-1.4-2-2-3.2-1.3-2.1-1.9-4.6-1.8-7v-1.8c-3.5 2-8.1 6-9 7.9l4 2.9a44 44 0 0016 7.6c3.2.8 6.6 1 9.8.6 2.3-.2 4.4-.8 6.5-1.6 3-1.3 6-2.8 8.9-4.3 2.5-1.2 4.8-2.8 7-4.6.4-.5 1-1 1.7-1.5l-2-2.3a124 124 0 00-5.4-4.4 27.5 27.5 0 00-10.8-5.6l-1.8-.2zM243.2 84a9 9 0 001 4c1.7 2.4 3.9 4.4 6.3 6 1 .7 2 1.1 3.2 1.2 5 .6 11-3.7 12.2-7.9a10 10 0 00-1.6-9.3c-.9-1-1.9-2-3-2.9a9.6 9.6 0 00-9.7-1.8c-1.3.6-2.6 1.3-3.8 2.1-3.5 1.9-4.6 5-4.6 8.6zM280.9 136.9l4.2 1.5c-1.7 1-3.3.1-5-.2l-.4 2.8 2.1-.6 1.2-.3a1.4 1.4 0 011 .6l-.4.8-1 .6c.6.5 1.6.7 1.2 1.5-.3.9-1.3.7-2 .5l-2.9-1c-1 1.2-2.4 2.5-3.5 4-1.9 2-4 3.8-6.6 5.1-2.5 1.4-5 3-7.4 4.5-1.4.8-1.7.8-2.7-.5a9.8 9.8 0 01-1.7-3.9c-.6-3.3-.8-6.8-.6-10.2-1.4-.7-2.8-1.4-4-2.2a16.3 16.3 0 01-7-11.4c-.3-2.5 0-3 2.5-3.3 2.4-.2 5-.1 7.6-.1a3 3 0 002.6-1.2 11.3 11.3 0 0110.4-4.4c1.6.2 2.6-.8 3.7-1.6l1.4-1.1a8 8 0 011.5-.5l.2.4-1 1.9c1-.2 1.8-1.3 3-.9.4 1.2-.5 1.5-1.2 1.9l-2.6 1.1c2.6 1.8 5.4 2.3 7.9 3.5 2.5 1.3 5.2 2.2 7.8 3.3-1.3.8-3 .5-8.7-1.5 2.5 2 5.4 2.2 7.8 3.4-.2 1.3-.2 2.5-1.7 3a1.2 1.2 0 00-.6 1l.1 3.7c-.7.8-1.6 0-2.5 0l-2.7-.6v.4zm-2.6 4l.1-2.5c0-.5-.3-.8-.6-1.1a35.2 35.2 0 01-10.2-7.3 6 6 0 01-1.5-6.5c.3-.8.8-1.5 1.3-2.1a11 11 0 00-8.3 3.9 4.3 4.3 0 01-3.4 1.4c-1.8 0-3.5.2-5.2.3a3.7 3.7 0 01-3 3.3c.8 2.9 2.4 5.4 4.7 7.4a2 2 0 001.9.4c1.7-.3 3.2-1 4.4-2.2l1.4-1c.9.5.7 1 .3 1.6a8.9 8.9 0 01-3.6 2.7l-1.1.7c1 .3 1.9.4 2.3 1 .5.5.4 1.4.5 2.3 2.7.4 5.4.3 8-.4a38 38 0 0111.3-1.7c.3 0 .5-.1.7-.3zm7.6-10.5l-1-.4c-2.3-1-4.8-1.7-6.6-3.7-.4-.4-.9-.7-1.4-.9l-3.7-2.2c-.9-.6-2-1-3-.9a2.8 2.8 0 00-2.6 3.3 5.8 5.8 0 002.6 4.1 50 50 0 0014 5.7c0-1.9 0-3.7 1.7-5zm-25.8 25.1l1-.5a83 83 0 017-4.5c3.7-1.8 6-5 9-7.9h-1.2l-7.2 1.5c-3.1.9-6.4 1.3-9.6 1.1l-1 .1c-.2 3.5.5 7 2 10.2zM83.9 225.5l-.5 4a11 11 0 01-9 8.7 13.7 13.7 0 01-8 0c-1.3-.4-2.6-1-3.6-2.1-2.9-2.8-5-6-4.8-10.2a15.6 15.6 0 015.7-11.9c1.3-1 2.8-1.6 4.4-1.8 3.5-.5 7-.6 10 1.7a12.8 12.8 0 015.8 11.6zm-2.6-.7c.1-2-.5-4-1.7-5.7a8.9 8.9 0 00-4.8-4c-2.8-.8-5.8-.6-8.5.5-1 .4-1.8 1.1-2.5 2-1.6 2-2.6 4.3-3 6.9-1.2 4.7 2 8.4 4.9 10.8l.6.2c3 1.2 6.5 1.1 9.5-.2a7.6 7.6 0 005.2-5.8c0-1.6.2-3.2.3-4.7zM30.7 46a2.2 2.2 0 011.7 1.1c1.7 2.5 3.6 5 5.2 7.5l7.7 11.9L54.6 82l.3.6c.4.6.5 1.1 0 1.5-.6.4-1.3 0-1.7-.5a56 56 0 01-2.5-3.4c-3-4.8-6-9.6-8.8-14.4l-8.3-14.4a196.6 196.6 0 01-3-5.6zM129.5 150c-.4.9-1 1.7-1.9 2.3l-13 10.5a108.5 108.5 0 01-12.7 9.4 1 1 0 01-1.4-.2 1 1 0 01-.2-.8 1 1 0 01.4-.8l3.3-2.5 8.6-6.6c2.2-1.7 4.5-3.2 6.8-4.8l8.8-6.3 1-.5.3.3zM48.3 115l-1.3-2c.3-.2.5-.5.8-.6a1.5 1.5 0 001-1c.4-.9 1.3-1 1.8-.1a2.3 2.3 0 01.3 2.4c-.4.7-.7 1.6-1.9 1.4l-.7-.1zM70.2 37a3.7 3.7 0 01-2.5 2c-.7-1.2-1.1-2.3 0-3.5.5-.6.9-.7 1.3 0l1.2 1.6zM96.2 146.4c0 .8-1 1.7-1.6 1.4a5 5 0 01-1.6-1.1s0-.6.2-.6c.6-.4.7-.9.8-1.5a1 1 0 01.7-.6 1 1 0 01.8.5l.7 1.9zM146 157l-1.4-1.4 1.5-2.3 1.6.4c.6 2.1.6 2.1-1.7 3.2zM87.2 193.4l-1.8.4c-1 0-1.4-.6-1.1-1.6l.6-1.8c2 .5 2.1.7 2.3 3zM68.2 82.7l-.2-1.9 1.9-1.7 1.3 1.6a2.7 2.7 0 01-3 2zM59.6 12.8l1.6 1.3c0 1-.7 1.5-1.3 2-.6.7-1 .8-1.3.3a2 2 0 01-.3-1.5c.3-.8.8-1.5 1.3-2.1zM99.7 240.8c-1.3-1-.6-2.2-.7-3.3 0-.2.8-.6.9-.6.6.6 1 1.2 1.4 1.9.1.2-.1.8-.4 1.1a6 6 0 01-1.2 1zM31.5 56.2l1.4 1.9c-.6 1.6-1.1 2-3 2-.4-1.6.8-2.5 1.6-3.9zM55.7 207.3c-.8 2.2-1.6 2.4-3.1.7.6-.6.2-1.7 1.3-2 1.1-.3 1.3.8 1.8 1.3zM26.7 90.5c-.4 2.2-.5 2-2.4 2.2-.8-1.1-.8-1 0-2l1-1.5 1.4 1.3zM24 238.2c.8-.3 1.4-.6 1.9.4a2 2 0 01-.7 2.6.9.9 0 01-1.2-.8v-2.2z" fill="#1B4ECC"/><path d="M266.2 15c-.5 1-1.2 1.8-2.2 2.2-4 2.6-8.1 5.2-12.3 7.7l-10.8 5.9-.6.2-1.2-.5c.2-.3.2-.8.4-1l4.4-2.7 18.3-9.7 4-2zM221.4 43.5l.1-2.3c.2-.8.5-1 1-.9.7.1 2 1.4 2 2 0 .4 0 .8-.3 1a2 2 0 01-2.8.2zM231 16.7l2.1.9a3.5 3.5 0 01-1.8 2.5c-.1 0-.8-.2-1-.5-.7-1-.5-1.5.8-2.9zM277 72.3l-1.2-1.4.6-1c.4-.8 1-1 1.6-.8a1.7 1.7 0 01.6 1.9 1.9 1.9 0 01-1.7 1.3zM222.6 77.4c1.6.9 2 1.5 1.8 2.4-.4.8-1.1 1-2.9.3l1.1-2.7zM277.4 20.9c-.5.8-.3 1.9-1.4 2-1 .1-1.3-.5-1.7-1.3l1.3-2.1 1.8 1.4zM295 89l2.2-2.6c.2 1 .4 1.7.4 2.3 0 .6 0 1.2-.7 1.4a1.2 1.2 0 01-1.5-.5c0-.2-.2-.4-.4-.6zM263.9 126.6c-.5.4-1 .8-1.6 1a.9.9 0 01-1-1 1 1 0 01.3-.8 1 1 0 01.8-.2c.4 0 .8.5 1.5 1z" fill="#1B4ECC"/></g><defs><clipPath id="clip0"><path fill="#fff" d="M0 0h317.1v376H0z"/></clipPath></defs></svg>