<svg id="tools__svg" viewBox="0 0 769 300" fill="none" xmlns="http://www.w3.org/2000/svg">
<g id="dashboard-right">
<path fill="#fff" d="M486.596 32h281.405v258.54H486.596z"/><path fill="#fff" d="M486.596 32H744.55v258.54H486.596z"/><path fill="#fff" stroke="#0B0A09" stroke-width="1.17" d="M487.585 32.585h256.83v257.83h-256.83z"/><path stroke="#0B0A09" stroke-width=".586" d="M516.781 98.472v127.157M534.949 98.472v127.157M553.113 98.472v127.157M571.278 98.472v127.157"/><path transform="rotate(90 591.242 97.075)" fill="url(#paint0_linear)" d="M591.242 97.075h128.554v92.922H591.242z"/><path fill="#BDBDBD" d="M529.062 114.541v19.563h-29.344v-19.563z"/><path fill="#828282" d="M549.32 139.693v19.563h-49.605v-19.563z"/><path fill="#E0E0E0" d="M539.543 164.845v19.563h-39.824v-19.563z"/><path fill="#0B0A09" d="M561.199 189.997v19.563h-61.482v-19.563z"/><rect x="651.918" y="80.073" width="36.934" height="8.794" rx="4.397" fill="#0B0A09"/><rect x="695.891" y="80.073" width="36.934" height="8.794" rx="4.397" fill="#0B0A09"/><path stroke="#0B0A09" stroke-width="1.173" d="M500.078 236.018h90.87v34.003h-90.87z"/><path stroke="#0B0A09" stroke-width=".586" d="M500.871 235.811l33.417 33.417M499.699 252.226l17.002 17.002M519.633 235.811l33.417 33.417M544.254 235.811l33.417 33.417M567.121 235.811l23.451 23.45"/><path fill="#fff" d="M602.676 105.282h165.911v165.325H602.676z"/><path d="M603.262 105.869h154.525l10.214 10.497v153.655H603.262V105.869z" stroke="#0B0A09" stroke-width="1.173"/><rect x="671.266" y="243.053" width="12.898" height="7.621" rx="3.811" fill="#0B0A09" stroke="#0B0A09" stroke-width="1.173"/><rect x="687.094" y="242.467" width="14.07" height="8.794" rx="4.397" fill="#BDBDBD"/><path d="M676.34 193.124a29.316 29.316 0 00-22.915-32.07 29.313 29.313 0 00-34.121 19.731l27.923 8.919 29.113 3.42z" fill="#0B0A09"/><path d="M619.677 179.691a29.313 29.313 0 0030.881 39.136l-3.331-29.123-27.55-10.013z" fill="url(#paint1_linear)"/><circle cx="647.229" cy="189.704" r="21.319" fill="#fff"/><path d="M713.907 216.991a29.308 29.308 0 0031.82-6.953 29.31 29.31 0 005.753-32.059l-26.866 11.725-10.707 27.287z" fill="#0B0A09"/><path d="M697.064 179.691a29.313 29.313 0 0030.881 39.136l-3.331-29.123-27.55-10.013z" fill="url(#paint2_linear)"/><circle cx="724.615" cy="189.704" r="21.319" fill="#fff"/><rect x="614.985" y="115.249" width="23.45" height="7.621" rx="3.811" fill="#0B0A09" stroke="#0B0A09" stroke-width="1.173"/><rect x="641.953" y="115.249" width="44.556" height="7.621" rx="3.811" fill="#0B0A09" stroke="#0B0A09" stroke-width="1.173"/><rect x="614.985" y="128.733" width="85.594" height="7.621" rx="3.811" fill="#0B0A09" stroke="#0B0A09" stroke-width="1.173"/><path d="M651.46 192.682c0-2.814-2.045-3.433-3.977-3.94v-4.54c1.388.207 2.138 1.07 2.138 2.383h1.557c0-2.439-1.876-3.564-3.695-3.771v-1.032h-1.257v1.032c-2.252.244-3.565 1.745-3.565 3.471 0 2.589 1.764 3.208 3.565 3.658v4.99c-1.557-.262-2.495-1.35-2.495-2.682h-1.52c0 2.232 1.726 3.845 4.015 4.108v1.388h1.257v-1.369c2.513-.206 3.977-1.782 3.977-3.696zm-7.279-6.397c0-.957.619-1.876 2.045-2.083v4.203c-1.163-.357-2.045-.863-2.045-2.12zm3.302 8.686v-4.709c1.35.375 2.438.919 2.438 2.514 0 1.219-.994 2.026-2.438 2.195zM720.066 196.153h8.799v-1.351h-6.022v-4.559h3.152v-1.257h-3.152v-2.345c0-1.482.975-2.439 2.382-2.439 1.295 0 2.102.882 2.177 1.708h1.482c-.094-1.37-1.257-3.133-3.677-3.133-2.233 0-3.884 1.557-3.884 3.789v2.42h-1.088v1.257h1.088v4.559h-1.257v1.351z" fill="#0B0A09"/><path stroke="#0B0A09" stroke-width="1.173" d="M757.446 105.869v10.552M756.859 116.421h11.139"/>
</g>
<g id="dashboard-left">
    <path fill="#fff" d="M.586 32.586h256.782v257.368H.586z"/><path stroke="#0B0A09" stroke-width=".586" d="M12.896 167.719h106.7M12.896 152.476h106.7M12.896 137.234h106.7M12.896 121.991h106.7"/><path stroke="#0B0A09" stroke-width="1.173" d="M12.311 105.869H119.01v76.8H12.311z"/><path fill="#BDBDBD" d="M26.381 157.46h16.415v24.623H26.381z"/><path fill="#72E1CE" d="M47.486 140.458h16.415v41.624H47.486z"/><path fill="#E0E0E0" d="M68.592 148.666h16.415v33.417H68.592z"/><path fill="url(#paint3_linear)" d="M89.697 130.492h16.415v51.591H89.697z"/><path stroke="#0B0A09" stroke-width="1.173" d="M12.311 193.221H119.01v76.8H12.311z"/><path d="M119.142 197.152l-37.438 53.135-29.749-16.462-24.813 24.813-5.613-5.613-12.734 12.734 4.87 4.87 7.864-7.863 5.613 5.614 26.014-26.014 30.623 16.949 41.209-58.493c-1.944-1.223-3.91-2.417-5.846-3.67z" fill="#0B0A09"/><path d="M127.807 190.876l-.823 14.322-12.304-8.541 13.127-5.781z" fill="#0B0A09"/><path fill="#fff" d="M131.322 105.282h150.082v165.325H131.322z"/><path d="M153.014 220.189h14.07l9.087-9.673" stroke="#0B0A09" stroke-width="1.173" stroke-linecap="round"/><path stroke="#0B0A09" stroke-width="1.173" d="M131.909 105.869h148.91v164.153h-148.91z"/><rect x="183.498" y="241.295" width="12.898" height="7.621" rx="3.811" fill="#0B0A09" stroke="#0B0A09" stroke-width="1.173"/><rect x="199.328" y="240.708" width="14.07" height="8.794" rx="4.397" fill="#828282"/><rect x="215.744" y="240.708" width="14.07" height="8.794" rx="4.397" fill="#BDBDBD"/><path d="M240.4 206.347a38.693 38.693 0 00-63.932-42.967l29.895 24.565 34.037 18.402z" fill="#0B0A09"/><path d="M176.453 163.399a38.686 38.686 0 00-6.703 37.063 38.698 38.698 0 0027.99 25.203l8.623-37.72-29.91-24.546z" fill="url(#paint4_linear)"/><path d="M197.854 225.691a38.698 38.698 0 0024.642-2.576 38.701 38.701 0 0018.027-16.997l-34.16-18.173-8.509 37.746z" fill="#828282"/><circle cx="206.363" cy="187.945" r="28.14" fill="#fff"/><rect x="143.633" y="115.249" width="23.45" height="7.621" rx="3.811" fill="#0B0A09" stroke="#0B0A09" stroke-width="1.173"/><rect x="170.602" y="115.249" width="44.556" height="7.621" rx="3.811" fill="#0B0A09" stroke="#0B0A09" stroke-width="1.173"/><rect x="143.633" y="128.733" width="85.594" height="7.621" rx="3.811" fill="#0B0A09" stroke="#0B0A09" stroke-width="1.173"/><circle cx="257.954" cy="119.353" r="4.69" fill="#0B0A09"/><circle cx="272.024" cy="119.353" r="4.69" fill="#0B0A09"/><path d="M152.135 168.598h8.794l8.207-9.673h13.191M237.143 179.151h17.001l2.931 6.449H264.404" stroke="#0B0A09" stroke-width="1.173" stroke-linecap="round"/><rect x="12.311" y="80.659" width="35.762" height="7.621" rx="3.811" stroke="#0B0A09" stroke-width="1.173"/><rect x="165.91" y="80.659" width="35.762" height="7.621" rx="3.811" stroke="#0B0A09" stroke-width="1.173"/><rect x="56.282" y="80.659" width="35.762" height="7.621" rx="3.811" stroke="#0B0A09" stroke-width="1.173"/><rect x="209.881" y="80.659" width="35.762" height="7.621" rx="3.811" stroke="#0B0A09" stroke-width="1.173"/><path fill="#fff" d="M8.793 262.4h2.931v8.208H8.793z"/><path stroke="#0B0A09" stroke-width="1.173" d="M.586 32.586h256.782v257.368H.586z"/>
</g>
<g id="dashboard-flames">
    <path d="M195.31 13.298L163.753.928l.793 29.952-30.292 9.953 39.489 15.202 4.609 25.797 6.742-21.985 19.053 6.156-5.276-16.122 39.573 5.758-31.557-33.956 1.529-17.666-13.106 9.281z" fill="url(#paint5_linear)"/>
</g>
<g id="dashboard-middle">
    <path fill="#fff" d="M196.397 41.966h376.965v257.368H196.397z"/><path d="M225.709 113.49h311.878v105.825H225.709V113.49z" fill="#fff" stroke="#0B0A09" stroke-width="1.173"/><mask id="a" fill="#fff"><path fill-rule="evenodd" clip-rule="evenodd" d="M385.95 123.934c1.02 0 1.977.414 2.584 1.139.482.575.725 1.362.725 2.171v.015l38.651 8.998c.033-.054.068-.106.104-.157.601-.839 1.611-1.355 2.721-1.355 1.019 0 1.977.413 2.584 1.138.481.575.725 1.362.725 2.171 0 .693-.178 1.435-.527 2.011l16.332 21.42 36.981 5.387c.084-.195.187-.379.309-.548.6-.839 1.61-1.355 2.72-1.355 1.019 0 1.977.414 2.584 1.138.482.575.725 1.363.725 2.171 0 .42-.065.858-.194 1.266l31.146 23.964a3.403 3.403 0 012.14-.742c1.02 0 1.977.414 2.584 1.139.482.574.725 1.362.725 2.17 0 .217-.017.438-.051.657l8.655 3.797v1.445l-9.076-3.981a2.613 2.613 0 01-.402.55c-.601.62-1.502.841-2.435.841-.864 0-1.643-.299-2.232-.841a3.38 3.38 0 01-1.077-2.468c0-.544.115-1.074.34-1.535l-30.967-23.826-.03.032c-.601.62-1.502.841-2.435.841-.864 0-1.643-.299-2.232-.841a3.378 3.378 0 01-1.077-2.468l.001-.109-37.427-5.452-16.574-21.738c-.529.276-1.165.384-1.815.384-.864 0-1.643-.299-2.233-.842a3.377 3.377 0 01-1.076-2.467c0-.183.013-.364.038-.542l-38.418-8.943c-.146.439-.367.84-.661 1.142-.601.621-1.502.842-2.435.842a3.4 3.4 0 01-1.364-.277l-18.544 22.022c.182.436.274.924.274 1.419 0 .895-.297 1.872-.875 2.468-.601.621-1.502.841-2.435.841-.863 0-1.643-.299-2.232-.841a3.38 3.38 0 01-1.077-2.468c0-.225.02-.448.059-.665l-27.797-9.946a2.741 2.741 0 01-.492.725c-.602.62-1.503.841-2.435.841a3.341 3.341 0 01-1.636-.411l-14.9 18.963c.286.511.431 1.122.431 1.745 0 .895-.297 1.872-.874 2.467-.602.621-1.503.842-2.435.842-.864 0-1.643-.3-2.232-.842a2.22 2.22 0 01-.099-.095l-29.88 12.728.001.122c0 .895-.296 1.872-.874 2.468-.601.62-1.502.841-2.435.841-.864 0-1.643-.299-2.232-.841a3.378 3.378 0 01-1.074-2.325l-32.488-12.964c-.108.188-.235.36-.378.508-.602.62-1.503.841-2.435.841-.451 0-.88-.082-1.27-.237l-9.099 12.894v-2.296l8-11.336a3.385 3.385 0 01-.94-2.334c0-.718.2-1.412.588-1.954.601-.839 1.611-1.355 2.721-1.355 1.019 0 1.977.414 2.584 1.138.481.575.725 1.363.725 2.171 0 .233-.02.472-.06.708l32.25 12.87c.096-.271.225-.524.388-.751.6-.839 1.61-1.355 2.72-1.355 1.02 0 1.977.414 2.584 1.138.182.217.329.463.443.73l29.424-12.534a3.364 3.364 0 01-.241-1.247c0-.718.2-1.412.588-1.954.601-.839 1.611-1.356 2.721-1.356.72 0 1.409.207 1.966.583l14.815-18.855a3.39 3.39 0 01-.676-2.024c0-.718.2-1.412.588-1.954.601-.839 1.611-1.355 2.721-1.355 1.019 0 1.977.414 2.584 1.139.481.574.725 1.362.725 2.17 0 .153-.009.309-.026.464l27.931 9.994.04-.058c.6-.838 1.61-1.355 2.72-1.355.841 0 1.64.282 2.235.787l18.268-21.695a3.384 3.384 0 01-.868-2.256c0-.718.201-1.412.589-1.954.6-.839 1.61-1.356 2.72-1.356z"/></mask><path fill-rule="evenodd" clip-rule="evenodd" d="M385.95 123.934c1.02 0 1.977.414 2.584 1.139.482.575.725 1.362.725 2.171v.015l38.651 8.998c.033-.054.068-.106.104-.157.601-.839 1.611-1.355 2.721-1.355 1.019 0 1.977.413 2.584 1.138.481.575.725 1.362.725 2.171 0 .693-.178 1.435-.527 2.011l16.332 21.42 36.981 5.387c.084-.195.187-.379.309-.548.6-.839 1.61-1.355 2.72-1.355 1.019 0 1.977.414 2.584 1.138.482.575.725 1.363.725 2.171 0 .42-.065.858-.194 1.266l31.146 23.964a3.403 3.403 0 012.14-.742c1.02 0 1.977.414 2.584 1.139.482.574.725 1.362.725 2.17 0 .217-.017.438-.051.657l8.655 3.797v1.445l-9.076-3.981a2.613 2.613 0 01-.402.55c-.601.62-1.502.841-2.435.841-.864 0-1.643-.299-2.232-.841a3.38 3.38 0 01-1.077-2.468c0-.544.115-1.074.34-1.535l-30.967-23.826-.03.032c-.601.62-1.502.841-2.435.841-.864 0-1.643-.299-2.232-.841a3.378 3.378 0 01-1.077-2.468l.001-.109-37.427-5.452-16.574-21.738c-.529.276-1.165.384-1.815.384-.864 0-1.643-.299-2.233-.842a3.377 3.377 0 01-1.076-2.467c0-.183.013-.364.038-.542l-38.418-8.943c-.146.439-.367.84-.661 1.142-.601.621-1.502.842-2.435.842a3.4 3.4 0 01-1.364-.277l-18.544 22.022c.182.436.274.924.274 1.419 0 .895-.297 1.872-.875 2.468-.601.621-1.502.841-2.435.841-.863 0-1.643-.299-2.232-.841a3.38 3.38 0 01-1.077-2.468c0-.225.02-.448.059-.665l-27.797-9.946a2.741 2.741 0 01-.492.725c-.602.62-1.503.841-2.435.841a3.341 3.341 0 01-1.636-.411l-14.9 18.963c.286.511.431 1.122.431 1.745 0 .895-.297 1.872-.874 2.467-.602.621-1.503.842-2.435.842-.864 0-1.643-.3-2.232-.842a2.22 2.22 0 01-.099-.095l-29.88 12.728.001.122c0 .895-.296 1.872-.874 2.468-.601.62-1.502.841-2.435.841-.864 0-1.643-.299-2.232-.841a3.378 3.378 0 01-1.074-2.325l-32.488-12.964c-.108.188-.235.36-.378.508-.602.62-1.503.841-2.435.841-.451 0-.88-.082-1.27-.237l-9.099 12.894v-2.296l8-11.336a3.385 3.385 0 01-.94-2.334c0-.718.2-1.412.588-1.954.601-.839 1.611-1.355 2.721-1.355 1.019 0 1.977.414 2.584 1.138.481.575.725 1.363.725 2.171 0 .233-.02.472-.06.708l32.25 12.87c.096-.271.225-.524.388-.751.6-.839 1.61-1.355 2.72-1.355 1.02 0 1.977.414 2.584 1.138.182.217.329.463.443.73l29.424-12.534a3.364 3.364 0 01-.241-1.247c0-.718.2-1.412.588-1.954.601-.839 1.611-1.356 2.721-1.356.72 0 1.409.207 1.966.583l14.815-18.855a3.39 3.39 0 01-.676-2.024c0-.718.2-1.412.588-1.954.601-.839 1.611-1.355 2.721-1.355 1.019 0 1.977.414 2.584 1.139.481.574.725 1.362.725 2.17 0 .153-.009.309-.026.464l27.931 9.994.04-.058c.6-.838 1.61-1.355 2.72-1.355.841 0 1.64.282 2.235.787l18.268-21.695a3.384 3.384 0 01-.868-2.256c0-.718.201-1.412.589-1.954.6-.839 1.61-1.356 2.72-1.356z" fill="#0B0A09" stroke="#0B0A09" stroke-width="2.345" mask="url(#a)"/><path stroke="#0B0A09" stroke-width="1.173" d="M225.709 246.571h124.873v32.831H225.709zM412.727 246.571H537.6v32.831H412.727zM518.84 81.832h18.76v15.829h-18.76z"/><path stroke="#0B0A09" stroke-width="1.173" stroke-linecap="round" stroke-linejoin="round" d="M522.942 87.695h10.552"/><path stroke="#0B0A09" stroke-width="1.173" stroke-linecap="round" d="M522.942 91.798h10.552M237.436 255.365h104.94M230.401 262.4h18.174M258.539 262.4h48.66M247.401 269.435h68.006"/><rect x="431.489" y="258.882" width="17.002" height="7.621" rx="3.811" stroke="#0B0A09" stroke-width="1.173"/><rect x="454.352" y="258.882" width="35.176" height="7.621" rx="3.811" stroke="#0B0A09" stroke-width="1.173"/><path d="M521.065 261.6c1.702 0 3.018-1.335 3.018-2.98 0-1.644-1.316-2.979-3.018-2.979-1.703 0-3.018 1.335-3.018 2.979 0 1.645 1.315 2.98 3.018 2.98zm-2.457 7.835h2.941l9.847-13.543h-2.96l-9.828 13.543zm2.457-9.731c-.619-.02-1.045-.465-1.045-1.084s.426-1.064 1.045-1.083c.619.019 1.045.464 1.045 1.083s-.426 1.064-1.045 1.084zm7.874 9.983c1.702 0 3.018-1.335 3.018-2.98 0-1.644-1.316-2.979-3.018-2.979-1.703 0-3.018 1.335-3.018 2.979 0 1.645 1.315 2.98 3.018 2.98zm0-1.896c-.619-.02-1.045-.465-1.045-1.084s.426-1.064 1.045-1.083c.619.019 1.045.464 1.045 1.083s-.426 1.064-1.045 1.084z" fill="#0B0A09"/><circle cx="228.641" cy="90.04" r="3.518" fill="url(#paint6_linear)"/><path stroke="#0B0A09" stroke-width="1.173" stroke-linecap="round" d="M235.09 89.453h58.04"/><g clip-path="url(#clip0)"><path d="M381.338 54.253c1.475-1.537 3.528-2.49 5.799-2.49 3.018 0 5.652 1.684 7.054 4.182a9.752 9.752 0 013.988-.847c5.444 0 9.858 4.452 9.858 9.944 0 5.493-4.414 9.945-9.858 9.945a9.772 9.772 0 01-1.942-.194 7.205 7.205 0 01-9.443 2.966 8.224 8.224 0 01-7.569 5.01 8.225 8.225 0 01-7.715-5.382 7.545 7.545 0 01-1.569.164c-4.215 0-7.632-3.453-7.632-7.712a7.724 7.724 0 013.816-6.68 8.822 8.822 0 01-.731-3.527c0-4.899 3.977-8.87 8.882-8.87 2.88 0 5.439 1.37 7.062 3.49z" fill="url(#paint7_linear)"/><path d="M368.93 67.36c-.028.075.011.09.02.103.086.063.173.108.261.158.466.247.907.32 1.367.32.938 0 1.521-.5 1.521-1.302v-.016c0-.743-.658-1.012-1.274-1.207l-.081-.026c-.465-.151-.866-.281-.866-.588v-.016c0-.262.235-.455.598-.455.404 0 .883.135 1.192.305 0 0 .091.059.124-.03l.191-.512c.017-.05-.014-.086-.046-.106a2.657 2.657 0 00-1.344-.36h-.093c-.859 0-1.458.518-1.458 1.261v.016c0 .784.661 1.038 1.28 1.215l.1.03c.451.14.84.259.84.576v.016c0 .29-.252.507-.66.507-.158 0-.663-.003-1.208-.348-.066-.038-.105-.066-.156-.097-.026-.017-.093-.046-.123.042l-.185.514zm13.732 0c-.028.075.011.09.02.103.086.063.173.108.261.158.466.247.907.32 1.367.32.938 0 1.521-.5 1.521-1.302v-.016c0-.743-.657-1.012-1.274-1.207l-.08-.026c-.466-.151-.867-.281-.867-.588v-.016c0-.262.235-.455.598-.455.404 0 .883.135 1.192.305 0 0 .091.059.124-.03l.191-.512c.017-.05-.014-.086-.046-.106a2.657 2.657 0 00-1.344-.36h-.093c-.859 0-1.458.518-1.458 1.261v.016c0 .784.661 1.038 1.28 1.215l.1.03c.451.14.841.259.841.576v.016c0 .29-.253.507-.661.507-.158 0-.663-.003-1.208-.348-.066-.038-.105-.065-.155-.097-.017-.011-.096-.042-.124.042l-.185.514zm9.375-1.574c0 .454-.085.812-.252 1.065-.164.25-.414.372-.762.372-.348 0-.596-.121-.758-.372-.165-.252-.248-.61-.248-1.065 0-.453.083-.81.248-1.06.162-.248.41-.368.758-.368.348 0 .598.12.763.368.166.25.251.607.251 1.06zm.783-.841a1.894 1.894 0 00-.356-.68 1.726 1.726 0 00-.602-.458 1.975 1.975 0 00-.839-.168c-.317 0-.6.057-.839.168-.24.112-.442.266-.602.458-.159.191-.279.42-.356.68a2.948 2.948 0 00-.115.841c0 .3.038.584.115.842.077.26.196.489.357.68.159.192.362.345.601.453.239.11.522.165.839.165.318 0 .6-.056.839-.165.239-.108.442-.261.602-.453.159-.19.279-.42.356-.68a2.95 2.95 0 00.115-.842c0-.3-.038-.583-.115-.841zm6.43 2.157c-.026-.077-.1-.048-.1-.048a1.8 1.8 0 01-.364.104c-.131.02-.275.03-.429.03-.379 0-.68-.112-.896-.335-.216-.222-.337-.583-.336-1.07.001-.444.108-.777.3-1.031.191-.253.482-.382.869-.382.323 0 .569.037.827.118 0 0 .062.027.092-.054.068-.19.119-.326.192-.535.021-.06-.03-.085-.049-.092a3.033 3.033 0 00-.522-.132 3.907 3.907 0 00-.588-.04c-.329 0-.622.056-.872.169a1.801 1.801 0 00-1.012 1.136 2.698 2.698 0 00-.128.843c0 .65.176 1.174.521 1.559.347.386.868.582 1.546.582.402 0 .813-.082 1.109-.198 0 0 .057-.028.032-.094l-.192-.53zm1.37-1.75a1.53 1.53 0 01.214-.626c.162-.248.41-.384.758-.384.347 0 .577.137.742.384.11.164.157.383.176.626h-1.89zm2.636-.555a1.641 1.641 0 00-.34-.62 1.553 1.553 0 00-.502-.384 1.944 1.944 0 00-.76-.153 2.07 2.07 0 00-.875.17 1.743 1.743 0 00-.61.465 1.91 1.91 0 00-.359.688 2.958 2.958 0 00-.117.846c0 .306.041.59.121.847.081.257.21.485.384.673.174.19.398.338.667.442.266.103.59.156.962.155.765-.002 1.168-.173 1.334-.265.03-.016.058-.045.023-.127l-.174-.485c-.026-.072-.099-.046-.099-.046-.19.07-.46.197-1.088.196-.411 0-.716-.122-.907-.312-.196-.194-.292-.479-.309-.882l2.651.003s.069-.001.077-.069c.002-.029.091-.544-.079-1.142zm-23.863.555a1.53 1.53 0 01.214-.626c.162-.248.41-.384.758-.384.347 0 .577.137.743.384.109.164.156.383.175.626h-1.89zm2.635-.555a1.627 1.627 0 00-.841-1.004 1.944 1.944 0 00-.76-.153c-.33 0-.631.055-.875.17a1.743 1.743 0 00-.61.465 1.91 1.91 0 00-.359.688 2.994 2.994 0 00-.117.846c0 .306.041.59.121.847.081.257.21.485.384.673.174.19.398.338.667.442.266.103.59.156.962.155.765-.002 1.168-.173 1.334-.265.03-.016.058-.045.023-.127l-.173-.485c-.027-.072-.1-.046-.1-.046-.19.07-.459.197-1.089.196-.41 0-.715-.122-.906-.312-.196-.194-.292-.479-.309-.882l2.651.003s.07-.001.077-.069c.002-.029.091-.544-.08-1.142zm-8.364 2.29c-.104-.083-.118-.104-.154-.157a.642.642 0 01-.078-.345c0-.233.076-.4.236-.513-.002 0 .228-.198.769-.191.379.005.719.06.719.06v1.206s-.336.072-.715.095c-.54.033-.779-.156-.777-.155zm1.054-1.862a5.824 5.824 0 00-.414-.013 2.51 2.51 0 00-.652.084 1.702 1.702 0 00-.554.257 1.28 1.28 0 00-.384.437c-.094.175-.142.38-.142.611 0 .234.041.438.122.605.08.168.197.307.345.415.148.107.329.186.54.233.208.048.444.072.702.072.272 0 .543-.022.805-.067.26-.044.579-.109.668-.13.062-.014.124-.03.185-.047.066-.016.061-.086.061-.086l-.001-2.424c0-.532-.142-.926-.422-1.17-.278-.244-.688-.367-1.217-.367-.199 0-.519.028-.71.066 0 0-.579.112-.818.298 0 0-.052.033-.023.106l.187.504c.024.065.087.043.087.043s.02-.008.044-.022c.51-.277 1.155-.268 1.155-.268.286 0 .507.057.655.17.145.112.218.279.218.632v.112c-.228-.032-.437-.051-.437-.051zm21.378-1.366c.02-.06-.022-.089-.04-.095a2.297 2.297 0 00-.444-.076c-.333-.02-.518.035-.683.11a1.203 1.203 0 00-.449.33v-.322c0-.045-.032-.081-.076-.081h-.679c-.045 0-.076.035-.076.08v3.954c0 .044.036.08.08.08h.697a.082.082 0 00.08-.08v-1.975c0-.265.029-.53.088-.696a.99.99 0 01.232-.39.815.815 0 01.327-.197c.123-.038.26-.05.356-.05.139 0 .291.036.291.036.051.006.08-.025.097-.072.045-.12.174-.484.199-.556" fill="#fff"/><path d="M389.561 62.027a2.082 2.082 0 00-.622-.09c-.48 0-.858.135-1.123.402-.264.266-.443.67-.533 1.203l-.032.179h-.602s-.073-.003-.089.077l-.098.552c-.007.052.016.085.086.085h.586l-.595 3.317a4.116 4.116 0 01-.158.653 1.345 1.345 0 01-.185.377.494.494 0 01-.243.187.987.987 0 01-.312.045c-.064 0-.149-.01-.212-.023a.61.61 0 01-.143-.046s-.069-.026-.096.042c-.022.057-.178.486-.197.539-.018.052.008.093.041.106.078.027.136.045.242.07.148.035.272.037.389.037.243 0 .466-.034.65-.1.185-.068.347-.184.49-.342.155-.17.252-.35.344-.593.092-.241.171-.541.233-.89l.598-3.38h.873s.073.004.088-.077l.099-.55c.007-.053-.015-.086-.087-.086h-.847c.005-.019.043-.317.14-.598a.784.784 0 01.186-.283.554.554 0 01.222-.138.922.922 0 01.285-.04c.079 0 .158.009.217.021.082.018.114.027.136.034.086.026.098 0 .115-.041l.203-.557c.02-.06-.031-.085-.049-.092zm-11.841 5.732c0 .044-.032.08-.076.08h-.703c-.045 0-.076-.036-.076-.08v-5.657c0-.044.031-.08.076-.08h.703c.044 0 .076.036.076.08v5.657z" fill="#fff"/></g><path stroke="#0B0A09" stroke-width="1.173" d="M196.397 41.966h376.965v257.368H196.397z"/><path stroke="#0B0A09" stroke-width="1.173" stroke-linecap="round" d="M588.02 79.032l-1.628 6.076M378.38 119.353l2.688 2.688M602.09 96.145l-4.447 4.447M390.064 117.347l-2.315 4.011M439.109 129.562l-3.274 3.275"/>
</g>
<defs><linearGradient id="paint0_linear" x1="637.85" y1="125.802" x2="735.462" y2="125.802" gradientUnits="userSpaceOnUse"><stop stop-color="#0CB4CA"/><stop offset="1" stop-color="#fff"/></linearGradient><linearGradient id="paint1_linear" x1="617.915" y1="189.702" x2="676.537" y2="189.702" gradientUnits="userSpaceOnUse"><stop stop-color="#0CB4CA"/><stop offset="1" stop-color="#fff"/></linearGradient><linearGradient id="paint2_linear" x1="695.302" y1="189.702" x2="753.923" y2="189.702" gradientUnits="userSpaceOnUse"><stop stop-color="#0CCAAB"/><stop offset="1" stop-color="#fff"/></linearGradient><linearGradient id="paint3_linear" x1="89.698" y1="150.131" x2="89.698" y2="189.118" gradientUnits="userSpaceOnUse"><stop stop-color="#0CB4CA"/><stop offset="1" stop-color="#fff"/></linearGradient><linearGradient id="paint4_linear" x1="231.09" y1="176.207" x2="-306.034" y2="820.165" gradientUnits="userSpaceOnUse"><stop stop-color="#0CCAAB"/><stop offset="1" stop-color="#fff"/></linearGradient><linearGradient id="paint5_linear" x1="134.256" y1="41.377" x2="238.438" y2="41.377" gradientUnits="userSpaceOnUse"><stop stop-color="#0CCAAB"/><stop offset="1" stop-color="#fff"/></linearGradient><linearGradient id="paint6_linear" x1="225.709" y1="85.056" x2="225.123" y2="99.42" gradientUnits="userSpaceOnUse"><stop stop-color="#0CB4CA"/><stop offset="1" stop-color="#fff"/></linearGradient><linearGradient id="paint7_linear" x1="398.95" y1="49.295" x2="378.054" y2="90.768" gradientUnits="userSpaceOnUse"><stop stop-color="#22D6B8"/><stop offset=".169" stop-color="#25D7B9"/><stop offset=".307" stop-color="#2FD8BC"/><stop offset=".434" stop-color="#40DCC2"/><stop offset=".555" stop-color="#59E0C9"/><stop offset=".671" stop-color="#78E6D4"/><stop offset=".784" stop-color="#9EEDE0"/><stop offset=".892" stop-color="#CAF5EE"/><stop offset=".997" stop-color="#FDFFFE"/><stop offset="1" stop-color="#fff"/></linearGradient><clipPath id="clip0"><path fill="#fff" transform="translate(362.309 50.76)" d="M0 0h45.728v32.01H0z"/></clipPath></defs>
</svg>