<svg width="190" height="194" viewBox="0 0 190 194" fill="none" xmlns="http://www.w3.org/2000/svg"><path d="M95.2 1.1l11.46 30.87 21.38-25.04.2 32.92 28.65-16.22-11.07 31.01 32.47-5.45-21.01 25.36 32.38 5.99-28.42 16.63 28.38 16.7-32.4 5.92 20.96 25.4-32.46-5.52 11 31.04-28.62-16.3-.27 32.94-21.32-25.1-11.52 30.85-11.45-30.88-21.38 25.05-.2-32.93-28.66 16.23 11.08-31.01L11.9 145l21.02-25.35-32.38-6 28.41-16.63L.58 80.32l32.39-5.92L12 49l32.47 5.52-11-31.03 28.61 16.29.28-32.93 21.32 25.1L95.2 1.1z" fill="#FBF9F9"/><path d="M68.85 77.23l-5.48-1.96c-2.07-.75-2.85-1.7-2.85-3.2 0-1.75 1.28-3.53 4.98-3.53 3.13 0 5.88 1.89 6.52 6.63h.74l-.35-6.13c-1.71-1.53-4.38-2.38-7.12-2.38-5.41 0-7.98 2.95-7.98 6.23 0 2.84 1.29 4.62 4.88 5.9l4.88 1.72c2.35.81 3.06 2.06 3.06 3.77 0 2.28-1.53 3.77-4.56 3.77-4.3 0-7.86-3.42-8.08-8.93h-.75v7.19c1.43 1.92 4.31 3.63 8.44 3.63 5.34 0 8.23-2.56 8.23-6.55 0-2.74-.93-4.88-4.56-6.16zM76.23 68.47l2.53 2.57 2.56-2.57-2.56-2.53-2.53 2.53zm4.3 18.73V73.6h-5.05v.92c1.1 0 1.64.29 1.64 1.57v11.1c0 1.29-.53 1.57-1.64 1.57v.93h6.7v-.93c-1.1 0-1.64-.28-1.64-1.56zM99.24 87.2v-8.01c0-3.81-1.57-5.91-4.95-5.91-3.14 0-4.67 2.28-4.95 4.63h-.07V73.6H84.2v.92c1.1 0 1.64.29 1.64 1.57v11.1c0 1.29-.53 1.57-1.64 1.57v.93h6.7v-.93c-1.1 0-1.64-.28-1.64-1.56v-3.92c0-6.26 1.96-8.04 3.98-8.04 2.07 0 2.57 1.5 2.57 4.59v7.37c0 1.28-.54 1.56-1.64 1.56v.93h6.7v-.93c-1.11 0-1.64-.28-1.64-1.56zM112.68 80.11l3.42.29c.07-.54.1-1.03.1-1.5 0-3.56-2.02-5.62-6.15-5.62-4.52 0-7.73 2.85-7.73 8.36 0 5.38 3.06 8.3 7.76 8.3 4.13 0 5.77-3.06 6.34-4.77l-.71-.29a5.12 5.12 0 01-4.8 3.14c-3.32 0-5.31-2.28-5.31-6.55 0-4.2 1.64-6.48 4.3-6.48 1.96 0 3 1.1 3 3.1 0 .6-.08 1.28-.22 2.02zM131.94 84.88a5 5 0 01-4.73 3.07c-3.28 0-5.27-2.14-5.38-6.23l10.58-.32c.07-.57.07-1 .07-1.75 0-3.95-2.28-6.37-6.52-6.37-4.52 0-7.4 2.81-7.4 8.26 0 5.59 3.13 8.4 7.83 8.4 4.13 0 5.7-3.06 6.27-4.77l-.72-.29zm-5.87-9.9c2.03 0 3.2 1.6 3.2 3.42 0 .61-.07 1.1-.18 1.57l-7.22.57c.21-4.02 1.92-5.55 4.2-5.55zM76.4 121.82c-.46 2.78-.96 4.27-2.24 4.3l-10.43.5c.32-1.99 1.71-3.27 3.42-4.4l4.95-3.32c2.81-1.89 4.3-4.02 4.3-7.23 0-2.84-2.38-6.01-7.43-6.01-4.78 0-8.12 2.99-8.12 7.22 0 1.07.18 1.96.57 3.14l4.3-.36a8.84 8.84 0 01-1.03-3.99c0-2.31 1.53-3.95 4.2-3.95 2.21 0 3.81 1.39 3.81 3.95 0 2.32-.67 3.78-3.17 5.41l-4.34 2.89a12.06 12.06 0 00-4.95 8.72h15.99l.32-2.06.75-4.67-.9-.14zM89 105.66c-5.59 0-9.29 4.91-9.29 11.46 0 6.55 3.7 11.82 9.3 11.82 5.62 0 9.32-5.27 9.32-11.82 0-6.55-3.7-11.46-9.33-11.46zm0 21.32c-3.95 0-5.59-3.56-5.59-9.86 0-6.27 1.64-9.5 5.6-9.5 3.95 0 5.62 3.23 5.62 9.5 0 6.3-1.67 9.86-5.63 9.86zM107.44 126.2v-20.4h-.1l-6.84 4.1.46.85 3.06-1.1v16.55c0 1.28-.75 1.56-2.35 1.56v.93h7.73v-.93c-1.32 0-1.96-.28-1.96-1.56zM128.41 121.82c-.46 2.78-.96 4.27-2.24 4.3l-10.43.5c.32-1.99 1.71-3.27 3.42-4.4l4.95-3.32c2.81-1.89 4.3-4.02 4.3-7.23 0-2.84-2.38-6.01-7.44-6.01-4.77 0-8.11 2.99-8.11 7.22 0 1.07.18 1.96.57 3.14l4.3-.36a8.84 8.84 0 01-1.03-3.99c0-2.31 1.53-3.95 4.2-3.95 2.21 0 3.81 1.39 3.81 3.95 0 2.32-.67 3.78-3.17 5.41l-4.34 2.89a12.05 12.05 0 00-4.95 8.72h15.99l.32-2.06.75-4.67-.9-.14z" fill="#1B4ECC"/></svg>