<svg viewBox="0 0 313 157" fill="none" xmlns="http://www.w3.org/2000/svg"><g opacity=".7" fill="#21B59C"><path fill-rule="evenodd" clip-rule="evenodd" d="M79.723 75.996h23.254c-1.174-23.538-20.63-42.262-44.46-42.262C33.93 33.734 14 53.664 14 78.25s19.93 44.516 44.516 44.516c23.662 0 43.012-18.46 44.433-41.765h-23.17c-.22 1.75-.69 3.381-1.269 4.897-1.542 4.048-4.327 7.167-6.964 10.12l-.604.677c-2.919 3.283-5.417 6.848-7.458 10.908l-.033.067c-1.027 2.04-2.043 4.058-2.75 6.334-.544 1.748-1.02 3.565-1.495 5.371l-.008.028c-.044.17-.074.348-.103.529-.072.441-.145.892-.453 1.252-.376-.686-.52-1.435-.662-2.175-.054-.279-.108-.558-.173-.831-.245-1.013-.571-2.031-.89-3.005l-.243-.748c-.555-1.712-1.1-3.395-1.873-4.929a90.687 90.687 0 00-2.726-5.065c-.964-1.648-1.988-3.179-3.061-4.73-1.213-1.752-2.692-3.287-4.181-4.831-1.064-1.103-2.132-2.211-3.11-3.406-1.768-2.16-3.056-4.83-3.84-7.847-.62-2.715-.751-4.234-.78-6.957.254-.716.36-1.44.462-2.143.083-.565.163-1.117.317-1.641 1.058-3.585 2.79-6.378 5.065-8.739 2.951-3.063 6.866-5.596 11.91-6.455 5.922-1.008 11.203.861 14.915 3.005 1.948 1.123 3.566 2.522 5.01 4.174 2.517 2.879 4.349 6.48 4.94 11.135z"/><circle cx="58.515" cy="78.25" r="12.96"/></g></svg>