<svg viewBox="0 0 313 157" fill="none" xmlns="http://www.w3.org/2000/svg">
<g opacity="0.7">
<path d="M131.664 91.8896C127.302 97.5322 120.568 100.851 113.456 100.899C101.317 100.899 91.6445 92.2215 91.6445 80.7468C91.6919 75.1991 94.0153 69.9359 98.0457 66.1426C102.076 62.3493 107.482 60.3578 113.029 60.5949C120.142 60.6423 126.875 63.9615 131.237 69.604L123.176 75.3413C121.043 71.7851 117.202 69.5566 113.077 69.5092C106.865 69.5092 101.792 74.5353 101.744 80.7468C101.934 87.1006 107.197 92.0793 113.551 91.9844C117.676 91.937 121.469 89.8981 123.84 86.5316L131.664 91.8896Z" fill="#21B59C"/>
<path d="M146.268 44.8052H136.168V100.045H146.268V44.8052Z" fill="#21B59C"/>
<path d="M173.011 92.3158C179.555 92.3632 184.913 87.2423 185.15 80.6988C184.818 74.2502 179.46 69.1767 173.011 69.1767C166.563 69.1767 161.205 74.2502 160.873 80.6988C161.11 87.2423 166.515 92.4106 173.011 92.3158ZM173.059 60.5469C178.654 60.2624 184.107 62.2539 188.185 66.0472C192.31 69.8405 194.681 75.1037 194.87 80.6988C194.681 86.2939 192.262 91.5571 188.185 95.3504C184.059 99.1437 178.607 101.135 173.059 100.851C160.92 100.851 151.153 92.0787 151.153 80.6988C151.105 69.3663 160.825 60.5469 173.059 60.5469Z" fill="#21B59C"/>
<path d="M193.211 61.3538H205.065L214.69 82.0273L225.075 61.3538H236.075L214.69 102.416L193.211 61.3538Z" fill="#21B59C"/>
<path d="M264.811 75.341C263.246 71.5477 259.5 69.0346 255.422 69.082C251.155 69.0346 247.219 71.4528 245.417 75.341H264.811ZM271.307 95.6825C267.087 99.0965 261.823 100.946 256.418 100.898C244.279 100.898 234.512 92.1263 234.512 80.7464C234.512 75.2461 236.74 69.9829 240.723 66.1896C244.706 62.3963 250.064 60.3574 255.517 60.5945C260.923 60.4049 266.138 62.4912 269.932 66.2845C273.725 70.0778 275.764 75.341 275.574 80.699V83.5914H244.517C246.081 88.8072 250.87 92.316 256.323 92.2686C259.69 92.3634 262.914 90.9883 265.19 88.4753L271.307 95.6825ZM280.458 78.3282C280.458 69.082 287.523 61.3532 298.903 61.3532V70.4097C296.485 70.2674 294.161 71.2157 292.549 73.0176C290.937 74.772 290.178 77.1902 290.463 79.561V100.045H280.458V78.3282Z" fill="#21B59C"/>
<path d="M45.7461 62.8713C45.7935 56.5176 42.0002 50.7802 36.1206 48.3146C30.2884 45.8489 23.5079 47.1766 19.0033 51.6337C14.4988 56.0908 13.1237 62.8713 15.5419 68.751C17.9602 74.6306 23.6975 78.4713 30.0513 78.4713H45.7461V62.8713ZM50.298 62.8713C50.2506 56.5176 54.0439 50.7802 59.9235 48.3146C65.7557 45.8489 72.5362 47.1766 77.0408 51.6337C81.5453 56.0908 82.9204 62.8713 80.5022 68.751C78.0839 74.6306 72.3466 78.4713 65.9928 78.4713H50.298V62.8713ZM50.298 98.5758C50.2506 104.93 54.0439 110.667 59.9235 113.133C65.8031 115.598 72.5362 114.271 77.0408 109.813C81.5453 105.356 82.9204 98.5758 80.5022 92.6961C78.0839 86.8165 72.3466 82.9758 65.9928 82.9758H50.298V98.5758ZM30.0987 109.766C36.3103 109.766 41.3364 104.787 41.3838 98.5758V87.3855H30.0987C23.9346 87.3855 18.9085 92.4116 18.9085 98.5758C18.9085 104.74 23.8872 109.766 30.0987 109.766ZM45.7461 98.5758C45.7935 104.93 42.0002 110.667 36.1206 113.133C30.241 115.598 23.5079 114.271 19.0033 109.813C14.4988 105.356 13.1237 98.5758 15.5419 92.6961C17.9602 86.8165 23.6975 82.9758 30.0513 82.9758H45.7461V98.5758Z" fill="#21B59C"/>
</g>
</svg>
