<svg width="210" height="105" viewBox="0 0 210 105" fill="none" xmlns="http://www.w3.org/2000/svg"><path d="M158.461 37.666a.722.722 0 01-.733.734.72.72 0 01-.736-.733c0-.419.317-.734.736-.734a.72.72 0 01.733.733zm.141 0c0-.5-.383-.874-.874-.874-.5 0-.878.375-.878.874 0 .498.378.875.878.875a.86.86 0 00.874-.874zm-.478-.206c0-.198-.141-.288-.312-.288h-.418v.956h.162v-.37h.182l.188.37h.193l-.193-.386c.119-.037.198-.13.198-.282zm-.163.005c0 .093-.065.136-.155.136h-.25v-.274h.25c.09 0 .155.049.155.139M162.741 71.117h-7.371v7.373h7.371v-7.373zM140.413 38.285l4.391 32.955 4.384-32.955h6.841l-6.398 40.204h-9.729l-6.331-40.204h6.842zM51.053 38.285h-3.794v5.342h3.794V78.49h6.668V43.627h4.685v-5.342H57.72v-8.172c0-1.193.247-2.105.823-2.73.578-.62 1.46-.913 2.659-.913h1.2V21h-2.412c-2.963 0-5.817.628-7.175 1.918-1.358 1.29-1.763 3.292-1.763 6.143v9.224zM64.488 78.487h6.684V38.283h-6.684v40.204zM102.034 60.662h13.933v-12.39c-.017-7.412-3.58-10.452-10.332-10.452-7.02 0-10.313 3.031-10.313 10.5v20.362c.022 6.793 4.134 10.307 10.31 10.307 6.174 0 10.318-2.892 10.335-10.307V65.46h-6.456l.008 3.816c0 2.721-1.019 4.603-3.751 4.603-2.738 0-3.734-1.898-3.734-4.606v-8.612zm0-13.724c0-2.268.589-4.617 3.715-4.617 3.123 0 3.756 2.314 3.756 4.614v8.308h-7.471v-8.305zM86.2 55.632c-5.07-4.402-5.464-5.04-5.464-8.322 0-2.794.242-4.495 2.754-4.495 2.51 0 2.836 1.679 2.836 4.528v3.713h6.442v-6.057c-.022-4.756-3.68-7.173-9.427-7.173-5.652 0-9.338 1.882-9.37 9.484-.006 1.293.002 1.293 0 .793.01 2.39.021 6.18 5.929 11.247l1.694 1.45c4.354 3.672 4.83 4.115 4.81 8.483-.002 2.691-.168 4.73-2.993 4.73-2.824 0-3-2.055-3-3.324v-5.144h-6.764v5.307c0 6.532 4.251 8.148 9.756 8.148 5.51 0 9.767-1.632 9.767-10.035v-.698c-.014-5.872-1.076-7.447-6.97-12.635zM124.912 42.422v-4.139h-6.092v40.202h6.573V50.467c-.003-2.165.703-3.59 1.931-4.432 1.162-.802 2.594-1.073 4.416-1.1V37.82c-3.487.074-4.992.761-6.76 4.455l-.068.146z" fill="#F0EBEB"/></svg>