<svg xmlns="http://www.w3.org/2000/svg" viewBox="0 0 210 105" width="210" height="105" fill="none">
  <path fill="#fff" fill-opacity=".2" d="M16.002 42.472h111.201v14.602h-111.2V42.472Z" />
  <path stroke="#fff" stroke-miterlimit="10" stroke-width="1.098" d="M138.435 42.472v22.463" />
  <path fill="#fff"
    d="M22.36 52.76h-1.338v-6.416h3.676v1.114H22.36v1.653h2.177v1.11H22.36v2.538Zm5.038 0v-6.416h1.361v6.415H27.4Zm5.784-2.464v2.46h-1.36v-6.415h1.87c.871 0 1.517.16 1.934.475.42.319.628.8.628 1.446 0 .379-.104.713-.312 1.008-.207.293-.5.523-.88.692a348.02 348.02 0 0 0 1.886 2.795h-1.51l-1.532-2.46h-.724Zm0-1.104h.438c.43 0 .747-.072.953-.215.205-.143.306-.369.306-.675 0-.307-.104-.522-.313-.65-.208-.13-.533-.194-.971-.194h-.413v1.734Zm9.805 1.785c0 .578-.207 1.035-.625 1.37-.417.334-.996.5-1.739.5-.684 0-1.289-.13-1.817-.385v-1.264c.432.194.798.33 1.1.408.3.078.575.118.824.118.297 0 .525-.058.687-.171.159-.113.24-.284.24-.51a.562.562 0 0 0-.106-.336 1.205 1.205 0 0 0-.31-.284c-.136-.092-.412-.235-.832-.433-.392-.185-.687-.363-.88-.53a1.981 1.981 0 0 1-.471-.593 1.684 1.684 0 0 1-.175-.79c0-.566.19-1.014.576-1.337.383-.325.915-.486 1.596-.486.334 0 .652.039.954.117.303.079.618.192.95.335l-.438 1.058a6.265 6.265 0 0 0-.848-.293 2.746 2.746 0 0 0-.66-.083c-.258 0-.454.06-.592.18a.591.591 0 0 0-.206.47c0 .12.028.224.083.314a.89.89 0 0 0 .265.259c.12.083.409.233.863.45.6.285 1.01.573 1.234.862.221.288.334.64.334 1.06l-.007-.006Zm5.085 1.782h-1.36v-5.283H44.97v-1.132h4.845v1.132h-1.74v5.283h-.003Zm8.606-4.414c0 .69-.217 1.218-.648 1.585-.431.366-1.045.548-1.84.548h-.584v2.281h-1.36v-6.415h2.05c.777 0 1.37.168 1.776.502.405.335.608.835.608 1.5h-.002Zm-3.072 1.017h.448c.417 0 .73-.083.938-.249.208-.166.312-.406.312-.721 0-.316-.088-.554-.261-.706-.175-.152-.447-.228-.819-.228h-.618v1.904Zm9.658 3.397-.466-1.526H60.46l-.466 1.526h-1.467l2.265-6.44h1.663l2.273 6.44h-1.466.002Zm-.791-2.668c-.429-1.384-.673-2.165-.726-2.348a5.893 5.893 0 0 1-.116-.428c-.097.373-.373 1.3-.83 2.776h1.672Zm6.505-1.107 1.338-2.64h1.466l-2.128 3.918v2.497h-1.352v-2.453l-2.128-3.962h1.474l1.33 2.64Zm7.776 3.775-1.545-5.032h-.04c.056 1.024.084 1.707.084 2.05v2.984h-1.215v-6.415h1.851l1.518 4.905h.025l1.61-4.905h1.851v6.415h-1.268v-3.037c0-.143 0-.309.007-.495.007-.187.023-.685.06-1.492h-.04L78 52.76h-1.245v-.002Zm10.896 0h-3.694v-6.415h3.694v1.114h-2.334v1.409h2.173v1.113h-2.173v1.654h2.334v1.125Zm8.475 0h-1.73l-2.79-4.852h-.04c.056.858.084 1.47.084 1.834v3.018h-1.216v-6.415h1.716l2.786 4.803h.03a39.472 39.472 0 0 1-.067-1.768V46.34h1.224v6.416l.003.002Zm5.536 0h-1.36v-5.283H98.56v-1.132h4.845v1.132h-1.741v5.283h-.003Zm3.884-.627c0-.247.066-.431.198-.558.131-.127.323-.19.574-.19.251 0 .431.065.563.194.134.13.2.314.2.554 0 .24-.066.413-.203.546-.133.134-.32.201-.562.201-.242 0-.436-.065-.57-.196-.134-.13-.203-.314-.203-.551h.003Zm7.026-4.748c-.512 0-.909.191-1.19.576-.281.385-.422.92-.422 1.608 0 1.43.537 2.144 1.61 2.144.452 0 .996-.113 1.637-.339v1.142c-.526.219-1.114.33-1.764.33-.932 0-1.647-.284-2.142-.85-.494-.564-.743-1.378-.743-2.437 0-.666.122-1.252.364-1.752a2.643 2.643 0 0 1 1.047-1.153c.455-.268.99-.401 1.601-.401s1.25.15 1.877.451l-.438 1.105a6.983 6.983 0 0 0-.724-.297 2.136 2.136 0 0 0-.715-.127h.002Zm8.375 5.375-.465-1.526h-2.339l-.465 1.526h-1.467l2.264-6.44h1.663l2.274 6.44h-1.467.002Zm-.788-2.668a1917.53 1917.53 0 0 1-.727-2.348 7.43 7.43 0 0 1-.115-.428c-.097.373-.373 1.3-.83 2.776h1.672ZM20.384 65.115l.991-4.651h.969l-.992 4.65h-.968Zm5.894 0h-1.089l-1.132-3.52h-.018l-.014.102c-.067.46-.136.867-.21 1.23l-.461 2.188h-.874l.982-4.651h1.135l1.081 3.426h.014c.025-.161.067-.392.125-.69.057-.3.249-1.21.572-2.734h.871l-.982 4.651v-.002Zm5.158-2.892c0 .593-.103 1.11-.311 1.547a2.23 2.23 0 0 1-.902 1.001c-.394.228-.857.344-1.392.344h-1.435l.985-4.651h1.259c.572 0 1.015.152 1.328.454.314.302.468.738.468 1.305Zm-2.56 2.078c.314 0 .586-.081.822-.243.232-.16.415-.398.546-.71.132-.311.198-.67.198-1.072 0-.328-.076-.574-.23-.747-.155-.17-.376-.256-.664-.256h-.367L28.54 64.3h.337Zm5.528.814h-2.599l.983-4.651h2.6l-.17.809H33.59l-.212 1.021h1.517l-.175.81h-1.517l-.254 1.199h1.628l-.173.814v-.002Zm4.55-3.296c0 .512-.18.914-.54 1.204-.36.293-.855.438-1.487.438h-.272l-.348 1.654h-.969l.983-4.651h1.074c.514 0 .902.112 1.165.338.262.226.394.565.394 1.017Zm-2.126.833h.177c.302 0 .54-.074.713-.22a.733.733 0 0 0 .258-.587c0-.383-.207-.572-.62-.572h-.235l-.293 1.381v-.002Zm4.886 2.463h-2.599l.983-4.651h2.6l-.17.809H40.9l-.212 1.021h1.517l-.175.81h-1.517l-.254 1.199h1.628l-.173.814v-.002Zm4.732 0h-1.088l-1.133-3.52h-.018l-.014.102c-.067.46-.136.867-.21 1.23l-.46 2.188h-.875l.982-4.651h1.135l1.082 3.426h.013c.026-.161.067-.392.125-.69.058-.3.249-1.21.572-2.734h.871l-.982 4.651v-.002Zm5.159-2.892c0 .593-.104 1.11-.312 1.547a2.23 2.23 0 0 1-.901 1.001c-.395.228-.858.344-1.393.344h-1.434l.984-4.651h1.26c.571 0 1.014.152 1.328.454.313.302.468.738.468 1.305ZM49.043 64.3c.313 0 .586-.081.82-.243.234-.16.416-.398.547-.71.132-.311.199-.67.199-1.072 0-.328-.077-.574-.231-.747-.155-.17-.376-.256-.664-.256h-.367l-.64 3.028h.336Zm5.53.814h-2.6l.983-4.651h2.601l-.17.809h-1.629l-.212 1.021h1.518l-.175.81H53.37l-.254 1.199h1.629l-.173.814v-.002Zm4.73 0h-1.09l-1.132-3.52h-.018l-.014.102c-.067.46-.136.867-.21 1.23l-.46 2.188h-.875l.983-4.651h1.134l1.082 3.426h.014c.025-.161.066-.392.124-.69.058-.3.249-1.21.572-2.734h.872l-.983 4.651v-.002Zm2.766 0h-.968l.807-3.83h-1.12l.175-.821h3.212l-.175.82h-1.123l-.81 3.83h.002Zm6.014-1.107h-1.505l-.547 1.107h-1.017l2.435-4.67h1.188l.468 4.67h-.945l-.076-1.107Zm-.048-.828-.083-1.114a9.763 9.763 0 0 1-.032-.805v-.115c-.093.254-.21.523-.346.81l-.6 1.224h1.061Zm3.858-.678h1.792l-.517 2.424a4.388 4.388 0 0 1-.788.198c-.245.035-.5.053-.773.053-.549 0-.973-.157-1.273-.468-.297-.312-.45-.759-.45-1.342 0-.584.114-1.082.342-1.54.228-.46.546-.815.957-1.064.41-.249.885-.373 1.425-.373.461 0 .897.103 1.305.316l-.367.797a2.759 2.759 0 0 0-.47-.203 1.656 1.656 0 0 0-.512-.076 1.5 1.5 0 0 0-.87.263 1.748 1.748 0 0 0-.601.752c-.145.325-.22.676-.22 1.052s.077.632.231.802c.155.17.39.256.708.256.162 0 .342-.025.542-.076l.21-.95h-.849l.178-.821Zm4.863 2.613h-2.599l.985-4.651h2.601l-.173.809h-1.628l-.212 1.021h1.518l-.176.81h-1.517l-.254 1.199h1.628l-.17.814-.003-.002Zm4.732 0H80.4l-1.132-3.52h-.021l-.012.102c-.067.46-.138.867-.21 1.23l-.46 2.188h-.877l.985-4.651h1.134l1.082 3.426h.011c.026-.161.067-.392.125-.69.057-.3.249-1.21.572-2.734h.871l-.982 4.651.002-.002Zm2.767 0h-.968l.807-3.83h-1.12l.175-.821h3.212l-.175.82h-1.123l-.81 3.83h.002Zm7.548 0H90.69l-.228-.312a2.248 2.248 0 0 1-1.282.376c-.443 0-.784-.103-1.02-.311-.237-.205-.355-.505-.355-.892 0-.307.084-.572.25-.791.166-.22.456-.432.869-.64a1.61 1.61 0 0 1-.242-.82c0-.413.124-.74.373-.978.25-.237.586-.357 1.006-.357.36 0 .64.087.846.263.205.175.31.412.31.714 0 .593-.388 1.045-1.16 1.354l.62.837c.092-.122.18-.249.255-.387.076-.136.16-.32.25-.551h.954c-.281.664-.61 1.19-.987 1.58l.653.912.002.003Zm-2.493-1.983c-.186.108-.316.219-.392.332a.75.75 0 0 0-.11.417.45.45 0 0 0 .145.344c.097.09.219.136.371.136.245 0 .478-.063.704-.187l-.718-1.043Zm.385-.944c.24-.124.406-.242.496-.352a.554.554 0 0 0 .136-.356c0-.126-.032-.207-.094-.262a.338.338 0 0 0-.224-.081.388.388 0 0 0-.325.147.608.608 0 0 0-.115.38 1.161 1.161 0 0 0 .131.527l-.005-.003Zm5.715 1.142-.379 1.785h-.97l.984-4.651h1.142c.502 0 .878.108 1.132.325.254.216.378.532.378.95 0 .334-.087.622-.265.864-.175.24-.429.42-.76.535l.83 1.977h-1.057l-.657-1.785h-.378Zm.17-.803h.25c.276 0 .493-.06.65-.182.154-.12.23-.304.23-.553 0-.173-.05-.305-.15-.392-.101-.088-.26-.13-.475-.13h-.235l-.267 1.257h-.003Zm5.048 2.588h-2.599l.983-4.651h2.601l-.171.809h-1.628l-.212 1.021h1.517l-.175.81h-1.517l-.254 1.199h1.628l-.173.814v-.002Zm3.773-1.375c0 .443-.157.794-.473 1.052-.314.258-.738.387-1.275.387-.471 0-.846-.094-1.132-.286v-.871c.408.228.788.343 1.139.343.237 0 .424-.046.558-.136.134-.09.2-.214.2-.371 0-.09-.016-.17-.043-.24a.637.637 0 0 0-.123-.191 3.199 3.199 0 0 0-.394-.325c-.293-.21-.498-.418-.616-.623a1.292 1.292 0 0 1-.179-.664 1.323 1.323 0 0 1 .761-1.236c.242-.12.521-.18.837-.18.459 0 .881.104 1.263.316l-.346.74c-.329-.157-.636-.235-.915-.235a.638.638 0 0 0-.431.143.469.469 0 0 0-.169.378c0 .13.035.242.106.339.07.097.226.224.471.383.256.168.45.357.576.56.127.205.192.445.192.717h-.007Zm3.21 1.375h-2.599l.985-4.651h2.601l-.173.809h-1.628l-.212 1.021h1.517l-.175.81h-1.518l-.253 1.199h1.628l-.171.814-.002-.002Zm.931 0 .985-4.651h.973l-.814 3.837h1.628l-.17.814H108.542Zm3.374 0 .985-4.651h.973l-.814 3.837h1.628l-.171.814h-2.601Zm5.975 0h-2.599l.985-4.651h2.601l-.173.809h-1.628l-.212 1.021h1.517l-.175.81h-1.517l-.254 1.199h1.628l-.171.814-.002-.002Zm2.281-1.785-.379 1.785h-.97l.984-4.651h1.142c.502 0 .878.108 1.132.325.254.216.378.532.378.95 0 .334-.087.622-.265.864-.175.24-.429.42-.761.535l.83 1.977h-1.056l-.657-1.785h-.378Zm.17-.803h.249c.277 0 .494-.06.651-.182.154-.12.23-.304.23-.553 0-.173-.05-.305-.15-.392-.101-.088-.26-.13-.475-.13h-.235l-.267 1.257h-.003Z" />
  <path stroke="#fff" stroke-miterlimit="10" stroke-width=".952" d="M8.701 35.171h192.075v35.381H8.701v-35.38Z" />
  <path fill="#fff" fill-opacity=".8"
    d="M167.643 55.208c-.848.999-1.831 1.395-2.829 1.395-1.887 0-3.39-1.353-3.39-3.13 0-1.775 1.434-3.128 3.321-3.128.998 0 1.983.396 2.829 1.395l-1.257.888c-.452-.644-.971-.902-1.572-.902-.971 0-1.765.78-1.765 1.75 0 .971.861 1.75 1.831 1.75.602 0 1.135-.26 1.601-.848l1.231.835v-.005Zm.697-7.312h1.572v8.585h-1.572v-8.585Zm5.725 2.446c1.887 0 3.39 1.368 3.39 3.13 0 1.761-1.503 3.129-3.39 3.129-1.886 0-3.403-1.368-3.403-3.13 0-1.761 1.517-3.129 3.403-3.129Zm0 4.935c.985 0 1.887-.793 1.887-1.803 0-1.01-.902-1.803-1.887-1.803-.984 0-1.886.793-1.886 1.803 0 1.01.888 1.803 1.886 1.803Zm3.141-4.81h1.845l1.49 3.212 1.612-3.212h1.708l-3.32 6.383-3.335-6.383Zm12.109 5.33c-.602.504-1.434.806-2.311.806-1.886 0-3.403-1.367-3.403-3.13 0-1.76 1.381-3.128 3.267-3.128 1.887 0 3.116 1.367 3.116 3.129v.452h-4.813c.219.793.985 1.353 1.831 1.353.519 0 .971-.163 1.381-.588l.93 1.107.002-.002Zm-.982-3.158a1.56 1.56 0 0 0-1.462-.97 1.69 1.69 0 0 0-1.559.97h3.021Zm2.423.466c0-1.434 1.093-2.638 2.871-2.638v1.409c-.765 0-1.312.466-1.312 1.423v3.184h-1.559V53.105Z" />
  <path fill="#fff"
    d="M154.319 50.714a2.435 2.435 0 0 0-2.435-2.433 2.434 2.434 0 0 0 0 4.868h2.433v-2.433l.002-.002Zm.685 0a2.435 2.435 0 0 1 2.435-2.433 2.434 2.434 0 0 1 0 4.868h-2.433v-2.433l-.002-.002Zm0 5.55a2.434 2.434 0 1 0 2.435-2.435h-2.433v2.433l-.002.002Zm-.685 0a2.434 2.434 0 1 1-2.435-2.435h2.433v2.433l.002.002Zm-2.433 1.748c.966 0 1.753-.784 1.753-1.745v-1.753h-1.75c-.967 0-1.753.789-1.753 1.752a1.75 1.75 0 0 0 1.75 1.746Z" />
</svg>