<svg width="210" height="105" viewBox="0 0 210 105" fill="none" xmlns="http://www.w3.org/2000/svg"><g fill="#F0EBEB"><path fill-rule="evenodd" clip-rule="evenodd" d="M38.5 49.2H52a26 26 0 100 3H38.5c-.1 1-.4 2-.7 2.8-1 2.4-2.6 4.2-4.1 6l-.4.3c-1.7 2-3.1 4-4.3 6.4-.6 1.3-1.2 2.4-1.7 3.8l-.8 3.1v.3l-.4.8c-.2-.4-.3-.9-.3-1.3a10.8 10.8 0 00-.7-2.2l-.1-.5-1.1-2.9a53 53 0 00-3.4-5.7c-.7-1-1.6-2-2.4-2.8l-1.9-2a12 12 0 01-2.2-4.6c-.4-1.6-.5-2.5-.5-4.1.2-.4.2-.8.3-1.3 0-.3 0-.6.2-1 .6-2 1.6-3.7 3-5 1.7-1.8 4-3.3 7-3.8a13.1 13.1 0 0111.6 4.2 12 12 0 012.9 6.5z"/><circle cx="26.1" cy="50.5" r="7.6"/><path d="M81 49.1a6.7 6.7 0 00-5.5-2.6 6.3 6.3 0 00-4.7 2A6.5 6.5 0 0069 53c0 1 .1 1.9.4 2.7.4.8.8 1.5 1.4 2.1a6.7 6.7 0 004.7 2c2 0 3.8-.9 5.4-2.6v7.5l-.6.2a17.2 17.2 0 01-5.2 1 12.8 12.8 0 01-8.9-3.6c-1.1-1.2-2-2.5-2.8-4.1-.7-1.6-1-3.3-1-5.2a12.5 12.5 0 017.9-11.8 12.5 12.5 0 017.7-.6l3 .9v7.5zM94.1 50.5h.8c.8 0 1.4-.2 1.9-.7.5-.5.7-1 .7-1.8 0-.7-.2-1.3-.7-1.8-.4-.4-1-.7-1.7-.7-.8 0-1.4.3-2 .8-.4.5-.6 1.2-.6 2h-5.9c.2-1.3.5-2.4 1-3.4a8.1 8.1 0 014.5-4 9.7 9.7 0 016.6 0c1 .3 1.8.8 2.5 1.4.7.6 1.3 1.3 1.6 2.2.4.9.6 1.8.6 2.9 0 1.2-.2 2.1-.7 2.9-.4.7-1 1.3-1.8 1.9 1.2.4 2.2 1 2.9 2 .7 1 1 2.3 1 3.7a7.5 7.5 0 01-2.7 5.9 9 9 0 01-3 1.6 12 12 0 01-3.8.6c-2 0-3.6-.4-5.1-1.1a8.3 8.3 0 01-4.5-5.6 12 12 0 01-.1-2.2h6.2c0 1.2.4 2 1 2.6.6.6 1.5 1 2.5 1 1.1 0 2-.4 2.5-1s.7-1.3.7-2.2c0-1-.3-1.9-.9-2.4a3.3 3.3 0 00-2.8-.7H94v-3.9zM125.8 41l-6.8 8a4.5 4.5 0 012.6-.8 7.7 7.7 0 015.8 2.5 9.3 9.3 0 012.3 6.1 8.6 8.6 0 01-2.8 6.5c-.8.9-1.9 1.5-3.1 2-1.3.5-2.7.7-4.3.7-1.6 0-3-.2-4.3-.7a10 10 0 01-3.3-2 8.5 8.5 0 01-2.7-6.3c0-1.3.3-2.8.9-4.4.6-1.6 1.5-3.2 2.8-4.7l5.6-6.9h7.3zm-10.4 16a4 4 0 001.2 2.8 4 4 0 004.4.9 4.1 4.1 0 002.1-2.1 4 4 0 000-3.2 4.1 4.1 0 00-3.7-2.5 4 4 0 00-2.8 1.2 4.1 4.1 0 00-1.2 2.9zM139.4 53.1c0 1.1 0 2 .3 3 .2.9.4 1.6.8 2.3.3.6.8 1.1 1.3 1.5a2.8 2.8 0 003.3 0c.5-.4 1-.9 1.3-1.5a9 9 0 00.8-2.3 13.7 13.7 0 00-.8-8.1 4 4 0 00-1.3-1.5c-.5-.4-1-.6-1.7-.6-.6 0-1.1.2-1.6.6-.5.3-1 .8-1.3 1.5-.4.6-.6 1.3-.8 2.2-.2 1-.3 1.9-.3 3zm-6.3 0c0-1.9.3-3.6.8-5.2s1.2-3 2-4a9.6 9.6 0 0111.7-2.7c1.3.7 2.3 1.5 3.2 2.6 1 1.1 1.6 2.5 2.1 4 .6 1.7.8 3.4.8 5.3 0 2-.2 3.7-.8 5.3-.5 1.6-1.2 3-2 4-1 1.2-2 2-3.3 2.7-1.3.6-2.7.9-4.2.9s-2.9-.3-4.2-1a10 10 0 01-3.2-2.5 13 13 0 01-2.1-4c-.5-1.7-.8-3.4-.8-5.4zM165.3 50.4h9.1V41h6.4v24.3h-6.4v-10h-9v10H159V41h6.3v9.4zM194.3 60h1.4c1.1 0 2-.2 3-.5a6.1 6.1 0 003.5-3.6c.3-.8.4-1.7.4-2.7 0-1-.1-1.9-.4-2.7a6.1 6.1 0 00-3.6-3.6c-.8-.4-1.8-.5-2.9-.5h-1.4V60zM188 41h9.3c1.6 0 3.2.4 4.6 1a12.3 12.3 0 016.4 6.6 11.6 11.6 0 010 9.2 12.3 12.3 0 01-6.3 6.5c-1.5.7-3 1-4.7 1H188V41z"/></g></svg>