<svg width="210" height="105" viewBox="0 0 210 105" fill="none" xmlns="http://www.w3.org/2000/svg"><g clip-path="url(#clip0)" fill="#F0EBEB"><path fill-rule="evenodd" clip-rule="evenodd" d="M38.49 49.21H52.1a26.07 26.07 0 10-.01 2.93H38.52c-.13 1.03-.4 1.98-.74 2.87-.9 2.37-2.54 4.2-4.08 5.92l-.36.4a29.43 29.43 0 00-4.36 6.39l-.02.04c-.6 1.2-1.2 2.37-1.61 3.7-.32 1.03-.6 2.1-.88 3.15v.02l-.06.3c-.04.27-.09.53-.27.74-.22-.4-.3-.84-.39-1.27l-.1-.49a23.16 23.16 0 00-.66-2.2c-.33-1-.65-1.99-1.1-2.88a42.83 42.83 0 00-3.39-5.74 23.15 23.15 0 00-2.44-2.83c-.63-.64-1.25-1.3-1.83-2A11.94 11.94 0 0114 53.68a16.32 16.32 0 01-.46-4.07c.15-.42.21-.85.27-1.26.05-.33.1-.65.19-.96.61-2.1 1.63-3.73 2.96-5.12a12.5 12.5 0 016.98-3.78 13.13 13.13 0 0111.66 4.2 11.92 11.92 0 012.9 6.53z"/><circle cx="26.07" cy="50.53" r="7.59"/><path d="M80.94 49.14a6.74 6.74 0 00-5.4-2.67 6.31 6.31 0 00-4.7 1.93 6.48 6.48 0 00-1.88 4.74c0 .96.16 1.86.48 2.67.35.82.8 1.53 1.39 2.13a6.68 6.68 0 004.67 1.93c2.02 0 3.83-.86 5.44-2.58v7.48l-.64.23a17.21 17.21 0 01-5.19 1c-1.67 0-3.28-.32-4.83-.94a13.2 13.2 0 01-4.06-2.67 13.71 13.71 0 01-2.8-4.1 12.6 12.6 0 01-1.07-5.18 12.47 12.47 0 017.93-11.8 12.53 12.53 0 017.7-.64c.95.2 1.93.5 2.96.93v7.54zm13.18 1.36l.42.03h.32c.8 0 1.44-.24 1.94-.71s.74-1.09.74-1.84c0-.73-.24-1.32-.71-1.77a2.4 2.4 0 00-1.77-.68c-.78 0-1.4.26-1.87.78-.47.51-.71 1.18-.71 2h-5.83c.15-1.27.46-2.4.93-3.39a8.11 8.11 0 011.87-2.48 7.4 7.4 0 012.64-1.55 9.8 9.8 0 013.35-.54c1.2 0 2.3.17 3.26.51.99.32 1.82.8 2.51 1.42.71.6 1.25 1.34 1.61 2.22.39.86.58 1.83.58 2.9a5.5 5.5 0 01-.67 2.87 5.84 5.84 0 01-1.87 1.9 5.28 5.28 0 012.9 2.1c.7.98 1.06 2.2 1.06 3.67a7.4 7.4 0 01-2.7 5.83 8.93 8.93 0 01-3.04 1.64c-1.16.4-2.43.58-3.83.58-1.87 0-3.55-.36-5.06-1.1a8.28 8.28 0 01-3.6-3.47 7.3 7.3 0 01-.84-2.13c-.13-.7-.2-1.43-.2-2.16h6.25c.05 1.14.38 2.01 1 2.61.62.58 1.46.87 2.52.87 1.11 0 1.93-.3 2.44-.9.52-.6.78-1.34.78-2.22 0-1.05-.31-1.85-.94-2.39a3.3 3.3 0 00-2.83-.74c-.2.02-.41.06-.65.1V50.5zm31.73-9.48l-6.9 7.93h.13a4.5 4.5 0 012.52-.77 7.74 7.74 0 015.83 2.54c.73.77 1.3 1.69 1.7 2.74.41 1.05.62 2.18.62 3.38a8.55 8.55 0 01-2.77 6.5 9.62 9.62 0 01-3.22 1.94c-1.27.48-2.7.71-4.29.71a12.3 12.3 0 01-4.32-.7 10 10 0 01-3.25-1.94 8.5 8.5 0 01-2.74-6.31c0-1.38.3-2.86.9-4.45a17.43 17.43 0 012.84-4.74l5.64-6.83h7.31zm-10.44 15.95a3.91 3.91 0 001.2 2.84 3.92 3.92 0 004.38.87 4.13 4.13 0 002.15-2.13 3.91 3.91 0 000-3.12 4.12 4.12 0 00-3.7-2.49 3.92 3.92 0 00-2.84 1.2 4.1 4.1 0 00-1.19 2.83zm23.96-3.83c0 1.07.1 2.05.3 2.93.19.88.45 1.64.8 2.29.36.64.8 1.15 1.29 1.51.5.35 1.05.52 1.67.52.6 0 1.15-.17 1.64-.52.52-.36.95-.87 1.3-1.51.34-.65.6-1.4.8-2.29.2-.88.29-1.86.29-2.93 0-1.05-.1-2.02-.29-2.9-.2-.9-.46-1.67-.8-2.29a3.99 3.99 0 00-1.3-1.48 2.7 2.7 0 00-1.64-.55c-.62 0-1.18.18-1.67.55-.5.34-.93.84-1.3 1.48a8.38 8.38 0 00-.8 2.29c-.2.88-.29 1.85-.29 2.9zm-6.25 0c0-1.94.25-3.69.74-5.25a12.54 12.54 0 012.13-4.06 9.37 9.37 0 017.44-3.51c1.5 0 2.9.3 4.16.93a9.23 9.23 0 013.25 2.58 12.1 12.1 0 012.1 4.06c.51 1.56.77 3.31.77 5.25 0 1.93-.26 3.7-.77 5.28-.5 1.57-1.2 2.92-2.1 4.06a9.57 9.57 0 01-3.25 2.61c-1.27.6-2.65.9-4.16.9-1.52 0-2.92-.3-4.19-.9a10 10 0 01-3.25-2.6 13 13 0 01-2.13-4.07c-.5-1.59-.74-3.35-.74-5.28zm32.21-2.74h9.12v-9.38h6.31v24.3h-6.31V55.3h-9.12v10.02h-6.31v-24.3h6.31v9.38zm28.94 9.57h1.45c1.1 0 2.07-.17 2.93-.52a6.1 6.1 0 003.51-3.54c.32-.84.48-1.75.48-2.74 0-.97-.16-1.87-.48-2.7a6.1 6.1 0 00-3.54-3.58 7.75 7.75 0 00-2.9-.52h-1.45v13.6zm-6.32-18.95h9.34c1.66 0 3.2.34 4.64 1 1.47.67 2.73 1.56 3.8 2.68 1.1 1.1 1.96 2.38 2.58 3.86a11.78 11.78 0 010 9.22 12.28 12.28 0 01-6.35 6.54c-1.43.66-2.99 1-4.67 1h-9.34v-24.3z"/></g><defs><clipPath id="clip0"><path fill="#fff" d="M0 0h210v105H0z"/></clipPath></defs></svg>