<svg width="210" height="105" viewBox="0 0 210 105" fill="none" xmlns="http://www.w3.org/2000/svg"><path d="M173.77 57.7c.16-6.18 2.69-11.07 8.03-14.25 2.56-1.54 5.39-2.35 8.47-1.74 1.52.3 1.73.1 2.15-1.44.54-1.95 1.1-3.9 1.6-5.85.47-1.8-.06-2.5-1.83-2.69-.66-.06-1.78.2-1.79-.56 0-.84 1.17-.7 1.84-.8 2.78-.5 5.58-.92 8.38-1.36.4-.07.8-.1 1.2-.12 1.08-.07 1.26.17.95 1.14-1.62 5.25-3.29 10.48-4.84 15.74-1.53 5.15-2.95 10.34-4.4 15.52-.13.44-.22.9-.25 1.36-.07 1.46.65 2.08 2.03 1.64.55-.16 1.04-.5 1.37-.96.89-1.48 1.63-3.04 2.45-4.55.19-.26.4-.49.63-.7.1.35.35.73.28 1.01-.65 2-1.53 3.89-2.95 5.46-2.08 2.3-5.41 2.4-7.68 1.29-1.66-.81-2.34-2.3-2.16-4.17 0-.22-.01-.44-.05-.66-.18.18-.33.38-.48.6-.5.9-.92 1.85-1.46 2.74-.85 1.39-2.14 2.01-3.75 2.15-4.98.45-7.57-3.44-7.74-7.23-.02-.54 0-1.06 0-1.58zm6.53 3.47l.34 1.7c.16.82.35 1.6 1.33 1.82a2.05 2.05 0 002.29-.87c.84-1.3 1.83-2.58 2.3-4.02 1.6-4.88 3.03-9.82 4.47-14.75.48-1.65-.34-2.6-2.04-2.54a3.35 3.35 0 00-2.6 1.18 11 11 0 00-1.67 2.4c-1.02 2.33-2.09 4.66-2.78 7.1-.76 2.68-1.15 5.5-1.64 7.96v.02zM20.1 76.5a13 13 0 006.88-1.44c.46-.23.89-.53 1.27-.88 1.57-1.57 1.18-3.74-.9-4.44-1.39-.42-2.8-.7-4.24-.82-2.35-.3-4.72-.38-7.05-.74-1.2-.21-2.35-.61-3.42-1.18a4.72 4.72 0 01-1.7-6.99c.82-1.19 2.09-1.59 3.39-1.92.43-.13.86-.28 1.28-.46-.4-.15-.8-.34-1.23-.46-3.1-.9-4.84-2.99-5.48-6.1-.54-2.63.78-6 3.04-7.47 3.7-2.4 7.62-2.5 11.58-.8 1.14.49 1.96.62 2.96-.19 1.43-1.16 3.16-1.39 4.94-1.15 2.12.27 3.35 1.9 3.03 3.89a3.17 3.17 0 01-3.38 2.62c-1.75-.2-2.68-1.45-2.45-3.32.03-.23.13-.45.16-.7.07-.52-.22-.86-.7-.73-.65.2-1.28.5-1.86.86-.1.06 0 .64.16.84a7.83 7.83 0 011.89 4.02c.62 4.32-1.54 7.38-4.75 8.42-1.79.58-3.71.76-5.58 1.07-.96.16-1.95.17-2.92.33-.6.1-1.18.47-.98 1.16a1.59 1.59 0 001.04.93c1.75.36 3.53.58 5.31.67 2.37.02 4.73.32 7.04.89 3.47.9 5.31 2.67 5.48 6.03.15 3.05-.69 5.4-3.96 7.14-3.34 1.78-7.02 2.22-10.77 1.8a34.75 34.75 0 01-4.6-.73c-1.16-.35-2.3-.8-3.38-1.33-2.01-.89-2.58-3.5-1.94-5.38.54-1.62 2.75-2.56 4.31-1.9.42.2.78.5 1.04.87.35.5.52 1.07-.3 1.39-1.94.75-1.66 3.1-.4 4.32 1.5 1.45 3.42 1.58 5.3 1.85.63.06 1.26.07 1.9.04zM15.6 50.08c.07 1.93.1 3.83.97 5.6.46.96 1.14 1.65 2.23 1.68 1.1.03 1.82-.63 2.27-1.6.23-.46.41-.95.55-1.45.56-2.4.42-4.82.2-7.23-.08-.8-.25-1.6-.5-2.36-.38-1.15-1.08-2.13-2.43-2.15-1.35-.02-2.04.92-2.49 2.07-.15.37-.26.76-.32 1.15-.19 1.43-.33 2.87-.48 4.3zM104.83 65.76H101c-.88 0-1.27-.39-1.25-1.26.02-1.16 0-2.32 0-3.48 0-.11-.13-.23-.2-.34-.07.08-.12.18-.17.28-.35.92-.63 1.85-1 2.76-.7 1.67-2.09 2.43-3.78 2.68-4 .6-7.64-1.04-9.45-4.65-2.55-5.08-2.68-10.28.47-15.17 1.88-2.92 4.8-4.48 8.28-4.8 1.32-.1 2.66-.06 3.97.13.85.1 1.2-.03 1.2-.9 0-2.2.04-4.4-.02-6.6-.04-1.6-.78-2.33-2.43-2.66-.62-.11-1.25-.22-1.86-.36a.47.47 0 01-.26-.37.48.48 0 01.3-.33c1.14-.25 2.27-.48 3.4-.7 1.93-.34 3.86-.69 5.8-1.02.28-.05.57-.08.86-.09 1.34-.04 1.56.12 1.53 1.43-.04 1.55-.28 3.1-.29 4.66-.03 8.8 0 17.59 0 26.38 0 .46.03.93.1 1.39.18 1.08.76 1.78 1.9 1.93.35.02.7.1 1.02.21.2.1.32.38.48.58-.2.1-.39.26-.58.27-1.4.02-2.78 0-4.17 0l-.03.03zm-5.61-14.42h-.15c0-2.03-.02-4.05 0-6.07a2.09 2.09 0 00-.84-1.79c-2-1.64-4.7-1.1-5.8 1.28a9.68 9.68 0 00-.95 3.31c-.22 3.34-.35 6.69-.35 10.04 0 1.83.29 3.7 1.25 5.35 1.15 1.96 3.87 2.05 4.97.07.69-1.2 1.14-2.52 1.33-3.89.34-2.74.38-5.52.54-8.29v-.01z" fill="#F0EBEB"/><path d="M138.38 33.65c-.03 1.53-.48 2.87-1.89 3.66a4.41 4.41 0 01-4.78-.1c-1.83-1.16-1.71-4.32.18-5.7.32-.23.73-.36 1.04-.62.19-.17.4-.5.35-.7a.88.88 0 00-.62-.49c-1.41-.2-2.87-.25-3.82 1a12.85 12.85 0 00-2.17 3.5c-.77 2.23-1.22 4.58-1.84 6.86-.24.9.15 1.12.96 1.1 1.33-.04 2.66-.02 4 0 .5 0 1.15-.1 1.22.63.06.73-.6.96-1.17 1-1.32.08-2.65.06-3.98.09-1.67.03-1.81.14-2.25 1.78l-4.7 17.76a28.51 28.51 0 01-3.13 7.51c-2.46 4.1-6.06 6.42-10.92 6.6-2.34.1-4.58-1.19-5.4-3.08a4.17 4.17 0 01.65-4.56c1.04-1.25 2.52-1.6 4.1-1.3a3.54 3.54 0 012.78 2.96c.22 1.24-.47 2.64-1.59 3.41-.43.3-1.13.98-1.06 1.1.42.72 1.2.52 1.85.32a3.74 3.74 0 002.38-2.15 32.85 32.85 0 001.8-4.69c2.1-7.75 4.13-15.52 6.18-23.3.07-.28.17-.55.22-.83.13-.7-.11-1.1-.84-1.24a24.3 24.3 0 01-2.53-.6c-.23-.07-.41-.34-.62-.5.25-.2.47-.5.73-.55.96-.2 1.94-.32 2.92-.38.9-.04 1.28-.47 1.6-1.27.72-1.89 1.42-3.82 2.4-5.56 2.52-4.44 6.37-6.81 11.52-6.7 1.37.1 2.72.45 3.97 1.04 1.77.75 2.45 2.06 2.46 4zM70.07 66.48c-6.25 0-10.72-4.1-11.68-10.13-.47-2.86-.04-5.8 1.22-8.42a10.3 10.3 0 018.15-6.02c3.2-.49 6.3-.13 9.12 1.8 2.82 1.93 4.19 4.54 4.8 7.71.34 1.93.31 3.91-.09 5.83-1.1 5.62-5.65 9.29-11.52 9.23zM65.9 53.82h.17c0 .92-.04 1.85 0 2.78.1 1.67.2 3.34.41 5a4.9 4.9 0 001.58 3.19c1.27 1.12 2.78 1.11 4.05 0a4.92 4.92 0 001.58-3.2c.21-1.65.2-3.34.46-4.98.5-3.13-.1-6.2-.36-9.3-.04-.69-.2-1.37-.49-2a7.3 7.3 0 00-1.48-2.09c-1.04-.98-2.32-.93-3.47-.05a4.86 4.86 0 00-1.86 3.42c-.27 2.4-.4 4.82-.6 7.23h.01z" fill="#F0EBEB"/><path d="M134.8 66.62c-1.25-.16-2.25-.17-3.19-.42-3.98-1.06-5.87-3.86-6.05-8.1-.24-5.91 3.02-13.04 9.77-15.64 2.5-.96 5.12-1.34 7.8-.54 2.85.86 4.83 2.63 5.47 5.51 1.22 5.54-.38 10.39-4.11 14.56a12.65 12.65 0 01-6.21 3.95c-1.22.33-2.48.49-3.49.68zm7.75-20.31c0-.6-.06-1.2-.16-1.8-.5-2.02-2.24-2.63-3.82-1.29-.7.6-1.3 1.31-1.77 2.1-2.13 3.51-3.12 7.44-3.93 11.4-.37 2.1-.6 4.22-.71 6.35a2.43 2.43 0 001.41 2.4c1.02.52 1.79-.09 2.56-.56.33-.25.6-.55.84-.88 1.71-2.05 2.5-4.52 3.31-7a51.32 51.32 0 002.27-10.72zM56.7 54.19c.19 2.2-.3 4.4-1.39 6.33-2.1 3.67-5.27 5.72-9.55 5.96-3.45.19-6.55-.72-9.03-3.18-3.13-3.08-4.05-6.95-3.51-11.16.47-3.67 2.15-6.7 5.37-8.7 4.31-2.7 10.9-2.45 14.9 1.66a11.63 11.63 0 013.21 9.09zm-7.49-.08h-.17c0-1.45.12-2.91-.04-4.34-.2-1.66-.53-3.3-1-4.9-.4-1.41-1.53-2.2-2.96-2.28-1.44-.09-2.35.7-2.96 1.98-.73 1.56-.85 3.2-1.08 4.87a40.9 40.9 0 00.14 10.88c.17 1.25.55 2.47 1.12 3.6a2.96 2.96 0 005.32.17c.55-.94.92-1.99 1.07-3.07.3-2.3.41-4.61.57-6.91h-.01zM149.82 57.38c.04-5.56 2.2-10.12 6.72-13.36 3.13-2.24 6.67-3.09 10.5-2.09a7.87 7.87 0 016.03 7.94c0 6.64-2.5 12.08-8.63 15.26a11.7 11.7 0 01-9.9.66c-2.96-1.15-4.34-3.47-4.7-6.49a15.8 15.8 0 01-.02-1.92zm16.68-11.03V45.3c0-1.08-.15-2.17-1.25-2.64-1.21-.51-2.31-.02-3.1.93-.75.87-1.4 1.83-1.93 2.84-2.35 4.77-3.4 9.91-4.07 15.13a6.6 6.6 0 00.35 2.7c.34 1.16 1.3 1.51 2.48 1.18a4.17 4.17 0 002.3-1.72 21.26 21.26 0 002.88-6.07c1.14-3.7 2.1-7.42 2.34-11.3z" fill="#F0EBEB"/></svg>