<svg width="210" height="105" viewBox="0 0 210 105" fill="none" xmlns="http://www.w3.org/2000/svg"><path d="M88.338 61.652a15.588 15.588 0 01-12.217 6.044c-8.144 0-14.633-5.822-14.633-13.52a13.613 13.613 0 014.294-9.799 13.799 13.799 0 0110.053-3.722A15.588 15.588 0 0188.051 46.7l-5.408 3.849c-1.431-2.386-4.008-3.881-6.776-3.913-4.168 0-7.572 3.372-7.603 7.54.127 4.262 3.658 7.603 7.921 7.54 2.768-.033 5.313-1.4 6.903-3.66l5.25 3.596zM98.136 30.061H91.36v37.062h6.776V30.061zM116.078 61.937a8.069 8.069 0 008.144-7.794c-.223-4.327-3.817-7.73-8.144-7.73-4.326 0-7.921 3.404-8.144 7.73.159 4.39 3.786 7.858 8.144 7.794zm.032-21.314a13.862 13.862 0 0110.148 3.69c2.768 2.545 4.359 6.076 4.486 9.83a14.074 14.074 0 01-4.486 9.83c-2.768 2.545-6.426 3.881-10.148 3.69-8.144 0-14.698-5.885-14.698-13.52-.031-7.603 6.49-13.52 14.698-13.52zM129.631 41.164h7.953l6.458 13.87 6.967-13.87h7.381l-14.348 27.55-14.411-27.55zM177.668 50.549c-1.05-2.545-3.563-4.231-6.299-4.2-2.863-.031-5.504 1.591-6.713 4.2h13.012zm4.358 13.647a15.672 15.672 0 01-9.989 3.5c-8.144 0-14.698-5.886-14.698-13.52 0-3.69 1.496-7.222 4.168-9.767 2.672-2.545 6.267-3.913 9.925-3.754a13.042 13.042 0 019.672 3.817c2.545 2.545 3.912 6.077 3.785 9.672v1.94h-20.837a8.16 8.16 0 007.921 5.822 7.714 7.714 0 005.949-2.545l4.104 4.835zm6.14-11.643c0-6.204 4.74-11.39 12.375-11.39v6.077a5.278 5.278 0 00-4.263 1.75 5.546 5.546 0 00-1.4 4.39v13.743h-6.712v-14.57zM30.692 42.183a10.5 10.5 0 00-6.457-9.766c-3.913-1.655-8.463-.764-11.485 2.226a10.54 10.54 0 00-2.322 11.485 10.531 10.531 0 009.735 6.522h10.53V42.183zm3.054 0a10.5 10.5 0 016.459-9.766c3.913-1.655 8.462-.764 11.484 2.226a10.54 10.54 0 012.322 11.485 10.531 10.531 0 01-9.734 6.522h-10.53V42.183zm0 23.955a10.5 10.5 0 006.459 9.767 10.521 10.521 0 0011.484-2.227 10.54 10.54 0 002.322-11.485 10.531 10.531 0 00-9.734-6.521h-10.53v10.466zm-13.552 7.508c4.168 0 7.54-3.34 7.572-7.508V58.63h-7.572c-4.135 0-7.507 3.372-7.507 7.508a7.501 7.501 0 007.507 7.508zm10.498-7.508a10.5 10.5 0 01-6.457 9.767 10.521 10.521 0 01-11.485-2.227 10.54 10.54 0 01-2.322-11.485 10.531 10.531 0 019.735-6.521h10.53v10.466z" fill="#F0EBEB"/></svg>