<svg xmlns="http://www.w3.org/2000/svg" id="omnium-solutions" width="119" height="45" viewBox="0 0 119 45" fill="none" aria-labelledby="omniumTitle">
<title id="omniumTitle">Omnium Solutions</title>
<path d="M60.2165 3.31006C57.6879 3.31006 56.5242 4.63034 56.5242 8.23313V16.7142C56.5242 20.317 57.6879 21.6597 60.2165 21.6597C62.7676 21.6597 63.9312 20.317 63.9312 16.7142V8.23313C63.9312 4.63034 62.7676 3.31006 60.2165 3.31006ZM62.2529 16.8261C62.2529 19.1982 61.8053 19.9814 60.2165 19.9814C58.6501 19.9814 58.2025 19.1982 58.2025 16.8261V8.12124C58.2025 5.77159 58.6501 4.98838 60.2165 4.98838C61.8053 4.98838 62.2529 5.77159 62.2529 8.12124V16.8261Z" fill="#0B0A09"/>
<path d="M73.8301 3.53384L70.4735 18.0569L67.1392 3.53384H65.4609V21.4359H67.1392V9.55341L69.7798 21.4359H71.1672L73.8301 9.55341V21.4359H75.5084V3.53384H73.8301Z" fill="#0B0A09"/>
<path d="M83.9346 3.53384V16.9828L78.6982 3.53384H77.0199V21.4359H78.6982V7.98698L83.9346 21.4359H85.6129V3.53384H83.9346Z" fill="#0B0A09"/>
<path d="M87.1366 3.53384V21.4359H88.815V3.53384H87.1366Z" fill="#0B0A09"/>
<path d="M97.7329 3.53384H96.0546V16.8261C96.0546 19.1982 95.6071 19.9814 94.0182 19.9814C92.4518 19.9814 92.0043 19.1982 92.0043 16.8261V3.53384H90.3259V16.7142C90.3259 20.317 91.4896 21.6597 94.0182 21.6597C96.5693 21.6597 97.7329 20.317 97.7329 16.7142V3.53384Z" fill="#0B0A09"/>
<path d="M107.632 3.53384L104.275 18.0569L100.941 3.53384H99.2626V21.4359H100.941V9.55341L103.581 21.4359H104.969L107.632 9.55341V21.4359H109.31V3.53384H107.632Z" fill="#0B0A09"/>
<path d="M51.8891 30.7769C50.5241 29.7252 49.6514 28.8077 49.6514 26.9951C49.6514 25.093 50.3227 24.5336 51.5087 24.5336C52.6947 24.5336 53.4779 25.093 53.4779 28.2259H55.1563C55.1563 24.5336 53.9926 22.8553 51.5087 22.8553C49.0248 22.8553 47.973 24.5336 47.973 26.9951C47.973 29.7028 49.3828 31.0231 50.9716 32.2315C52.7171 33.5518 53.5451 34.3797 53.5451 36.6846C53.5451 38.9671 52.9856 39.5266 51.7325 39.5266C50.0542 39.5266 49.4947 38.7434 49.4947 34.9168H47.8164C47.8164 39.5937 48.8458 41.2049 51.7325 41.2049C54.194 41.2049 55.2234 39.5266 55.2234 36.6846C55.2234 33.4846 53.8136 32.2091 51.8891 30.7769Z" fill="#0B0A09"/>
<path d="M60.2705 22.8553C57.7419 22.8553 56.5782 24.1755 56.5782 27.7783V36.2594C56.5782 39.8622 57.7419 41.2049 60.2705 41.2049C62.8216 41.2049 63.9852 39.8622 63.9852 36.2594V27.7783C63.9852 24.1755 62.8216 22.8553 60.2705 22.8553ZM62.3069 36.3713C62.3069 38.7434 61.8594 39.5266 60.2705 39.5266C58.7041 39.5266 58.2566 38.7434 58.2566 36.3713V27.6664C58.2566 25.3168 58.7041 24.5336 60.2705 24.5336C61.8594 24.5336 62.3069 25.3168 62.3069 27.6664V36.3713Z" fill="#0B0A09"/>
<path d="M67.1932 39.3028V23.079H65.5149V40.9811H70.8855V39.3028H67.1932Z" fill="#0B0A09"/>
<path d="M79.1269 23.079H77.4486V36.3713C77.4486 38.7434 77.001 39.5266 75.4122 39.5266C73.8458 39.5266 73.3982 38.7434 73.3982 36.3713V23.079H71.7199V36.2594C71.7199 39.8622 72.8836 41.2049 75.4122 41.2049C77.9633 41.2049 79.1269 39.8622 79.1269 36.2594V23.079Z" fill="#0B0A09"/>
<path d="M87.2882 23.079H80.3288V24.7574H82.9693V40.9811H84.6477V24.7574H87.2882V23.079Z" fill="#0B0A09"/>
<path d="M88.4787 23.079V40.9811H90.157V23.079H88.4787Z" fill="#0B0A09"/>
<path d="M95.3603 22.8553C92.8317 22.8553 91.668 24.1755 91.668 27.7783V36.2594C91.668 39.8622 92.8317 41.2049 95.3603 41.2049C97.9114 41.2049 99.075 39.8622 99.075 36.2594V27.7783C99.075 24.1755 97.9114 22.8553 95.3603 22.8553ZM97.3967 36.3713C97.3967 38.7434 96.9491 39.5266 95.3603 39.5266C93.7939 39.5266 93.3463 38.7434 93.3463 36.3713V27.6664C93.3463 25.3168 93.7939 24.5336 95.3603 24.5336C96.9491 24.5336 97.3967 25.3168 97.3967 27.6664V36.3713Z" fill="#0B0A09"/>
<path d="M107.519 23.079V36.528L102.283 23.079H100.605V40.9811H102.283V27.5322L107.519 40.9811H109.198V23.079H107.519Z" fill="#0B0A09"/>
<path d="M114.794 30.7769C113.429 29.7252 112.556 28.8077 112.556 26.9951C112.556 25.093 113.228 24.5336 114.414 24.5336C115.6 24.5336 116.383 25.093 116.383 28.2259H118.061C118.061 24.5336 116.898 22.8553 114.414 22.8553C111.93 22.8553 110.878 24.5336 110.878 26.9951C110.878 29.7028 112.288 31.0231 113.877 32.2315C115.622 33.5518 116.45 34.3797 116.45 36.6846C116.45 38.9671 115.891 39.5266 114.637 39.5266C112.959 39.5266 112.4 38.7434 112.4 34.9168H110.721C110.721 39.5937 111.751 41.2049 114.637 41.2049C117.099 41.2049 118.128 39.5266 118.128 36.6846C118.128 33.4846 116.719 32.2091 114.794 30.7769Z" fill="#0B0A09"/>
<circle cx="22.4667" cy="22.4667" r="21.2382" stroke="#0B0A09" stroke-width="1.54304"/>
<circle cx="22.4671" cy="26.5601" r="17.1449" stroke="#0B0A09" stroke-width="1.54304"/>
<circle cx="22.4675" cy="30.6534" r="13.0515" stroke="#0B0A09" stroke-width="1.54304"/>
<circle cx="22.4679" cy="34.7467" r="8.9582" stroke="#0B0A09" stroke-width="1.54304"/>
</svg>
