<svg width="100" height="100" fill="none" xmlns="http://www.w3.org/2000/svg"><path fill="#1B4ECC" d="M0 0H100V100H0z"/><g clip-path="url(#clip0)" fill="#FBF9F9"><path d="M80.731 33.752c0 3.036 1.615 3.747 3.747 3.747 2.261 0 3.532-1.056 3.532-3.984v-1.723l-1.787.021v2.11c0 1.616-.065 3.36-1.745 3.36-1.507 0-1.938-1.55-1.938-3.316-.021-4.738-.021-5.965 0-11.457 0-1.744.43-3.294 1.96-3.294 1.68 0 1.723 1.744 1.723 3.359v2.11h1.787v-1.7c0-2.93-1.249-3.985-3.51-3.985-2.154 0-3.769.71-3.769 3.747v11.005zm0 21.516c0 3.036 1.874 3.747 4.027 3.747 2.261 0 3.747-1.055 3.747-3.984v-4.974h-4.199v.538l2.39-.323c.022.667.022 4.845.022 4.996 0 1.83-.194 3.532-1.981 3.532-1.594 0-2.197-1.185-2.197-3.144-.021-4.781-.021-6.095 0-11.63 0-1.959.517-3.294 2.218-3.294 1.68 0 1.96 1.529 1.96 3.36v1.894h1.787v-1.485c0-2.908-1.486-3.984-3.747-3.984-2.153 0-4.027.71-4.027 3.747v11.004zm1.96 25.026v-7.881h1.766c.129 0 .344 0 .474-.022l2.024 7.903h1.852l-2.283-8.161c1.723-.625 1.852-2.864 1.852-4.846 0-3.402-.538-5.039-3.812-5.039h-3.682v18.046h1.809zm1.895-17.83c1.917 0 2.024 2.971 2.024 4.802 0 1.83-.172 4.953-2.024 4.953h-1.895v-9.755h1.895z"/><path fill-rule="evenodd" clip-rule="evenodd" d="M10.274 80.108c-.106-17.949-.062-39.234-.08-60.899 1.662-.066 4.033-.167 6.057 0 .209 20.787.006 40.055.242 58.96 3.68.337 7.493.15 11.308.162 16.128.053 32.551-.05 47.33.08.01.704.044.949 0 1.616-19.72.209-43.716.03-64.857.081z"/><path fill-rule="evenodd" clip-rule="evenodd" d="M74.889 72.354h-56.78c-.082-16.764-.162-35.314 0-53.226 2.1.054 4.178-.07 5.976.08.183 18.509.098 33.508.161 51.207 17.46.423 35.022-.01 50.723.242.362.204.065 1.066.161 1.534a.559.559 0 0 1-.241.163z"/><path fill-rule="evenodd" clip-rule="evenodd" d="M25.943 64.52c-.006-14.343-.2-29.084 0-45.392 1.793.076 4.095-.12 5.977.08.185 14.62.014 30.966.16 43.535 13.5.257 27.685.081 42.97.161.291.291-.03 1.007.08 1.615-16.31.153-33.777.218-49.187 0z"/><path fill-rule="evenodd" clip-rule="evenodd" d="M33.777 56.847c-.192-13.911-.101-24.656-.08-37.638 2.252-.155 4.098-.04 5.976 0 .315 10.314.093 23.607.161 35.78 11.14.324 22.7.054 35.215.162.075.43.225 1.393 0 1.615-12.552.21-27.193.136-41.272.081z"/><path fill-rule="evenodd" clip-rule="evenodd" d="M41.37 49.093c-.002-10.548.015-19.916 0-29.884 1.74-.128 4.101-.108 6.058 0 .23 8.953-.069 18.994.16 28.027 8.93.373 18.454.058 27.462.16.123.364.143 1.255 0 1.616-11.883.228-22.154.105-33.68.081z"/><path d="M66.57 41.42c-5.979 0-11.83.041-17.446-.08.044-7.535-.058-15.46 0-22.131 1.73-.113 3.786-.074 5.896 0 .242 6.954-.018 14.004.161 20.434 5.966.358 13.646.068 19.87.162.171.34.038.984.08 1.453a.575.575 0 0 1-.242.162h-8.32z"/><path fill-rule="evenodd" clip-rule="evenodd" d="M74.888 33.828c-6.132-.064-12.395.09-18.173-.081-.09-4.808.002-9.68-.08-14.538 1.935-.026 4.108-.144 5.976 0 .204 4.445-.006 9.011.161 12.761 4.138.267 8.018-.08 12.277.162.172.34.04.983.081 1.453a.408.408 0 0 1-.242.243z"/></g><defs><clipPath id="clip0"><path fill="#fff" transform="translate(10 19)" d="M0 0H80V61.687H0z"/></clipPath></defs></svg>