<svg width="554" height="448" viewBox="0 0 554 448" fill="none" xmlns="http://www.w3.org/2000/svg"><path d="M522.627 168.021H404.066v220.24h118.561v-220.24z" fill="url(#paint0_linear)"/><path d="M440.184 284.227l11.385-11.385 21.395 13.151 33.37-52.41" stroke="#fff" stroke-width="1.963" stroke-miterlimit="10" stroke-linecap="round" stroke-linejoin="round"/><path d="M296.301 82.045H174.992v342.531h121.309V82.046z" fill="url(#paint1_linear)"/><path d="M252.135 343.507l2.945-237.514h-38.67l2.945 237.514h32.78z" fill="#0B0A09"/><path d="M251.546 378.643h-31.603" stroke="#0B0A09" stroke-width="1.963" stroke-miterlimit="10" stroke-linecap="round" stroke-linejoin="round"/><path d="M251.743 367.651l.196-13.152h-32.388l.196 13.152h31.996zM199.137 116.593h73.217l-35.725-60.066-37.492 60.066zM283.149 21.783H174.992v8.834h108.157v-8.834zM296.301.976H174.992V9.81h121.309V.976z" fill="#0B0A09"/><path d="M352.834 353.714c5.889 18.451 16.096 48.68 16.096 48.68s-11.385 4.711-8.833 15.507h42.792c.392-.785-17.274-60.065-24.341-74.395-6.281 2.945-25.714 10.208-25.714 10.208z" fill="#fff" stroke="#0B0A09" stroke-width="1.963" stroke-miterlimit="10" stroke-linecap="round" stroke-linejoin="round"/><path d="M432.527 330.159c17.47 8.44 55.944 24.144 55.944 24.144s-2.356 13.151 11.385 18.451l14.329-37.492c-.196-.785-48.484-19.236-67.721-32.192-2.552 6.478-13.937 27.089-13.937 27.089z" fill="#0B0A09"/><path d="M440.772 338.795c4.515-9.225 12.563-23.555 17.274-32.584-44.362-24.34-68.506-74.002-75.965-123.861-14.133-3.729-28.07-7.851-41.614-12.955-.392.982-.785 1.963-.981 3.141-12.563 62.617-9.815 127.786 8.833 188.833 10.011-1.963 28.07-6.87 37.884-9.226-12.17-39.651-25.714-78.517-23.751-119.934 13.544 43.969 38.866 85.387 78.32 106.586z" fill="#0B0A09"/><path d="M440.381 337.422c-12.955-7.067-24.732-16.685-35.332-28.463v-55.354c13.348 23.359 30.818 41.221 51.821 52.999-1.963 3.729-4.318 8.244-6.87 12.955-3.533 6.281-7.067 12.759-9.619 17.863z" fill="#fff"/><path d="M406.029 257.138c12.956 21.789 29.64 38.473 49.466 49.858-1.767 3.534-4.122 7.656-6.478 12.17-3.14 5.889-6.477 11.974-9.029 17.078-12.367-6.87-23.751-16.292-33.959-27.481v-51.625zm-1.963-7.263v59.477c10.6 11.777 22.77 21.985 36.903 29.444 4.515-9.226 12.563-23.555 17.274-32.585-23.751-12.955-41.614-32.977-54.177-56.336z" fill="#0B0A09"/><path d="M366.77 392.972h28.855" stroke="#0B0A09" stroke-width="1.963" stroke-miterlimit="10" stroke-linecap="round" stroke-linejoin="round"/><path d="M490.236 325.251l-8.244 25.518" stroke="#fff" stroke-width="1.963" stroke-miterlimit="10" stroke-linecap="round" stroke-linejoin="round"/><path d="M368.93 402.59h6.477" stroke="#0B0A09" stroke-width="1.963" stroke-miterlimit="10" stroke-linecap="round" stroke-linejoin="round"/><path d="M488.473 354.303l2.355-4.122M356.955 205.513c.589 7.655 4.711 22.966 4.711 22.966" stroke="#fff" stroke-width="1.963" stroke-miterlimit="10" stroke-linecap="round" stroke-linejoin="round"/><path d="M286.683 63.005c-16.488-2.944-22.377 1.178-27.873 5.3-2.748 2.16-7.263 9.03-7.656 13.937" fill="#fff"/><path d="M286.683 63.005c-16.488-2.944-22.377 1.178-27.873 5.3-2.748 2.16-7.263 9.03-7.656 13.937" stroke="#0B0A09" stroke-width="1.963" stroke-miterlimit="10" stroke-linecap="round" stroke-linejoin="round"/><path d="M251.744 80.671c4.515-4.515 7.852-7.263 7.852-7.263z" fill="#fff"/><path d="M251.744 80.671c4.515-4.515 7.852-7.263 7.852-7.263" stroke="#0B0A09" stroke-width="1.963" stroke-miterlimit="10" stroke-linecap="round" stroke-linejoin="round"/><path d="M264.895 80.671l8.833-8.833 11.581 3.14-3.141 12.564-16.292-2.945-.981-3.926z" fill="#fff"/><path d="M263.521 78.316c-1.767 6.87-7.067 7.263-5.3 11.581 1.766 4.515 10.207-6.674 17.862-4.71" fill="#fff"/><path d="M263.521 78.316c-1.767 6.87-7.067 7.263-5.3 11.581 1.766 4.515 10.207-6.674 17.862-4.71" stroke="#0B0A09" stroke-width="1.963" stroke-miterlimit="10" stroke-linecap="round" stroke-linejoin="round"/><path d="M434.492 221.806c6.87 5.299 6.674 10.796 9.815 13.936 3.14 3.141 3.533-3.337 3.533-6.477 0-3.141 6.674 8.44 9.618 6.674 2.945-1.767-3.533-9.619-3.533-9.619s5.889 8.637 8.441 6.085c2.551-2.552-4.908-10.796-4.908-10.796s5.497 8.048 7.852 6.282c2.356-1.767-5.3-13.741-19.237-25.715" fill="#fff"/><path d="M434.492 221.806c6.87 5.299 6.674 10.796 9.815 13.936 3.14 3.141 3.533-3.337 3.533-6.477 0-3.141 6.674 8.44 9.618 6.674 2.945-1.767-3.533-9.619-3.533-9.619s5.889 8.637 8.441 6.085c2.551-2.552-4.908-10.796-4.908-10.796s5.497 8.048 7.852 6.282c2.356-1.767-5.3-13.741-19.237-25.715" stroke="#0B0A09" stroke-width="1.963" stroke-miterlimit="10" stroke-linecap="round" stroke-linejoin="round"/><path d="M434.491 221.805c-12.955-8.048-37.688-28.069-49.858-40.436-.197 2.159-.982 6.478-1.571 10.6-4.122-1.767-48.484-18.844-48.484-18.844l7.459-18.648c-.785-4.122 1.178-9.422 6.282-15.703-16.489-22.574-46.325-46.325-74.395-53.588l12.955-21.985c32.781 8.44 60.262 36.707 79.499 63.01l1.766 2.356c3.73 4.907 8.244 10.011 12.955 15.114 20.807 22.377 48.877 45.344 64.973 58.888l-11.581 19.236z" fill="#fff" stroke="#0B0A09" stroke-width="1.963" stroke-miterlimit="10" stroke-linecap="round" stroke-linejoin="round"/><path d="M445.876 202.373l-11.582 19.236c-7.655-4.711-19.432-13.74-30.425-22.966v-30.818h1.963c14.918 13.741 29.836 25.911 40.044 34.548z" fill="#0B0A09"/><path d="M386.792 99.907c-6.87.393-10.403 2.748-10.403 2.748l.589 2.552s-4.711 4.908-.589 9.815l-4.907 17.862c-.786-.981-1.767-2.159-2.552-3.337l-5.889 16.096 17.077-2.159.786-.196c-.197-.196 5.888-23.163 5.888-23.163.197 0 .786 0 .786-.196.196 0 .588-.196.981-.196h.196c.197 0 .393-.196.785-.196.393-.197.982-.393 1.375-.589.196-.197.588-.393.785-.589a16.966 16.966 0 003.533-3.141c5.889-6.87-1.767-15.703-8.441-15.31z" fill="#fff" stroke="#0B0A09" stroke-width="1.963" stroke-miterlimit="10" stroke-linecap="round" stroke-linejoin="round"/><path d="M386.597 114.041c-1.571-.785-1.374 4.319-.785 5.104.196.392 1.766 10.011 3.533 14.525 2.159 5.693 6.674 11.189 10.992 15.311 5.889 5.693 17.47 8.833 24.929 4.515 6.478-3.73 8.245-11.974 4.515-18.059-2.552-4.318-7.459-6.674-11.974-8.637-2.748-1.178-5.692-1.767-8.44-2.944-8.245-3.337-9.422-6.871-10.993-14.722-.196-.785-.785-1.178-1.374-1.374-1.178-4.515-5.889-8.245-10.207-7.852-.589 3.73 1.374 9.226 2.748 11.189 1.374 1.963-1.178 3.926-2.944 2.944z" fill="#0B0A09"/><path d="M175.19 196.288H53.88v228.288h121.31V196.288z" stroke="#0B0A09" stroke-width="1.963" stroke-miterlimit="10" stroke-linecap="round" stroke-linejoin="round"/><path d="M107.272 394.543l-1.57-36.511-36.118 2.356 11.778 10.796-20.807 22.966 14.133 12.759 20.807-22.966 11.777 10.6z" fill="url(#paint2_linear)"/><path d="M107.076 303.267l47.699 2.355 1.374-47.306-15.31 13.937-27.678-30.033-18.255 16.881 27.481 30.033-15.311 14.133z" fill="#fff" stroke="#0B0A09" stroke-width="1.963" stroke-miterlimit="10" stroke-linecap="round" stroke-linejoin="round"/><path d="M79.791 324.663l41.81-2.945 1.767 57.71h23.162l12.956 31.996M62.125 342.525l.589-67.721 20.807 1.178 16.685-51.821 23.162 4.711 11.189-26.696" stroke="#0B0A09" stroke-width="1.963" stroke-miterlimit="10" stroke-linecap="round" stroke-linejoin="round"/><path d="M145.943 244.968a8.834 8.834 0 10-.001-17.667 8.834 8.834 0 00.001 17.667z" fill="#0B0A09"/><path d="M79.791 346.647a5.888 5.888 0 10-5.889-5.888 5.888 5.888 0 005.89 5.888z" fill="url(#paint3_linear)"/><path d="M139.833 355.743l-8.159 4.711 4.711 8.159 8.159-4.711-4.711-8.159z" fill="#fff" stroke="#0B0A09" stroke-width="1.963" stroke-miterlimit="10" stroke-linecap="round" stroke-linejoin="round"/><path d="M137.305 324.074h16.881M137.305 332.514h16.881" stroke="#0B0A09" stroke-width="1.963" stroke-miterlimit="10" stroke-linecap="round" stroke-linejoin="round"/><path d="M77.12 120.392l-75.8 33.902 40.073 89.598 75.8-33.902-40.073-89.598z" fill="#fff" stroke="#0B0A09" stroke-width="1.963" stroke-miterlimit="10" stroke-linecap="round" stroke-linejoin="round"/><path d="M30.521 173.518l45.54-20.218" stroke="#0B0A09" stroke-width="1.963" stroke-miterlimit="10" stroke-linecap="round" stroke-linejoin="round"/><path d="M76.65 174.499c2.552-1.178 4.908-2.159 7.46-3.337z" fill="#fff"/><path d="M76.65 174.499c2.552-1.178 4.908-2.159 7.46-3.337" stroke="#0B0A09" stroke-width="1.963" stroke-miterlimit="10" stroke-linecap="round" stroke-linejoin="round"/><path d="M38.373 191.576c8.44-3.729 16.881-7.459 25.322-11.384z" fill="#fff"/><path d="M38.373 191.576c8.44-3.729 16.881-7.459 25.322-11.384M39.158 434.587h323.883M387.969 434.586h164.1M56.04 435.176v10.207M110.217 435.176v10.207M164.393 435.176v10.207M218.57 435.176v10.207M272.746 435.176v10.207M326.922 435.176v10.207M460.992 435.176v10.207M514.973 435.176v10.207M422.713 361.566l1.767 5.299M391.504 329.374l4.515 3.533M313.967 385.71l-6.281 12.366M250.565 52.013l-7.067-8.048M266.662 50.246l.785-9.815M32.877 367.847l-6.281 1.767" stroke="#0B0A09" stroke-width="1.963" stroke-miterlimit="10" stroke-linecap="round" stroke-linejoin="round"/><defs><linearGradient id="paint0_linear" x1="463.691" y1="155.505" x2="332.409" y2="350.813" gradientUnits="userSpaceOnUse"><stop stop-color="#22D6B8"/><stop offset=".169" stop-color="#25D7B9"/><stop offset=".307" stop-color="#2FD8BC"/><stop offset=".434" stop-color="#40DCC2"/><stop offset=".555" stop-color="#59E0C9"/><stop offset=".671" stop-color="#78E6D4"/><stop offset=".784" stop-color="#9EEDE0"/><stop offset=".892" stop-color="#CAF5EE"/><stop offset=".997" stop-color="#FDFFFE"/><stop offset="1" stop-color="#fff"/></linearGradient><linearGradient id="paint1_linear" x1="235.999" y1="62.58" x2="15.55" y2="278.34" gradientUnits="userSpaceOnUse"><stop stop-color="#22D6B8"/><stop offset=".169" stop-color="#25D7B9"/><stop offset=".307" stop-color="#2FD8BC"/><stop offset=".434" stop-color="#40DCC2"/><stop offset=".555" stop-color="#59E0C9"/><stop offset=".671" stop-color="#78E6D4"/><stop offset=".784" stop-color="#9EEDE0"/><stop offset=".892" stop-color="#CAF5EE"/><stop offset=".997" stop-color="#FDFFFE"/><stop offset="1" stop-color="#fff"/></linearGradient><linearGradient id="paint2_linear" x1="84.049" y1="355.255" x2="63.213" y2="410.294" gradientUnits="userSpaceOnUse"><stop stop-color="#22D6B8"/><stop offset=".169" stop-color="#25D7B9"/><stop offset=".307" stop-color="#2FD8BC"/><stop offset=".434" stop-color="#40DCC2"/><stop offset=".555" stop-color="#59E0C9"/><stop offset=".671" stop-color="#78E6D4"/><stop offset=".784" stop-color="#9EEDE0"/><stop offset=".892" stop-color="#CAF5EE"/><stop offset=".997" stop-color="#FDFFFE"/><stop offset="1" stop-color="#fff"/></linearGradient><linearGradient id="paint3_linear" x1="79.825" y1="334.201" x2="74.974" y2="347.608" gradientUnits="userSpaceOnUse"><stop stop-color="#22D6B8"/><stop offset=".169" stop-color="#25D7B9"/><stop offset=".307" stop-color="#2FD8BC"/><stop offset=".434" stop-color="#40DCC2"/><stop offset=".555" stop-color="#59E0C9"/><stop offset=".671" stop-color="#78E6D4"/><stop offset=".784" stop-color="#9EEDE0"/><stop offset=".892" stop-color="#CAF5EE"/><stop offset=".997" stop-color="#FDFFFE"/><stop offset="1" stop-color="#fff"/></linearGradient></defs></svg>