<svg fill="none" height="738" viewBox="0 0 810 738" width="810" xmlns="http://www.w3.org/2000/svg" xmlns:xlink="http://www.w3.org/1999/xlink"><linearGradient id="a"><stop offset=".00540541" stop-color="#4adec5"/><stop offset=".3893" stop-color="#4adec5"/><stop offset=".5276" stop-color="#53dfc8"/><stop offset=".6262" stop-color="#5be1cb"/><stop offset=".7059" stop-color="#68e3cf"/><stop offset=".7742" stop-color="#7ee7d6"/><stop offset=".8347" stop-color="#93ebdd"/><stop offset=".8894" stop-color="#adf0e5"/><stop offset=".9397" stop-color="#d0f6f0"/><stop offset=".9844" stop-color="#f2fdfb"/><stop offset="1" stop-color="#fff"/></linearGradient><linearGradient id="b" gradientUnits="userSpaceOnUse" x1="163" x2="308.972" xlink:href="#a" y1="398" y2="377.511"/><linearGradient id="c" gradientUnits="userSpaceOnUse" x1="689.816" x2="269.314" xlink:href="#a" y1="104.777" y2="545.848"/><path d="m482.883 367.068c-.289 0-.577-.096-.802-.32l-87.342-87.342c-.449-.449-.449-1.155 0-1.572l174.877-174.909-18.501-18.5005c-.321-.3207-.417-.8016-.224-1.2505.192-.4169.577-.7375 1.058-.6734l120.496 5.4188c.577.0321 1.026.481 1.058 1.0581l5.419 120.4965c.032.449-.257.898-.673 1.058-.417.192-.898.096-1.251-.224l-18.501-18.501-174.877 174.877c-.16.288-.449.384-.737.384zm-85.771-88.464 85.771 85.771 174.877-174.877c.417-.417 1.154-.417 1.571 0l17.25 17.251-5.226-116.6171-116.617-5.2265 17.251 17.2506c.449.449.449 1.154 0 1.571z" fill="#0b0a09"/><path d="m723.618 386.339c-.032-.577-.481-1.026-1.059-1.058l-64.352-2.886c-.449-.032-.898.256-1.058.673-.192.417-.096.93.224 1.251l14.557 14.557-103.406 103.406c-.449.449-.449 1.154 0 1.571l36.553 36.553c.225.225.481.321.802.321.32 0 .577-.128.801-.321l103.407-103.406 14.557 14.557c.32.321.833.417 1.25.224.417-.192.673-.609.673-1.058z" fill="#0b0a09"/><path d="m429.078 108.761c-.032-.577-.481-1.026-1.058-1.058l-29.435-1.315c-.481-.096-.898.225-1.058.674-.192.416-.096.897.225 1.25l6.22 6.22-46.878 46.878c-.448.449-.448 1.154 0 1.571l16.738 16.738c.224.224.481.32.801.32.321 0 .578-.128.802-.32l46.878-46.878 6.22 6.22c.321.321.834.417 1.25.225.417-.193.674-.609.674-1.058z" fill="#0b0a09"/><path d="m356.455 618.161-84.841-12.537 4.617 15.519-104.977 7.311 74.709 23.31z" fill="url(#b)"/><path d="m583.983 410.9c0 102.733-83.27 186.003-186.003 186.003s-186.003-83.27-186.003-186.003 83.27-186.035 186.003-186.035 186.003 63.999 186.003 186.035z" fill="url(#c)"/><path d="m303.779 482.223-116.763 35.488 4.084 13.437 116.763-35.488z" fill="#0b0a09"/><path d="m302.773 527.499-103.234 31.376 4.084 13.437 103.234-31.376z" fill="#0b0a09"/><path d="m416.782 533.801-18.087-6.925-6.925 18.086 18.086 6.926z" fill="#0b0a09"/><path d="m452.302 493.021-30.646 22.787 20.243 27.224 30.646-22.787z" fill="#fff"/><g fill="#0b0a09"><path d="m150.156 613.031c-.129 0-.257-.032-.385-.064l-10.261-3.848c-.577-.224-.865-.865-.641-1.443.225-.577.866-.865 1.443-.641l10.261 3.848c.577.224.865.866.641 1.443-.193.449-.609.705-1.058.705z"/><path d="m177.412 602.546c-.128 0-.257-.032-.385-.064l-46.974-18.02c-.577-.224-.865-.866-.641-1.443.225-.577.866-.866 1.443-.641l46.974 18.02c.577.224.865.866.641 1.443-.192.449-.609.705-1.058.705z"/><path d="m173.852 655.323c-.481 0-.898-.288-1.058-.769-.192-.577.128-1.219.737-1.411l12.185-3.848c.577-.192 1.218.129 1.411.738.192.577-.129 1.218-.738 1.411l-12.184 3.847c-.128 0-.257.032-.353.032z"/><path d="m474.679 478.907c-.225 0-.417-.064-.609-.192-.513-.353-.642-1.026-.321-1.539l5.13-7.727c.353-.513 1.026-.642 1.539-.321.513.353.642 1.026.321 1.539l-5.13 7.727c-.193.353-.545.513-.93.513z"/><path d="m503.825 516.615c-.129 0-.225-.032-.353-.065l-17.988-5.995c-.577-.193-.898-.834-.705-1.411.192-.577.833-.898 1.41-.706l17.988 5.996c.577.193.898.834.706 1.411-.161.481-.577.77-1.058.77z"/><path d="m371.815 525.208c-.16 0-.321-.032-.449-.096-.577-.257-.802-.898-.577-1.475l3.431-7.728c.256-.577.898-.801 1.475-.577.577.257.801.898.577 1.475l-3.431 7.727c-.192.417-.577.674-1.026.674z"/><path d="m655.261 224.8c-.064 0-.128 0-.192-.032-.61-.096-.994-.705-.898-1.282l2.02-11.094c.096-.609.705-.994 1.283-.898.609.096.994.705.897 1.283l-2.02 11.094c-.064.577-.545.929-1.09.929z"/><path d="m610.242 343.117c-16.705-16.802-37.355-35.335-63.968-45.339-29.915-11.222-63.23-7.086-89.137 11.094-16.449 11.543-29.115 26.581-41.363 41.138-6.22 7.407-12.665 15.07-19.591 22.221-7.247 7.535-13.082 12.793-21.098 12.825-.449-.32-1.187-.545-2.148-.737-.353-.064-.77-.193-1.187-.161-2.437-1.218-4.745-2.501-6.829-4.04-2.726-2.052-8.53-8.048-10.453-10.549-8.113-10.773-22.702-17.956-36.938-9.587-6.381 3.72-11.543 11.287-13.146 19.271-1.347 6.701-.096 13.05 3.495 17.859 12.633 16.802 37.034 42.196 68.873 42.196 5.194 0 10.613-.673 16.192-2.18 26.453-7.118 43.736-28.216 60.473-48.641 2.758-3.399 5.515-6.733 8.305-10.004 15.871-18.693 33.474-35.655 54.444-32.897 25.17 3.27 44.569 23.759 61.691 41.843l2.886 3.046c.257.257.577.385.93.353s.641-.225.834-.545c9.074-15.263 18.468-30.621 27.863-45.724.289-.513.225-1.09-.128-1.442z"/><path d="m627.269 316.183c-20.425-21.387-42.87-43.222-72.881-54.509-29.916-11.222-63.231-7.086-89.138 11.094-16.449 11.543-29.114 26.581-41.363 41.138-6.22 7.407-12.665 15.07-19.591 22.221-7.214 7.471-12.986 12.825-20.938 12.825-.064 0-.128 0-.16 0-.449-.32-1.186-.545-2.148-.737-.353-.064-.77-.193-1.187-.161-2.404-1.218-4.745-2.468-6.829-4.04-2.726-2.052-8.529-8.048-10.453-10.549-8.112-10.773-22.701-17.923-36.938-9.587-6.38 3.72-11.543 11.287-13.146 19.271-1.347 6.701-.096 13.05 3.495 17.859 12.633 16.802 37.034 42.196 68.873 42.196 5.195 0 10.614-.673 16.193-2.18 26.452-7.118 43.735-28.248 60.472-48.641 2.758-3.367 5.515-6.733 8.273-10.004 15.872-18.693 33.443-35.655 54.444-32.898 25.171 3.271 44.569 23.76 61.692 41.844l3.527 3.719c2.789 2.918 5.931 5.131 9.266 6.509.513.193 1.09.032 1.379-.449 8.689-14.172 17.859-28.825 27.222-43.51.353-.481.289-1.026-.064-1.411z"/></g><path d="m581.578 389.641 17.122 18.181 58.966-88.369s-10.293-8.881-22.22 4.201l-8.978-6.734z" fill="#fff"/><path d="m598.667 408.944c-.32 0-.609-.128-.801-.353l-17.122-18.18c-.353-.353-.417-.93-.129-1.347l44.89-72.689c.16-.256.417-.449.737-.513.289-.064.61 0 .866.193l8.176 6.124c12.217-12.665 22.958-3.655 23.054-3.559.417.352.513.994.193 1.475l-58.966 88.368c-.192.289-.481.449-.834.481 0 0-.032 0-.064 0zm-15.711-19.431 15.551 16.545 57.619-86.316c-2.501-1.635-10.549-5.515-19.848 4.681-.384.417-1.026.481-1.507.129l-8.016-5.996z" fill="#0b0a09"/><path d="m639.515 346.291s-10.293-8.882-22.221 4.2l-8.978-6.733z" fill="#fff"/><path d="m617.297 351.614c-.225 0-.481-.064-.674-.225l-8.977-6.733c-.481-.353-.61-1.058-.225-1.571.353-.481 1.058-.61 1.571-.225l8.176 6.124c12.217-12.665 22.958-3.655 23.054-3.559.449.385.514 1.09.129 1.571s-1.09.513-1.571.129c-.385-.321-9.652-7.984-20.65 4.104-.224.288-.513.385-.833.385z" fill="#0b0a09"/><path d="m609.439 345.008c-.289 0-.577-.096-.802-.32-16.513-16.642-36.938-34.982-63.166-44.826-29.242-10.966-61.787-6.926-87.086 10.838-12.761 8.946-23.022 19.719-34.5 33.122-.385.481-1.091.513-1.572.128s-.513-1.09-.128-1.571c11.575-13.531 21.932-24.401 34.886-33.507 25.907-18.18 59.222-22.316 89.138-11.094 26.613 9.972 47.262 28.505 63.967 45.339.449.448.417 1.154 0 1.571-.16.224-.449.32-.737.32z" fill="#fff"/><path d="m612.68 362.195c-.16 0-.288-.032-.449-.097-.577-.256-.833-.897-.577-1.474l4.617-10.582c.257-.577.898-.833 1.475-.577.577.257.834.898.577 1.475l-4.617 10.581c-.192.417-.609.674-1.026.674z" fill="#0b0a09"/><path d="m631.726 332.151c-.16 0-.353-.032-.513-.129-.545-.288-.77-.961-.481-1.507l3.719-7.374c.289-.545.962-.77 1.507-.481.545.288.77.962.481 1.507l-3.719 7.374c-.193.385-.577.61-.994.61z" fill="#0b0a09"/><path d="m458.549 166.188c6.669 7.887 6.476 12.408-.129 15.871-6.701 3.527-6.861-4.617-6.861-4.617z" fill="#fff"/><path d="m455.407 184.079c-.801 0-1.539-.192-2.18-.577-2.629-1.571-2.789-5.579-2.789-6.028 0-.609.48-1.122 1.09-1.122.609-.096 1.122.481 1.122 1.09.032.898.353 3.367 1.699 4.136.802.481 1.988.321 3.527-.481 2.598-1.378 4.04-2.853 4.361-4.553.449-2.308-1.058-5.451-4.553-9.619-.385-.481-.353-1.186.128-1.571s1.187-.353 1.571.128c4.04 4.778 5.644 8.433 5.066 11.511-.481 2.405-2.276 4.393-5.515 6.092-1.314.642-2.468.994-3.527.994z" fill="#0b0a09"/><path d="m453.741 160.384c5.771 4.136 6.861 10.26-.321 15.808-7.214 5.547-7.471-3.111-7.471-3.111z" fill="#fff"/><path d="m449.283 179.174c-.577 0-1.09-.129-1.603-.353-2.661-1.251-2.853-5.259-2.886-5.708-.032-.609.449-1.122 1.091-1.154.609.032 1.122.449 1.154 1.09.032.802.385 3.207 1.603 3.752.866.417 2.309-.128 4.072-1.475 3.046-2.373 4.65-4.938 4.617-7.407-.032-2.373-1.507-4.649-4.232-6.605-.513-.353-.609-1.058-.256-1.539.352-.513 1.058-.609 1.571-.257 3.334 2.373 5.13 5.291 5.162 8.369.032 2.244-.866 5.675-5.483 9.234-1.796 1.379-3.399 2.053-4.81 2.053z" fill="#0b0a09"/><path d="m423.566 204.664c-6.541-4.264-13.274-8.304-19.655-12.825-9.235 16.994-15.776 36.168-22.894 54.893-6.284 16.609-15.23 32.289-30.717 41.715-14.525 8.818-30.91 11.992-47.647 11.736-1.892 14.557-2.405 29.242-2.79 43.96 43.19 1.603 85.996-16.545 109.018-54.221 11.767-19.238 17.603-41.362 25.651-62.236 1.507-3.944 3.303-8.112 5.355-12.216-5.419-3.623-10.87-7.247-16.321-10.806z" fill="#fff"/><path d="m305.316 345.361c-1.828 0-3.655-.032-5.483-.096-.609-.032-1.09-.545-1.058-1.154.353-14.237.866-29.371 2.79-44.056.064-.577.545-.962 1.122-.962 18.148.288 33.988-3.623 47.038-11.575 13.018-7.92 22.637-21.002 30.268-41.17 1.218-3.207 2.405-6.445 3.623-9.652 5.708-15.358 11.639-31.23 19.335-45.37.16-.289.417-.481.737-.545.321-.064.642 0 .898.192 4.233 2.982 8.689 5.836 13.018 8.561 2.212 1.411 4.425 2.79 6.605 4.233 5.451 3.559 10.934 7.182 16.353 10.837.481.321.641.93.385 1.411-1.892 3.751-3.656 7.824-5.323 12.12-2.212 5.74-4.297 11.671-6.285 17.411-5.322 15.23-10.837 30.974-19.43 45.018-21.227 34.533-60.024 54.797-104.593 54.797zm-4.297-2.309c45.563 1.411 85.515-18.693 106.934-53.707 8.465-13.851 13.948-29.467 19.238-44.601 2.02-5.771 4.104-11.703 6.317-17.475 1.539-4.008 3.206-7.855 4.97-11.414-5.163-3.463-10.357-6.894-15.519-10.261-2.181-1.411-4.361-2.821-6.573-4.2-4.008-2.533-8.113-5.162-12.089-7.92-7.31 13.723-13.05 29.114-18.597 43.992-1.218 3.238-2.404 6.445-3.623 9.683-7.823 20.649-17.731 34.084-31.198 42.26-13.21 8.016-29.114 12.121-47.262 11.928-1.732 13.884-2.245 28.184-2.598 41.715z" fill="#0b0a09"/><path d="m403.914 191.839c9.683-17.283 23.984-28.633 36.008-36.553 12.954-8.561 23.535-13.05 25.715-9.876 2.02 2.918-15.198 13.82-18.34 19.463z" fill="#fff"/><path d="m403.914 192.961c-.192 0-.384-.032-.545-.128-.545-.289-.737-.994-.417-1.507 10.293-18.405 25.684-29.884 36.361-36.938 8.689-5.739 23.759-14.589 27.254-9.587 1.636 2.341-1.923 5.547-8.913 11.447-3.784 3.206-8.081 6.861-9.395 9.202-.289.545-.962.738-1.507.449s-.738-.962-.449-1.507c1.507-2.693 5.771-6.317 9.876-9.812 3.398-2.885 8.561-7.278 8.465-8.561-1.091-1.507-8.433-.128-24.145 10.261-10.485 6.926-25.587 18.18-35.623 36.168-.192.321-.577.513-.962.513z" fill="#0b0a09"/><path d="m428.41 169.458c21.323-9.331 28.377-7.984 26.581-4.521-1.795 3.463-15.262 5.964-15.006 12.826.257 6.861-2.597 11.671-2.597 11.671z" fill="#fff"/><path d="m437.389 190.524c-.192 0-.384-.064-.577-.16-.545-.321-.705-.994-.385-1.539.033-.032 2.662-4.65 2.437-11.062-.192-5.002 5.451-7.792 9.972-10.068 2.277-1.155 4.649-2.309 5.162-3.303.033-.064.225-.417.097-.513-.834-.898-6.99-1.411-25.267 6.573-.577.257-1.218 0-1.475-.577-.256-.577 0-1.218.578-1.475 15.07-6.605 25.202-8.818 27.767-6.06.737.802.834 1.924.256 3.078-.833 1.635-3.302 2.854-6.156 4.265-4.168 2.084-8.882 4.424-8.753 7.983.256 7.119-2.63 12.057-2.758 12.281-.16.385-.513.577-.898.577z" fill="#0b0a09"/><path d="m439.922 215.47c11.992-14.91 10.036-24.978 20.04-34.405z" fill="#fff"/><path d="m439.92 216.592c-.256 0-.481-.096-.705-.256-.481-.385-.545-1.091-.16-1.571 5.835-7.247 8.336-13.403 10.549-18.822 2.34-5.772 4.392-10.774 9.619-15.711.449-.417 1.154-.385 1.571.032.417.449.385 1.154-.032 1.571-4.874 4.585-6.83 9.362-9.074 14.91-2.245 5.579-4.81 11.863-10.87 19.366-.256.353-.577.481-.898.481z" fill="#0b0a09"/><path d="m295.44 306.532-10.901-1.668-14.237-30.781c7.952-9.555-.994-21.002-.994-21.002l1.411-4.906s-6.605-4.585-19.591-5.739c-12.986-1.155-28.505 15.615-16.673 29.691 5.354 6.381 10.613 9.427 15.743 9.94l19.142 42.998 52.585 8.657z" fill="#fff"/><path d="m321.925 334.876c-.064 0-.128 0-.192 0l-52.585-8.657c-.385-.064-.673-.289-.833-.641l-18.854-42.453c-5.419-.77-10.742-4.232-15.84-10.26-4.97-5.9-5.835-13.083-2.372-19.656 3.879-7.439 12.472-12.537 20.007-11.863 13.115 1.154 19.848 5.739 20.105 5.931.384.257.577.77.449 1.219l-1.251 4.361c1.603 2.308 7.888 12.505 1.09 21.386l13.691 29.595 10.293 1.571c.224.033.449.161.641.321l26.485 27.222c.321.353.417.866.193 1.283-.225.417-.61.641-1.027.641zm-51.815-10.773 48.673 8.016-23.855-24.529-10.517-1.603c-.385-.065-.674-.289-.834-.642l-14.236-30.781c-.193-.385-.129-.866.16-1.186 7.278-8.722-.673-19.175-1.026-19.592-.225-.288-.289-.641-.193-.994l1.187-4.072c-1.956-1.122-8.144-4.232-18.373-5.13-6.701-.577-14.364 4.008-17.859 10.677-1.764 3.367-3.816 10.101 2.116 17.187 4.906 5.835 9.94 9.042 15.006 9.555.384.032.737.288.897.641z" fill="#0b0a09"/><path d="m250.837 270.043c-3.43 1.539-8.304-2.181-5.643-5.868 2.79-3.816 6.798-14.813 5.579-22.028-1.154-14.076-16.705-2.565-16.128 6.83-.705.898-1.315 1.859-1.86 2.886-.897 3.975-1.924 6.573-2.469 10.965 0 .642.193 2.117.353 3.399.225.481.481.994.706 1.475-7.022 13.435-64.096-2.661-69.419 30.333-5.739 35.43 57.619 26.741 76.088 8.368 10.581-10.549 14.589-22.284 14.942-30.108.256-3.302-.129-7.15-2.149-6.252z" fill="#0b0a09"/><path d="m346.423 320.64c-2.244-10.742-11.094-11.062-21.963-15.583-14.686-7.664-27.447-6.028-39.92-.225l12.569 16.866-31.262-6.381c-37.323 23.15-32.289 35.912-6.509 57.587 28.665 24.048 55.919 38.99 55.919 38.99l62.557-67.206c0 .032-14.685-11.255-31.391-24.048z" fill="#fff"/><path d="m315.288 413.016c-.193 0-.353-.032-.545-.128-.289-.161-27.704-15.263-56.112-39.118-12.986-10.902-21.483-20.169-20.778-29.916.642-9.01 9.106-18.116 27.415-29.467.257-.16.545-.192.802-.16l28.408 5.771-10.837-14.493c-.193-.256-.257-.609-.193-.929.096-.321.321-.61.609-.738 14.558-6.797 27.576-6.701 40.914.225 2.245.929 4.425 1.699 6.573 2.436 7.76 2.694 13.884 4.81 15.872 13.499 16.577 12.666 31.07 23.792 31.07 23.792.256.192.417.481.417.801.032.321-.096.61-.289.866l-62.525 67.206c-.224.225-.513.353-.801.353zm-49.218-96.481c-17.379 10.838-25.395 19.335-25.972 27.511-.641 8.818 7.535 17.571 19.976 28.024 25.619 21.515 50.404 35.848 54.989 38.445l61.114-65.667c-3.527-2.726-16.256-12.473-30.428-23.311-.225-.16-.353-.384-.417-.673-1.636-7.824-7.022-9.683-14.525-12.28-2.149-.738-4.393-1.507-6.766-2.501-12.537-6.541-24.208-6.766-37.771-.802l11.735 15.743c.289.385.289.866.032 1.251-.256.385-.705.577-1.154.481z" fill="#0b0a09"/><path d="m510.237 433.826-18.02-94.108c-.096-.449-.417-.802-.801-.898-.353.866-.738 1.763-1.123 2.597l17.603 91.863-183.919 65.988-59.51-127.743 102.156-13.755c-.161-.738-.289-1.475-.449-2.181l-103.535 13.916c-.353.032-.673.257-.834.577-.16.321-.192.674-.032.994l60.569 130.084c.193.417.577.641 1.026.641.129 0 .257-.032.385-.064l185.779-66.661c.513-.16.801-.705.705-1.25z" fill="#0b0a09"/><path d="m324.362 500.23-72.337-155.222c-.224-.513-.801-.769-1.346-.577l-29.659 9.459c.224.705.48 1.411.737 2.116l28.665-9.138 71.92 154.292c.192.417.577.641 1.026.641.16 0 .32-.032.481-.096.513-.257.769-.93.513-1.475z" fill="#0b0a09"/><path d="m316.891 599.179c-.256 0-.481-.096-.673-.224-.289-.224-.449-.577-.417-.962l6.477-97.378c.032-.609.577-1.09 1.186-1.026.609.032 1.09.577 1.026 1.186l-6.348 95.743 240.96-76.44c.61-.193 1.219.128 1.411.737.193.577-.128 1.219-.737 1.411l-242.5 76.953c-.16 0-.289 0-.385 0z" fill="#0b0a09"/><path d="m353.411 619.38c-2.405 0-4.81-.577-6.99-1.732-3.624-1.859-6.285-5.034-7.503-8.914-2.533-8.015 1.923-16.609 9.907-19.142 8.016-2.533 16.61 1.924 19.143 9.94 1.218 3.88.865 8.016-.994 11.639-1.86 3.624-5.034 6.285-8.914 7.503-1.539.481-3.078.706-4.649.706zm.032-28.281c-1.315 0-2.63.193-3.944.61-6.83 2.18-10.646 9.49-8.465 16.352 1.058 3.303 3.334 6.028 6.413 7.631 3.078 1.604 6.605 1.892 9.939.834 3.303-1.058 6.028-3.335 7.632-6.413 1.603-3.078 1.891-6.605.865-9.94-1.795-5.515-6.925-9.074-12.44-9.074z" fill="#0b0a09"/><path d="m530.727 563.14c-6.477 0-12.473-4.137-14.558-10.646-1.218-3.879-.865-8.016.994-11.639 1.86-3.623 5.035-6.284 8.914-7.503 3.88-1.25 8.016-.898 11.639.994 3.624 1.86 6.285 5.034 7.536 8.914 2.533 8.016-1.924 16.609-9.908 19.142-1.539.513-3.078.738-4.617.738zm0-28.281c-1.315 0-2.662.193-3.944.609-3.303 1.059-6.028 3.335-7.632 6.413-1.603 3.078-1.891 6.605-.865 9.94 2.18 6.83 9.491 10.645 16.352 8.465 6.83-2.18 10.646-9.491 8.465-16.353-1.058-3.302-3.334-6.028-6.413-7.631-1.859-.962-3.911-1.443-5.963-1.443z" fill="#0b0a09"/><path d="m230.65 350.595-40.404 12.28 2.331 7.669 40.404-12.28z" fill="#0b0a09"/><path d="m448.289 458.258c-.513 0-.993-.384-1.09-.897l-20.937-108.409c-.129-.609.288-1.186.897-1.314.61-.129 1.187.288 1.315.897l20.938 108.409c.128.609-.289 1.186-.898 1.314-.096 0-.16 0-.225 0z" fill="#fff"/><path d="m384.738 480.415c-.417 0-.833-.257-1.026-.674l-52.585-116.841c-.256-.577 0-1.218.545-1.475.546-.256 1.219 0 1.475.545l52.585 116.841c.257.577 0 1.219-.545 1.475-.128.129-.288.129-.449.129z" fill="#fff"/><path d="m301.723 455.629c-.481 0-.898-.289-1.058-.77-.192-.577.128-1.218.738-1.41l198.796-63.07c.577-.193 1.219.128 1.411.737.192.577-.128 1.219-.737 1.411l-198.797 63.07c-.128 0-.225.032-.353.032z" fill="#fff"/><path d="m286.204 419.044c-.481 0-.898-.288-1.058-.769-.193-.577.128-1.219.737-1.411l205.915-65.347c.577-.192 1.218.129 1.411.738.192.577-.129 1.218-.738 1.411l-205.915 65.346c-.096 0-.224.032-.352.032z" fill="#fff"/><path d="m492.218 339.782c-.096-.609-.61-1.058-1.251-.962l-107.959 14.525c.096.737.192 1.475.32 2.212l107.928-14.525c.609-.096 1.026-.641.962-1.25z" fill="#fff"/><path d="m257.477 320.992c-23.695 15.038-49.827 36.65-59.959 63.615-11.062 29.435 6.381 59.671 37.386 64.513 28.217 4.393 58.164-12.569 81.86-26.196 11.767-6.766 22.38-15.231 34.084-21.996 1.603-.93 6.413-2.95 10.549-4.04.32-14.75.32-29.499.673-44.248-2.597.064-5.226.128-7.759.705-21.451 4.81-45.724 24.24-68.008 36.104-5.836 3.11-44.697 25.042-48.481 14.044-1.988-5.771 9.78-17.379 13.114-21.002 8.465-9.234 17.764-16.994 28.313-23.695z" fill="#fff"/><path d="m244.105 450.916c-3.142 0-6.284-.225-9.426-.706-15.006-2.34-27.832-10.869-35.142-23.406-7.375-12.666-8.529-28.185-3.111-42.613 8.465-22.541 28.794-44.12 60.409-64.16.513-.321 1.218-.193 1.539.352.321.513.16 1.219-.353 1.539-31.198 19.784-51.206 41.01-59.511 63.07-5.194 13.788-4.104 28.633 2.95 40.689 6.99 11.96 19.207 20.072 33.571 22.317 28.152 4.361 58.774-13.21 81.122-26.068 5.868-3.367 11.543-7.247 17.026-10.966 5.483-3.752 11.19-7.631 17.058-10.998 1.635-.93 5.996-2.79 10.004-3.944.128-6.381.192-12.761.289-19.142.096-7.567.192-15.391.352-23.118-2.052.064-4.264.192-6.38.641-14.173 3.174-29.884 13.018-45.114 22.541-7.471 4.681-15.231 9.523-22.605 13.467l-1.475.802c-24.209 13.114-39.054 18.308-45.403 15.839-1.603-.609-2.661-1.699-3.174-3.206-1.764-5.13 4.777-13.018 12.088-20.81.481-.513.898-.962 1.25-1.314 8.529-9.299 17.892-17.123 28.537-23.888.513-.321 1.219-.192 1.539.353.321.513.161 1.218-.352 1.539-10.517 6.669-19.688 14.364-28.088 23.503-.353.384-.77.833-1.251 1.346-3.591 3.816-13.178 13.98-11.607 18.533.321.898.93 1.507 1.892 1.86 3.879 1.507 14.557 0 43.543-15.711l1.475-.802c7.31-3.912 15.038-8.721 22.476-13.371 15.359-9.619 31.263-19.559 45.788-22.829 2.757-.609 5.547-.673 7.984-.738.256.032.609.097.801.321.225.224.321.513.321.802-.193 8.08-.289 16.288-.385 24.24-.064 6.669-.16 13.339-.288 20.008 0 .513-.353.93-.834 1.058-4.201 1.09-8.85 3.11-10.293 3.912-5.803 3.334-11.447 7.182-16.929 10.902-5.515 3.751-11.255 7.663-17.187 11.062-20.136 11.671-47.005 27.094-73.106 27.094z" fill="#0b0a09"/><path d="m405.517 361.585c-3.527-2.212-8.529-4.2-14.237-5.771 1.7-1.571 8.658-1.09 7.183-4.393-1.732-3.848-25.972-3.078-43.768 1.732l6.06 43.542c9.042-1.763 13.179-5.226 20.489-8.368 7.311-3.142 20.617 1.892 23.856-2.726 2.854-4.072-7.375-9.042-11.223-9.234 3.816 1.25 14.846 5.291 16.449 1.924 2.084-4.393-14.429-11.832-14.364-11.543.256 1.186 13.402 6.477 15.07 5.643 2.918-1.443 3.463-5.162-5.515-10.806z" fill="#fff"/><path d="m360.756 397.85c-.224 0-.449-.064-.641-.193-.257-.192-.417-.448-.449-.769l-6.06-43.543c-.064-.545.256-1.09.801-1.218 15.295-4.169 42.678-6.413 45.05-1.123.481 1.091.289 1.892.064 2.373-.705 1.443-2.725 1.924-4.681 2.373 4.521 1.443 8.369 3.11 11.254 4.938 5.419 3.399 8.081 6.509 7.952 9.266-.064 1.475-.962 2.726-2.501 3.495-.449.225-1.218.225-2.18.064 2.052 1.988 2.693 3.752 1.956 5.323-.866 1.828-3.271 2.212-6.317 1.796.545.545.962 1.154 1.251 1.763.673 1.379.577 2.726-.257 3.944-2.084 2.982-7.086 2.661-12.376 2.309-4.329-.289-8.786-.578-11.928.801-2.277.994-4.265 1.988-6.189 2.982-4.232 2.18-8.208 4.233-14.525 5.451-.096-.032-.16-.032-.224-.032zm-4.81-43.832 5.74 41.395c5.355-1.186 8.978-3.046 12.761-5.002 1.956-.994 3.976-2.052 6.349-3.046 3.655-1.571 8.369-1.251 12.954-.962 4.649.289 9.042.577 10.421-1.379.352-.513.384-1.026.064-1.667-.674-1.411-2.694-2.886-4.842-3.976-1.635-.481-3.302-1.026-4.97-1.571l-.93-.321c-.545-.192-.833-.705-.737-1.25s.609-.962 1.154-.898c1.443.064 3.816.77 6.092 1.892 6.862 1.956 8.882 1.507 9.267.641.064-.16.16-.449-.096-.962-.738-1.667-3.495-3.687-6.349-5.387-2.565-.994-4.649-1.956-4.713-1.988-2.854-1.378-3.175-1.956-3.303-2.501-.096-.481.128-.961.545-1.218.834-.449 4.778 1.507 8.337 3.687 3.014 1.155 6.028 2.117 6.861 1.924.738-.385 1.155-.93 1.187-1.571.032-.866-.545-3.27-6.926-7.278-3.367-2.117-8.176-4.073-13.916-5.612-.385-.096-.705-.416-.801-.801-.097-.385.032-.802.32-1.09.834-.77 2.277-1.123 3.816-1.475 1.09-.257 2.95-.674 3.206-1.187.032-.064 0-.256-.096-.481-1.026-2.565-22.317-2.918-41.395 2.084z" fill="#0b0a09"/></svg>